<svg width="100" height="100" viewBox="0 0 100 100" fill="none" xmlns="http://www.w3.org/2000/svg">
<g id="uuid-dd9946db-5b74-4577-8299-89abbd8d3e29" clip-path="url(#clip0_1448_2225)">
<g id="Group">
<path id="Vector" d="M25.5507 50C25.5507 49.8553 25.5347 49.7267 25.5347 49.582C25.5347 36.1093 36.0991 25.5466 49.606 25.5466C49.7508 25.5466 49.8794 25.5627 50.008 25.5627V0C49.8794 0 49.7347 0 49.606 0C21.7881 0 0 21.7846 0 49.582C0 49.7267 0 49.8553 0 50H25.5507Z" fill="black"/>
<path id="Vector_2" d="M74.4654 50C74.2563 63.8424 63.8527 74.2444 50.0081 74.4534V100C77.9386 99.791 99.791 77.9421 100 50H74.4493H74.4654Z" fill="black"/>
</g>
<path id="Vector_3" d="M49.8794 34.9679C41.518 34.9679 34.9735 41.5113 34.9735 49.8714C34.9735 58.2316 41.518 65.0322 49.8794 65.0322C58.2409 65.0322 65.0427 58.3763 65.0427 49.8714C65.0427 41.3666 58.3856 34.9679 49.8794 34.9679ZM57.3565 49.8714C57.3565 54.1319 54.1406 57.3473 49.8794 57.3473C45.6183 57.3473 42.6436 54.1319 42.6436 49.8714C42.6436 45.611 45.8273 42.6367 49.8794 42.6367C53.9315 42.6367 57.3565 45.82 57.3565 49.8714Z" fill="#FA198C"/>
</g>
<defs>
<clipPath id="clip0_1448_2225">
<rect width="100" height="100" fill="white"/>
</clipPath>
</defs>
</svg>
