<svg width="65" height="100" viewBox="0 0 65 100" fill="none" xmlns="http://www.w3.org/2000/svg">
<g id="uuid-5c4da418-8751-48b6-bbea-2ebe3a3918ca" clip-path="url(#clip0_1448_2217)">
<path id="Vector" d="M17.647 25.7568C29.8049 27.606 38.5218 37.588 38.5218 50.4009C38.5218 62.8048 29.7885 72.4431 17.647 74.2432V100C44.06 98.0036 64.1812 76.9432 64.1812 50.4009C64.1812 23.4332 44.0437 2.01276 17.647 0V25.7568Z" fill="black"/>
<path id="Vector_2" d="M14.8614 35.0515C6.53773 35.0515 0 41.5644 0 49.8772C0 58.1901 6.52134 64.9648 14.8614 64.9648C23.2016 64.9648 29.9523 58.3374 29.9523 49.8772C29.9523 41.4171 23.3163 35.0515 14.8614 35.0515ZM22.3168 49.8772C22.3168 54.1155 19.1216 57.3228 14.8614 57.3228C10.6013 57.3228 7.65193 54.1155 7.65193 49.8772C7.65193 45.639 10.8143 42.6935 14.8614 42.6935C18.9086 42.6935 22.3168 45.8517 22.3168 49.8772Z" fill="#FA198C"/>
</g>
<defs>
<clipPath id="clip0_1448_2217">
<rect width="64.1975" height="100" fill="white"/>
</clipPath>
</defs>
</svg>
