<svg width="126" height="100" viewBox="0 0 126 100" fill="none" xmlns="http://www.w3.org/2000/svg">
<g id="uuid-fb1ca0fb-f137-442c-8040-bcf8735a148a" clip-path="url(#clip0_1448_1953)">
<path id="Vector" d="M49.603 0C21.7867 0 0 21.7846 0 49.582C0 77.3794 21.7867 100 49.603 100C77.4193 100 100.01 77.8457 100.01 49.582C100.01 21.3183 77.8695 0 49.603 0ZM74.4769 49.582C74.4769 63.7781 63.7845 74.4695 49.603 74.4695C35.4215 74.4695 25.5331 63.7781 25.5331 49.582C25.5331 35.3859 36.0968 25.5466 49.603 25.5466C63.1092 25.5466 74.4769 36.1093 74.4769 49.582Z" fill="black"/>
<path id="Vector_2" d="M110.236 68.2153C101.875 68.2153 95.3311 74.7587 95.3311 83.1189C95.3311 91.479 101.875 98.2796 110.236 98.2796C118.597 98.2796 125.398 91.6237 125.398 83.1189C125.398 74.614 118.742 68.2153 110.236 68.2153ZM117.713 83.1189C117.713 87.3793 114.497 90.5947 110.236 90.5947C105.975 90.5947 103.001 87.3793 103.001 83.1189C103.001 78.8584 106.184 75.8841 110.236 75.8841C114.288 75.8841 117.713 79.0674 117.713 83.1189Z" fill="#FA198C"/>
</g>
<defs>
<clipPath id="clip0_1448_1953">
<rect width="125.382" height="100" fill="white"/>
</clipPath>
</defs>
</svg>
