<svg width="75" height="94" viewBox="0 0 75 94" fill="none" xmlns="http://www.w3.org/2000/svg">
<g id="Group">
<path id="Vector" d="M50.2097 69.2533C50.0484 69.2533 49.9032 69.2682 49.7581 69.2682C36 69.2682 25.6129 59.3236 25.6129 46.119C25.6129 33.5873 36.2097 23.7624 49.7581 23.7624C49.9194 23.7624 50.0645 23.7773 50.2097 23.7773V0C50.0645 0 49.9032 0 49.7581 0C21.8548 0 0 20.2631 0 46.119C0 72.4236 21.8548 93.0156 49.7581 93.0156C49.9194 93.0156 50.0645 93.0156 50.2097 93.0156V69.2533Z" fill="black"/>
<path id="Vector_2" d="M50.1611 23.4783V69.5524C63.8869 69.5524 74.9998 59.234 74.9998 46.5228C74.9998 33.8117 63.8869 23.4783 50.1611 23.4783Z" fill="#FA198C"/>
</g>
</svg>
