<svg width="100" height="100" viewBox="0 0 100 100" fill="none" xmlns="http://www.w3.org/2000/svg">
<g id="Icons-18" clip-path="url(#clip0_1448_1898)">
<g id="Group">
<path id="Vector" d="M49.8593 0C22.0458 0 0.26123 21.7846 0.26123 49.582C0.26123 77.8617 22.0458 100 49.8593 100C78.123 100 100.261 77.8457 100.261 49.582C100.261 21.7846 78.123 0 49.8593 0ZM74.7307 49.582C74.7307 63.7781 64.0394 74.4695 49.8593 74.4695C36.1455 74.4695 25.7918 63.7781 25.7918 49.582C25.7918 36.1093 36.3545 25.5466 49.8593 25.5466C63.8143 25.5466 74.7307 36.1093 74.7307 49.582Z" fill="black"/>
<path id="Vector_2" d="M50.1487 34.9678C41.7885 34.9678 35.2451 41.5112 35.2451 49.8713C35.2451 58.3761 41.7885 65.0321 50.1487 65.0321C58.6535 65.0321 65.3094 58.3761 65.3094 49.8713C65.2934 41.5273 58.6374 34.9678 50.1487 34.9678ZM57.6245 49.8874C57.6245 54.1478 54.4091 57.3633 50.1487 57.3633C46.0168 57.3633 42.9139 54.1478 42.9139 49.8874C42.9139 45.8359 46.0972 42.6527 50.1487 42.6527C54.3448 42.6527 57.6245 45.8199 57.6245 49.8874Z" fill="#FA198C"/>
</g>
</g>
<defs>
<clipPath id="clip0_1448_1898">
<rect width="100" height="100" fill="white"/>
</clipPath>
</defs>
</svg>
