<svg width="100" height="100" viewBox="0 0 100 100" fill="none" xmlns="http://www.w3.org/2000/svg">
<g id="Icons-15" clip-path="url(#clip0_1448_1915)">
<g id="Group">
<path id="Vector" d="M25.6791 46.3255C27.2291 34.4333 37.1684 25.538 49.5845 25.538C62.4161 25.538 72.691 34.4333 74.2889 46.3255H100C98.3381 20.102 76.7977 0 49.6005 0C22.8348 0 1.62991 20.102 0 46.3255H25.6791Z" fill="#FA198C"/>
<path id="Vector_2" d="M74.1932 53.6746C72.3395 65.774 62.3843 74.4621 49.5847 74.4621C37.2005 74.4621 27.5649 65.774 25.7751 53.6746H0.0161133C2.01356 79.9618 23.0586 100 49.5687 100C76.5102 100 97.9068 79.9618 99.9202 53.6746H74.1932Z" fill="black"/>
</g>
</g>
<defs>
<clipPath id="clip0_1448_1915">
<rect width="100" height="100" fill="white"/>
</clipPath>
</defs>
</svg>
