<svg width="100" height="84" viewBox="0 0 100 84" fill="none" xmlns="http://www.w3.org/2000/svg">
<g id="uuid-9b96594c-3336-4424-a508-f3e0d5cedd60" clip-path="url(#clip0_1448_2208)">
<path id="Vector" d="M67.5094 17.7644C77.1605 27.1526 76.9205 41.5696 66.9333 51.2848C57.4422 60.5173 42.5735 60.5173 33.0664 51.2848C23.2553 41.7409 22.9992 27.0281 32.4742 17.7955C32.5703 17.7021 32.6823 17.6087 32.7783 17.5153L14.8206 0C14.7246 0.0934149 14.6125 0.18683 14.5165 0.280245C-5.05778 19.3213 -4.8017 49.4009 15.0927 68.7534C34.6669 87.7945 65.3327 87.7945 84.907 68.7534C104.801 49.4009 105.057 19.3058 85.4832 0.264676C85.3872 0.171261 85.2911 0.0934149 85.1951 0L67.2053 17.4997C67.3014 17.5931 67.4134 17.671 67.5094 17.7644Z" fill="black"/>
<path id="Vector_2" d="M67.2055 17.4997C57.3303 8.17377 42.6856 8.17377 32.7944 17.4997L49.9999 34.2365L67.2055 17.4997Z" fill="#FA198C"/>
</g>
<defs>
<clipPath id="clip0_1448_2208">
<rect width="100" height="83.0303" fill="white"/>
</clipPath>
</defs>
</svg>
