<svg width="169" height="27" viewBox="0 0 169 27" fill="none" xmlns="http://www.w3.org/2000/svg">
<path fill-rule="evenodd" clip-rule="evenodd" d="M1.14656 11.8342C1.21947 11.8677 1.40665 11.7344 1.4007 11.8956C1.45936 12.1277 1.03467 12.1246 1.14656 11.8342Z" fill="black"/>
<path fill-rule="evenodd" clip-rule="evenodd" d="M167.936 6.74288C168.024 6.62702 168.448 6.60546 168.54 6.71215C168.466 7.06249 168.063 6.77356 167.936 6.74288Z" fill="black"/>
<path fill-rule="evenodd" clip-rule="evenodd" d="M86.8214 10.8681C87.0808 10.7559 87.0417 11.0673 87.2745 10.9812C87.1259 11.224 87.2181 11.3307 87.2864 11.5995L86.98 11.615C86.9568 11.3439 86.9696 11.071 86.8122 10.8562L86.8214 10.8681Z" fill="black"/>
<path fill-rule="evenodd" clip-rule="evenodd" d="M105.504 10.339C105.154 10.9508 103.73 10.1693 103.593 11.055C103.664 11.4351 104.209 11.098 104.402 11.2861C104.338 11.7349 103.664 11.4227 103.35 11.55C103.443 12.1889 104.346 11.6603 104.721 11.9011C104.601 12.229 104.13 12.1787 103.769 12.2218C103.445 12.2631 103.109 12.1688 102.914 12.4014C102.918 12.5992 103.089 12.5287 103.022 12.8168C102.735 12.9304 102.843 12.4545 102.662 12.4143C102.576 12.1711 102.833 12.3685 102.811 12.1963C102.725 11.9655 102.596 11.8112 102.352 11.7988C102.447 11.5959 102.904 11.8326 103.008 11.6293C103.044 11.1572 102.412 11.6349 102.299 11.3931C102.247 11.0245 102.917 11.1265 102.956 11.2854C103.037 11.2565 102.997 11.0605 103.152 11.1393C103.067 10.9332 102.964 10.7528 102.791 10.675C103.6 9.49522 104.564 10.7952 105.513 10.3262L105.504 10.339Z" fill="black"/>
<path fill-rule="evenodd" clip-rule="evenodd" d="M120.394 9.43314L120.547 9.42536L120.552 9.69738C120.382 9.78027 120.388 9.6067 120.394 9.43314Z" fill="black"/>
<path fill-rule="evenodd" clip-rule="evenodd" d="M121.263 10.0201L121.01 10.0329C120.921 9.61667 121.353 9.55755 121.263 10.0201Z" fill="black"/>
<path fill-rule="evenodd" clip-rule="evenodd" d="M49.3762 13.3914L49.5745 13.3813C49.5593 13.5306 49.4891 13.6331 49.3814 13.6634L49.3762 13.3914Z" fill="black"/>
<path fill-rule="evenodd" clip-rule="evenodd" d="M77.3919 11.9666L77.3972 12.2386L76.9466 12.2615C77.0054 12.0358 77.2679 12.0843 77.3919 11.9666Z" fill="black"/>
<path fill-rule="evenodd" clip-rule="evenodd" d="M124.442 9.99445C124.501 9.76869 124.279 9.95324 124.338 9.72748C124.556 9.80303 124.552 9.6052 124.687 9.5736C124.628 9.79936 124.85 9.61481 124.791 9.84057C124.656 9.87218 124.651 10.0705 124.442 9.99445Z" fill="black"/>
<path fill-rule="evenodd" clip-rule="evenodd" d="M93.8085 11.5524C93.7444 11.9764 93.4582 11.6444 93.2508 11.655C93.276 11.5547 93.6241 11.3513 93.8085 11.5524Z" fill="black"/>
<path fill-rule="evenodd" clip-rule="evenodd" d="M94.3599 11.5243L94.6124 11.5114C94.6523 11.7074 94.3036 11.8861 94.3599 11.5243Z" fill="black"/>
<path fill-rule="evenodd" clip-rule="evenodd" d="M107.484 10.8571C107.534 11.1268 107.316 11.0389 107.394 11.3444C106.989 11.4392 107.138 10.7262 107.484 10.8571Z" fill="black"/>
<path fill-rule="evenodd" clip-rule="evenodd" d="M116.419 10.4026C116.518 10.4223 116.635 10.4164 116.621 10.6027C116.486 10.6344 116.369 10.6403 116.419 10.4026Z" fill="black"/>
<path fill-rule="evenodd" clip-rule="evenodd" d="M106.329 10.99C106.6 10.9763 106.914 10.886 106.939 11.2313C106.696 11.2561 106.573 11.4356 106.385 11.5318C106.45 11.6522 106.674 11.5295 106.59 11.8679L106.139 11.8908C106.206 11.6275 106.439 11.529 106.226 11.2675C106.381 11.3339 106.314 11.1146 106.32 10.9905L106.329 10.99Z" fill="black"/>
<path fill-rule="evenodd" clip-rule="evenodd" d="M114.304 10.8567C114.303 11.2652 113.662 11.273 113.742 10.7492C113.966 10.6759 114.223 10.4276 114.304 10.8567Z" fill="black"/>
<path fill-rule="evenodd" clip-rule="evenodd" d="M114.453 10.5768C114.598 10.6189 114.601 10.8044 114.705 10.564C114.824 10.6693 114.979 10.7233 115.213 10.6743C115.215 10.7979 115.279 10.8195 115.272 10.9436C114.912 11.0114 114.807 10.7197 114.413 10.8511C114.41 10.7275 114.473 10.6995 114.462 10.5763L114.453 10.5768Z" fill="black"/>
<path fill-rule="evenodd" clip-rule="evenodd" d="M116.014 10.4975L116.267 10.4846C116.314 11.0516 116.971 10.9068 117.127 10.577C117.236 10.5963 117.31 10.6915 117.331 10.839L116.979 10.8569C116.94 11.1683 117.191 11.0689 117.187 11.329C116.617 11.3084 116.056 11.2627 116.005 10.4856L116.014 10.4975Z" fill="black"/>
<path fill-rule="evenodd" clip-rule="evenodd" d="M55.6968 13.7011C55.8516 13.7675 56.0061 13.8216 56.1518 13.8884C56.2135 14.2813 55.7756 14.0437 55.5967 14.127C55.5191 13.8463 55.7006 13.899 55.6878 13.7016L55.6968 13.7011Z" fill="black"/>
<path fill-rule="evenodd" clip-rule="evenodd" d="M85.1303 12.2041C85.2759 12.2586 85.3598 12.3904 85.3911 12.6116C85.1937 12.6836 85.2603 12.3831 85.0365 12.4935C84.9691 12.2742 85.198 12.4358 85.1306 12.2165L85.1303 12.2041Z" fill="black"/>
<path fill-rule="evenodd" clip-rule="evenodd" d="M105.069 11.1902C105.383 11.0628 105.398 11.3715 105.676 11.2954C105.644 11.5322 105.501 11.6014 105.331 11.6595C105.282 11.4516 105.013 11.5519 105.069 11.1902Z" fill="black"/>
<path fill-rule="evenodd" clip-rule="evenodd" d="M52.3691 14.0064C52.5753 13.9341 52.6327 14.1044 52.6282 14.3398C52.4569 14.3485 52.3385 14.2927 52.3691 14.0064Z" fill="black"/>
<path fill-rule="evenodd" clip-rule="evenodd" d="M93.2112 11.9293C93.3616 11.8103 93.3725 12.379 93.2179 12.2755L93.2112 11.9293Z" fill="black"/>
<path fill-rule="evenodd" clip-rule="evenodd" d="M93.4641 11.9165C93.6427 11.8332 93.6072 12.33 93.4153 12.1913C93.4129 12.0676 93.4755 12.0397 93.4641 11.9165Z" fill="black"/>
<path fill-rule="evenodd" clip-rule="evenodd" d="M134.143 9.84765C134.145 9.97129 134.209 9.99281 134.202 10.1169L133.797 10.1375C133.773 9.86644 133.935 9.8211 134.143 9.84765Z" fill="black"/>
<path fill-rule="evenodd" clip-rule="evenodd" d="M105.877 11.4213C105.925 11.5797 106.071 11.6218 106.04 11.8957C105.852 12.0042 105.937 11.7152 105.785 11.7725C105.744 11.5641 105.954 11.6772 105.877 11.4213Z" fill="black"/>
<path fill-rule="evenodd" clip-rule="evenodd" d="M83.7769 12.7558C84.1484 12.8111 84.7308 12.5587 84.9438 12.8326C85.1638 12.5243 85.5471 12.7276 85.6079 13.0711C85.3222 13.2465 84.958 13.1041 84.6977 13.1916C84.7015 13.3895 84.8718 13.3189 84.8051 13.607C84.6526 13.6642 84.7374 13.3753 84.5497 13.4838C84.5474 13.3602 84.6101 13.3322 84.5987 13.209C84.4391 12.8954 83.893 13.1583 83.7861 12.7677L83.7769 12.7558Z" fill="black"/>
<path fill-rule="evenodd" clip-rule="evenodd" d="M112.497 11.2952L112.696 11.2851C112.68 11.4344 112.61 11.537 112.503 11.5672L112.497 11.2952Z" fill="black"/>
<path fill-rule="evenodd" clip-rule="evenodd" d="M70.7008 13.5568L70.8542 13.549C70.7879 13.8618 71.0027 13.7519 70.9628 14.0262L71.1613 14.0161C71.1742 13.7432 71.4371 13.7917 71.6627 13.7802C71.6228 14.0545 71.8375 13.9446 71.7713 14.2573L70.8145 14.306C70.8734 14.0802 70.6511 14.2648 70.71 14.039C70.6312 14.1668 70.4317 14.1275 70.4084 14.3267C70.2549 14.3345 70.4709 13.816 70.2469 13.9141C70.3963 13.6961 70.7746 14.11 70.6915 13.5449L70.7008 13.5568Z" fill="black"/>
<path fill-rule="evenodd" clip-rule="evenodd" d="M93.319 12.4066C93.4909 12.435 93.4518 12.7464 93.4274 12.8838L93.0219 12.9044C93.0368 12.7427 92.9289 12.7606 92.9612 12.5609C93.0473 12.8165 93.3147 12.6543 93.31 12.407L93.319 12.4066Z" fill="black"/>
<path fill-rule="evenodd" clip-rule="evenodd" d="M132.69 10.4044L132.888 10.3943L132.894 10.6663C132.723 10.7245 132.65 10.6416 132.69 10.4044Z" fill="black"/>
<path fill-rule="evenodd" clip-rule="evenodd" d="M133.807 10.6941C133.828 10.8539 133.893 10.9496 133.87 11.1735C133.972 11.2798 134.179 11.2445 134.227 11.4276C134.353 11.3594 134.413 11.2078 134.631 11.271C134.417 10.923 133.885 11.0242 133.812 10.4834C134.199 10.3895 134.418 10.5516 134.577 10.7911C134.692 10.6985 134.799 10.5818 135.025 10.6321C135.048 10.8661 135.015 11.0163 134.982 11.1913C134.837 11.1862 134.729 11.2165 134.678 11.3429C134.879 11.4811 135.221 11.4019 135.343 11.6556C134.595 11.7555 133.935 11.7272 133.521 11.3274C133.477 10.9336 133.656 10.8255 133.816 10.6936L133.807 10.6941Z" fill="black"/>
<path fill-rule="evenodd" clip-rule="evenodd" d="M55.0119 14.7013C55.0884 14.9202 54.7174 14.8896 54.7065 14.7911C54.63 14.5723 55.001 14.6029 55.0119 14.7013Z" fill="black"/>
<path fill-rule="evenodd" clip-rule="evenodd" d="M71.7728 13.8488C71.8699 13.7325 72.3208 13.7096 72.4312 13.8154C72.3827 14.1149 71.8564 13.9684 71.7728 13.8488Z" fill="black"/>
<path fill-rule="evenodd" clip-rule="evenodd" d="M75.1595 13.8127C75.332 13.3832 75.9063 13.651 75.673 14.2074C75.5251 14.0293 75.1854 13.7495 75.1134 14.2359C74.6809 14.295 74.4947 14.0075 74.2995 13.7203C74.5501 13.5962 75.0284 13.5719 75.1595 13.8127Z" fill="black"/>
<path fill-rule="evenodd" clip-rule="evenodd" d="M111.845 11.7368C111.845 11.7368 111.285 12.1985 111.188 11.8445C111.321 11.7016 111.629 11.7849 111.845 11.7368Z" fill="black"/>
<path fill-rule="evenodd" clip-rule="evenodd" d="M95.7447 12.6299C95.6781 12.9179 95.8571 12.8469 95.8519 13.0452L95.4464 13.0658C95.4227 12.77 95.5192 12.629 95.7447 12.6299Z" fill="black"/>
<path fill-rule="evenodd" clip-rule="evenodd" d="M84.0867 13.3589L84.2396 13.3511L84.2448 13.6231C84.1103 13.6547 84.116 13.4812 84.0867 13.3589Z" fill="black"/>
<path fill-rule="evenodd" clip-rule="evenodd" d="M97.6186 12.8068C97.8612 12.7573 98.0511 12.7848 98.0744 13.0559C97.9056 13.1882 97.8484 13.0302 97.6239 13.0788L97.6186 12.8068Z" fill="black"/>
<path fill-rule="evenodd" clip-rule="evenodd" d="M70.0659 14.3564C70.2397 14.4837 70.4747 14.5088 70.5257 14.8157C70.3071 15.1733 69.8938 14.7859 70.0659 14.3564Z" fill="black"/>
<path fill-rule="evenodd" clip-rule="evenodd" d="M74.2 14.1462L74.3984 14.1362C74.3834 14.2978 74.4914 14.2799 74.4591 14.4796C74.2878 14.4883 74.2045 14.3812 74.2 14.1462Z" fill="black"/>
<path fill-rule="evenodd" clip-rule="evenodd" d="M90.2567 13.3297C90.3657 13.3613 90.6066 13.2005 90.5662 13.4501C90.4572 13.4185 90.2163 13.5793 90.2567 13.3297Z" fill="black"/>
<path fill-rule="evenodd" clip-rule="evenodd" d="M159.656 9.80016C159.894 9.9737 160.413 9.73691 160.52 10.1028L159.717 10.1436C159.732 9.98196 159.624 9.99983 159.656 9.80016Z" fill="black"/>
<path fill-rule="evenodd" clip-rule="evenodd" d="M84.2476 13.7714C84.6487 13.9614 85.3074 13.4453 85.367 14.1972C84.9618 14.2673 84.8026 13.9784 84.3535 14.1126C84.3855 13.9006 84.1803 14.0348 84.2476 13.7714Z" fill="black"/>
<path fill-rule="evenodd" clip-rule="evenodd" d="M143.917 10.7368C144.088 10.7034 144.197 10.7473 144.324 10.7904L144.332 11.2108C144.1 11.3092 144.157 10.9845 143.924 11.0954L143.918 10.7492L143.917 10.7368Z" fill="black"/>
<path fill-rule="evenodd" clip-rule="evenodd" d="M91.3783 13.8916C90.9073 14.2992 89.7283 14.0621 89.3062 13.7247C89.7998 13.551 90.6392 13.9787 91.3783 13.8916Z" fill="black"/>
<path fill-rule="evenodd" clip-rule="evenodd" d="M122.416 12.2387C122.422 12.5355 122.03 12.3327 121.86 12.4032C121.868 11.8706 122.189 12.1637 122.416 12.2387Z" fill="black"/>
<path fill-rule="evenodd" clip-rule="evenodd" d="M111.473 13.08C111.505 12.868 111.301 13.0021 111.368 12.7388C111.582 12.6413 111.595 12.8387 111.722 12.857L111.734 13.4752C111.412 13.6153 111.484 13.1785 111.224 13.2288C111.221 13.1052 111.284 13.0773 111.273 12.9541C111.433 12.8593 111.313 13.1748 111.473 13.08Z" fill="black"/>
<path fill-rule="evenodd" clip-rule="evenodd" d="M135.846 11.4938C136.163 11.5272 136.62 11.3678 136.858 11.5166C136.928 11.8596 136.442 11.4759 136.511 11.8065C136.517 12.128 137.007 11.7442 137.022 12.0528C137.245 11.9053 137.877 11.4029 137.882 12.1452C137.285 12.1261 136.837 12.3221 136.32 12.2246C136.197 11.9339 136.013 11.7328 135.854 11.481L135.846 11.4938Z" fill="black"/>
<path fill-rule="evenodd" clip-rule="evenodd" d="M137.308 11.4195C137.38 11.4158 137.452 11.4122 137.463 11.4859L137.465 11.6219L137.213 11.6348C137.247 11.5587 137.329 11.5546 137.308 11.4195Z" fill="black"/>
<path fill-rule="evenodd" clip-rule="evenodd" d="M133.028 11.9835C133.269 11.8723 133.159 12.2615 133.19 12.458C132.993 12.5175 133.041 12.2056 133.028 11.9835Z" fill="black"/>
<path fill-rule="evenodd" clip-rule="evenodd" d="M140.447 11.6062L140.645 11.5961C140.677 11.8544 140.58 11.9707 140.455 12.0266L140.447 11.6062Z" fill="black"/>
<path fill-rule="evenodd" clip-rule="evenodd" d="M119 13.1056L118.396 13.1363C118.406 12.7274 118.958 12.7736 119 13.1056Z" fill="black"/>
<path fill-rule="evenodd" clip-rule="evenodd" d="M130.403 12.2533C130.555 12.1713 130.496 12.3971 130.507 12.5203L130.309 12.5304C130.242 12.311 130.47 12.4727 130.403 12.2533Z" fill="black"/>
<path fill-rule="evenodd" clip-rule="evenodd" d="M159.124 10.7928L160.08 10.7441C160.075 10.9672 159.996 11.0826 159.834 11.1032C159.839 11.3381 160.045 11.2657 160.041 11.5135C159.725 11.5295 159.654 11.6074 159.382 11.547C159.454 11.0606 159.166 11.1 159.115 10.7932L159.124 10.7928Z" fill="black"/>
<path fill-rule="evenodd" clip-rule="evenodd" d="M153.224 11.2288C153.296 11.2252 153.368 11.2215 153.378 11.2952L153.381 11.4312L153.129 11.4441C153.163 11.3681 153.244 11.3639 153.224 11.2288Z" fill="black"/>
<path fill-rule="evenodd" clip-rule="evenodd" d="M146.765 11.7678C146.768 11.9285 146.859 11.961 146.827 12.1854C146.565 12.1987 146.253 12.3879 146.12 12.0852C145.855 12.3957 145.415 12.0592 145.063 12.0647C145.375 11.3805 146.462 12.0183 146.774 11.7673L146.765 11.7678Z" fill="black"/>
<path fill-rule="evenodd" clip-rule="evenodd" d="M130.513 12.7305L130.666 12.7227L130.671 12.9947C130.501 13.0776 130.507 12.9041 130.513 12.7305Z" fill="black"/>
<path fill-rule="evenodd" clip-rule="evenodd" d="M133.184 12.5945C133.546 12.6504 133.821 12.8468 134.245 12.8129C134.276 13.0341 134.159 13.0647 134.2 13.2978L133.893 13.3134C133.84 12.8953 133.541 12.8239 133.181 12.867L133.175 12.595L133.184 12.5945Z" fill="black"/>
<path fill-rule="evenodd" clip-rule="evenodd" d="M140.206 12.2376C140.358 12.1803 140.273 12.4693 140.461 12.3607L140.467 12.7069C140.27 12.7788 140.337 12.4784 140.113 12.5888C140.036 12.3328 140.246 12.4459 140.206 12.2376Z" fill="black"/>
<path fill-rule="evenodd" clip-rule="evenodd" d="M142.781 12.2426C143.191 12.9024 143.921 11.8999 144.056 12.7966C143.472 12.9377 143.186 12.6428 142.636 12.7326C142.549 12.3905 142.804 12.5013 142.781 12.2426Z" fill="black"/>
<path fill-rule="evenodd" clip-rule="evenodd" d="M100.992 14.8504C101.217 14.8019 101.345 14.9067 101.35 15.1787C101.178 15.138 101.023 15.084 100.992 14.8504Z" fill="black"/>
<path fill-rule="evenodd" clip-rule="evenodd" d="M75.2531 16.3081C75.4184 16.4482 75.0457 16.8013 74.9514 16.5957C74.9015 16.3507 75.1481 16.4867 75.2557 16.4441L75.2531 16.3081Z" fill="black"/>
<path fill-rule="evenodd" clip-rule="evenodd" d="M103.172 15.0242C102.996 15.256 102.699 15.3082 102.47 15.1342C102.549 15.0064 102.925 14.8388 103.172 15.0242Z" fill="black"/>
<path fill-rule="evenodd" clip-rule="evenodd" d="M88.2322 16.1307C87.7099 16.2191 86.881 16.8059 86.7107 15.9358C87.0646 16.0168 88.0501 15.583 88.2322 16.1307Z" fill="black"/>
<path fill-rule="evenodd" clip-rule="evenodd" d="M88.5335 15.8307C88.6956 15.8101 88.752 15.931 88.7912 16.0899L88.5387 16.1027L88.5335 15.8307Z" fill="black"/>
<path fill-rule="evenodd" clip-rule="evenodd" d="M129.52 13.7463C129.876 13.9633 130.488 13.8084 130.888 13.949C130.928 14.1573 130.718 14.0442 130.795 14.3002L129.433 14.3695C129.411 14.2097 129.346 14.114 129.369 13.8901C129.469 13.9097 129.531 13.8694 129.52 13.7463Z" fill="black"/>
<path fill-rule="evenodd" clip-rule="evenodd" d="M31.9039 19.1314C31.852 19.2455 31.6704 19.1928 31.6555 19.3545C31.5615 19.1612 31.2304 19.3142 31.0923 19.1727C31.177 18.8837 31.7839 18.989 31.8949 19.1319L31.9039 19.1314Z" fill="black"/>
<path fill-rule="evenodd" clip-rule="evenodd" d="M90.8587 15.997L91.1115 15.9842C91.1967 16.1902 90.7815 16.2113 90.8587 15.997Z" fill="black"/>
<path fill-rule="evenodd" clip-rule="evenodd" d="M110.503 15.1961C110.617 15.0294 110.953 15.1484 111.16 15.0884C111.046 15.2551 110.709 15.136 110.503 15.1961Z" fill="black"/>
<path fill-rule="evenodd" clip-rule="evenodd" d="M101.566 15.6505C101.615 15.8213 101.804 15.7869 101.975 15.7658C102.015 15.9742 101.925 16.0159 101.929 16.189C101.632 16.2659 101.661 15.8684 101.364 15.9454C101.278 15.6528 101.644 15.9435 101.558 15.6633L101.566 15.6505Z" fill="black"/>
<path fill-rule="evenodd" clip-rule="evenodd" d="M107.272 15.3604L107.624 15.3424L107.626 15.4785L107.274 15.4964L107.272 15.3604Z" fill="black"/>
<path fill-rule="evenodd" clip-rule="evenodd" d="M98.2395 15.9683L99.6565 15.8962C99.3627 16.1215 98.4756 16.5008 98.2395 15.9683Z" fill="black"/>
<path fill-rule="evenodd" clip-rule="evenodd" d="M124.333 14.6412C124.805 14.7286 125.637 14.3026 125.8 14.8389C125.112 14.7625 124.684 15.0442 124.333 14.6412Z" fill="black"/>
<path fill-rule="evenodd" clip-rule="evenodd" d="M117.773 15.111C117.971 15.0762 118.073 15.1948 118.087 15.4416C118.173 15.2392 118.241 15.0006 118.531 15.0725L118.538 15.4187C118.875 15.0798 120.092 14.956 120.31 15.4647C120.152 15.745 119.739 15.8527 119.458 15.7803C119.27 15.8765 119.463 16.0647 119.367 16.2676L118.564 16.3085C118.567 15.9989 118.28 16.1001 118.151 15.9829C118.408 15.6976 118.899 15.8583 119.209 16.0034C119.419 15.6462 119.011 15.5803 118.944 15.398C118.779 15.7406 118.068 15.3931 117.893 15.7237C117.826 15.5168 117.661 15.4014 117.782 15.1106L117.773 15.111ZM119.5 15.642L119.753 15.6292L119.748 15.3572L119.495 15.37L119.5 15.642Z" fill="black"/>
<path fill-rule="evenodd" clip-rule="evenodd" d="M45.7486 19.2566C44.9781 19.5928 43.8064 19.2687 42.7661 19.1979C43.5915 18.896 44.9318 19.063 45.7486 19.2566Z" fill="black"/>
<path fill-rule="evenodd" clip-rule="evenodd" d="M136 14.3203C136.421 14.6083 136.913 14.3605 137.466 14.4561C137.116 15.068 136.223 14.6307 135.654 14.6844C135.594 14.3409 136.125 14.7471 136 14.3203Z" fill="black"/>
<path fill-rule="evenodd" clip-rule="evenodd" d="M125.61 15.3311C125.506 15.5592 125.507 15.6086 125.619 15.8133C125.511 15.8436 125.441 15.9461 125.426 16.0954C125.371 16.0487 125.369 15.9374 125.27 15.9672C125.24 15.8202 125.367 15.8633 125.365 15.752C125.328 15.6796 125.247 15.6838 125.262 15.5468C125.121 15.752 124.722 15.6114 124.6 15.3701C124.938 15.1178 125.124 15.4301 125.61 15.3187L125.61 15.3311Z" fill="black"/>
<path fill-rule="evenodd" clip-rule="evenodd" d="M143.371 14.2918L143.822 14.2689C143.825 14.442 143.708 14.4479 143.674 14.5487C143.59 14.4292 143.393 14.4887 143.362 14.2922L143.371 14.2918Z" fill="black"/>
<path fill-rule="evenodd" clip-rule="evenodd" d="M48.8888 19.5796C48.5114 19.673 48.3187 19.5096 48.0294 19.4872C48.0831 19.4597 48.8287 19.2732 48.8888 19.5796Z" fill="black"/>
<path fill-rule="evenodd" clip-rule="evenodd" d="M83.9725 17.7952C83.8728 17.7756 83.6678 17.9098 83.7174 17.6721C83.8339 17.629 83.9497 17.5489 83.9725 17.7952Z" fill="black"/>
<path fill-rule="evenodd" clip-rule="evenodd" d="M44.7529 19.6537C45.4237 19.7681 45.8415 19.4127 46.2203 19.8514C45.9937 19.8134 45.8873 19.9178 45.7716 20.0103C45.5845 19.6733 44.8434 20.1318 44.7527 19.6414L44.7529 19.6537Z" fill="black"/>
<path fill-rule="evenodd" clip-rule="evenodd" d="M87.1019 17.5C87.4185 17.5334 87.8759 17.374 88.1134 17.5229C88.0313 17.9478 87.171 17.8059 87.1019 17.5Z" fill="black"/>
<path fill-rule="evenodd" clip-rule="evenodd" d="M156.307 14.2526C156.047 14.303 155.584 14.6607 155.502 14.1575C155.763 14.1071 156.226 13.7494 156.307 14.2526Z" fill="black"/>
<path fill-rule="evenodd" clip-rule="evenodd" d="M136.675 15.115L137.027 15.0971L137.029 15.2331L136.677 15.251L136.675 15.115Z" fill="black"/>
<path fill-rule="evenodd" clip-rule="evenodd" d="M138.543 15.0201C138.679 15.0503 138.937 14.9134 138.995 15.0714L138.999 15.2816C138.773 15.293 138.628 15.2138 138.543 15.0325L138.543 15.0201Z" fill="black"/>
<path fill-rule="evenodd" clip-rule="evenodd" d="M139.094 14.9919L139.446 14.974L139.448 15.11L139.096 15.128L139.094 14.9919Z" fill="black"/>
<path fill-rule="evenodd" clip-rule="evenodd" d="M151.206 14.3761C151.244 14.4855 151.37 14.4667 151.364 14.6403L150.913 14.6632C150.835 14.333 151.293 14.6934 151.215 14.3756L151.206 14.3761Z" fill="black"/>
<path fill-rule="evenodd" clip-rule="evenodd" d="M47.5289 19.7848C47.4537 20.098 46.971 19.8751 46.7289 19.9616C46.8041 19.6484 47.2868 19.8714 47.5289 19.7848Z" fill="black"/>
<path fill-rule="evenodd" clip-rule="evenodd" d="M141.415 15.0102L141.668 14.9974C141.753 15.2034 141.338 15.2245 141.415 15.0102Z" fill="black"/>
<path fill-rule="evenodd" clip-rule="evenodd" d="M91.9026 17.6768L92.2546 17.6589L92.2572 17.7949L91.9052 17.8128L91.9026 17.6768Z" fill="black"/>
<path fill-rule="evenodd" clip-rule="evenodd" d="M161.721 14.324C161.79 14.1596 162.072 14.2814 162.224 14.2241C162.137 14.3771 161.826 14.6033 161.721 14.324Z" fill="black"/>
<path fill-rule="evenodd" clip-rule="evenodd" d="M150.062 15.053L150.766 15.0172L150.771 15.2892C150.401 15.2833 150.425 15.1335 150.112 15.3227C150.11 15.199 150.046 15.1775 150.053 15.0534L150.062 15.053Z" fill="black"/>
<path fill-rule="evenodd" clip-rule="evenodd" d="M55.9259 19.9892C56.3215 19.9072 56.5854 20.0175 56.8844 20.0766C56.6872 20.1485 55.9783 20.3702 55.9259 19.9892Z" fill="black"/>
<path fill-rule="evenodd" clip-rule="evenodd" d="M152.637 15.0706L152.989 15.0527C153.004 15.3242 152.669 15.2917 152.637 15.0706Z" fill="black"/>
<path fill-rule="evenodd" clip-rule="evenodd" d="M153.089 15.0476L153.441 15.0297L153.444 15.1657L153.092 15.1836L153.089 15.0476Z" fill="black"/>
<path fill-rule="evenodd" clip-rule="evenodd" d="M159.357 14.927C159.311 15.3501 159.651 15.209 159.57 15.6711C158.782 15.6121 158.377 15.6575 157.701 15.7661C157.766 15.3544 157.523 15.4163 157.491 15.158C158.131 15.1007 158.864 15.1748 159.357 14.927Z" fill="black"/>
<path fill-rule="evenodd" clip-rule="evenodd" d="M148.074 16.887C148.263 16.9021 148.409 16.9689 148.484 17.1384L148.079 17.159L148.074 16.887Z" fill="black"/>
<path fill-rule="evenodd" clip-rule="evenodd" d="M165.831 18.008C165.283 17.7263 164.247 18.3235 163.759 17.8408C164.486 17.6059 165.565 17.8234 166.07 17.3027C165.562 17.1677 164.842 17.3403 164.255 17.3206C164.491 16.9497 165.006 16.9359 165.252 16.5769L165.248 16.3667C164.422 16.1487 163.385 16.2509 162.365 16.3026C162.986 15.7389 163.628 16.2385 164.583 16.0539C164.716 15.9605 164.676 15.7398 164.627 15.569C163.459 15.9005 162.822 15.6606 161.748 15.7151C161.657 15.2123 160.968 15.569 160.579 15.5021L160.572 15.1559C160.444 15.1005 160.141 15.3139 160.163 15.0405C160.723 15.0122 160.989 15.2338 161.37 14.8432L161.375 15.1152L161.935 15.0868C162.086 14.9801 162.034 14.6238 162.334 14.72C162.421 14.9879 162.202 14.8752 162.186 14.9998C162.367 15.4609 162.833 14.8308 163.298 15.0176C163.429 14.8006 163.505 14.5244 163.794 14.5098C163.783 14.3866 163.842 14.1608 163.689 14.2428C163.94 14.094 164.412 14.2185 164.282 13.5939C164.624 13.5147 164.901 13.3645 164.974 12.94C164.918 12.8067 164.685 12.9422 164.664 12.7453C164.253 12.989 163.584 12.9981 163.15 12.9583C163.014 12.9528 162.909 13.1067 162.846 13.1099C160.733 13.1676 158.133 13.2871 155.728 13.6814C154.628 13.3041 153.08 14.1004 152.091 13.866C151.946 13.8733 151.95 14.0835 151.843 14.1508C151.538 13.7703 151.082 14.4741 150.785 14.0684C150.259 14.4416 149.141 14.0775 148.67 14.5222C148.534 14.5043 148.522 14.3193 148.465 14.1861C148.194 14.1998 147.887 14.1659 147.764 14.3578C147.82 14.4416 147.911 14.4741 147.87 14.699C146.669 14.2648 145.072 14.8409 143.968 14.2781C144.763 14.2997 145.123 14.2195 145.841 14.4554C146.01 14.3106 145.773 14.1865 145.779 14.0377C144.846 13.9241 143.913 14.2438 143.103 13.9631C142.56 14.362 142 13.425 141.431 13.9118C140.951 13.8372 140.221 13.5029 139.759 13.8605C139.86 14.4494 140.779 13.8335 141.03 14.2168C141.226 14.0583 141.515 14.0313 141.831 14.04C141.938 14.443 141.647 14.3464 141.587 14.5351C140.498 14.2685 139.507 14.851 138.406 14.4861C138.339 14.2667 138.568 14.4284 138.5 14.209C138.619 14.2525 138.805 14.5648 138.954 14.3221C138.797 14.1444 138.451 13.9887 138.293 14.2195C138.315 13.9709 138.136 14.0295 138.131 13.8069C137.39 14.2653 136.376 13.6609 135.715 14.0657C135.231 13.7809 134.675 14.0194 134.043 14.0144C133.9 14.0959 133.923 14.3918 133.744 14.4504C133.739 14.2154 133.533 14.2878 133.537 14.0401C132.795 13.9911 132.222 14.2182 131.566 13.9297C131.632 13.6169 132.324 13.4333 132.369 13.8889C132.992 13.3994 134.097 13.9993 134.641 13.6375C135.206 13.8811 135.81 13.8257 136.41 13.5478C136.965 13.7795 137.828 13.5624 138.533 13.5761C138.576 13.4502 138.721 13.4552 138.68 13.2222C139.008 13.3293 139.02 13.0316 139.18 12.9245C139.24 13.2061 139.133 13.2734 139.035 13.3527C139.137 13.5084 139.345 13.5102 139.448 13.6783C139.546 13.599 139.653 13.5317 139.751 13.4525C139.834 13.077 139.425 13.4072 139.49 13.0449C139.535 13.0426 139.524 12.9565 139.541 12.9062C139.942 13.0591 140.474 13.0074 140.91 13.109C140.955 13.577 141.703 13.4896 141.925 13.2679C141.927 13.3916 141.991 13.4131 141.984 13.5372C142.264 13.523 142.599 13.5679 142.739 13.3627C142.719 13.2153 142.644 13.12 142.536 13.1008C143.723 12.8054 144.716 13.7451 145.974 13.3471C146.04 13.0591 145.861 13.1301 145.866 12.9318C146.164 12.4464 146.499 12.9368 146.922 12.8782C146.964 13.1608 146.903 13.3123 146.778 13.3682C146.762 13.4804 146.826 13.4896 146.836 13.5756C146.957 13.7675 147.206 13.5569 147.286 13.4786C147.829 13.9832 148.268 13.3545 148.853 13.6713C148.961 13.6659 148.865 13.3737 148.899 13.2482C149.176 13.593 149.387 13.2853 149.662 13.4818C149.797 13.4254 149.755 13.1429 149.908 13.1227C150.088 13.0888 149.979 13.4905 150.071 13.5972L150.378 13.5816C150.486 13.5761 150.39 13.2839 150.424 13.1585C150.963 12.9826 150.957 13.6141 151.346 13.6686C152.209 13.4268 153.618 13.3924 154.374 13.2427C154.493 13.348 154.648 13.4021 154.882 13.3531C154.951 13.201 155.104 13.1438 155.126 12.9198L155.731 12.8892C155.97 13.5578 156.535 12.8855 156.841 12.8328C156.985 12.8131 157.187 12.9638 157.349 12.9432C157.602 12.918 157.822 12.6098 158.008 12.9098C158.172 12.9633 158.076 12.6835 158.203 12.6895C158.879 12.6057 159.551 12.3364 160.021 12.8076C160.948 12.6492 161.997 12.6579 162.794 12.3204C163.286 12.5182 163.751 12.2718 164.25 11.9C164.279 11.9975 164.194 12.2617 164.311 12.2434C164.588 12.0809 164.837 11.8826 165.058 11.6486C165.125 11.3852 164.92 11.5194 164.952 11.3074C164.678 11.5936 164.553 11.241 164.149 11.3482C164.016 11.4787 163.975 11.7159 163.805 11.7864C163.485 11.5675 163.261 11.2076 162.984 10.9246C163.602 10.6333 164.469 11.5671 164.907 10.827C164.761 10.7602 164.597 10.7066 164.451 10.6397C164.446 10.3553 164.682 10.4053 164.797 10.2757C164.33 9.97754 163.416 10.3457 163.073 9.88046C163.083 9.48389 163.483 9.59974 163.771 9.57272C163.786 9.41107 163.678 9.42893 163.711 9.22927C163.517 9.05342 162.921 9.03419 162.8 9.34971C162.652 9.17157 162.408 9.12212 162.092 9.17524C162.113 8.35736 162.853 8.79011 163.197 8.84689C163.295 8.78003 163.301 8.58174 163.287 8.35964L163.694 8.33903L163.688 8.06702C162.674 7.93284 161.458 8.13068 160.559 8.36194C160.451 8.36744 160.547 8.6596 160.513 8.78508C161.003 8.90872 161.276 9.00626 161.624 8.80293C161.557 9.06625 161.85 8.80385 161.783 9.06716C161.139 9.38452 160.124 9.22562 159.368 9.4001C159.266 9.25676 159.164 9.12579 159.106 8.93071C159.438 8.77776 160.049 9.09327 160.267 8.66144C159.771 8.26578 158.63 8.60832 157.739 8.78967C157.699 9.06398 157.914 8.95407 157.848 9.26684C157.635 9.47567 157.144 9.30257 157.153 9.78478C157.042 9.65426 156.826 9.68998 156.742 9.53337C156.214 9.79531 155.586 9.56726 154.928 9.62542C154.477 9.67305 154.261 10.1791 153.729 10.2432C153.699 10.0962 153.826 10.1392 153.824 10.028C153.604 9.84112 153.385 10.2359 153.225 10.3307C153.227 10.4543 153.291 10.4758 153.284 10.5999C153.979 10.082 155.491 10.7478 155.905 10.1946C156.256 10.5853 157.008 9.75501 157.273 10.3975C156.4 10.5408 155.616 10.6549 154.497 10.7488C154.482 10.9104 154.282 10.8216 154.304 11.0308C153.212 11.0986 152.173 11.1018 151.266 10.9127C151.151 11.0176 150.998 11.0625 150.919 11.2026C150.416 10.8692 149.473 11.1769 148.988 10.8179C149.037 10.5803 149.328 10.6769 149.23 10.2487C149.065 10.1333 148.838 10.1077 148.718 9.92815C148.977 9.80359 149.348 9.83427 149.367 9.4125C149.621 9.47387 149.787 9.65109 149.98 9.80221C150.117 9.39922 150.33 9.6607 150.48 9.50454C150.612 9.75779 151.268 10.071 151.44 9.59201C151.861 9.91714 152.387 9.04889 152.902 9.51781C153.064 9.50957 153.06 9.27465 153.148 9.15879C153.549 9.34883 153.601 9.2348 153.915 9.60253C154.078 9.60665 154.13 9.48026 154.163 9.31769C154.669 9.3415 154.893 9.23114 155.122 9.40515C155.21 9.26456 155.251 9.07681 155.311 8.91287C155.76 9.69457 156.551 9.03559 157.09 9.30531C157.167 9.10336 157.449 9.17571 157.489 8.9385C157.548 8.71274 157.326 8.89729 157.385 8.67152C157.158 8.63352 157.052 8.73793 156.936 8.83043C156.546 8.72648 155.746 8.49476 155.417 8.77136C154.289 8.82861 152.332 8.56896 150.875 8.86572C150.736 8.69948 150.501 8.71139 150.369 8.89136C149.476 8.50349 147.906 9.09058 147.131 8.70912C147.062 8.87352 146.854 8.84696 146.831 9.07089C146.312 8.84971 145.731 8.73065 145.01 8.81674C144.988 9.07777 145.168 9.05624 145.269 9.15012C145.265 9.3855 145.011 9.31178 145.025 9.58333C145.146 9.77521 145.628 9.4661 145.688 9.7601C145.747 9.55906 146.029 9.65614 146.033 9.39603C146.345 9.62775 146.517 9.1982 146.74 9.49632C146.919 9.4377 146.793 8.97381 147.084 9.05807C147.161 9.33878 146.98 9.28612 146.992 9.48349C147.013 9.63095 147.246 9.4954 147.346 9.53982C147.413 9.2765 147.208 9.41068 147.24 9.19865C147.331 9.2188 147.338 9.14416 147.337 9.05761C147.594 9.29207 147.861 9.52608 148.356 9.4267C148.458 9.59477 148.316 9.70101 148.419 9.90617C148.583 9.98447 148.451 9.68178 148.615 9.76008C148.585 10.529 147.387 9.79764 147.264 10.4475C147.086 10.1347 146.916 10.6755 146.756 10.3371C146.786 10.4841 146.659 10.441 146.661 10.5523C147.07 10.6925 147.576 10.6915 147.932 10.9086C147.859 11.3331 147.509 10.9796 147.231 11.0803C147.123 11.0858 147.209 11.329 147.183 11.4293C147.031 11.4989 146.666 11.307 146.681 11.5909C146.542 11.4247 146.361 11.4339 146.229 11.6138C146.077 11.6958 146.136 11.47 146.125 11.3469C145.807 11.2516 145.804 11.5612 145.523 11.5135L145.516 11.1673L145.967 11.1444C145.899 10.888 145.726 10.7854 145.552 10.6828C145.68 10.2803 145.987 10.735 146.211 10.6494C146.179 10.3911 145.944 10.4154 145.947 10.1058C144.934 10.4791 143.937 9.83658 142.967 10.1828C142.902 10.545 143.127 10.4717 143.079 10.796C142.871 10.8065 142.787 10.6622 142.623 10.6087C142.619 10.3737 142.698 10.2583 142.869 10.2496C142.391 9.82834 141.969 9.92405 141.505 10.2446C141.455 9.98725 141.106 10.1658 141.091 9.84483C140.375 10.2153 139.428 9.80546 138.819 10.0963C138.622 10.1682 138.688 9.86774 138.464 9.9781C138.355 10.3797 138.693 10.115 138.671 10.3884C138.498 10.3477 138.428 10.4379 138.478 10.6705C138.813 10.7278 139.179 10.4741 139.436 10.6962C139.607 10.6874 139.557 10.4054 139.737 10.4086C139.902 10.4992 139.926 10.7951 140.248 10.6549C140.337 10.5638 140.342 10.3779 140.44 10.2987C140.576 10.3165 140.588 10.5015 140.645 10.6348C140.837 10.2909 141.172 10.7566 141.354 10.8711C141.167 10.992 141.282 11.3574 141.463 11.3482C141.178 11.5607 140.732 11.3853 140.407 11.4018C140.235 11.3858 140.359 11.7508 140.104 11.6276C140.12 11.503 140.065 11.4934 140.002 11.4966C140.044 11.3336 140.207 11.313 140.304 11.209C140.248 11.1005 140.068 11.1715 140.047 11.0117C139.883 10.9457 139.923 11.1294 139.851 11.1578C139.337 10.7259 138.362 11.258 137.574 11.1372C137.396 11.2576 137.542 10.9036 137.417 10.9347C137.207 10.8464 137.257 11.0914 137.112 11.0863C137.15 10.7007 136.74 10.9691 136.848 10.4809C137.135 10.3674 137.053 10.8047 137.357 10.6655C137.474 10.6348 137.369 10.3184 137.402 10.1805C136.296 9.97674 135.696 10.2671 134.672 10.1086L134.664 9.68824C135.078 9.58063 135.289 9.76792 135.624 9.77571C135.76 9.8183 135.581 9.45607 135.718 9.49865C136.048 9.76655 136.853 9.36676 137.034 9.85264C137.123 9.73678 137.229 9.64473 137.179 9.36264C137.479 9.47117 137.43 9.27563 137.681 9.20098C137.828 9.30494 138.322 9.62641 138.339 9.09336C137.505 8.93767 136.166 8.83235 135.305 9.17306C134.506 9.00317 133.439 8.93356 132.521 9.10392C132.391 8.93723 131.894 8.92533 131.707 9.07095C131.858 9.42219 132.546 8.99127 132.767 9.22756C132.828 9.59575 132.194 9.4918 132.164 9.33244C132.056 9.36266 131.986 9.46524 131.97 9.61453C132.389 9.74183 132.763 9.93325 133.145 10.1118C132.99 10.5034 132.475 10.0221 132.236 10.2941C132.287 10.5515 132.164 10.7433 132.247 10.8505C132.695 11.1248 133.268 10.3779 133.418 11.1376C132.954 10.9632 132.397 11.5855 132.305 11.058C132.132 10.9925 132.228 11.2723 132.213 11.4092C131.609 11.5141 130.687 10.9792 130.762 12.1016C130.626 12.0714 130.367 12.2083 130.31 12.0503C130.36 11.8621 130.513 11.8172 130.657 11.7604C130.632 11.4399 130.467 11.3245 130.338 11.1578C130.128 11.0694 130.178 11.3144 130.033 11.3094C129.886 11.1436 129.633 11.1317 129.67 10.709C129.911 10.5977 129.881 10.8716 130.078 10.8244C130.265 10.6417 129.965 10.5703 130.015 10.345C129.881 10.426 129.629 10.5007 129.562 10.2937C129.484 9.97585 129.794 10.1457 129.808 9.93464C129.817 9.45151 129.615 9.26375 129.736 8.97296C129.463 8.90015 129.533 9.24315 129.335 9.26559C129.249 9.03479 129.084 8.91939 128.972 8.72705C129.393 8.52006 130.184 8.80169 130.429 8.38084C129.792 8.14088 129.262 7.84597 128.61 8.20088C128.471 8.04701 127.81 7.96916 127.698 8.24714C127.615 8.17707 127.568 8.05572 127.494 7.98519C127.088 8.46374 126.397 7.76859 126.035 8.1954C126.059 8.51595 126.338 8.46466 126.45 8.657C126.833 8.37765 128.051 8.77377 128.616 8.54708C128.666 8.80445 129.024 8.62539 128.977 9.01143C128.531 9.30635 127.725 9.16164 127.112 9.24224C127.08 9.45427 127.285 9.32009 127.218 9.58341C127.479 9.57013 127.758 9.50647 127.826 9.76292C127.904 10.0189 127.601 9.78673 127.678 10.0427C127.691 10.2525 127.898 10.1925 127.938 10.3761C127.773 10.7681 127.732 10.4979 127.334 10.481C127 10.4608 126.632 10.6032 126.423 10.5272C126.295 10.4842 126.148 10.3184 125.86 10.4196C125.821 10.731 126.072 10.6316 126.068 10.8917C126.413 10.5153 126.818 11.3488 127.335 10.9636C127.419 11.145 127.548 11.2746 127.501 11.6483C127.383 11.6295 127.31 11.5466 127.148 11.5919C127.144 11.3941 126.974 11.4646 127.04 11.1766C126.869 11.1606 126.965 11.4774 126.895 11.6048C126.775 11.4747 126.576 11.46 126.333 11.4971C126.268 11.8594 126.492 11.7861 126.444 12.1103C126.239 12.2692 126.073 12.0673 125.785 12.1438C125.823 12.2161 125.904 12.212 125.889 12.3489L125.636 12.3617C125.785 12.1438 125.592 11.9432 125.374 11.8923C125.266 11.8978 125.361 12.19 125.328 12.3155C125.545 12.354 125.693 12.495 125.743 12.7771C125.943 12.8288 125.865 12.5358 126.093 12.6232C126.151 12.8183 126.152 12.9049 126.102 13.1054C125.814 13.1695 125.49 12.7652 125.299 13.1462C124.791 13.0482 124.705 12.3471 124.514 11.7998C124.641 11.8553 124.707 12.0004 124.923 11.9152C124.927 11.6922 124.836 11.6226 124.717 11.5791C124.919 11.2471 124.618 11.1015 124.801 10.7457C124.252 10.3899 123.68 10.258 122.981 10.5657C123.122 10.8309 123.421 10.8776 123.553 11.1555C123.372 11.14 123.228 11.172 123.103 11.2526C123.046 11.5773 123.279 11.4788 123.213 11.804C122.913 11.7202 122.798 11.3671 122.639 11.0658C122.414 11.1267 122.304 11.0333 122.185 10.9527C121.897 11.0044 122.221 11.4211 121.941 11.4477C121.757 10.8011 122.448 10.5309 122.591 10.9321C122.753 10.9362 122.805 10.8098 122.838 10.6472C122.835 10.4988 122.621 10.6335 122.53 10.5886C122.364 9.94108 122.012 10.4292 121.663 10.1499L121.655 9.72951C121.853 9.69471 121.85 9.99191 121.962 9.71394C122.134 9.70524 122.094 9.99191 122.274 9.97039C122.425 9.85132 122.521 9.66082 122.719 9.60129C122.101 8.96429 120.798 9.31508 119.882 9.12641C119.803 9.27891 119.873 9.60954 119.582 9.48819C119.647 10.0789 120.319 9.78493 120.552 10.132C120.629 10.388 120.326 10.1559 120.403 10.4118C120.192 10.2369 119.912 10.2387 119.643 10.3143C119.644 10.4009 119.636 10.4384 119.591 10.4531C119.703 11.1157 120.483 10.8038 121.017 10.8634C121.096 11.1688 120.877 11.0809 120.927 11.3506C120.656 11.352 120.438 11.2641 120.123 11.3172C120.015 11.3474 120.111 11.6643 120.078 11.8022C119.95 11.7467 119.647 11.9601 119.669 11.6868C119.554 11.8164 119.532 12.0527 119.268 11.9794C119.244 12.1415 119.341 12.4831 119.225 12.5385C118.737 12.0806 118.871 11.0713 118.427 10.4998C118.588 10.4544 118.68 10.5117 118.736 10.6202C119.071 9.72449 117.486 10.4732 117.163 10.0812C116.925 10.4274 116.701 10.0428 116.359 10.122C116.309 9.82754 116.499 9.84265 116.504 9.63199C116.5 9.43416 116.347 9.47904 116.343 9.29358C115.914 9.48866 114.831 9.11041 114.637 9.80098C115.029 10.0162 115.887 9.53949 116.008 10.1522C115.918 10.1692 115.753 10.0909 115.812 10.2983C115.446 10.0693 114.526 10.1284 114.298 10.5112C114.125 10.4581 114.067 10.226 113.938 10.1087C113.446 10.3441 113.214 10.0341 112.379 10.324C112.374 11.0173 113.292 10.3643 113.402 10.8909C113.129 11.2513 112.807 10.9829 112.604 11.2037C112.421 11.0892 112.335 10.8336 111.994 10.9623C111.919 11.3003 112.143 11.2147 112.156 11.4368C111.895 11.45 111.703 11.3484 111.696 10.9774C111.47 10.9889 111.328 11.0828 111.25 11.2724C111.079 10.8355 110.433 11.091 110.183 10.7695C110.362 10.6862 110.791 10.9243 110.739 10.531C110.825 10.8112 111.33 10.7361 111.443 10.4952C111.619 10.7215 112.041 10.5763 112.357 10.585C112.424 10.2969 112.244 10.3679 112.25 10.1696C111.367 10.3134 110.385 10.0043 109.833 10.4284C109.785 10.7402 110.203 10.3725 110.093 10.7618C109.477 11.1643 109.014 10.111 108.161 10.3771C108.04 10.6803 108.142 11.2568 108.236 11.4748C107.964 11.402 107.577 11.4958 107.665 10.885L108.017 10.8671L108.012 10.5951C107.974 10.5104 107.512 10.4472 107.562 10.6922C107.424 10.5754 107.383 10.3299 107.246 10.2255C107.167 10.3657 106.913 10.2919 106.945 10.5873C106.492 10.4989 106.344 10.8034 105.937 10.7746L105.932 10.5026C105.74 10.4133 105.836 10.6931 105.682 10.6514C105.749 10.3881 105.544 10.5223 105.576 10.3102C105.591 10.161 105.661 10.0584 105.769 10.0282C105.923 10.0204 105.927 10.2306 105.931 10.4408L106.382 10.4179C106.475 10.079 106.207 10.2411 106.22 10.0053C106.417 9.90863 106.324 10.2228 106.53 10.1257C106.602 10.0973 106.572 9.9503 106.579 9.85093C106.251 9.71904 105.941 9.54915 105.613 9.41726C105.412 9.31606 105.6 9.71493 105.465 9.69707C105.302 9.71768 105.246 9.59678 105.207 9.43787L104.548 9.47131C104.227 10.1683 103.497 9.78454 103.031 9.54825C102.84 9.45895 102.936 9.73875 102.781 9.69708C102.278 9.38843 101.253 10.0964 100.658 9.66869C100.56 9.74792 100.453 9.81524 100.355 9.89446C100.364 10.3767 100.81 10.0941 100.916 9.94025C100.885 10.2141 101.215 9.9746 101.175 10.2736C101.262 10.5786 100.841 10.2535 100.928 10.5585C101.243 10.9757 101.99 10.3561 102.101 10.9816C101.621 10.8822 101.33 11.2806 101.045 11.0352C100.92 11.1034 100.85 11.2307 100.744 11.3228C100.781 11.3951 100.862 11.391 100.847 11.5279C101.116 11.4153 101.484 11.3099 101.759 11.4817C101.079 11.838 100.452 12.142 99.599 11.9378C99.5591 12.2121 99.6859 12.2304 99.7605 12.3504C100.035 12.0642 100.133 12.4553 100.52 12.3861C100.58 12.6801 100.473 12.7722 100.432 12.9475C99.9866 12.834 99.7439 12.4255 99.1147 12.5936L99.104 12.0372C98.5017 11.7212 97.6789 12.159 96.9803 12.0088C97.0036 12.2799 96.6844 12.1228 96.6801 12.3706C96.2402 12.0463 95.9652 12.3078 95.4654 12.1599L95.4588 11.8137C95.2438 11.9113 95.231 11.7139 95.1042 11.6956C95.0177 11.4277 95.3203 11.6598 95.2987 11.4753C94.8578 11.1016 93.5942 11.1657 93.1183 11.3136C91.8929 11.0169 90.777 11.2468 89.8804 11.1314C89.8179 11.642 90.116 11.6393 90.4492 11.5852C90.5245 11.7423 90.5644 11.9383 90.6571 12.0574C90.9229 11.784 90.992 12.0899 91.3611 12.0216C91.4285 12.241 91.1996 12.0793 91.267 12.2987C90.8492 12.1837 90.6148 12.208 90.3554 12.3449C90.2003 12.2662 90.2122 11.9438 90.092 11.8014C89.9279 11.7231 90.0602 12.0258 89.896 11.9474C89.7167 11.5481 89.7129 10.88 89.0768 11.1598L89.0809 11.37C89.1386 11.5527 89.2927 11.582 89.4381 11.6241C89.4362 11.9955 89.2315 11.6841 89.0901 11.8522C89.0947 12.0871 89.3011 12.0148 89.2968 12.2625C88.9868 12.1173 88.9612 12.1929 88.7398 12.4269C88.7284 12.3037 88.7873 12.078 88.6353 12.1599C88.3707 12.0248 88.5968 12.5084 88.3878 12.4448C88.2365 12.0935 87.9094 11.9987 87.5738 11.9291C87.8579 11.6672 87.3358 11.7679 87.366 11.457C87.4826 11.414 87.5987 11.3462 87.7707 11.3622C87.8075 10.9272 87.4577 11.0563 87.5562 10.5439C87.1011 10.3689 86.333 10.3584 85.7857 10.5595C84.9613 10.4404 83.972 10.2059 83.3112 10.6107C83.6136 10.8306 84.0568 10.8576 84.4822 10.8979C84.5901 10.8676 84.5224 10.6359 84.6304 10.6181C85.4159 10.5906 85.9287 10.9482 86.7582 10.8566C86.562 11.4607 85.7399 10.995 85.3953 10.9258C85.3342 11.0403 85.1995 11.0843 85.2499 11.354L84.8979 11.3718C85.0254 11.8976 85.5356 11.1786 85.6086 11.6823C85.5865 11.9433 85.2219 11.7762 85.1625 11.9772C84.8582 11.6585 84.2554 11.7881 83.8457 11.6233C83.587 11.7973 83.9637 12.1247 83.8576 12.2415C83.7989 12.4796 83.6295 12.1293 83.3521 12.2671C83.4459 11.5074 82.8809 11.7217 82.5355 11.6155C82.4861 11.3952 82.5757 11.3535 82.6281 11.2642C82.5329 11.0092 82.2529 11.011 82.2628 10.5897C81.5935 10.5494 81.2085 10.7298 80.5494 10.7509C80.6071 11.4039 81.5346 10.7752 81.7244 11.2482C81.9187 11.0156 82.2429 10.962 82.3847 11.289C82.4619 11.545 82.2519 11.4318 82.2921 11.6402C82.4415 11.8925 82.6524 12.0551 82.9602 12.089C82.9288 12.3381 82.4429 12.437 82.3569 12.1939C82.2771 12.2722 82.2343 12.3981 82.1636 12.4759C81.9306 12.5744 81.9876 12.2497 81.7548 12.3605L81.7429 11.7423L82.1942 11.7194C82.0063 11.3453 81.3883 11.6242 81.0774 11.4296C80.9415 11.4117 81.1299 11.8106 80.9292 11.7094C81.1242 11.9841 81.2976 12.0743 81.5921 11.8861C81.7175 12.3006 81.3147 12.024 81.4028 12.3784C81.289 12.0995 80.8586 12.2699 80.8458 12.5428C80.5206 12.5469 80.3358 12.3335 80.0373 12.3116C79.9945 12.4375 79.8499 12.4325 79.8905 12.6655C80.2002 12.7983 80.4917 12.9197 80.8035 12.6935C80.8277 13.014 80.4354 12.8112 80.404 13.0603C79.8138 12.9046 79.2691 13.2416 78.4775 12.9476L78.4694 12.5272C78.2979 12.536 78.3485 12.818 78.1678 12.8148C78.1647 12.6541 78.0737 12.6216 78.1055 12.3972C78.1668 12.2951 78.3207 12.312 78.4561 12.3051C78.3682 11.9631 78.0782 11.9159 77.9901 11.5615C77.7036 12.1701 77.0583 11.4973 76.6324 11.9026C76.6882 11.9864 76.7792 12.0189 76.7383 12.2438C76.4966 12.3551 76.5274 12.0812 76.3296 12.1284C76.2766 12.193 76.2329 12.2694 76.1802 12.3464C76.3562 12.5726 76.9626 12.1582 76.9887 12.5776C76.4818 12.5291 76.0975 12.7466 75.8244 12.6367C75.7726 13.2334 76.4151 12.8171 76.4951 13.2215C75.718 13.2114 75.403 13.2769 74.6769 13.1034C74.7436 12.8153 74.5643 12.8863 74.5695 12.688C74.7192 12.4824 74.8315 12.2168 75.2218 12.3084C74.799 11.9338 73.9895 12.1234 73.2941 12.1339C73.1862 12.1641 73.2827 12.481 73.2492 12.6189C73.6587 12.7714 74.3068 12.1815 74.3104 12.8373C73.848 12.7494 73.3164 12.8258 72.749 12.9165C72.6281 13.6776 71.4858 13.4757 70.9865 13.3525C70.9685 12.8831 70.5811 12.9399 70.5193 12.547L70.0681 12.5699C70.0657 12.4462 70.002 12.4247 70.0087 12.3006C69.8445 12.2223 69.9768 12.525 69.8127 12.4467C69.3263 12.0506 68.6959 12.6271 68.3016 12.7956C68.0959 12.9051 68.1363 12.6555 67.9921 12.6752C67.9389 12.7274 67.9411 12.8387 67.8413 12.819C67.8817 13.0397 68.2717 13.119 68.3482 12.8675C68.4318 12.9871 68.6294 12.9275 68.6603 13.124C68.2038 13.3452 67.5898 13.364 67.0499 13.478C67.2152 13.6181 67.4275 13.8549 67.2166 14.1626C66.7867 13.8874 66.067 14.0477 65.4435 14.0422C65.4473 13.7697 65.1965 13.8814 65.1827 13.6346C64.935 13.9071 64.6407 14.1077 64.1799 14.1063L64.1718 13.6859L64.7766 13.6552C64.8086 13.4432 64.6825 13.462 64.7143 13.2376C64.5502 13.1593 64.4656 12.9903 64.2048 13.053C64.1262 13.1932 64.1405 13.4647 63.9602 13.4862C64.1956 13.9817 63.5142 14.2515 63.0168 14.2272C63.0491 14.4978 63.2393 14.5253 63.4733 14.4763C63.5408 14.6957 63.3118 14.534 63.3792 14.7534C63.0232 14.561 62.3862 14.7914 62.109 14.4713C62.0572 14.1274 62.2558 14.1173 62.3524 13.9762C62.3023 13.7189 62.1116 13.6667 62.1843 13.2174C62.061 12.9143 61.4259 12.7732 61.5294 13.4611C61.4468 13.391 61.3993 13.2696 61.3256 13.1991C61.1722 13.6772 60.4722 13.4528 60.0221 13.5375L60.0273 13.8096C60.0846 13.9675 60.3437 13.8183 60.4801 13.8608C60.5126 14.1439 60.0915 13.8558 60.2354 14.2941C60.0459 14.3037 60.1026 13.9666 59.8782 14.0399L59.8689 13.5577C59.5461 13.6855 59.1305 13.6818 58.8633 13.881C58.5393 13.4766 57.6353 13.9186 57.3904 13.3988C57.0899 13.7482 57.3225 14.0953 57.1576 14.4502C56.865 14.2671 57.0828 13.8476 57.0849 13.4886C56.4961 13.407 55.5847 13.4657 55.0617 13.517C55.0496 13.827 55.3446 13.6635 55.3767 13.9218C55.2677 13.8902 55.0268 14.0509 55.0672 13.8013C55.071 13.9992 54.7881 13.8526 54.8197 14.0862C54.681 13.9199 54.5005 13.9291 54.3684 14.1091C54.4976 14.251 54.504 14.5849 54.5803 14.7914C54.3074 14.6939 53.9991 14.6353 53.7613 14.4864C54.0763 13.9506 53.4779 13.8448 53.4333 13.4016C53.5608 13.457 53.6269 13.6021 53.8421 13.517C53.776 12.9015 53.4903 12.6066 52.9673 12.6579C52.8906 12.8969 52.8138 13.136 52.6723 13.2917C52.0773 12.8887 51.4749 13.5133 50.9626 13.6507C51.0096 13.7473 51.1357 13.7285 51.1652 13.8508C51.3566 13.9401 51.2609 13.6603 51.4153 13.702C51.4184 13.8627 51.5094 13.8952 51.4775 14.1196C52.0911 14.0761 52.2124 14.7507 52.7029 14.8867C53.4525 14.8734 54.0884 15.0515 54.8292 15.0511C55.3382 15.2109 56.0612 15.694 56.5493 15.2361C56.6249 14.9352 56.2698 15.2626 56.3455 14.9741L56.4448 14.9691L56.4422 14.8331C56.5942 14.7511 56.5353 14.9769 56.5467 15.1C56.9617 15.0666 57.2712 15.1871 57.7125 15.1152C57.4821 14.8793 57.4365 14.3866 57.3379 13.9584L58.2495 13.9121L58.2588 14.3944C58.5139 14.5052 58.6552 14.3371 58.9628 14.3586C59.002 14.5175 58.883 14.9072 59.0713 14.8358C59.1036 15.1064 58.7932 14.9366 58.8808 15.2663C60.1998 15.7315 62.0669 15.1046 63.2871 15.5996C63.66 15.2589 64.3065 15.5232 64.6526 15.6665C65.2509 15.302 65.7917 15.7077 66.419 15.4407C66.4653 15.0299 66.0639 15.2978 66.0578 14.9764L66.3646 14.9608C66.3026 14.5555 65.9333 14.6114 65.7017 14.784C65.5922 15.198 66.063 14.7781 66.0152 15.1147C65.7039 15.3656 65.6048 14.9127 65.2545 15.0171C65.2105 14.6109 65.4281 14.6494 65.2426 14.3989C65.3504 14.3687 65.4207 14.2661 65.4359 14.1168C65.9162 14.1915 66.1858 14.5862 66.8069 14.468C66.8584 14.7996 66.5675 14.703 66.619 15.0345C66.6086 15.4311 67.0463 15.1737 67.1325 15.4293C67.4682 15.0286 68.1667 15.6491 68.6914 15.214C68.8973 15.5872 69.4073 14.8559 69.6507 15.3015C70.3745 14.8811 71.254 15.5172 72.1212 15.04C72.5069 15.367 73.3299 14.9415 73.586 15.1018C73.6938 15.0716 73.7641 14.969 73.7793 14.8197C74.676 14.9351 75.6358 14.577 76.5103 14.9534C76.531 14.6182 77.0984 14.9978 77.1098 14.6507C77.3965 14.9951 77.6861 14.5472 78.0666 14.6022C78.1932 14.6081 77.8542 14.3654 78.0599 14.256C78.23 14.1731 78.1452 14.462 78.1659 14.5971C78.6414 14.4245 79.0197 14.8385 79.276 14.5408C79.4461 14.9282 80.2755 14.3663 80.4456 14.7537C80.5753 14.4501 81.1774 14.7537 81.2978 14.4382C81.6671 14.8527 82.0914 14.3608 82.4674 14.6512C82.5011 14.5257 82.6187 14.5321 82.6619 14.4309C82.4277 13.9972 81.6396 14.359 81.3876 13.9386C81.8636 13.7907 82.9089 13.651 83.0151 14.4749C84.1896 14.4771 84.5597 14.4584 85.4908 14.4854C85.5675 14.2463 85.7739 14.174 85.8877 13.9826C86.1919 14.3013 86.8829 14.0558 87.2572 14.2596C87.2866 13.9116 86.9822 14.0508 87.0468 13.6515C87.4066 13.5713 87.4942 13.901 87.8102 13.885C87.8686 14.1048 87.7322 14.0622 87.7161 14.1621C87.8653 14.402 88.4087 14.4735 88.5234 14.3315C89.1039 14.4506 89.8236 14.2903 90.5478 14.3649C90.8827 14.3974 91.1851 14.6172 91.5112 14.6626C92.2176 14.7505 93.0043 14.7848 93.422 14.4295C93.7935 14.4849 94.3759 14.2326 94.589 14.5064C94.7531 14.5847 94.6208 14.282 94.785 14.3603C95.2685 14.6081 96.0859 14.3562 96.5079 14.6937C96.6554 14.3768 97.3212 14.7019 97.4594 14.3731C97.5787 14.4661 97.7328 14.4954 97.8167 14.6273C97.9245 14.5971 97.9948 14.4945 98.01 14.3452C98.2979 14.2811 98.7157 14.396 98.9202 14.2247C98.6613 13.9161 98.2794 13.787 98.2929 13.0808C98.3561 13.0776 98.3404 13.2022 98.3511 13.2883C98.5257 13.4403 98.9021 13.2851 99.1558 13.3217C99.1354 13.199 99.1893 13.1839 99.2525 13.1806C99.1662 12.9251 99.1696 13.0982 99.2458 12.8344C99.5123 13.0684 99.8767 12.7529 99.914 13.2832C99.776 13.1541 99.5413 13.166 99.4033 13.0368C99.3142 13.5736 99.9522 13.3927 100.266 13.2654C100.38 13.569 100.243 13.9349 100.337 14.1652C100.477 14.3685 100.976 14.0338 101.046 14.3397C102.084 13.8538 103.139 14.1963 103.965 13.9193C104.152 13.8108 104.067 14.0997 104.22 14.0425C104.751 13.471 106.138 14.205 106.53 13.4426C106.776 13.987 107.4 13.547 107.803 13.8607C107.956 13.8158 108.006 13.6152 108.103 13.4989C109.351 14.0296 111.038 13.4242 112.551 13.6198C113.211 13.6729 114.239 13.5341 115.029 13.7663C115.172 13.6848 115.148 13.3766 115.273 13.2712C115.445 13.3244 115.513 13.5437 115.589 13.7379L115.742 13.7301C115.85 13.7246 115.764 13.4814 115.79 13.3812C115.776 13.1467 115.411 13.4004 115.432 13.127C115.85 13.2296 115.974 13.0872 116.238 13.2222C116.077 13.2799 116.063 13.5034 116.148 13.7095C116.151 13.8579 116.365 13.7232 116.457 13.7681L116.465 14.1885L116.717 14.1757C116.713 13.9408 116.506 14.0131 116.511 13.7654C116.823 13.5391 117.598 13.9082 117.668 13.3601C117.775 13.7136 118.319 13.8345 118.372 13.3244C119.008 13.4654 119.581 13.6838 120.198 13.8505C120.314 13.758 120.42 13.6412 120.647 13.6916C120.717 14.0222 120.481 13.9723 120.504 14.2558C120.596 14.313 120.643 14.422 120.761 14.4532C120.987 14.4417 120.934 14.0484 121.206 14.0841L121.198 13.6637C121.611 13.5561 121.788 13.7946 121.964 14.0456C122.042 13.8931 121.843 13.8537 122.01 13.6225C122.914 14.1335 124.096 13.5785 125.247 13.7305C125.356 13.3289 125.018 13.5936 125.04 13.3202C125.877 13.1663 126.234 14.3487 127.016 13.6408C127.347 13.9457 128.108 13.6101 128.439 13.9151C128.555 13.8226 128.587 13.6105 128.739 13.5533C128.89 13.8798 129.234 13.9242 129.315 14.3533C129.17 14.3235 128.893 14.4985 128.959 14.161C128.378 14.4628 127.735 13.9137 127.244 14.248C126.203 13.6696 124.979 14.8332 124.058 13.927C123.518 14.0534 123.082 13.9517 122.498 14.0804C122.486 14.4028 122.615 14.52 122.858 14.4829C122.604 14.929 121.693 14.5173 121.246 14.7751C120.169 14.1738 118.904 15.1415 118.004 14.3827C117.962 14.0383 118.296 14.504 118.354 14.2288C118.122 13.9188 117.548 14.1335 117.29 13.862C117.291 13.9485 117.283 13.9861 117.238 14.0007C117.06 14.1212 117.357 14.0937 117.297 14.27C116.683 14.2517 116.025 14.3717 115.481 14.2261C115.417 14.2045 115.386 13.9833 115.322 13.9618C115.067 13.851 114.736 14.0163 114.519 14.0026C114.048 13.9646 113.742 14.042 113.309 14.064C113.093 14.0749 112.823 13.7049 112.65 14.0974C112.12 14.2604 111.748 13.6852 111.441 14.1588C111.445 14.3566 111.615 14.2861 111.548 14.5741C111.267 14.5265 111.109 14.7573 110.889 14.6075C110.902 14.3346 111.1 14.2874 111.335 14.3126C111.366 14.0264 111.168 14.0859 111.076 13.9792C109.832 14.1043 108.15 14.0287 106.835 14.2687C106.914 14.6112 107.26 14.2719 107.395 14.2403L107.403 14.6607L108.008 14.63C108.096 14.5018 108.137 14.3016 108.252 14.1968C109.06 14.3909 110.062 14.3154 110.834 14.5485C109.322 14.8356 107.415 14.7962 105.79 14.8787C105.857 14.5906 105.677 14.6616 105.683 14.4633C104.296 14.249 102.44 14.5288 100.58 14.5861C100.522 14.8118 100.744 14.6273 100.685 14.853C100.55 14.897 100.286 14.7866 100.235 14.9501C100.169 15.2629 100.401 15.1273 100.546 15.1447C100.657 15.2753 100.177 15.213 100.042 15.2446C100.211 15.1246 100.083 15.0074 99.9812 14.9011C99.8548 14.9075 99.8579 15.0683 99.7867 15.1214C99.8066 15.2194 99.9142 15.1768 99.9867 15.1855C99.8232 15.6146 99.4252 15.115 98.9772 15.311C98.9931 15.1988 99.1385 15.2409 99.0713 15.0339C99.0337 14.9616 98.9525 14.9657 98.9679 14.8288C98.4948 15.1251 98.1074 14.7115 97.7069 15.0289C97.3293 14.652 96.517 15.1635 96.2421 14.9671C96.1889 15.0193 96.1911 15.1306 96.0913 15.1109C96.0324 15.3366 96.2547 15.1521 96.1958 15.3779C95.9866 15.3018 95.7246 15.3028 95.5859 15.1365C95.0037 15.4012 94.1821 15.4305 93.8684 15.0875C93.323 15.3875 92.5373 14.9323 91.7988 15.0564C91.8026 15.2542 91.9729 15.1837 91.9062 15.4717C90.5276 15.1952 88.7897 15.4937 87.4033 15.2794C87.2684 15.311 87.2631 15.5093 87.0539 15.4333C85.6003 15.012 83.5379 15.8221 82.2971 15.192L81.6382 15.2254C81.1346 14.8797 79.7667 15.1595 79.1057 15.0816C79.3383 15.4288 80.1332 14.9552 80.1724 15.5845C79.7907 15.4677 78.4345 15.883 77.8953 15.5639C77.7956 15.5442 77.7421 15.584 77.7445 15.7076C77.6269 15.7012 77.7115 15.3999 77.7379 15.3614C77.7248 15.1517 77.483 15.263 77.3291 15.246C77.3607 15.4796 77.5595 15.4819 77.5911 15.7154C77.4721 15.6348 77.3616 15.5291 77.1372 15.6023C77.1072 15.4553 77.2345 15.4984 77.2324 15.3871C76.8243 14.8385 75.9001 15.6403 75.3047 15.2126C74.976 15.5016 74.2491 15.2909 73.8929 15.5565C73.8646 15.9664 74.3836 15.7049 74.4539 15.6023C74.8912 15.7905 75.8935 15.7644 76.3222 15.5075C76.2467 15.8084 76.6018 15.481 76.526 15.7695C75.5538 15.9549 74.528 15.6976 73.705 16.123C71.854 16.1798 68.1708 16.3296 66.0357 16.6483C66.048 17.2913 66.4654 16.9112 66.6998 16.8869C67.6829 16.7999 69.0942 16.9015 69.9866 16.7944L69.9947 17.2148L70.798 17.174C70.8182 16.8141 70.6448 16.7238 70.3837 16.7742C70.3436 16.5659 70.6906 16.7586 70.9433 16.7458C71.1961 16.733 71.8616 16.5755 71.3495 16.7252C71.2243 16.7935 71.164 16.945 70.9459 16.8818L70.9512 17.1539C71.8623 17.0829 73.2836 17.7038 74.1256 16.8566L74.1323 17.2028C74.3506 17.2784 74.3558 17.0801 74.4817 17.049C74.4841 17.1726 74.5223 17.2821 74.5862 17.3159C74.6394 17.2637 74.6373 17.1525 74.737 17.1722C74.8126 16.8713 74.4753 17.1854 74.4803 16.9748C74.8156 16.5617 75.3477 17.4506 75.6897 16.9134C75.8773 16.8049 75.7047 17.2221 75.8923 17.1135C76.0652 17.179 75.9695 16.8992 75.9849 16.7623L76.689 16.7266C76.7189 16.8736 76.6194 16.8662 76.5381 16.8704C76.7854 17.0435 76.8614 16.7673 77.1402 16.7037C77.2077 16.923 76.9787 16.7614 77.0462 16.9807C77.1034 17.1387 77.3626 16.9894 77.4989 17.032C77.2766 16.7463 77.488 16.4632 77.5823 16.1986C77.7647 16.2883 77.8504 16.5191 77.9977 16.6602C78.8093 16.5819 79.4406 16.5251 80.3689 16.4037C80.3722 16.5768 80.4895 16.5709 80.5275 16.6679C80.8434 16.6519 80.9183 16.3139 81.2805 16.3575C81.4532 16.4106 81.4327 16.7581 81.737 16.6066C81.7237 16.8548 81.4049 16.7224 81.3916 16.9706C81.1802 16.7833 80.4302 16.7719 80.2273 17.0297C80.0827 17.0247 79.1226 16.9001 79.0231 17.3631C78.8844 17.1969 78.8357 17.0137 78.6685 17.245C78.7262 16.9574 78.5813 16.94 78.4105 16.9858C78.4067 17.2582 78.6575 17.1465 78.6713 17.3933C78.2485 17.489 77.4989 17.5023 77.1072 17.3365C76.9262 17.321 76.9125 17.5445 76.7593 17.5646C74.9092 17.6708 72.6844 17.5486 70.7056 18.0079C70.5954 17.9145 70.3759 17.7771 70.2994 18.0285C70.1384 18.1109 70.1709 17.9237 70.0982 17.9026C70.0013 18.0313 69.6788 18.1714 69.5928 17.9282C68.5361 18.415 66.4561 18.3102 65.3108 18.4178C65.1122 18.4279 64.9015 18.2777 64.7034 18.3125C64.1182 18.4164 63.4983 18.5964 62.8377 18.5433C61.4532 18.4279 60.0126 18.6866 58.6923 18.6175C58.5286 18.5639 58.5039 18.6889 58.4422 18.7663C57.3538 18.5493 55.6717 18.4613 54.6537 18.612C54.3347 18.4673 53.6195 18.3922 53.3915 18.7503C52.6314 18.2196 51.7823 19.1661 51.0652 18.5218C50.4852 18.8978 49.2553 18.3661 48.7456 18.6395C48.3639 18.5227 47.6252 18.1642 47.3827 18.7087C46.8497 18.2406 45.8574 18.7861 45.1531 18.3391C45.0087 18.3464 45.0398 18.5553 44.9044 18.5621C44.4101 18.2283 43.6197 18.4664 43.0347 18.5827C43.1019 18.3194 42.8088 18.5818 42.876 18.3185C41.6715 18.1692 40.2466 18.3034 39.1894 18.2952C38.8277 18.7467 37.8085 18.3652 37.3819 18.7334C36.7346 18.4321 35.4568 19.1653 34.7076 18.733C34.2243 18.9679 33.5412 19.1511 32.998 19.092L32.9928 18.82C32.1895 18.8608 31.5441 18.6583 30.6705 18.8017C30.6116 19.0275 30.8339 18.8429 30.775 19.0687C30.5591 19.1168 30.4489 19.0233 30.4178 18.8145C30.0188 18.7357 29.4527 18.9006 29.1501 18.6684C28.2796 18.9725 27.3129 18.9721 26.3317 19.158C25.8187 19.2583 25.1959 19.2899 24.6619 19.2427C22.4088 19.06 20.0146 19.0577 17.7363 18.9753C17.5361 18.8988 17.6413 19.2029 17.432 19.1269C17.2214 18.9767 16.6694 18.9304 16.4753 19.1754C14.6257 18.8361 12.4933 19.2908 10.5632 18.9927C10.0376 18.908 9.4238 18.9392 9.04163 18.7977C8.54093 18.6003 7.89583 18.8805 7.42458 18.8054C7.17091 18.7688 7.0037 18.5298 6.75763 18.4185C6.42961 18.2742 5.91656 18.3745 5.78901 17.8488C5.57334 17.9093 5.44532 17.8291 5.37881 17.6592L4.77409 17.6899C4.24655 17.036 4.19358 15.6896 2.97177 16.0487C2.97605 16.2712 3.05965 16.3907 3.0378 16.6641C2.80099 16.5648 2.60789 16.3889 2.57321 15.9946C2.36847 15.6832 1.91005 15.8055 1.65757 15.8307C1.497 15.9379 1.51268 16.2836 1.41672 16.4617C1.08538 15.6741 0.577793 15.1181 0.114625 14.5228C0.136711 13.7915 0.417934 13.3812 0.486337 12.7094C1.08536 12.8523 1.06351 12.185 1.64401 12.3041C1.72382 12.2258 1.76657 12.0999 1.83735 12.022C2.54564 12.2088 3.39572 11.782 4.21375 12.0376C4.23536 11.2815 3.61448 11.412 3.24775 11.6039C3.16651 11.1377 3.47434 11.1716 3.38384 10.6935C4.17336 10.4059 4.22181 9.16582 5.12225 9.00874C5.22961 8.95379 5.3182 8.86266 5.31416 8.65246C5.7398 8.70513 5.86901 8.37678 6.32244 8.46516C6.95614 8.06171 8.07677 8.07911 8.54801 8.62452C10.8187 9.25188 13.6262 9.13418 16.1869 9.33841C16.405 9.40161 16.4653 9.25003 16.5905 9.1818C16.7513 9.55731 17.5363 9.03479 17.7059 9.39748C19.0552 9.09386 21.2673 9.48905 22.7487 9.00546C22.9974 9.25275 23.8626 9.14696 24.1116 8.93631C24.3234 9.14833 24.599 8.91158 24.7163 8.90562C28.0048 8.89966 32.6181 8.72745 36.0774 8.67569C36.4814 8.5438 37.4799 8.31987 38.0992 8.5731C38.8597 8.18797 39.8326 8.5099 40.4188 8.4554C40.6682 8.26948 41.6061 8.18476 42.1311 8.23238C44.2576 8.40914 46.7668 8.28182 48.7047 8.51765C49.3401 8.20075 50.678 8.71455 51.2345 8.52542C52.1079 8.84002 53.4119 8.52633 54.2765 8.85375C54.6869 8.5854 55.1771 8.70904 55.6394 8.7846C57.497 9.07401 59.714 8.78825 61.6056 8.96454C61.7971 9.05384 61.7014 8.77404 61.8557 8.81571C62.6612 8.88623 63.8405 9.13581 64.5842 8.81341C66.5285 8.91278 68.8339 8.52352 70.7939 8.49832C70.9112 8.49237 70.864 8.38338 70.9447 8.35453C72.0836 7.91307 74.4524 8.47358 75.736 8.03716C75.8707 7.99319 76.1003 7.72163 76.2956 8.00876C79.0748 7.83061 83.1367 7.16658 85.7366 7.52972C85.8724 7.54758 86.1149 7.47339 86.3387 7.36302C87.4365 7.60435 88.8421 7.40927 90.1245 7.38133C90.0573 7.64464 90.3504 7.38224 90.2832 7.64556C90.881 7.25631 91.5318 7.74309 91.9955 7.42253C97.3508 7.78199 102.826 6.87296 108.549 6.5826C111.69 6.42323 114.244 6.29362 116.933 6.57799C117.06 6.59631 117.116 6.25926 117.24 6.56242C117.404 6.62836 117.364 6.44473 117.436 6.41633C117.692 6.60134 117.671 6.41679 117.995 6.38794C118.282 6.74467 119.222 6.28856 119.812 6.43189C119.903 6.45204 119.987 6.60866 120.069 6.62926C120.893 6.74833 121.757 6.56835 122.599 6.63704C125.25 6.84905 128.018 6.54772 130.632 6.71211C130.823 6.80141 130.728 6.5216 130.882 6.56328C131.563 6.75149 133.427 6.4094 134.624 6.64569C134.913 6.19782 135.487 6.92366 135.786 6.4506C135.905 6.5312 136.061 6.68415 136.138 6.43274C139.945 6.63559 144.236 6.13321 147.859 6.60534C148.059 6.68181 147.954 6.37774 148.163 6.45376C152.38 6.83383 156.877 5.76406 161.539 5.77503C163.879 5.29739 166.655 5.41644 168.318 6.39643C167.877 6.46833 167.745 6.178 167.406 6.44269C167.418 6.56587 167.359 6.79164 167.511 6.70966C167.305 6.83148 166.934 6.78843 166.556 6.8324C166.502 6.84751 166.522 6.97024 166.459 6.97344C166.444 7.1351 166.464 7.2331 166.52 7.3169C166.633 7.55869 167.018 7.39062 167.281 7.41444C167.101 7.94336 166.366 7.77026 166.029 8.09677L166.035 8.44297C166.139 8.6605 166.459 8.39672 166.644 8.62249C166.68 9.09096 166.244 8.96457 165.947 9.00441C165.955 9.4248 166.103 9.62767 166.41 9.59973C166.278 9.79207 166.267 10.1392 165.968 10.1048C166.016 10.2509 166.169 10.2431 166.173 10.441C166.437 10.5142 166.496 10.3132 166.676 10.2793C166.544 10.4716 166.513 11.1787 166.793 11.1769C166.64 11.2465 166.711 11.6142 166.707 11.8743L167.411 11.8386C167.315 12.4994 167.676 12.4934 168.081 12.4234C168.085 12.6212 167.932 12.629 167.89 12.7797C168.055 12.9074 168.176 13.1117 168.35 13.239C168.219 13.4931 168.232 14.1484 168.273 14.4186C168.528 14.4924 168.579 14.3165 168.62 14.1288C168.86 14.3889 168.529 15.0368 168.231 15.052L168.237 15.324C168.412 15.5255 168.697 15.2883 168.84 15.2191C168.824 15.3437 168.879 15.3533 168.942 15.3501C168.939 15.6596 168.778 15.7668 168.701 15.9811C168.61 15.9362 168.398 15.7119 168.293 15.9275C168.246 16.3012 168.63 16.059 168.706 16.2531C168.244 17.1182 167.652 17.8289 167.032 18.4792C166.944 18.1371 166.689 18.0263 166.461 17.8894C166.266 18.0849 165.858 18.019 165.765 18.3455C165.725 18.1371 165.935 18.2502 165.858 17.9942L165.831 18.008ZM65.9589 13.5952C65.7383 13.396 65.3594 13.4276 65.0421 13.3695C65.0547 14.0248 65.6231 13.5132 65.9589 13.5952ZM111.278 8.04067C111.204 7.93306 110.789 7.95412 110.719 8.06907C110.793 8.16432 111.239 8.35207 111.278 8.04067ZM115.221 8.26138C115.376 8.30306 115.28 8.02325 115.472 8.11255C116.643 8.4244 118.118 8.10201 119.664 8.11024C119.667 8.30807 119.944 8.13314 119.922 8.36944C120.765 8.06674 121.819 8.37218 122.65 8.36714C122.83 8.35798 123.017 8.21235 123.207 8.20273C123.469 8.18945 123.753 8.42254 124.015 8.43399C124.631 8.47703 125.235 8.43399 125.827 8.20593C125.197 7.84187 124.092 8.17022 123.4 7.90828C122.166 8.09466 120.122 7.5424 118.651 8.07499C118.546 7.79564 118.081 8.05438 117.942 7.83869C117.129 7.87991 115.803 7.97196 115.159 7.84374C113.971 7.60699 112.661 8.09425 111.377 8.03564C112.46 8.40152 114.06 7.99853 115.221 8.26138ZM75.1087 11.126C75.156 11.235 75.2474 11.2922 75.4182 11.2464L75.4115 10.9002C74.851 10.8791 74.4384 11.0362 73.8966 11.0513C73.8268 11.1786 73.813 11.4021 73.7525 11.5413C73.6434 11.5097 73.5608 11.4397 73.5924 11.2029L73.2404 11.2208C73.2249 11.3577 73.228 11.5184 73.0922 11.5006C72.9722 11.3705 72.7732 11.3559 72.5299 11.393L72.5366 11.7392C73.2195 11.5436 73.905 11.9544 74.3508 11.6471C74.4458 11.8898 74.6638 11.953 74.8643 12.0418C74.8714 11.4722 74.4828 11.4671 74.2477 11.4543C74.2981 11.2537 74.5149 11.2551 74.6486 11.1617C74.9448 11.5303 74.9814 11.5532 75.0999 11.1388L75.1087 11.126ZM77.4877 11.2775C77.6271 11.4809 77.8571 11.2217 78.0473 11.2491C78.0072 11.0408 78.0967 10.9991 78.0934 10.826C77.7908 10.5938 77.7024 11.1676 77.4967 11.2771L77.4877 11.2775ZM79.7 10.7445C79.652 11.0687 80.3769 11.1804 80.3603 10.7852C80.1411 10.6602 79.943 10.695 79.7 10.7445ZM82.4852 10.8754C82.7003 10.7903 82.7664 10.9354 82.8939 10.9908C82.9714 10.7889 83.2436 10.8493 83.2379 10.5526C83.0372 10.4514 82.7044 10.5302 82.4331 10.5192C82.3918 10.7193 82.5087 10.6886 82.4939 10.8626L82.4852 10.8754ZM149.824 7.80513C148.816 7.54686 147.252 7.96038 146.234 7.64075C145.912 7.80561 145.363 7.89536 144.871 7.7099C144.303 8.23379 143.062 7.5913 142.455 7.96865C141.189 7.88439 139.803 7.71954 138.617 8.02728C138.148 7.60552 137.518 8.19443 136.942 7.83999C136.172 8.22558 134.579 7.61332 133.866 8.13217C133.817 7.92426 133.357 7.94762 133.307 8.16056C133.435 8.25306 133.423 8.56309 133.569 8.62995C133.98 8.42342 135.053 8.7774 135.588 8.39135C136.048 8.82594 136.84 8.20405 137.461 8.56857C138.4 8.063 140.122 8.33455 141.297 8.37393C142 8.26402 143.435 8.20357 144.279 8.3588C144.797 8.04786 145.391 8.43848 145.792 8.14586C145.814 8.3304 145.95 8.3359 146.05 8.40505C146.585 8.04373 147.165 8.58364 147.663 8.18706C148.302 8.5383 149.16 8.04922 149.737 8.42839C149.777 8.16645 150.067 8.22598 150.292 8.1898C150.233 7.94526 149.997 7.84589 149.833 7.79231L149.824 7.80513ZM89.6015 10.7247C89.892 10.7966 90.4286 10.5095 90.5609 10.8122C90.6575 10.6712 90.8744 10.6725 91.0081 10.5791C91.0304 10.3305 90.8509 10.3891 90.8466 10.1665C90.697 10.3721 90.1915 10.3978 90.0433 10.2073C89.9946 10.4944 89.5108 10.2343 89.6013 10.7124L89.6015 10.7247ZM97.1133 9.99705C97.0663 10.3707 97.3007 10.3465 97.2274 10.7586C97.4119 10.4893 97.5425 10.7055 97.787 10.7302C97.82 10.5676 97.6862 10.1908 97.877 10.243C97.9957 10.3112 97.9033 10.6748 97.943 10.8584C98.5446 11.1373 98.9879 10.694 99.1406 10.1788C99.2066 10.324 99.2197 10.5337 99.3033 10.6533C99.4928 10.6437 99.4973 10.4083 99.752 10.4944C99.7482 10.2965 99.5947 10.3043 99.5467 10.1582C99.6546 10.128 99.7249 10.0254 99.7401 9.87614C99.5242 9.92423 99.1966 9.80471 99.138 10.0428C98.4553 9.78044 97.8708 9.92149 97.1136 10.0094L97.1133 9.99705ZM107.922 9.72087C107.995 9.7543 108.183 9.62104 108.177 9.78223C108.012 9.70393 108.145 10.0066 107.981 9.92832C107.899 9.90771 107.931 9.70805 107.779 9.80238C107.745 9.91549 107.619 9.90954 107.631 10.0822C107.788 10.2722 108.294 10.2466 108.435 10.0414C108.431 9.8436 108.278 9.88847 108.274 9.70301L108.527 9.69019C108.46 9.9535 108.665 9.81932 108.633 10.0314C108.839 9.9219 108.966 9.50701 108.772 9.25697C108.414 9.42366 108.419 9.25011 107.969 9.29773C107.972 9.45847 107.882 9.50014 107.922 9.72087ZM112.575 9.69521C112.719 9.68788 112.67 9.45524 112.879 9.54363C113.233 10.1073 114.044 9.52164 114.446 9.73641C114.404 8.99592 113.589 9.37144 113.074 9.32336C112.578 9.88067 111.99 8.89564 111.512 9.40259C110.625 8.86588 109.898 9.55875 108.98 9.2588C109.186 10.1271 110.16 9.5702 110.763 9.93563C111.028 9.58805 111.591 10.2031 111.714 9.54088C112.094 9.6082 112.362 9.45845 112.575 9.70757L112.575 9.69521ZM69.3101 11.6801C69.4203 11.7735 69.4605 11.9819 69.6236 12.0107C69.6999 11.747 70.0911 11.888 70.325 11.839C70.34 11.6773 70.4013 11.5752 70.3699 11.354C69.9574 11.5111 69.6175 11.219 69.3191 11.6796L69.3101 11.6801ZM88.5441 10.7041C88.8127 10.5791 89.4519 10.9304 89.3963 10.3886C89.0384 10.5677 89.0075 10.3712 88.5388 10.4321L88.5441 10.7041ZM91.1164 10.5736C91.4231 10.5457 91.8295 11.0077 91.9183 10.4587C91.8361 10.4133 91.8418 10.2398 91.7157 10.2586C91.552 10.6753 91.1594 9.98975 91.1162 10.5613L91.1164 10.5736ZM92.9373 10.8278C93.2004 10.8887 93.223 10.6524 93.3382 10.5351C93.6047 11.2395 94.6619 10.7774 95.368 10.853C95.3657 10.7293 95.3996 10.6162 95.4621 10.5759C95.5386 10.7948 95.8699 10.6418 95.9728 10.8223C95.9711 10.7357 95.9877 10.6606 96.0694 10.6812C96.1283 10.4555 95.906 10.64 95.9649 10.4142C95.3989 10.5791 95.316 10.0264 94.794 10.1271C94.689 10.776 94.2168 10.1812 93.8824 10.1734C93.6384 10.1734 93.6246 10.3968 93.4325 10.2705C93.4318 10.2334 93.4308 10.1839 93.3769 10.199C93.4125 10.6428 92.8185 10.2892 92.9375 10.8401L92.9373 10.8278ZM96.3245 10.792C96.5217 10.7078 96.9504 10.9212 96.9808 10.6226C96.7863 10.3726 96.4858 10.2517 96.1683 10.1811C96.121 10.5425 96.2844 10.5837 96.3336 10.7916L96.3245 10.792ZM119.299 9.83668C119.322 9.61275 119.257 9.51704 119.236 9.35722C118.699 9.17404 118.17 9.38653 117.771 9.2954C117.832 10.1339 118.737 9.72907 119.299 9.83668ZM161.443 7.35172C161.131 7.12001 160.528 7.22488 160.335 7.54406C159.66 7.20702 158.585 7.68237 158.013 7.52575C156.65 8.04048 154.705 7.42136 153.88 8.21818C154.018 8.38441 154.199 8.37525 154.331 8.19528C154.443 8.41234 155.093 8.37937 155.188 8.15177C155.827 8.47828 156.795 8.07025 157.406 7.9031C159.457 7.92278 161.99 7.63335 164.021 7.49321C163.36 6.94506 162.258 6.96384 161.443 7.35172ZM82.9032 11.4731L82.898 11.201L82.6994 11.2111C82.7203 11.3586 82.7944 11.4538 82.9032 11.4731ZM87.7992 11.435L88.1061 11.4195L88.0968 10.9372C87.8526 10.9249 87.7747 11.1021 87.7992 11.435ZM100.467 10.5818L100.462 10.3098L100.264 10.3199C100.232 10.5566 100.297 10.6524 100.467 10.5818ZM88.3588 11.4066C88.6374 11.3306 88.6524 11.6393 88.9662 11.512C89.0372 10.9762 88.3389 10.8383 88.3588 11.4066ZM125.758 9.29857C125.028 9.40986 124.141 8.83606 124.1 10.0015C124.476 9.84628 124.502 10.2287 124.711 10.317C124.939 10.4045 124.861 10.1114 125.061 10.1632C125.085 10.0134 124.989 9.70889 125.105 9.67821C125.347 9.56693 125.22 9.99419 125.418 9.93466C125.83 9.78994 126.289 9.70477 126.517 9.32193C126.36 9.13188 125.942 9.0293 125.757 9.28621L125.758 9.29857ZM151.1 8.35923C152.011 8.31298 152.935 8.41464 153.575 8.36976C153.574 8.28321 153.59 8.2081 153.672 8.22871C153.125 7.5015 151.888 7.99746 151.09 7.87702L151.1 8.35923ZM45.3509 13.5889C45.5652 13.9246 45.9811 13.9406 46.169 14.3147C46.0253 14.3591 45.7424 14.2126 45.821 14.5428C46.4127 14.7727 47.5003 14.9526 48.1007 14.6994C48.0584 14.3797 47.6385 14.6238 47.7368 14.099C47.8356 14.0693 48.0456 14.1824 47.9869 13.9502C47.9283 13.2477 47.3207 13.6003 47.062 13.304C46.6364 13.7217 46.0255 13.4309 45.3512 13.6013L45.3509 13.5889ZM48.8375 13.5481C48.6415 13.2239 48.3361 13.784 48.0767 13.4506L48.086 13.9328C48.195 13.9644 48.4183 13.8293 48.4394 13.9891C48.4423 14.1375 48.2596 14.0354 48.1881 14.0761C48.2216 14.4086 48.2197 14.78 48.4556 14.8299C48.5962 14.6247 48.8059 14.7255 48.9095 14.943C49.0736 15.0213 48.9413 14.7186 49.1054 14.7969C49.5836 15.2306 50.5282 14.5515 50.983 15.1843C51.0643 15.1802 51.0158 15.0094 51.1339 15.0405C51.0721 14.6476 50.6769 14.7667 50.5184 14.5148C50.6218 14.2497 50.7978 14.4759 51.0225 14.415C51.0125 13.8957 50.3842 13.6429 50.5937 13.261C50.251 13.2908 49.794 13.4872 49.5802 13.1763C49.4133 13.4199 49.2349 13.07 48.8762 13.212C48.851 13.3123 48.9463 13.5674 48.8287 13.5609L48.8375 13.5481ZM39.55 14.0194C39.6941 14.47 39.3105 14.2543 39.3065 14.5144C39.5369 14.7503 40.0271 14.8739 40.32 14.5991C41.7052 14.7516 43.4436 14.4778 44.7633 14.5098C44.8222 14.284 44.5999 14.4686 44.6588 14.2428C43.9557 14.328 43.5161 14.0162 42.8831 13.9864L42.8764 13.6402C42.5128 13.5225 42.4738 13.8463 42.2216 13.8838C42.1974 14.0336 42.2936 14.3381 42.1767 14.3688C42.0465 14.1774 41.7055 14.2937 41.5138 14.192L41.5086 13.92C40.9528 13.6759 40.2324 13.7991 39.5409 14.0198L39.55 14.0194ZM43.3292 13.6915C43.5769 13.8893 44.6082 14.431 44.6379 13.6251C44.4113 13.5871 44.3049 13.6915 44.1892 13.784C44.0583 13.5555 43.4907 13.6338 43.3292 13.6915ZM56.3985 13.0283C56.4662 13.26 56.613 13.3764 56.8127 13.4281C56.8738 13.3136 57.0084 13.2697 56.9581 12.9999C56.7063 13.0622 56.5854 12.8827 56.3985 13.0283ZM138.527 8.9972C138.515 9.34432 138.636 9.4991 138.791 9.60259C139.3 9.29211 140.245 10.0239 140.6 9.23852C140.976 9.51649 141.765 9.20417 141.974 9.72577C142.11 9.76835 141.932 9.40612 142.068 9.44871C142.204 9.4913 142.174 9.77751 142.327 9.78209C142.49 9.78621 142.44 9.52885 142.519 9.42581C142.956 9.57693 143.168 9.80132 143.734 9.63646C143.692 9.32918 143.761 9.17715 143.877 9.07228C143.827 9.28522 143.987 9.19042 144.078 9.19821C143.666 8.92207 143.289 8.59465 142.649 8.65189C142.651 8.75081 142.672 8.91063 142.6 8.92666C141.747 8.72242 140.78 9.1799 139.817 8.93171C139.822 9.17899 140.029 9.14373 140.131 9.26234L139.68 9.28524L139.673 8.93903C139.177 8.96422 138.969 8.97476 138.759 8.84928C138.817 9.08146 138.608 8.96835 138.509 8.99811L138.527 8.9972ZM66.2948 12.7366C66.0931 12.5859 65.6715 12.7435 65.3818 12.7086C65.4597 13.0017 66.2684 13.2454 66.2948 12.7366ZM75.5322 12.4783C75.7023 12.3954 76.1042 12.6225 76.0336 12.2424C75.9583 12.0853 75.6811 12.2356 75.5268 12.1939L75.532 12.4659L75.5322 12.4783ZM95.9742 11.3668C95.917 11.2088 95.6578 11.3581 95.5215 11.3155C95.5448 11.5866 95.9592 11.5284 95.9742 11.3668ZM96.6834 11.6031C97.6592 11.603 98.101 11.5559 98.9632 11.7597C99.0147 11.6209 99.057 11.4702 99.1085 11.3315C99.3755 11.5902 99.9586 11.375 100.375 11.4034C100.192 10.8186 99.4589 11.2271 99.1071 11.2573C98.8741 10.8854 98.5686 11.4455 98.3463 11.1598C97.9112 11.5531 97.3228 11.026 96.6766 11.2445C96.6445 11.4565 96.6431 11.3823 96.6832 11.5907L96.6834 11.6031ZM164.632 8.2914C164.563 7.96077 164.23 8.02717 163.923 8.05511C163.949 8.44985 164.343 8.29369 164.632 8.2914ZM164.885 8.27858C165.111 8.26713 165.373 8.31567 165.331 7.98366L164.88 8.00656L164.885 8.27858ZM96.4386 12.0239L96.7906 12.006C96.7504 11.7977 96.649 11.6914 96.4333 11.7519L96.4386 12.0239ZM99.1142 12.0985C99.2586 12.0912 99.218 12.3284 99.4237 12.219C99.4743 12.0308 99.5292 11.5948 99.3126 11.6058C99.2898 11.8297 99.1463 11.8865 99.1233 12.0981L99.1142 12.0985ZM125.56 10.7567C125.603 10.6307 125.747 10.6358 125.707 10.4027L125.255 10.4256C125.26 10.6852 125.414 10.7145 125.569 10.7562L125.56 10.7567ZM124.958 10.9234C125.102 10.916 125.061 11.1532 125.267 11.0438C125.289 10.7828 125.188 10.6765 125.061 10.6335C125.128 10.8528 124.899 10.6912 124.966 10.9105L124.958 10.9234ZM164.386 9.1331C164.41 9.42893 164.812 9.17339 164.994 9.23842C164.952 8.94351 164.547 9.0383 164.386 9.1331ZM149.403 10.3142C149.703 10.893 150.68 10.4845 151.129 10.8454C151.574 10.4887 151.983 10.6164 152.74 10.4914C152.752 9.7358 151.983 10.1214 151.521 10.0706C151.418 10.3481 150.981 10.1846 150.72 10.2473C150.678 10.398 150.534 10.4177 150.371 10.4012C150.367 10.191 150.363 9.9808 150.209 9.98859C149.996 10.1603 149.68 10.2011 149.411 10.3014L149.403 10.3142ZM125.986 11.7747C126.071 11.9807 126.183 11.678 126.236 11.6258L125.983 11.6386L125.986 11.7747ZM98.6872 13.8529C98.938 13.7412 98.9606 13.9752 99.1411 13.966C99.152 13.5942 98.9432 13.5429 98.6817 13.5685L98.6869 13.8405L98.6872 13.8529ZM73.3095 15.7594L73.7608 15.7365C73.7539 15.3779 73.3116 15.4004 73.3095 15.7594ZM85.7741 15.1269C85.7687 14.8426 85.4207 15.0706 85.2661 15.0166C85.2715 15.301 85.6195 15.0729 85.7741 15.1269ZM63.9745 16.5796C63.9331 16.7797 63.9334 16.7921 63.9825 17C64.1148 16.8324 64.7716 16.6877 64.8942 16.9538C65.0262 16.7738 65.2067 16.7646 65.3454 16.9309C65.4804 16.8993 65.4856 16.701 65.6948 16.777C65.6706 16.4564 65.3652 16.5462 65.2355 16.3795C64.8958 16.57 64.569 16.4876 63.9745 16.5796ZM63.1223 16.8951L63.6277 16.8695C63.6923 16.4702 63.0424 16.5032 63.1223 16.8951ZM106.178 14.8466C106.46 14.956 106.495 14.4221 106.269 14.4212C106.273 14.619 106.1 14.5659 106.178 14.8466ZM119.91 14.3602L120.361 14.3373C120.276 14.1312 120.156 13.9765 119.903 14.014L119.91 14.3602ZM146.316 13.2926C146.362 13.3522 146.644 13.4245 146.668 13.2748C146.53 13.1704 146.349 13.1301 146.211 13.0257C146.152 13.2514 146.375 13.0669 146.316 13.2926ZM164.134 14.8143C164.168 15.1468 164.544 14.9792 164.648 15.209C164.678 14.9105 164.931 14.8976 164.989 14.6348C164.651 14.4663 164.468 14.785 164.134 14.8143ZM165.338 16.8324C165.499 16.7376 165.379 17.0532 165.54 16.9584C165.744 16.7871 166.48 16.5394 165.93 16.1094C165.689 16.2948 165.384 16.3969 165.338 16.8324Z" fill="black"/>
<path fill-rule="evenodd" clip-rule="evenodd" d="M78.5805 13.1561C78.6862 13.4849 78.4126 13.3503 78.4352 13.5843C78.8751 13.4382 79.4831 13.5805 79.8603 13.9326C79.518 14.4575 78.8618 13.6864 78.5981 14.0711C78.566 13.8128 78.2176 14.0162 78.238 13.6686C78.3615 13.5138 78.3832 13.228 78.5808 13.1685L78.5805 13.1561Z" fill="black"/>
<path fill-rule="evenodd" clip-rule="evenodd" d="M123.4 15.9263C122.855 15.8055 121.882 16.4367 121.327 15.7594C121.025 16.0223 120.729 15.629 120.414 15.7316C120.301 15.4775 120.669 15.3474 120.406 15.3112C120.522 15.194 120.775 15.2429 120.854 15.0781C120.838 15.2026 120.892 15.2122 120.955 15.209C120.948 15.2837 120.857 15.2635 120.859 15.3501C120.98 15.5419 121.462 15.2328 121.522 15.5268C121.564 15.4008 121.709 15.4058 121.668 15.1728C122.048 15.1782 122.157 15.1851 122.473 15.2061C122.262 15.5015 122.501 15.6997 122.587 15.9676C122.64 15.9154 122.638 15.8041 122.738 15.8238C122.616 15.5949 122.571 15.5848 122.627 15.2107C122.843 15.1749 122.945 15.3059 122.942 15.6154C123.46 15.3044 123.838 15.6936 124.356 15.4074C124.476 15.5127 124.428 15.8616 124.522 16.0178C124.722 16.119 124.534 15.7201 124.67 15.738C124.85 15.7288 124.943 15.8602 124.931 16.1455C125.137 16.0978 125.31 16.1262 125.341 16.335C125.525 16.0657 125.7 16.2054 125.996 16.0913C125.999 15.8189 125.749 15.9306 125.735 15.6838C126.136 15.8738 126.363 15.4538 126.694 15.7711C127.139 15.402 127.745 15.9405 128.253 15.5557C128.255 15.6794 128.319 15.7009 128.312 15.825C128.742 15.5928 129.433 15.8423 129.871 15.6096C130.227 15.8019 130.706 15.8146 131.185 15.815C131.141 15.8915 131.089 15.9561 131.036 16.033C130.68 15.8778 129.558 15.7616 129.369 16.254C129.206 16.2746 129.15 16.1537 129.111 15.9948C128.958 16.052 129.159 16.1409 129.116 16.2668C128.856 16.3543 128.824 16.1208 128.705 16.0154C128.59 16.1574 128.392 16.1922 128.148 16.1799C128.127 16.0572 128.181 16.0421 128.244 16.0389C127.953 15.9423 127.609 16.3435 127.137 16.2313L127.13 15.8851C126.792 16.1746 126.084 15.9878 125.978 16.5626C125.87 16.6052 125.903 16.4302 125.821 16.4343C124.78 17.2423 124.353 15.2343 123.391 15.9391L123.4 15.9263Z" fill="black"/>
<path fill-rule="evenodd" clip-rule="evenodd" d="M157.572 14.1886C158.53 13.2858 160.21 13.7079 161.555 13.6395C161.744 13.6298 161.958 13.4581 162.157 13.4727C162.527 13.491 162.939 13.73 163.108 13.152C163.276 13.4281 163.62 13.4478 164.025 13.3777C163.958 13.641 164.163 13.5068 164.131 13.7188C163.937 13.5059 163.413 13.5202 163.174 13.7675C162.169 13.633 161.268 14.2357 160.448 13.9061C159.669 14.2304 158.518 14.0785 157.572 14.1886Z" fill="black"/>
<path fill-rule="evenodd" clip-rule="evenodd" d="M134.61 15.8389C133.56 16.2017 132.604 16.2628 131.285 16.2803C131.207 15.9749 131.425 16.0628 131.375 15.7931C132.451 15.825 133.808 15.4589 134.664 15.8362C135.175 15.6122 136.284 15.4815 136.686 15.7334C136.882 15.5749 137.511 15.4191 137.697 15.6819C138.033 15.2936 138.562 15.5761 139.111 15.4739C139.114 15.5851 139.089 15.7349 139.171 15.7431C139.315 15.2531 140.309 15.2397 140.685 15.53C141.572 15.1507 142.588 15.3713 143.66 15.2425C143.744 15.362 143.942 15.3025 143.973 15.4989C144.157 15.2173 144.74 15.4599 144.767 14.9759C144.869 15.1563 145.034 15.2469 145.031 15.5812C144.866 15.4411 144.83 15.443 144.679 15.5991C145.199 15.8326 145.947 15.7451 146.651 15.7093C146.69 15.3979 146.439 15.4973 146.443 15.2371C146.307 15.1946 146.485 15.5568 146.349 15.5142C146.055 15.2816 145.41 15.562 145.231 15.1503C145.318 14.985 145.675 14.7688 145.789 15.0476C147.054 15.0576 148.259 14.7859 149.279 15.2167C149.073 15.2767 148.745 15.1572 148.622 15.3244C148.787 15.4645 149.146 15.3225 149.232 15.5656C149.348 15.4731 149.454 15.3563 149.681 15.4067C149.677 15.2212 149.515 15.2665 149.521 15.0683L149.972 15.0453C149.914 15.3453 150.059 15.3503 150.08 15.5225C150.864 15.3713 151.136 15.4564 151.699 15.5763C151.815 15.0258 151.271 15.4371 151.238 15.117L151.843 15.0863C151.901 15.3061 151.765 15.2635 151.749 15.3634C152.125 15.6536 152.843 15.4191 153.175 15.7735C153.209 15.6604 153.336 15.6663 153.323 15.4937C154.504 15.347 154.867 15.4399 155.74 15.2347C155.742 15.3583 155.806 15.3798 155.799 15.5039C155.714 15.7805 155.267 15.5805 155.303 16.0118C153.438 16.3171 151.442 16.3072 149.8 16.4279C149.407 16.225 149.284 16.4046 148.741 16.3455C148.811 16.2059 148.797 15.9714 148.987 15.9865C148.877 15.4228 147.952 15.247 147.82 15.9097C147.771 15.6894 147.86 15.6477 147.913 15.5584C147.691 15.2851 147.126 15.5242 146.746 15.4817C146.838 15.5883 146.93 15.6827 146.909 15.9561C147.062 15.4532 147.296 15.8869 147.709 15.7792C147.738 15.8767 147.653 16.141 147.77 16.1226C148.002 15.9871 148.17 15.7805 148.366 15.6097C148.442 15.8286 148.51 16.0603 148.63 16.215C147.443 16.4982 145.864 16.133 144.589 16.074C144.54 15.9032 144.448 15.8089 144.382 15.6637C144.139 15.7132 144.045 15.9532 143.783 15.9665C143.587 15.6547 143.074 15.2971 142.72 15.674C142.217 15.3283 141.56 15.9311 141.213 16.2333C141.094 16.1528 140.984 16.047 140.759 16.1203L140.754 15.8483C140.333 16.0429 139.63 15.6703 139.198 16.1997C138.478 15.8774 137.474 15.8294 136.881 16.4537C136.832 16.2829 136.74 16.1885 136.674 16.0434C136.496 16.1762 136.234 16.1895 136.075 16.3462C135.684 15.7843 134.914 16.6032 134.646 15.8L134.61 15.8389ZM149.619 15.9791C149.911 15.6301 150.093 16.1901 150.423 15.9382C150.361 15.533 149.886 15.7304 149.656 15.5564C149.66 15.7171 149.57 15.7588 149.61 15.9795L149.619 15.9791ZM151.588 15.9532L151.841 15.9404L151.839 15.8043C151.837 15.7178 151.756 15.7343 151.684 15.738C151.704 15.8731 151.614 15.8776 151.588 15.9532Z" fill="black"/>
<path fill-rule="evenodd" clip-rule="evenodd" d="M161.513 14.3346C161.353 14.4665 161.021 14.5577 160.809 14.3704C161.082 14.4432 161.319 14.134 161.513 14.3346Z" fill="black"/>
<path fill-rule="evenodd" clip-rule="evenodd" d="M108.45 10.8079L108.756 10.7923C108.807 11.062 108.588 10.9741 108.666 11.2795C108.829 11.2836 108.881 11.1572 108.914 10.9947C109.116 11.1824 109.364 11.3678 109.621 11.0949L109.627 11.4411C109.861 11.392 110.022 11.2972 110.135 11.5514C110.266 11.3219 110.412 11.3764 110.638 11.3897L110.646 11.81C110.388 12.0212 110.255 11.6938 109.985 11.7075C109.897 11.8234 109.901 12.046 109.739 12.0666C109.706 11.7589 109.541 11.6435 109.42 11.464C109.22 11.3875 109.325 11.6916 109.116 11.6156C109.137 11.7754 109.202 11.8711 109.179 12.0951C108.8 12.1143 108.412 12.1712 108.315 11.7925L108.568 11.7796C108.44 11.2663 108.557 11.2108 108.45 10.8202L108.45 10.8079Z" fill="black"/>
<path fill-rule="evenodd" clip-rule="evenodd" d="M91.8857 16.7742C91.8202 16.6537 91.5967 16.7765 91.6805 16.4381C91.9435 16.4866 92.1798 16.5612 92.2494 16.8918C92.3672 16.9106 92.2164 16.5841 92.3988 16.6738C92.4644 16.3239 92.2834 16.3084 92.2876 16.0606C92.548 15.9731 92.5796 16.2067 92.6463 16.3889C92.8912 16.4384 92.6209 16.0066 92.7389 16.0377C92.9943 16.1608 93.1795 16.399 93.4522 16.4841C93.6135 16.414 93.4415 15.9277 93.751 16.0481C93.8291 16.3535 93.6106 16.2656 93.661 16.5354C93.6714 16.6091 93.7612 16.5798 93.7629 16.6663C93.9538 16.7309 93.8391 16.4025 94.0116 16.4433L94.0182 16.7895C94.3605 16.7349 94.8196 17.12 95.0742 16.7358C95.2186 16.7284 95.2227 16.9386 95.3321 16.9949C95.5253 16.7005 95.1186 16.6964 95.1669 16.3845C94.7476 16.6657 94.5251 16.3677 94.0025 16.4437C93.9985 16.2335 93.8189 16.2922 93.841 16.0311C94.5697 15.8703 95.5754 16.0172 96.0614 15.9182C96.0112 16.1312 96.1721 16.0364 96.2625 16.0441C96.2661 16.2296 96.2521 16.4407 96.326 16.5236C96.706 16.5538 97.0437 16.2643 97.2402 16.6132C97.3349 16.3733 97.6428 16.4071 97.7931 16.2386C97.7527 16.4882 98.0375 16.2633 97.9532 16.577C98.0689 16.4845 98.1751 16.3677 98.4019 16.418L98.4071 16.69C98.9095 16.5036 100.047 16.0125 100.474 16.5849C100.712 16.2511 101.509 16.8541 101.834 16.3796C102.03 16.6667 102.183 16.1886 102.396 16.4871C102.46 16.4839 102.439 16.3612 102.447 16.2742C102.425 16.1144 102.193 16.2623 102.093 16.2179C102.128 16.1419 102.209 16.1378 102.188 16.0027C102.375 15.8447 102.438 16.3118 102.441 15.9898C102.517 16.1592 102.83 15.9824 102.8 16.3181C102.977 16.1111 103.416 15.9526 103.558 16.2796C103.701 16.2104 103.491 16.1097 103.551 15.9334C103.893 15.8665 104.042 16.0693 104.217 16.2461C104.378 15.718 105.207 16.0348 105.516 15.6973C105.838 15.9903 106.429 15.7251 106.78 15.633C106.783 15.8061 106.874 15.8386 106.787 15.9792C106.905 16.0227 107.181 15.8354 107.141 16.0973C107.208 15.8216 107.646 16.0345 107.583 15.5922C108.125 16.0349 109.019 15.0983 109.262 15.9895C109.517 16.0755 109.53 15.8397 109.711 15.8305C109.698 15.6208 109.298 15.9629 109.355 15.6382C109.644 15.6111 110.015 15.6789 110.156 15.4613C110.326 15.3784 110.241 15.6674 110.262 15.8025C110.405 15.7704 110.695 15.3225 110.82 15.6998C110.896 15.4361 111.324 15.6247 111.419 15.3971C111.582 15.4259 111.622 15.6219 111.776 15.6512C111.977 15.7524 111.789 15.3535 111.925 15.3714C112.095 15.2885 112.089 15.462 112.083 15.6356C112.446 15.2335 112.964 15.8383 113.242 15.3044C113.706 15.4417 114.178 15.5538 114.764 15.4993L114.771 15.8455L114.969 15.8354C115.029 15.6467 115.051 15.4104 115.315 15.4713C115.445 15.6874 115.325 16.0277 115.33 16.2997C114.573 16.363 114.123 15.9774 113.646 15.618C113.538 15.6235 113.634 15.9157 113.6 16.0411C113.249 16.1332 112.682 16.224 112.336 16.1054C112.351 15.9314 112.618 15.7198 112.381 15.6204C112.321 15.772 112.316 15.9827 112.237 16.1105C112.1 16.0555 111.77 16.2703 111.783 15.9974C111.556 16.4174 111.001 16.1857 110.824 15.91C110.634 15.9197 110.704 16.2503 110.477 16.2C110.325 16.282 110.384 16.0562 110.372 15.933C110.038 15.9005 109.87 16.1071 109.72 16.3127C109.065 16.0737 108.584 16.4447 108.001 16.1897C107.248 16.4879 106.167 16.1593 105.37 16.0513C105.336 16.1644 105.209 16.1585 105.221 16.3311C103.93 16.83 102.046 16.5669 100.838 17.1729C100.799 17.0634 100.673 17.0822 100.679 16.9087C99.703 16.8964 99.0873 17.299 98.2059 17.0344C97.7696 17.366 96.5806 17.08 96.0423 17.2806C95.8309 17.0933 95.0808 17.082 94.878 17.3398C94.1044 17.5153 93.8408 16.9594 93.199 16.9425L93.1938 16.6705C92.904 16.6357 92.8365 16.8867 92.7505 17.1139C92.1727 17.1309 91.375 17.4685 91.0756 16.9268C90.9794 17.0925 90.6981 17.0326 90.6295 17.2217C90.5207 17.2025 90.4466 17.1073 90.4257 16.9598C89.8416 17.1257 88.8224 16.7443 88.5626 17.3268C88.4604 17.1835 88.0343 17.1062 87.9578 17.3576C86.7916 16.8476 85.025 17.0612 84.1708 17.2779C83.9856 17.0398 83.8084 17.2221 83.6587 16.9574C83.5868 16.9735 83.6447 17.1685 83.5635 17.1727C83.3652 17.1951 83.211 17.1658 83.25 16.8421C82.9098 17.0079 82.5027 16.9791 82.2351 16.6833C82.1676 16.4639 82.3966 16.6256 82.3291 16.4062C82.4899 16.3114 82.3695 16.6269 82.5303 16.5321C82.4724 16.337 82.3614 16.2065 82.2154 16.1273C82.7213 15.6561 83.3175 16.1208 84.0281 15.9609C83.8935 16.0049 83.8419 16.6139 84.1367 16.438C84.0842 16.5274 83.9946 16.569 84.044 16.7893C84.2298 16.5818 84.6749 16.7077 84.8421 16.4764C84.92 16.7695 85.4677 16.5931 85.4996 16.3687C86.1043 16.338 86.7382 16.8874 87.2726 16.489C87.4432 16.4308 87.3588 16.7445 87.4764 16.7509C87.6733 16.6542 87.7522 16.5265 87.9277 16.7279C88.0158 16.6121 88.1225 16.52 88.0719 16.2379C88.3336 16.2246 88.1484 16.4568 88.1804 16.7151C88.6042 16.6688 89.1417 16.431 89.5975 16.643C89.7288 16.4259 90.1383 16.5784 90.149 16.1942C89.7414 16.1406 89.44 15.9703 88.9847 16.2534C89.0519 15.99 88.8467 16.1243 88.8788 15.9122C89.5811 15.7899 90.1039 15.7261 90.7497 15.9532C90.8172 16.1726 90.5882 16.0109 90.6556 16.2303C90.7129 16.3883 90.972 16.2389 91.1084 16.2815C91.2235 16.6346 91.5409 16.6927 91.8758 16.7252L91.8857 16.7742ZM83.1911 16.5975C83.4823 16.7065 83.5094 16.7051 83.7958 16.5668C83.8006 16.3438 83.7089 16.2742 83.5906 16.2307C83.5768 16.4541 83.1163 16.4652 83.1911 16.5975ZM90.6221 16.8384C90.7559 16.745 90.6153 16.4799 90.6129 16.3562L90.4143 16.3663C90.4193 16.626 90.4943 16.7707 90.6221 16.8384ZM95.5193 16.8617L95.7179 16.8516C95.7393 16.5534 95.6642 16.4087 95.5101 16.3794L95.5193 16.8617ZM111.312 15.9224C111.481 15.7776 111.436 15.7799 111.619 15.9067L111.615 15.6965L111.308 15.7122L111.312 15.9224ZM113.123 15.6941C113.144 15.8415 113.218 15.9368 113.327 15.956C113.37 15.8301 113.515 15.8351 113.474 15.602C113.302 15.5613 113.277 15.711 113.123 15.6941ZM96.0739 17.0439L96.2725 17.0338L96.2659 16.6875L96.0673 16.6976L96.0739 17.0439ZM114.494 16.0328C114.482 15.8972 114.545 15.8817 114.543 15.758L114.29 15.7709C114.311 15.9183 114.385 16.0136 114.494 16.0328Z" fill="black"/>
</svg>
