<svg width="426" height="32" viewBox="0 0 426 32" fill="none" xmlns="http://www.w3.org/2000/svg">
<g clip-path="url(#clip0_1447_1474)">
<path fill-rule="evenodd" clip-rule="evenodd" d="M2.95572 12.6304C3.13838 12.674 3.6128 12.5091 3.59375 12.7127C3.73547 13.0073 2.66678 12.9954 2.95572 12.6304Z" fill="white"/>
<path fill-rule="evenodd" clip-rule="evenodd" d="M422.832 9.33014C423.057 9.18533 424.125 9.16603 424.355 9.30263C424.158 9.7441 423.151 9.3713 422.832 9.33014Z" fill="white"/>
<path fill-rule="evenodd" clip-rule="evenodd" d="M218.592 13.0199C219.248 12.8829 219.142 13.2758 219.731 13.1713C219.35 13.4754 219.58 13.612 219.745 13.9531L218.972 13.967C218.921 13.6239 218.96 13.2791 218.569 13.0047L218.592 13.0199Z" fill="white"/>
<path fill-rule="evenodd" clip-rule="evenodd" d="M265.622 12.702C264.726 13.4688 261.162 12.4541 260.795 13.5711C260.963 14.0529 262.342 13.637 262.824 13.8786C262.652 14.4447 260.963 14.0373 260.17 14.1924C260.389 15.0017 262.673 14.3505 263.611 14.662C263.3 15.0742 262.117 15.0018 261.208 15.0494C260.391 15.0955 259.547 14.97 259.053 15.2604C259.057 15.5106 259.487 15.4246 259.312 15.7875C258.587 15.9257 258.872 15.3263 258.416 15.2719C258.206 14.9629 258.847 15.2172 258.798 14.9992C258.588 14.7058 258.266 14.5083 257.652 14.4881C257.897 14.2334 259.04 14.5412 259.308 14.2862C259.411 13.69 257.807 14.282 257.529 13.9742C257.407 13.5072 259.092 13.6488 259.186 13.8504C259.39 13.8155 259.295 13.567 259.683 13.6694C259.474 13.4073 259.219 13.1773 258.786 13.0757C260.851 11.5995 263.245 13.261 265.644 12.6859L265.622 12.702Z" fill="white"/>
<path fill-rule="evenodd" clip-rule="evenodd" d="M303.117 11.837L303.503 11.83L303.509 12.174C303.079 12.2756 303.098 12.0563 303.117 11.837Z" fill="white"/>
<path fill-rule="evenodd" clip-rule="evenodd" d="M305.29 12.5954L304.654 12.6069C304.44 12.079 305.53 12.0124 305.29 12.5954Z" fill="white"/>
<path fill-rule="evenodd" clip-rule="evenodd" d="M124.292 15.5056L124.792 15.4966C124.75 15.685 124.57 15.8134 124.298 15.8496L124.292 15.5056Z" fill="white"/>
<path fill-rule="evenodd" clip-rule="evenodd" d="M194.834 14.2312L194.84 14.5751L193.704 14.5957C193.858 14.3114 194.518 14.3776 194.834 14.2312Z" fill="white"/>
<path fill-rule="evenodd" clip-rule="evenodd" d="M313.293 12.6227C313.447 12.3384 312.883 12.5676 313.037 12.2833C313.584 12.3829 313.58 12.1327 313.92 12.0953C313.766 12.3796 314.33 12.1504 314.176 12.4347C313.836 12.4722 313.818 12.7227 313.293 12.6227Z" fill="white"/>
<path fill-rule="evenodd" clip-rule="evenodd" d="M236.16 14.0163C235.988 14.5512 235.275 14.1261 234.753 14.1356C234.819 14.0093 235.701 13.7587 236.16 14.0163Z" fill="white"/>
<path fill-rule="evenodd" clip-rule="evenodd" d="M237.546 13.9911L238.183 13.9796C238.278 14.2281 237.395 14.4474 237.546 13.9911Z" fill="white"/>
<path fill-rule="evenodd" clip-rule="evenodd" d="M270.59 13.3942C270.71 13.7361 270.163 13.6208 270.351 14.0084C269.33 14.1207 269.723 13.2221 270.59 13.3942Z" fill="white"/>
<path fill-rule="evenodd" clip-rule="evenodd" d="M293.089 12.9877C293.34 13.0144 293.635 13.0091 293.594 13.2444C293.254 13.2818 292.958 13.2872 293.089 12.9877Z" fill="white"/>
<path fill-rule="evenodd" clip-rule="evenodd" d="M267.683 13.5405C268.365 13.5282 269.159 13.42 269.212 13.857C268.599 13.8837 268.284 14.1083 267.809 14.2264C267.971 14.3798 268.537 14.2289 268.317 14.6551L267.181 14.6756C267.357 14.344 267.945 14.2239 267.417 13.8894C267.805 13.9762 267.64 13.6977 267.66 13.5409L267.683 13.5405Z" fill="white"/>
<path fill-rule="evenodd" clip-rule="evenodd" d="M287.756 13.522C287.743 14.0383 286.129 14.0362 286.344 13.3755C286.911 13.287 287.565 12.9781 287.756 13.522Z" fill="white"/>
<path fill-rule="evenodd" clip-rule="evenodd" d="M288.137 13.171C288.501 13.227 288.506 13.4615 288.773 13.1595C289.071 13.2949 289.459 13.3661 290.049 13.3085C290.052 13.4649 290.211 13.4933 290.191 13.65C289.283 13.729 289.027 13.3583 288.029 13.5171C288.026 13.3607 288.185 13.3266 288.159 13.1706L288.137 13.171Z" fill="white"/>
<path fill-rule="evenodd" clip-rule="evenodd" d="M292.068 13.0999L292.704 13.0884C292.808 13.806 294.465 13.6353 294.867 13.2214C295.14 13.2478 295.324 13.3696 295.373 13.5563L294.486 13.5724C294.38 13.9653 295.014 13.8443 294.997 14.1731C293.565 14.1364 292.154 14.0681 292.045 13.0847L292.068 13.0999Z" fill="white"/>
<path fill-rule="evenodd" clip-rule="evenodd" d="M140.192 16.0158C140.58 16.1026 140.968 16.1738 141.333 16.261C141.478 16.7589 140.382 16.4503 139.929 16.5523C139.741 16.196 140.196 16.2659 140.169 16.0162L140.192 16.0158Z" fill="white"/>
<path fill-rule="evenodd" clip-rule="evenodd" d="M214.302 14.6771C214.667 14.7487 214.875 14.917 214.948 15.1972C214.449 15.2844 214.624 14.9059 214.059 15.0412C213.894 14.7627 214.467 14.9713 214.302 14.6927L214.302 14.6771Z" fill="white"/>
<path fill-rule="evenodd" clip-rule="evenodd" d="M264.504 13.7702C265.297 13.6151 265.327 14.0055 266.03 13.9146C265.945 14.2133 265.583 14.2981 265.152 14.3684C265.033 14.1047 264.354 14.2264 264.504 13.7702Z" fill="white"/>
<path fill-rule="evenodd" clip-rule="evenodd" d="M131.809 16.3394C132.33 16.2518 132.471 16.4682 132.453 16.7657C132.021 16.7735 131.725 16.7006 131.809 16.3394Z" fill="white"/>
<path fill-rule="evenodd" clip-rule="evenodd" d="M234.645 14.4815C235.029 14.3338 235.042 15.053 234.653 14.9193L234.645 14.4815Z" fill="white"/>
<path fill-rule="evenodd" clip-rule="evenodd" d="M235.282 14.4701C235.734 14.3681 235.632 14.9955 235.151 14.8165C235.149 14.6602 235.307 14.626 235.282 14.4701Z" fill="white"/>
<path fill-rule="evenodd" clip-rule="evenodd" d="M337.709 12.6196C337.712 12.7759 337.871 12.8043 337.851 12.9611L336.829 12.9795C336.777 12.6364 337.185 12.5821 337.709 12.6196Z" fill="white"/>
<path fill-rule="evenodd" clip-rule="evenodd" d="M266.533 14.0776C266.651 14.2788 267.015 14.3347 266.931 14.6803C266.456 14.814 266.677 14.4503 266.291 14.5199C266.196 14.2557 266.721 14.4026 266.533 14.0776Z" fill="white"/>
<path fill-rule="evenodd" clip-rule="evenodd" d="M210.881 15.3487C211.815 15.4257 213.287 15.1176 213.816 15.4677C214.378 15.0822 215.337 15.3464 215.481 15.7817C214.758 15.9981 213.845 15.8113 213.188 15.917C213.192 16.1672 213.623 16.0812 213.447 16.4441C213.062 16.5136 213.283 16.1499 212.808 16.2836C212.805 16.1272 212.964 16.0931 212.938 15.9372C212.544 15.5376 211.163 15.8597 210.904 15.3639L210.881 15.3487Z" fill="white"/>
<path fill-rule="evenodd" clip-rule="evenodd" d="M283.197 14.0422L283.697 14.0332C283.654 14.2216 283.475 14.35 283.203 14.3862L283.197 14.0422Z" fill="white"/>
<path fill-rule="evenodd" clip-rule="evenodd" d="M177.954 16.1155L178.341 16.1086C178.166 16.5027 178.709 16.3678 178.602 16.7138L179.102 16.7048C179.141 16.36 179.801 16.4262 180.369 16.416C180.262 16.762 180.805 16.6271 180.63 17.0212L178.221 17.0647C178.375 16.7804 177.811 17.0096 177.965 16.7253C177.764 16.8853 177.262 16.8318 177.199 17.0832C176.812 17.0902 177.369 16.4389 176.803 16.5586C177.184 16.2859 178.126 16.8162 177.931 16.1003L177.954 16.1155Z" fill="white"/>
<path fill-rule="evenodd" clip-rule="evenodd" d="M234.906 15.0868C235.339 15.1259 235.232 15.5188 235.167 15.692L234.145 15.7105C234.186 15.5064 233.914 15.527 234 15.2752C234.211 15.5998 234.889 15.3999 234.884 15.0872L234.906 15.0868Z" fill="white"/>
<path fill-rule="evenodd" clip-rule="evenodd" d="M334.038 13.2958L334.538 13.2868L334.544 13.6307C334.114 13.7011 333.93 13.5949 334.038 13.2958Z" fill="white"/>
<path fill-rule="evenodd" clip-rule="evenodd" d="M336.841 13.6831C336.89 13.8855 337.052 14.0077 336.989 14.2904C337.241 14.4266 337.763 14.3859 337.881 14.6184C338.198 14.5344 338.354 14.3439 338.901 14.4279C338.37 13.9839 337.031 14.102 336.859 13.4169C337.835 13.3055 338.384 13.5145 338.776 13.8202C339.07 13.7054 339.34 13.5598 339.909 13.6277C339.96 13.9239 339.873 14.1132 339.786 14.3337C339.422 14.3246 339.15 14.3608 339.016 14.5197C339.52 14.6982 340.382 14.6045 340.683 14.9274C338.798 15.0397 337.138 14.9915 336.106 14.4784C336.006 13.9797 336.458 13.8464 336.864 13.6827L336.841 13.6831Z" fill="white"/>
<path fill-rule="evenodd" clip-rule="evenodd" d="M138.441 17.2674C138.628 17.5455 137.695 17.4998 137.67 17.3752C137.483 17.097 138.416 17.1427 138.441 17.2674Z" fill="white"/>
<path fill-rule="evenodd" clip-rule="evenodd" d="M180.644 16.5049C180.891 16.3597 182.028 16.3392 182.303 16.475C182.173 16.8527 180.851 16.6576 180.644 16.5049Z" fill="white"/>
<path fill-rule="evenodd" clip-rule="evenodd" d="M189.169 16.5231C189.614 15.9833 191.053 16.3327 190.452 17.0317C190.084 16.8037 189.236 16.4437 189.043 17.0571C187.953 17.1237 187.491 16.7567 187.007 16.3901C187.641 16.2379 188.846 16.2161 189.169 16.5231Z" fill="white"/>
<path fill-rule="evenodd" clip-rule="evenodd" d="M281.547 14.5884C281.547 14.5884 280.125 15.1614 279.889 14.7121C280.227 14.534 281.002 14.6451 281.547 14.5884Z" fill="white"/>
<path fill-rule="evenodd" clip-rule="evenodd" d="M241.005 15.4144C240.829 15.7773 241.283 15.6909 241.264 15.9415L240.242 15.9599C240.189 15.5855 240.436 15.409 241.005 15.4144Z" fill="white"/>
<path fill-rule="evenodd" clip-rule="evenodd" d="M211.646 16.1169L212.032 16.11L212.038 16.4539C211.698 16.4914 211.717 16.2721 211.646 16.1169Z" fill="white"/>
<path fill-rule="evenodd" clip-rule="evenodd" d="M245.715 15.6735C246.328 15.6155 246.806 15.6538 246.858 15.9969C246.429 16.1611 246.289 15.9603 245.722 16.0174L245.715 15.6735Z" fill="white"/>
<path fill-rule="evenodd" clip-rule="evenodd" d="M176.335 17.1147C176.77 17.2788 177.362 17.3151 177.483 17.7039C176.923 18.1519 175.891 17.6544 176.335 17.1147Z" fill="white"/>
<path fill-rule="evenodd" clip-rule="evenodd" d="M186.744 16.9265L187.244 16.9175C187.202 17.1216 187.475 17.101 187.388 17.3528C186.957 17.3606 186.75 17.2236 186.744 16.9265Z" fill="white"/>
<path fill-rule="evenodd" clip-rule="evenodd" d="M227.174 16.1961C227.448 16.2381 228.058 16.0394 227.95 16.3542C227.676 16.3122 227.066 16.5109 227.174 16.1961Z" fill="white"/>
<path fill-rule="evenodd" clip-rule="evenodd" d="M401.916 13.0392C402.511 13.2631 403.825 12.9735 404.083 13.438L402.06 13.4745C402.102 13.2704 401.83 13.291 401.916 13.0392Z" fill="white"/>
<path fill-rule="evenodd" clip-rule="evenodd" d="M212.042 16.6416C213.046 16.8894 214.717 16.2492 214.848 17.2009C213.826 17.2819 213.433 16.9136 212.3 17.0749C212.386 16.8075 211.866 16.9732 212.042 16.6416Z" fill="white"/>
<path fill-rule="evenodd" clip-rule="evenodd" d="M362.285 13.9273C362.716 13.8882 362.99 13.9458 363.309 14.0026L363.319 14.5342C362.73 14.6543 362.882 14.2449 362.293 14.3807L362.285 13.9429L362.285 13.9273Z" fill="white"/>
<path fill-rule="evenodd" clip-rule="evenodd" d="M229.984 16.9274C228.788 17.4338 225.827 17.1119 224.773 16.6774C226.02 16.4672 228.121 17.0236 229.984 16.9274Z" fill="white"/>
<path fill-rule="evenodd" clip-rule="evenodd" d="M308.137 15.4217C308.144 15.7969 307.162 15.5331 306.732 15.6191C306.765 14.946 307.567 15.3225 308.137 15.4217Z" fill="white"/>
<path fill-rule="evenodd" clip-rule="evenodd" d="M280.577 16.2792C280.663 16.0118 280.143 16.1776 280.319 15.846C280.863 15.7267 280.89 15.9764 281.209 16.002L281.223 16.7837C280.407 16.9548 280.602 16.4039 279.944 16.4627C279.941 16.3064 280.1 16.2722 280.074 16.1163C280.481 15.9995 280.17 16.3961 280.577 16.2792Z" fill="white"/>
<path fill-rule="evenodd" clip-rule="evenodd" d="M341.953 14.7324C342.749 14.7806 343.905 14.5877 344.5 14.7803C344.667 15.2152 343.453 14.721 343.62 15.1402C343.627 15.5467 344.869 15.0707 344.898 15.4612C345.464 15.279 347.066 14.6557 347.061 15.5942C345.56 15.5587 344.427 15.7981 343.129 15.6652C342.827 15.2953 342.367 15.0377 341.975 14.7164L341.953 14.7324Z" fill="white"/>
<path fill-rule="evenodd" clip-rule="evenodd" d="M345.634 14.6659C345.816 14.6626 345.998 14.6593 346.022 14.7527L346.025 14.9247L345.389 14.9362C345.478 14.8407 345.683 14.8371 345.634 14.6659Z" fill="white"/>
<path fill-rule="evenodd" clip-rule="evenodd" d="M334.847 15.2988C335.459 15.1627 335.172 15.6527 335.245 15.9016C334.746 15.9732 334.875 15.5798 334.847 15.2988Z" fill="white"/>
<path fill-rule="evenodd" clip-rule="evenodd" d="M353.528 14.9612L354.028 14.9521C354.102 15.2792 353.855 15.4245 353.538 15.4928L353.528 14.9612Z" fill="white"/>
<path fill-rule="evenodd" clip-rule="evenodd" d="M299.517 16.4531L297.995 16.4806C298.031 15.9638 299.419 16.0326 299.517 16.4531Z" fill="white"/>
<path fill-rule="evenodd" clip-rule="evenodd" d="M328.237 15.5901C328.622 15.4893 328.468 15.7736 328.493 15.9295L327.993 15.9386C327.829 15.66 328.401 15.8686 328.237 15.5901Z" fill="white"/>
<path fill-rule="evenodd" clip-rule="evenodd" d="M400.552 14.2838L402.961 14.2402C402.943 14.5221 402.741 14.6665 402.333 14.6895C402.338 14.9866 402.859 14.899 402.842 15.2121C402.047 15.2264 401.867 15.3235 401.183 15.242C401.377 14.6286 400.65 14.673 400.529 14.2842L400.552 14.2838Z" fill="white"/>
<path fill-rule="evenodd" clip-rule="evenodd" d="M385.692 14.7242C385.874 14.721 386.056 14.7177 386.08 14.8111L386.083 14.9831L385.447 14.9945C385.536 14.8991 385.741 14.8954 385.692 14.7242Z" fill="white"/>
<path fill-rule="evenodd" clip-rule="evenodd" d="M369.425 15.2841C369.429 15.4874 369.657 15.5302 369.571 15.8132C368.912 15.8252 368.12 16.0584 367.795 15.6733C367.12 16.0608 366.021 15.6271 365.135 15.6275C365.937 14.7685 368.658 15.5951 369.448 15.2837L369.425 15.2841Z" fill="white"/>
<path fill-rule="evenodd" clip-rule="evenodd" d="M328.498 16.1954L328.884 16.1884L328.89 16.5324C328.46 16.634 328.479 16.4147 328.498 16.1954Z" fill="white"/>
<path fill-rule="evenodd" clip-rule="evenodd" d="M335.225 16.0738C336.136 16.1512 336.822 16.4047 337.89 16.3697C337.964 16.6499 337.669 16.6865 337.765 16.9819L336.992 16.9959C336.869 16.4664 336.117 16.3705 335.209 16.4182L335.202 16.0742L335.225 16.0738Z" fill="white"/>
<path fill-rule="evenodd" clip-rule="evenodd" d="M352.906 15.7546C353.291 15.6851 353.07 16.0488 353.545 15.9151L353.553 16.3528C353.055 16.4401 353.23 16.0615 352.664 16.1969C352.476 15.8718 353.002 16.0187 352.906 15.7546Z" fill="white"/>
<path fill-rule="evenodd" clip-rule="evenodd" d="M359.386 15.8094C360.402 16.6513 362.266 15.3977 362.582 16.5337C361.107 16.7011 360.396 16.3229 359.011 16.4262C358.798 15.9921 359.438 16.1369 359.386 15.8094Z" fill="white"/>
<path fill-rule="evenodd" clip-rule="evenodd" d="M254.152 18.3205C254.719 18.2634 255.04 18.3983 255.046 18.7423C254.613 18.6876 254.226 18.6164 254.152 18.3205Z" fill="white"/>
<path fill-rule="evenodd" clip-rule="evenodd" d="M189.34 19.6791C189.753 19.8594 188.806 20.2988 188.574 20.0371C188.454 19.7264 189.071 19.903 189.343 19.8511L189.34 19.6791Z" fill="white"/>
<path fill-rule="evenodd" clip-rule="evenodd" d="M259.635 18.5813C259.186 18.871 258.437 18.9314 257.864 18.7072C258.066 18.5471 259.017 18.3423 259.635 18.5813Z" fill="white"/>
<path fill-rule="evenodd" clip-rule="evenodd" d="M222.009 19.6988C220.692 19.8008 218.591 20.5269 218.184 19.4238C219.073 19.5329 221.564 19.003 222.009 19.6988Z" fill="white"/>
<path fill-rule="evenodd" clip-rule="evenodd" d="M222.775 19.3253C223.184 19.3023 223.323 19.4562 223.417 19.6578L222.781 19.6693L222.775 19.3253Z" fill="white"/>
<path fill-rule="evenodd" clip-rule="evenodd" d="M325.975 17.461C326.867 17.742 328.409 17.5578 329.413 17.7429C329.508 18.0071 328.983 17.8602 329.171 18.1852L325.739 18.2472C325.69 18.0448 325.529 17.9226 325.592 17.6399C325.842 17.6667 326 17.6169 325.975 17.461Z" fill="white"/>
<path fill-rule="evenodd" clip-rule="evenodd" d="M80.1773 22.4333C80.0435 22.5765 79.5876 22.5066 79.5458 22.7106C79.314 22.4646 78.4763 22.6518 78.132 22.4703C78.3527 22.1066 79.8785 22.2511 80.1546 22.4338L80.1773 22.4333Z" fill="white"/>
<path fill-rule="evenodd" clip-rule="evenodd" d="M228.622 19.5794L229.258 19.5679C229.468 19.8299 228.422 19.8488 228.622 19.5794Z" fill="white"/>
<path fill-rule="evenodd" clip-rule="evenodd" d="M278.079 18.9361C278.371 18.7275 279.215 18.8843 279.736 18.8123C279.444 19.0209 278.6 18.8641 278.079 18.9361Z" fill="white"/>
<path fill-rule="evenodd" clip-rule="evenodd" d="M255.58 19.3426C255.697 19.5594 256.174 19.5195 256.606 19.4961C256.701 19.7602 256.475 19.8112 256.479 20.0301C255.73 20.1218 255.812 19.6199 255.064 19.7116C254.852 19.3401 255.768 19.7145 255.557 19.3586L255.58 19.3426Z" fill="white"/>
<path fill-rule="evenodd" clip-rule="evenodd" d="M269.943 19.0833L270.829 19.0672L270.832 19.2392L269.946 19.2552L269.943 19.0833Z" fill="white"/>
<path fill-rule="evenodd" clip-rule="evenodd" d="M247.197 19.6816L250.765 19.6172C250.02 19.8965 247.778 20.3593 247.197 19.6816Z" fill="white"/>
<path fill-rule="evenodd" clip-rule="evenodd" d="M312.899 18.4947C314.083 18.6141 316.188 18.0912 316.587 18.7722C314.857 18.6627 313.772 19.0107 312.899 18.4947Z" fill="white"/>
<path fill-rule="evenodd" clip-rule="evenodd" d="M296.38 18.9652C296.879 18.9249 297.132 19.0768 297.161 19.389C297.383 19.1348 297.56 18.8344 298.289 18.9307L298.297 19.3685C299.153 18.9464 302.22 18.8128 302.754 19.46C302.352 19.8114 301.308 19.9397 300.602 19.843C300.126 19.9611 300.608 20.2026 300.363 20.4573L298.34 20.4938C298.356 20.1025 297.63 20.2251 297.309 20.0745C297.962 19.7186 299.194 19.931 299.97 20.1203C300.508 19.6727 299.483 19.5817 299.32 19.35C298.895 19.78 297.114 19.3273 296.667 19.742C296.503 19.4791 296.091 19.3302 296.403 18.9648L296.38 18.9652ZM300.712 19.669L301.348 19.6575L301.342 19.3135L300.706 19.325L300.712 19.669Z" fill="white"/>
<path fill-rule="evenodd" clip-rule="evenodd" d="M115.013 22.8519C113.065 23.2624 110.125 22.8307 107.508 22.7216C109.593 22.3555 112.962 22.5918 115.013 22.8519Z" fill="white"/>
<path fill-rule="evenodd" clip-rule="evenodd" d="M342.267 18.3083C343.32 18.6802 344.565 18.3762 345.954 18.5075C345.058 19.2744 342.82 18.7049 341.389 18.7621C341.245 18.3267 342.573 18.8501 342.267 18.3083Z" fill="white"/>
<path fill-rule="evenodd" clip-rule="evenodd" d="M316.098 19.391C315.83 19.6774 315.831 19.7399 316.109 20.0008C315.837 20.037 315.657 20.1653 315.615 20.3538C315.477 20.2937 315.475 20.153 315.225 20.1888C315.154 20.0024 315.473 20.0592 315.471 19.9185C315.378 19.8263 315.174 19.83 315.216 19.6572C314.857 19.9139 313.853 19.7287 313.552 19.4214C314.41 19.1087 314.872 19.507 316.097 19.3754L316.098 19.391Z" fill="white"/>
<path fill-rule="evenodd" clip-rule="evenodd" d="M360.82 18.411L361.956 18.3904C361.96 18.6093 361.665 18.6147 361.576 18.7414C361.369 18.5887 360.87 18.6603 360.797 18.4114L360.82 18.411Z" fill="white"/>
<path fill-rule="evenodd" clip-rule="evenodd" d="M122.91 23.3191C121.957 23.4302 121.476 23.2199 120.748 23.1861C120.883 23.1524 122.766 22.9307 122.91 23.3191Z" fill="white"/>
<path fill-rule="evenodd" clip-rule="evenodd" d="M211.247 21.7231C210.996 21.6963 210.476 21.8621 210.607 21.5626C210.902 21.5103 211.196 21.4112 211.247 21.7231Z" fill="white"/>
<path fill-rule="evenodd" clip-rule="evenodd" d="M112.498 23.3352C114.183 23.4924 115.244 23.051 116.186 23.6127C115.617 23.5604 115.346 23.6904 115.053 23.8052C114.59 23.3756 112.714 23.9413 112.498 23.3196L112.498 23.3352Z" fill="white"/>
<path fill-rule="evenodd" clip-rule="evenodd" d="M219.13 21.4087C219.926 21.4568 221.082 21.2639 221.677 21.4565C221.459 21.9922 219.296 21.7967 219.13 21.4087Z" fill="white"/>
<path fill-rule="evenodd" clip-rule="evenodd" d="M393.378 18.6049C392.72 18.6637 391.546 19.1072 391.352 18.4694C392.01 18.4106 393.184 17.9672 393.378 18.6049Z" fill="white"/>
<path fill-rule="evenodd" clip-rule="evenodd" d="M343.945 19.3259L344.832 19.3099L344.835 19.4819L343.948 19.4979L343.945 19.3259Z" fill="white"/>
<path fill-rule="evenodd" clip-rule="evenodd" d="M348.65 19.2407C348.991 19.2815 349.648 19.1132 349.788 19.314L349.792 19.5798C349.224 19.5901 348.859 19.4872 348.65 19.2564L348.65 19.2407Z" fill="white"/>
<path fill-rule="evenodd" clip-rule="evenodd" d="M350.036 19.2158L350.922 19.1998L350.925 19.3718L350.039 19.3878L350.036 19.2158Z" fill="white"/>
<path fill-rule="evenodd" clip-rule="evenodd" d="M380.535 18.6648C380.628 18.8039 380.946 18.7825 380.927 19.0018L379.791 19.0223C379.601 18.6035 380.747 19.0676 380.557 18.6644L380.535 18.6648Z" fill="white"/>
<path fill-rule="evenodd" clip-rule="evenodd" d="M119.481 23.553C119.284 23.9476 118.074 23.6567 117.462 23.7615C117.659 23.367 118.869 23.6579 119.481 23.553Z" fill="white"/>
<path fill-rule="evenodd" clip-rule="evenodd" d="M355.88 19.2822L356.516 19.2707C356.725 19.5328 355.68 19.5517 355.88 19.2822Z" fill="white"/>
<path fill-rule="evenodd" clip-rule="evenodd" d="M231.207 21.7222L232.093 21.7062L232.096 21.8781L231.21 21.8941L231.207 21.7222Z" fill="white"/>
<path fill-rule="evenodd" clip-rule="evenodd" d="M406.999 18.7967C407.177 18.5901 407.885 18.7494 408.27 18.6799C408.046 18.8716 407.255 19.1517 406.999 18.7967Z" fill="white"/>
<path fill-rule="evenodd" clip-rule="evenodd" d="M377.64 19.4991L379.412 19.467L379.419 19.811C378.486 19.7966 378.551 19.6077 377.76 19.841C377.757 19.6846 377.597 19.6562 377.617 19.4995L377.64 19.4991Z" fill="white"/>
<path fill-rule="evenodd" clip-rule="evenodd" d="M140.608 23.969C141.607 23.8727 142.269 24.0172 143.02 24.0974C142.522 24.1846 140.731 24.4516 140.608 23.969Z" fill="white"/>
<path fill-rule="evenodd" clip-rule="evenodd" d="M384.12 19.5696L385.006 19.5536C385.035 19.8971 384.193 19.8498 384.12 19.5696Z" fill="white"/>
<path fill-rule="evenodd" clip-rule="evenodd" d="M385.256 19.5491L386.143 19.5331L386.146 19.705L385.259 19.7211L385.256 19.5491Z" fill="white"/>
<path fill-rule="evenodd" clip-rule="evenodd" d="M401.033 19.5144C400.906 20.0484 401.767 19.8765 401.55 20.4591C399.571 20.3697 398.549 20.4194 396.846 20.544C397.018 20.0248 396.406 20.0984 396.332 19.7713C397.945 19.7109 399.788 19.8184 401.033 19.5144Z" fill="white"/>
<path fill-rule="evenodd" clip-rule="evenodd" d="M372.589 21.7798C373.066 21.8024 373.432 21.8897 373.618 22.1053L372.595 22.1237L372.589 21.7798Z" fill="white"/>
<path fill-rule="evenodd" clip-rule="evenodd" d="M417.529 39.1598C416.153 38.5225 413.538 39.7352 412.314 38.6713C414.147 38.2144 416.862 38.7481 418.138 37.6655C416.859 37.3443 415.047 37.6684 413.567 37.5892C414.167 36.8102 415.463 36.8133 416.086 36.0604L416.078 35.6102C414 35.0916 411.388 35.2447 408.82 35.2911C410.39 34.1238 412.002 35.2336 414.405 34.8988C414.743 34.7073 414.644 34.2323 414.523 33.8637C411.579 34.4996 409.978 33.9458 407.274 33.9947C407.049 32.9127 405.312 33.6328 404.331 33.4651L404.318 32.7237C403.997 32.597 403.232 33.0347 403.29 32.4509C404.699 32.4254 405.367 32.9166 406.33 32.1046L406.341 32.6871L407.75 32.6617C408.132 32.4429 408.005 31.6771 408.759 31.9018C408.974 32.4807 408.424 32.2257 408.383 32.4913C408.833 33.4897 410.014 32.1705 411.181 32.5997C411.514 32.1434 411.708 31.5572 412.435 31.544C412.408 31.2797 412.558 30.8002 412.175 30.966C412.806 30.6633 413.993 30.9597 413.673 29.6146C414.535 29.4666 415.234 29.1626 415.422 28.2586C415.281 27.9698 414.694 28.2453 414.641 27.8224C413.605 28.318 411.922 28.2954 410.829 28.1827C410.487 28.1624 410.22 28.485 410.061 28.4879C404.741 28.4781 398.196 28.5698 392.138 29.262C389.372 28.3849 385.468 29.9917 382.98 29.4275C382.616 29.434 382.624 29.8842 382.354 30.0215C381.589 29.1877 380.433 30.6654 379.69 29.7783C378.362 30.5439 375.551 29.6941 374.362 30.6161C374.021 30.5693 373.991 30.1726 373.849 29.8838C373.167 29.8961 372.393 29.8041 372.082 30.2071C372.221 30.3899 372.45 30.4653 372.345 30.9439C369.326 29.939 365.3 31.0712 362.526 29.797C364.528 29.8932 365.435 29.7444 367.241 30.2945C367.667 29.9954 367.071 29.7149 367.088 29.3967C364.741 29.0948 362.388 29.72 360.353 29.0681C358.981 29.8875 357.58 27.8468 356.144 28.8528C354.935 28.6627 353.103 27.9012 351.934 28.6375C352.184 29.9043 354.503 28.644 355.132 29.4803C355.626 29.1535 356.353 29.1139 357.149 29.1525C357.415 30.0217 356.683 29.7966 356.532 30.1966C353.792 29.5575 351.29 30.7416 348.524 29.891C348.356 29.4173 348.931 29.7777 348.763 29.304C349.061 29.4045 349.528 30.0848 349.905 29.5747C349.511 29.1845 348.641 28.8294 348.241 29.3134C348.299 28.7826 347.847 28.8967 347.838 28.4201C345.968 29.3545 343.42 27.9967 341.753 28.8214C340.536 28.1812 339.135 28.6568 337.543 28.6061C337.182 28.7715 337.239 29.4062 336.787 29.5203C336.777 29.0172 336.257 29.1591 336.27 28.6291C334.403 28.4774 332.957 28.9273 331.308 28.2685C331.478 27.6032 333.222 27.2539 333.33 28.2319C334.904 27.2235 337.679 28.5772 339.052 27.8372C340.472 28.3943 341.994 28.3138 343.507 27.7567C344.903 28.2877 347.078 27.8776 348.852 27.9515C348.961 27.6847 349.325 27.7046 349.225 27.2031C350.048 27.4531 350.082 26.8168 350.488 26.5976C350.635 27.2041 350.365 27.3415 350.118 27.5049C350.374 27.8446 350.897 27.8616 351.154 28.2278C351.401 28.0644 351.671 27.9271 351.918 27.7637C352.131 26.9652 351.098 27.6461 351.266 26.8749C351.379 26.8729 351.353 26.6879 351.397 26.5812C352.403 26.9338 353.743 26.8566 354.839 27.1017C354.948 28.1063 356.832 27.9663 357.392 27.5059C357.397 27.7706 357.557 27.8207 357.539 28.0859C358.244 28.0732 359.087 28.1904 359.443 27.7602C359.392 27.4433 359.206 27.2347 358.932 27.1867C361.923 26.6294 364.416 28.7033 367.585 27.9309C367.755 27.3186 367.303 27.4592 367.318 27.0352C368.073 26.015 368.911 27.0859 369.977 26.9871C370.079 27.5945 369.926 27.9151 369.61 28.0268C369.569 28.2659 369.728 28.2895 369.754 28.4745C370.057 28.8928 370.686 28.4576 370.888 28.2951C372.249 29.4094 373.362 28.0914 374.83 28.8066C375.103 28.8016 374.864 28.1703 374.95 27.9038C375.646 28.6594 376.179 28.014 376.869 28.4519C377.208 28.3398 377.106 27.7324 377.492 27.699C377.946 27.6378 377.666 28.4905 377.897 28.7247L378.67 28.7107C378.943 28.7058 378.704 28.0744 378.79 27.808C380.148 27.4656 380.127 28.8168 381.107 28.958C383.281 28.495 386.828 28.5103 388.733 28.2375C389.032 28.4705 389.421 28.5959 390.01 28.5058C390.187 28.1848 390.571 28.0719 390.631 27.594L392.153 27.5665C392.748 29.0126 394.177 27.6094 394.948 27.516C395.312 27.483 395.818 27.8182 396.226 27.7843C396.862 27.7463 397.419 27.1006 397.885 27.7543C398.297 27.8793 398.059 27.2744 398.377 27.2952C400.08 27.1585 401.775 26.6246 402.953 27.6628C405.29 27.3822 407.929 27.467 409.94 26.7949C411.176 27.2494 412.349 26.7514 413.608 25.987C413.68 26.1976 413.463 26.7578 413.758 26.7259C414.456 26.3955 415.086 25.9868 415.645 25.4999C415.817 24.9406 415.299 25.2148 415.382 24.763C414.688 25.3583 414.378 24.5958 413.359 24.7996C413.023 25.0705 412.919 25.5757 412.489 25.7159C411.685 25.2271 411.125 24.4426 410.432 23.8195C411.99 23.2351 414.164 25.2883 415.272 23.732C414.906 23.5797 414.494 23.4547 414.128 23.3024C414.117 22.6934 414.71 22.8151 415.001 22.545C413.829 21.8775 411.524 22.6078 410.664 21.5903C410.694 20.7422 411.699 21.0154 412.426 20.9758C412.465 20.6307 412.193 20.6621 412.276 20.2368C411.792 19.8483 410.29 19.7695 409.984 20.4372C409.613 20.0466 408.997 19.9253 408.203 20.0191C408.262 18.2698 410.122 19.2428 410.988 19.386C411.236 19.2491 411.251 18.8251 411.219 18.3489L412.242 18.3304L412.231 17.7478C409.679 17.3967 406.616 17.7433 404.351 18.1816C404.078 18.1865 404.317 18.8179 404.231 19.0843C405.464 19.3799 406.15 19.6059 407.029 19.1927C406.857 19.752 407.597 19.2089 407.426 19.7682C405.8 20.4068 403.247 20.0027 401.343 20.3284C401.087 20.0152 400.832 19.7284 400.688 19.3072C401.524 19.0008 403.06 19.7147 403.612 18.8041C402.368 17.926 399.493 18.5872 397.248 18.9191C397.145 19.5037 397.687 19.282 397.517 19.9473C396.979 20.3808 395.744 19.9793 395.763 21.0119C395.485 20.7256 394.941 20.7884 394.73 20.4479C393.398 20.9752 391.82 20.4475 390.162 20.5304C389.027 20.6039 388.478 21.6733 387.138 21.777C387.064 21.4605 387.384 21.5606 387.38 21.3223C386.827 20.9085 386.274 21.7396 385.868 21.9324C385.873 22.1971 386.033 22.2472 386.015 22.5124C387.769 21.4477 391.57 22.9683 392.618 21.8104C393.497 22.6686 395.398 20.9391 396.06 22.3309C393.859 22.5826 391.885 22.7772 389.068 22.9075C389.029 23.2526 388.525 23.0498 388.579 23.4991C385.829 23.5753 383.214 23.5166 380.932 23.0545C380.641 23.2717 380.256 23.3581 380.056 23.6531C378.793 22.9078 376.416 23.5069 375.197 22.7079C375.324 22.2023 376.056 22.4275 375.812 21.5048C375.398 21.2474 374.828 21.1783 374.526 20.7864C375.181 20.5362 376.114 20.6253 376.166 19.7238C376.805 19.8711 377.222 20.2609 377.705 20.5965C378.053 19.7427 378.587 20.3157 378.967 19.991C379.295 20.5413 380.945 21.2532 381.381 20.2388C382.44 20.9613 383.771 19.1361 385.063 20.1722C385.472 20.1649 385.463 19.6618 385.686 19.4193C386.694 19.8514 386.826 19.6106 387.614 20.4175C388.023 20.4366 388.155 20.1694 388.239 19.8235C389.514 19.9064 390.078 19.6843 390.654 20.0712C390.876 19.7759 390.982 19.3766 391.135 19.0295C392.257 20.7309 394.256 19.3705 395.608 19.9817C395.805 19.5544 396.513 19.727 396.617 19.2219C396.768 18.7424 396.206 19.1233 396.357 18.6438C395.787 18.5482 395.518 18.765 395.226 18.9556C394.244 18.7085 392.233 18.1621 391.403 18.7334C388.562 18.7847 383.639 18.1055 379.966 18.6486C379.618 18.2841 379.027 18.2947 378.693 18.6716C376.449 17.7851 372.492 18.9426 370.544 18.0772C370.368 18.4247 369.844 18.3547 369.785 18.8325C368.48 18.3264 367.019 18.0349 365.203 18.1737C365.145 18.7309 365.599 18.6963 365.853 18.9036C365.839 19.4071 365.2 19.2332 365.233 19.8153C365.536 20.2337 366.752 19.6025 366.9 20.2355C367.051 19.809 367.76 20.0346 367.773 19.4781C368.555 19.9937 368.993 19.0852 369.551 19.7373C370.003 19.6232 369.69 18.6224 370.421 18.821C370.614 19.4268 370.157 19.3026 370.187 19.7258C370.238 20.0428 370.825 19.7673 371.076 19.8687C371.248 19.3094 370.73 19.5836 370.813 19.1318C371.041 19.1807 371.061 19.0214 371.058 18.836C371.704 19.3541 372.372 19.8718 373.619 19.6903C373.876 20.0565 373.516 20.2749 373.774 20.7205C374.187 20.8985 373.857 20.2423 374.269 20.4202C374.185 22.064 371.177 20.4231 370.861 21.8062C370.417 21.1255 369.983 22.2723 369.583 21.5379C369.657 21.8544 369.337 21.7542 369.342 21.9925C370.37 22.3183 371.644 22.3482 372.539 22.8353C372.351 23.7393 371.473 22.9605 370.772 23.1586C370.499 23.1635 370.713 23.6894 370.649 23.9025C370.265 24.0419 369.348 23.6081 369.382 24.2167C369.034 23.8522 368.58 23.8604 368.245 24.2373C367.862 24.4031 368.012 23.9236 367.985 23.6593C367.185 23.4353 367.174 24.0977 366.467 23.978L366.454 23.2366L367.59 23.2161C367.421 22.6629 366.985 22.4324 366.549 22.2019C366.875 21.3484 367.643 22.3411 368.208 22.1719C368.13 21.6171 367.539 21.6543 367.55 20.9919C364.995 21.7267 362.491 20.2887 360.048 20.9685C359.88 21.7397 360.446 21.597 360.322 22.2879C359.799 22.2974 359.589 21.9833 359.177 21.8583C359.168 21.3552 359.368 21.1132 359.8 21.1054C358.601 20.1735 357.536 20.3517 356.366 21.0085C356.242 20.4545 355.362 20.8148 355.327 20.1267C353.521 20.8745 351.14 19.9375 349.605 20.5215C349.107 20.6629 349.278 20.0241 348.713 20.2462C348.433 21.0989 349.287 20.5537 349.23 21.1375C348.796 21.0393 348.617 21.228 348.74 21.729C349.584 21.8727 350.507 21.3528 351.152 21.8444C351.584 21.8366 351.459 21.2296 351.914 21.2479C352.327 21.4523 352.384 22.087 353.197 21.8074C353.421 21.618 353.437 21.2204 353.684 21.057C354.026 21.1038 354.056 21.5006 354.197 21.7894C354.684 21.0654 355.521 22.0833 355.98 22.3399C355.507 22.5868 355.795 23.3762 356.249 23.368C355.529 23.8048 354.408 23.4013 353.59 23.4161C353.157 23.3709 353.467 24.1599 352.826 23.8801C352.866 23.6145 352.729 23.5905 352.57 23.5934C352.678 23.2471 353.086 23.2133 353.332 22.9969C353.192 22.7611 352.74 22.9017 352.688 22.5583C352.276 22.4068 352.374 22.8023 352.193 22.8586C350.903 21.9018 348.444 22.9793 346.461 22.6708C346.011 22.9173 346.384 22.1689 346.067 22.2276C345.54 22.0252 345.663 22.5527 345.299 22.5328C345.398 21.7099 344.362 22.2584 344.639 21.2204C345.362 20.9954 345.152 21.9263 345.92 21.6475C346.214 21.5892 345.952 20.9053 346.037 20.6124C343.255 20.1065 341.742 20.69 339.166 20.2863L339.15 19.386C340.192 19.1818 340.722 19.596 341.564 19.6337C341.907 19.7335 341.461 18.9469 341.803 19.0467C342.632 19.6409 344.664 18.8361 345.115 19.8874C345.338 19.645 345.607 19.4547 345.483 18.8478C346.237 19.099 346.116 18.6774 346.75 18.5335C347.118 18.7653 348.359 19.4845 348.406 18.3447C346.308 17.9588 342.937 17.6489 340.767 18.3238C338.759 17.9098 336.073 17.6934 333.759 18.0001C333.435 17.6351 332.183 17.5783 331.711 17.8782C332.089 18.6395 333.823 17.7605 334.378 18.2803C334.529 19.0722 332.933 18.8096 332.859 18.4666C332.587 18.5245 332.409 18.7396 332.369 19.0582C333.42 19.3571 334.36 19.7904 335.322 20.1968C334.928 21.025 333.636 19.9624 333.032 20.5295C333.156 21.0835 332.845 21.4864 333.054 21.7211C334.179 22.3364 335.628 20.774 335.999 22.4095C334.832 22.0068 333.423 23.3036 333.198 22.1687C332.764 22.0177 333.002 22.6226 332.962 22.9146C331.442 23.101 329.124 21.898 329.304 24.3051C328.962 24.2318 328.307 24.5085 328.165 24.1667C328.294 23.7671 328.679 23.6807 329.04 23.5682C328.983 22.8806 328.569 22.6232 328.244 22.2582C327.717 22.0558 327.841 22.5834 327.476 22.5635C327.106 22.1993 326.469 22.1579 326.566 21.2555C327.176 21.0326 327.096 21.6168 327.594 21.5283C328.065 21.149 327.311 20.9772 327.439 20.4981C327.101 20.6632 326.467 20.807 326.3 20.3598C326.106 19.6746 326.886 20.0578 326.923 19.6069C326.95 18.5734 326.442 18.1588 326.749 17.544C326.064 17.371 326.237 18.1095 325.737 18.145C325.523 17.6456 325.11 17.3882 324.829 16.9695C325.89 16.553 327.88 17.2057 328.5 16.3205C326.899 15.7667 325.568 15.102 323.922 15.8204C323.575 15.4824 321.911 15.274 321.627 15.8619C321.419 15.7067 321.301 15.444 321.116 15.2884C320.088 16.287 318.356 14.7556 317.44 15.6462C317.497 16.3338 318.201 16.2417 318.481 16.6604C319.448 16.0867 322.511 17.0114 323.935 16.5618C324.059 17.1158 324.962 16.7552 324.84 17.5785C323.714 18.1816 321.685 17.8209 320.141 17.9548C320.058 18.4065 320.576 18.1323 320.405 18.6916C321.064 18.6797 321.766 18.5611 321.935 19.1143C322.127 19.667 321.368 19.151 321.56 19.7038C321.59 20.1535 322.111 20.0381 322.209 20.4337C321.792 21.2623 321.691 20.6814 320.689 20.6201C319.847 20.5558 318.92 20.8374 318.394 20.6615C318.074 20.5614 317.704 20.1972 316.98 20.3957C316.878 21.0597 317.511 20.8629 317.498 21.4194C318.371 20.6355 319.381 22.4448 320.685 21.6531C320.897 22.0466 321.221 22.3321 321.098 23.129C320.802 23.0813 320.617 22.8993 320.209 22.9861C320.202 22.5624 319.772 22.7026 319.943 22.0903C319.51 22.0452 319.75 22.7295 319.573 22.9976C319.272 22.7117 318.771 22.6677 318.159 22.7318C317.991 23.503 318.557 23.3603 318.433 24.0512C317.916 24.3784 317.498 23.9356 316.774 24.0812C316.867 24.2384 317.072 24.2347 317.032 24.5268L316.395 24.5383C316.774 24.0812 316.288 23.6397 315.74 23.5171C315.468 23.5221 315.706 24.1534 315.62 24.4199C316.168 24.5159 316.537 24.8271 316.662 25.4341C317.164 25.5574 316.971 24.9252 317.543 25.1268C317.687 25.548 317.69 25.7333 317.561 26.1594C316.836 26.2785 316.024 25.3926 315.539 26.196C314.261 25.9542 314.052 24.4482 313.576 23.2649C313.897 23.3915 314.062 23.7064 314.604 23.5377C314.618 23.0606 314.388 22.9059 314.091 22.8053C314.601 22.1074 313.845 21.7767 314.309 21.0267C312.93 20.2305 311.492 19.9121 309.73 20.5267C310.082 21.1031 310.834 21.2219 311.163 21.8252C310.708 21.7804 310.345 21.84 310.03 22.0046C309.883 22.6959 310.471 22.4999 310.301 23.1916C309.547 22.9933 309.261 22.2304 308.862 21.5754C308.296 21.6916 308.02 21.4846 307.721 21.3046C306.995 21.3972 307.807 22.3096 307.103 22.3488C306.646 20.9532 308.387 20.4185 308.744 21.2862C309.153 21.3053 309.285 21.038 309.369 20.6921C309.364 20.3744 308.823 20.649 308.594 20.5472C308.182 19.1508 307.291 20.1734 306.416 19.5536L306.4 18.6533C306.899 18.5913 306.888 19.2272 307.173 18.6393C307.604 18.6315 307.502 19.2426 307.956 19.2079C308.338 18.9626 308.581 18.5609 309.079 18.446C307.53 17.0436 304.246 17.7122 301.942 17.2505C301.743 17.572 301.915 18.284 301.182 18.0059C301.342 19.2744 303.036 18.6876 303.618 19.4452C303.81 19.998 303.05 19.4819 303.242 20.0347C302.712 19.647 302.007 19.6332 301.328 19.7779C301.331 19.9633 301.31 20.0431 301.197 20.0717C301.473 21.497 303.439 20.8787 304.783 21.0399C304.977 21.6985 304.428 21.4966 304.552 22.077C303.87 22.0629 303.321 21.8609 302.527 21.9547C302.255 22.0126 302.495 22.6969 302.409 22.9898C302.088 22.8632 301.323 23.3008 301.381 22.7171C301.09 22.9872 301.031 23.4915 300.369 23.3181C300.307 23.6635 300.548 24.4008 300.254 24.5121C299.031 23.5012 299.378 21.3494 298.265 20.0981C298.672 20.0113 298.902 20.1396 299.043 20.3754C299.895 18.4794 295.898 19.982 295.087 19.1225C294.486 19.8485 293.926 19.0111 293.064 19.1591C292.939 18.5256 293.418 18.57 293.432 18.1194C293.424 17.6958 293.04 17.7822 293.032 17.385C291.948 17.7754 289.227 16.8975 288.731 18.3633C289.717 18.8487 291.882 17.8826 292.179 19.2016C291.952 19.2322 291.539 19.0542 291.684 19.5019C290.765 18.9887 288.448 19.0571 287.871 19.8621C287.437 19.7375 287.291 19.2369 286.969 18.9778C285.727 19.4506 285.146 18.7724 283.042 19.3401C283.023 20.8238 285.341 19.484 285.611 20.6181C284.92 21.3722 284.114 20.7776 283.599 21.2372C283.14 20.9806 282.925 20.4282 282.066 20.6821C281.874 21.4008 282.44 21.2316 282.471 21.7078C281.812 21.7197 281.33 21.49 281.316 20.6957C280.748 20.706 280.388 20.8979 280.19 21.2987C279.764 20.3529 278.136 20.8591 277.51 20.1552C277.961 19.9882 279.04 20.5249 278.911 19.6797C279.126 20.285 280.397 20.1561 280.683 19.6476C281.124 20.1429 282.188 19.8588 282.984 19.8974C283.155 19.2851 282.703 19.4257 282.718 19.0017C280.494 19.2537 278.026 18.5302 276.632 19.403C276.508 20.0674 277.563 19.3067 277.282 20.1329C275.728 20.9556 274.573 18.672 272.423 19.1877C272.116 19.8289 272.366 21.0693 272.602 21.5418C271.917 21.3688 270.942 21.5453 271.169 20.2433L272.055 20.2273L272.045 19.6448C271.95 19.4611 270.788 19.2967 270.911 19.8242C270.565 19.5655 270.465 19.0376 270.12 18.8055C269.92 19.1004 269.281 18.9266 269.36 19.5608C268.22 19.3431 267.845 19.9855 266.82 19.8981L266.81 19.3155C266.329 19.1123 266.567 19.7172 266.179 19.6183C266.351 19.059 265.833 19.3332 265.915 18.8814C265.955 18.5629 266.133 18.3477 266.405 18.2899C266.791 18.2829 266.799 18.733 266.807 19.1832L267.944 19.1626C268.181 18.4432 267.505 18.7732 267.541 18.2693C268.038 18.075 267.8 18.7414 268.319 18.5466C268.5 18.4904 268.426 18.1739 268.445 17.9616C267.621 17.6587 266.841 17.2755 266.017 16.9725C265.513 16.7432 265.983 17.6088 265.641 17.562C265.233 17.5959 265.092 17.3336 264.995 16.991L263.336 17.0209C262.521 18.4925 260.687 17.625 259.518 17.0899C259.037 16.8867 259.275 17.4916 258.887 17.3927C257.624 16.7003 255.035 18.1509 253.541 17.1979C253.293 17.3613 253.023 17.4986 252.776 17.662C252.795 18.6947 253.921 18.1181 254.188 17.7954C254.108 18.3796 254.94 17.8878 254.838 18.5253C255.054 19.1836 253.995 18.4611 254.212 19.1193C255.001 20.0321 256.888 18.7532 257.162 20.0991C255.953 19.856 255.218 20.6904 254.503 20.1471C254.187 20.2852 254.01 20.5533 253.741 20.7436C253.835 20.9008 254.039 20.8971 253.999 21.1892C254.677 20.9651 255.606 20.7629 256.295 21.1477C254.58 21.8674 252.999 22.4786 250.854 21.9877C250.75 22.5723 251.07 22.6195 251.256 22.881C251.95 22.2857 252.193 23.1289 253.168 23.0053C253.316 23.6384 253.047 23.8286 252.94 24.2014C251.821 23.9303 251.214 23.0407 249.628 23.3607L249.607 22.1691C248.093 21.4548 246.018 22.3399 244.261 21.9743C244.317 22.5561 243.514 22.1997 243.501 22.7297C242.397 22.008 241.702 22.5503 240.445 22.2022L240.432 21.4608C239.89 21.656 239.86 21.2327 239.541 21.1855C239.325 20.6067 240.085 21.1227 240.032 20.7264C238.926 19.8988 235.744 19.9562 234.545 20.2428C231.463 19.5303 228.652 19.9519 226.395 19.6484C226.233 20.7373 226.984 20.7502 227.823 20.6556C228.011 20.9965 228.11 21.4185 228.342 21.6792C229.013 21.1108 229.184 21.7699 230.114 21.6472C230.282 22.1209 229.707 21.7605 229.875 22.2342C228.824 21.9619 228.234 21.999 227.58 22.2757C227.19 22.0973 227.223 21.4081 226.922 21.0957C226.509 20.9177 226.839 21.5739 226.427 21.396C225.979 20.53 225.976 19.0997 224.372 19.6584L224.38 20.1086C224.524 20.5033 224.912 20.5757 225.277 20.6751C225.269 21.4699 224.756 20.7904 224.399 21.1412C224.408 21.6443 224.928 21.5025 224.915 22.0325C224.136 21.7022 224.071 21.8623 223.512 22.3492C223.484 22.0848 223.635 21.6053 223.251 21.7712C222.586 21.4653 223.151 22.5146 222.625 22.3652C222.248 21.6039 221.425 21.3804 220.581 21.2102C221.299 20.6675 219.983 20.8502 220.062 20.1866C220.356 20.1018 220.649 19.9641 221.082 20.0092C221.179 19.0804 220.297 19.3347 220.55 18.2442C219.406 17.8411 217.473 17.77 216.093 18.1658C214.019 17.8589 211.531 17.2947 209.863 18.1194C210.622 18.609 211.738 18.6948 212.808 18.8079C213.08 18.75 212.912 18.2498 213.184 18.2183C215.162 18.2091 216.449 19.007 218.538 18.8633C218.038 20.1437 215.973 19.095 215.106 18.9253C214.952 19.1664 214.612 19.252 214.736 19.8325L213.85 19.8485C214.166 20.9818 215.457 19.4752 215.636 20.5579C215.578 21.1152 214.662 20.7344 214.51 21.161C213.747 20.4596 212.229 20.6989 211.199 20.3202C210.546 20.6764 211.491 21.4009 211.223 21.6442C211.073 22.1501 210.65 21.3896 209.95 21.6671C210.193 20.047 208.769 20.4701 207.901 20.2209C207.778 19.7463 208.004 19.6628 208.137 19.475C207.9 18.923 207.195 18.9093 207.224 18.0082C205.539 17.8797 204.568 18.2416 202.909 18.2451C203.048 19.6464 205.389 18.3592 205.862 19.3836C206.353 18.898 207.17 18.8038 207.524 19.5125C207.716 20.0653 207.188 19.81 207.287 20.2584C207.661 20.8079 208.19 21.1692 208.965 21.2611C208.884 21.7924 207.659 21.9734 207.445 21.4475C207.244 21.6101 207.135 21.8769 206.956 22.0391C206.368 22.2351 206.515 21.5438 205.928 21.7663L205.904 20.4424L207.04 20.4218C206.571 19.6092 205.012 20.1671 204.232 19.7309C203.89 19.6841 204.36 20.5497 203.856 20.3204C204.344 20.9208 204.78 21.1249 205.523 20.7406C205.835 21.6355 204.823 21.0181 205.042 21.7823C204.758 21.1782 203.673 21.5157 203.638 22.099C202.819 22.0873 202.356 21.6189 201.605 21.553C201.496 21.8199 201.132 21.8 201.232 22.3014C202.01 22.6052 202.743 22.8833 203.53 22.4188C203.588 23.1064 202.602 22.6475 202.521 23.1787C201.036 22.8082 199.662 23.4952 197.672 22.816L197.656 21.9157C197.224 21.9235 197.348 22.5305 196.893 22.5122C196.887 22.168 196.658 22.0927 196.741 21.6144C196.896 21.3997 197.283 21.4457 197.624 21.4395C197.406 20.7018 196.677 20.5826 196.458 19.8184C195.731 21.1029 194.113 19.6224 193.037 20.4629C193.177 20.6458 193.406 20.7211 193.3 21.1998C192.691 21.4227 192.771 20.8385 192.273 20.927C192.139 21.0619 192.028 21.2228 191.894 21.3841C192.335 21.8794 193.866 21.0307 193.927 21.9301C192.652 21.7942 191.682 22.2356 190.996 21.9831C190.86 23.2569 192.481 22.4065 192.679 23.277C190.722 23.2064 189.929 23.3267 188.103 22.9094C188.273 22.2971 187.821 22.4377 187.836 22.0137C188.215 21.583 188.5 21.0216 189.482 21.2423C188.421 20.4139 186.382 20.7686 184.631 20.7472C184.359 20.8051 184.599 21.4894 184.513 21.7824C185.542 22.1346 187.18 20.9131 187.183 22.3168C186.019 22.0995 184.68 22.2296 183.251 22.3879C182.939 24.0092 180.066 23.5049 178.81 23.2097C178.769 22.204 177.793 22.3011 177.642 21.4562L176.505 21.4767C176.501 21.212 176.34 21.1619 176.358 20.8967C175.946 20.7187 176.276 21.3749 175.864 21.197C174.643 20.3185 173.05 21.5127 172.056 21.8485C171.537 22.0697 171.641 21.5381 171.278 21.5712C171.144 21.6795 171.148 21.9179 170.897 21.8694C170.997 22.3444 171.978 22.5386 172.173 22.0053C172.382 22.2664 172.88 22.1514 172.956 22.5739C171.805 23.0185 170.259 23.0199 168.898 23.2299C169.313 23.5402 169.846 24.0604 169.312 24.7057C168.232 24.0895 166.419 24.3872 164.849 24.336C164.861 23.7531 164.229 23.9764 164.197 23.4473C163.57 24.0148 162.827 24.4255 161.667 24.3935L161.651 23.4933L163.174 23.4657C163.257 23.014 162.939 23.0462 163.021 22.5679C162.609 22.39 162.398 22.023 161.74 22.1408C161.541 22.4358 161.574 23.0179 161.12 23.0526C161.708 24.1279 159.99 24.6622 158.738 24.5789C158.817 25.1602 159.296 25.231 159.885 25.1409C160.053 25.6146 159.478 25.2542 159.646 25.7279C158.751 25.2938 157.145 25.7466 156.45 25.044C156.323 24.3047 156.823 24.2956 157.068 23.9998C156.944 23.4458 156.465 23.3221 156.652 22.3652C156.345 21.7085 154.747 21.3666 155.001 22.8453C154.794 22.6901 154.675 22.4273 154.491 22.2718C154.1 23.2853 152.34 22.7609 151.206 22.9138L151.216 23.4964C151.359 23.8381 152.013 23.5349 152.356 23.6347C152.435 24.2425 151.378 23.5994 151.736 24.5465C151.258 24.5551 151.405 23.8373 150.839 23.98L150.82 22.9473C150.006 23.2004 148.96 23.1663 148.285 23.5758C147.474 22.6899 145.194 23.5787 144.582 22.4508C143.822 23.1797 144.404 23.9373 143.986 24.6865C143.251 24.276 143.803 23.3919 143.812 22.6236C142.331 22.412 140.036 22.4799 138.719 22.5567C138.685 23.2195 139.429 22.8882 139.508 23.443C139.234 23.3685 138.626 23.6973 138.73 23.1657C138.737 23.5894 138.027 23.2579 138.104 23.7597C137.756 23.3952 137.302 23.4034 136.968 23.7803C137.292 24.0923 137.304 24.8072 137.494 25.254C136.808 25.028 136.033 24.8831 135.436 24.5496C136.234 23.4227 134.728 23.1585 134.62 22.2069C134.941 22.3336 135.106 22.6485 135.648 22.4797C135.488 21.1583 134.772 20.509 133.454 20.5858C133.259 21.0926 133.064 21.5994 132.706 21.9237C131.212 21.0236 129.689 22.3225 128.398 22.5842C128.516 22.794 128.833 22.7618 128.906 23.0253C129.387 23.2285 129.149 22.6236 129.537 22.7226C129.544 23.0668 129.772 23.1421 129.69 23.6204C131.235 23.566 131.534 25.0174 132.767 25.3394C134.655 25.3583 136.254 25.7797 138.119 25.8255C139.398 26.1997 141.214 27.2793 142.447 26.33C142.64 25.6908 141.743 26.3692 141.937 25.7565L142.187 25.752L142.181 25.4607C142.565 25.2949 142.414 25.7744 142.442 26.0387C143.487 25.9934 144.265 26.2707 145.376 26.1446C144.799 25.6253 144.689 24.5678 144.445 23.6452L146.74 23.6037L146.759 24.6364C147.4 24.8897 147.757 24.5389 148.531 24.6044C148.628 24.9469 148.325 25.7735 148.8 25.6325C148.879 26.2138 148.099 25.8306 148.316 26.5418C151.632 27.6209 156.339 26.3969 159.405 27.5334C160.347 26.8277 161.972 27.4341 162.842 27.7627C164.352 27.0202 165.71 27.9228 167.291 27.3909C167.412 26.5147 166.399 27.0627 166.386 26.3743L167.159 26.3603C167.007 25.489 166.077 25.5853 165.492 25.9402C165.212 26.8193 166.401 25.9502 166.278 26.6676C165.492 27.1851 165.247 26.2095 164.364 26.4108C164.257 25.5387 164.804 25.6347 164.34 25.0869C164.612 25.029 164.79 24.8139 164.829 24.4953C166.038 24.6854 166.712 25.5473 168.277 25.3336C168.404 26.0465 167.672 25.8213 167.799 26.5342C167.769 27.3823 168.873 26.8591 169.088 27.4115C169.936 26.575 171.689 27.9472 173.014 27.0492C173.529 27.861 174.82 26.3279 175.428 27.2969C177.254 26.4428 179.462 27.8597 181.65 26.8931C182.618 27.6173 184.694 26.7587 185.337 27.1179C185.609 27.06 185.787 26.8449 185.826 26.5263C188.083 26.8299 190.502 26.124 192.7 26.9849C192.756 26.2687 194.18 27.1171 194.212 26.3748C194.931 27.13 195.664 26.1897 196.621 26.3313C196.94 26.352 196.089 25.8112 196.608 25.5899C197.037 25.4232 196.821 26.0364 196.871 26.3268C198.07 25.9873 199.019 26.8972 199.667 26.2763C200.091 27.1162 202.185 25.9659 202.609 26.8059C202.938 26.1642 204.451 26.852 204.757 26.1843C205.683 27.0947 206.756 26.0688 207.7 26.7139C207.786 26.4475 208.082 26.4686 208.191 26.2547C207.606 25.3118 205.619 26.0363 204.988 25.1207C206.188 24.8341 208.821 24.6011 209.08 26.3711C212.037 26.4501 212.969 26.4333 215.312 26.5499C215.508 26.0431 216.028 25.9012 216.316 25.4987C217.079 26.2001 218.821 25.7184 219.761 26.1781C219.839 25.4351 219.071 25.7138 219.238 24.8632C220.144 24.7144 220.362 25.4256 221.157 25.4113C221.302 25.8854 220.959 25.7857 220.918 25.9983C221.291 26.5213 222.658 26.7085 222.948 26.4119C224.409 26.7034 226.222 26.4058 228.044 26.6112C228.887 26.7019 229.646 27.1915 230.467 27.3091C232.244 27.5419 234.224 27.665 235.279 26.9308C236.214 27.0728 237.683 26.5695 238.216 27.1691C238.629 27.3471 238.299 26.6908 238.711 26.8688C239.926 27.4296 241.986 26.9421 243.045 27.6911C243.42 27.0221 245.093 27.76 245.444 27.065C245.743 27.2715 246.131 27.344 246.341 27.6315C246.612 27.5736 246.79 27.3585 246.83 27.04C247.555 26.9209 248.606 27.1933 249.123 26.8396C248.474 26.1627 247.514 25.8622 247.554 24.3517C247.714 24.3488 247.673 24.6144 247.699 24.7993C248.137 25.1358 249.086 24.8272 249.724 24.9217C249.674 24.6577 249.81 24.6288 249.969 24.6259C249.755 24.0735 249.761 24.4442 249.956 23.8845C250.624 24.4022 251.545 23.7498 251.633 24.8872C251.287 24.6021 250.696 24.6127 250.35 24.3276C250.121 25.4707 251.729 25.1238 252.52 24.8712C252.804 25.5282 252.455 26.3027 252.691 26.8016C253.04 27.2456 254.301 26.5607 254.472 27.2198C257.091 26.2454 259.743 27.0451 261.825 26.5042C262.298 26.2838 262.082 26.8969 262.466 26.784C263.809 25.5943 267.294 27.253 268.288 25.6458C268.901 26.8266 270.476 25.9241 271.489 26.621C271.873 26.5346 272.002 26.1084 272.248 25.8656C275.384 27.0803 279.637 25.891 283.443 26.405C285.105 26.5604 287.692 26.3282 289.68 26.875C290.041 26.7096 289.983 26.0485 290.298 25.8309C290.732 25.9555 290.9 26.4292 291.089 26.8496L291.475 26.8426C291.748 26.8377 291.534 26.3118 291.598 26.0987C291.567 25.5961 290.644 26.116 290.702 25.5322C291.752 25.7781 292.065 25.4811 292.729 25.787C292.322 25.9003 292.285 26.3777 292.498 26.8241C292.504 27.1419 293.045 26.8672 293.274 26.969L293.29 27.8693L293.926 27.8578C293.917 27.3547 293.397 27.4966 293.41 26.9666C294.197 26.5021 296.145 27.341 296.328 26.1722C296.592 26.9356 297.961 27.2287 298.101 26.1402C299.699 26.4822 301.14 26.9859 302.693 27.3816C302.985 27.1909 303.253 26.9477 303.824 27.0698C303.996 27.7819 303.403 27.6601 303.459 28.2683C303.689 28.3966 303.807 28.6329 304.104 28.707C304.672 28.6967 304.543 27.8514 305.227 27.945L305.21 27.0448C306.252 26.8405 306.694 27.3623 307.135 27.9105C307.334 27.5891 306.832 27.4922 307.256 27.0078C309.527 28.1587 312.508 27.0454 315.402 27.4434C315.682 26.5907 314.828 27.1359 314.886 26.5521C316.995 26.2756 317.882 28.8289 319.856 27.3629C320.687 28.0365 322.607 27.3662 323.438 28.0398C323.73 27.8491 323.813 27.3974 324.197 27.2845C324.574 27.9928 325.44 28.1096 325.638 29.0331C325.273 28.9602 324.575 29.3172 324.744 28.5989C323.277 29.2082 321.664 27.9924 320.426 28.677C317.811 27.3734 314.717 29.7866 312.408 27.7888C311.048 28.0253 309.952 27.7802 308.479 28.0187C308.446 28.708 308.769 28.967 309.381 28.903C308.739 29.8416 306.449 28.903 305.321 29.4266C302.614 28.0717 299.422 30.0629 297.164 28.3821C297.06 27.6423 297.896 28.6602 298.045 28.0748C297.464 27.3966 296.017 27.8201 295.37 27.2225C295.373 27.4079 295.352 27.4877 295.239 27.5163C294.788 27.7628 295.538 27.7228 295.386 28.0963C293.838 28.0183 292.183 28.2337 290.812 27.8876C290.652 27.8375 290.575 27.3621 290.415 27.312C289.774 27.0588 288.939 27.3917 288.393 27.3486C287.209 27.2375 286.438 27.3839 285.347 27.4036C284.802 27.4135 284.128 26.6045 283.688 27.4336C282.353 27.7491 281.421 26.4945 280.643 27.4886C280.651 27.9122 281.08 27.7721 280.909 28.3843C280.203 28.2647 279.802 28.7487 279.25 28.4143C279.285 27.831 279.784 27.7425 280.376 27.8113C280.456 27.2006 279.958 27.3156 279.726 27.0814C276.593 27.2704 272.359 27.0025 269.048 27.4332C269.243 28.1713 270.117 27.4669 270.457 27.4077L270.473 28.308L271.996 28.2805C272.218 28.0116 272.324 27.5859 272.616 27.3687C274.648 27.8353 277.169 27.7368 279.112 28.2844C275.302 28.8035 270.501 28.5989 266.411 28.6728C266.581 28.0605 266.129 28.2011 266.144 27.777C262.656 27.2308 257.982 27.7126 253.299 27.7177C253.148 28.1972 253.71 27.8162 253.559 28.2957C253.22 28.3813 252.556 28.1285 252.426 28.4751C252.256 29.1404 252.842 28.8649 253.207 28.9113C253.485 29.1977 252.277 29.0341 251.937 29.0932C252.364 28.8471 252.041 28.588 251.787 28.3542C251.469 28.36 251.475 28.7042 251.295 28.8134C251.344 29.0244 251.616 28.9401 251.798 28.9632C251.383 29.8713 250.385 28.7769 249.256 29.1681C249.297 28.929 249.662 29.0283 249.495 28.5811C249.401 28.4238 249.197 28.4275 249.237 28.1354C248.043 28.7397 247.072 27.8302 246.061 28.4842C245.113 27.6537 243.064 28.6973 242.374 28.2594C242.239 28.3678 242.243 28.6061 241.993 28.5577C241.842 29.0372 242.403 28.6562 242.253 29.1357C241.727 28.9598 241.067 28.9452 240.72 28.5807C239.252 29.1104 237.183 29.1213 236.397 28.3674C235.021 28.975 233.047 27.9512 231.187 28.1702C231.195 28.5938 231.624 28.4536 231.453 29.0659C227.985 28.3869 223.607 28.9163 220.119 28.3701C219.779 28.4292 219.764 28.8533 219.238 28.6774C215.583 27.6839 210.383 29.2877 207.266 27.8607L205.607 27.8907C204.342 27.1189 200.896 27.6314 199.233 27.4231C199.815 28.1807 201.821 27.2174 201.913 28.5666C200.953 28.2926 197.535 29.096 196.181 28.3788C195.93 28.3303 195.795 28.4122 195.8 28.677C195.504 28.6559 195.72 28.0163 195.786 27.9356C195.756 27.4859 195.146 27.7088 194.759 27.6628C194.836 28.1647 195.336 28.1822 195.414 28.684C195.115 28.504 194.838 28.2706 194.272 28.4133C194.198 28.0968 194.518 28.1969 194.514 27.9586C193.492 26.7587 191.157 28.4166 189.663 27.4635C188.832 28.0613 187.005 27.5645 186.105 28.1105C186.03 28.986 187.339 28.4591 187.517 28.244C188.616 28.6744 191.14 28.6818 192.221 28.159C192.028 28.7981 192.925 28.1198 192.732 28.7325C190.283 29.0681 187.703 28.4525 185.627 29.3111C180.966 29.3158 171.693 29.4039 166.315 29.9514C166.339 31.3282 167.394 30.5411 167.984 30.5039C170.46 30.3797 174.012 30.6864 176.259 30.5133L176.276 31.4136L178.298 31.3771C178.353 30.608 177.917 30.4039 177.259 30.4953C177.16 30.0468 178.032 30.4813 178.668 30.4698C179.305 30.4583 180.982 30.1632 179.691 30.4513C179.375 30.5895 179.222 30.9101 178.674 30.7611L178.684 31.3436C180.979 31.2492 184.551 32.6679 186.678 30.9078L186.692 31.6492C187.241 31.8247 187.256 31.4007 187.573 31.342C187.578 31.6067 187.673 31.8434 187.833 31.92C187.968 31.8116 187.964 31.5733 188.215 31.6217C188.408 30.9825 187.555 31.6336 187.57 31.1831C188.418 30.3202 189.749 32.2562 190.615 31.1281C191.089 30.9076 190.65 31.7896 191.124 31.5692C191.558 31.7202 191.32 31.1153 191.36 30.8233L193.133 30.7912C193.207 31.1077 192.956 31.0858 192.752 31.0895C193.372 31.4756 193.566 30.8893 194.269 30.7707C194.437 31.2444 193.862 30.884 194.03 31.3577C194.172 31.6995 194.826 31.3963 195.169 31.4961C194.612 30.8705 195.147 30.2781 195.387 29.7175C195.845 29.9211 196.059 30.4205 196.428 30.7317C198.472 30.6153 200.062 30.5336 202.4 30.3324C202.406 30.7031 202.702 30.6978 202.797 30.908C203.592 30.8936 203.784 30.175 204.695 30.291C205.129 30.4156 205.075 31.1582 205.842 30.853C205.806 31.3834 205.005 31.08 204.969 31.6104C204.439 31.1962 202.551 31.1243 202.037 31.6634C201.673 31.6435 199.258 31.3163 199.003 32.3009C198.655 31.9364 198.534 31.5412 198.111 32.0257C198.259 31.4138 197.895 31.3674 197.464 31.4546C197.452 32.0376 198.084 31.8142 198.117 32.3434C197.051 32.5216 195.164 32.5027 194.18 32.1232C193.724 32.0784 193.688 32.5559 193.302 32.5893C188.643 32.7 183.043 32.2979 178.058 33.1561C177.781 32.9492 177.23 32.6413 177.035 33.1745C176.629 33.3408 176.712 32.942 176.53 32.8923C176.284 33.1616 175.471 33.4412 175.257 32.9153C172.592 33.8905 167.357 33.5348 164.473 33.6929C163.973 33.7019 163.444 33.3671 162.945 33.4291C161.47 33.6147 159.908 33.9607 158.246 33.8054C154.761 33.471 151.132 33.9339 147.809 33.7025C147.397 33.5775 147.334 33.8436 147.178 34.0053C144.44 33.472 140.206 33.1777 137.642 33.4359C136.841 33.1061 135.041 32.9002 134.463 33.6523C132.555 32.4683 130.408 34.4407 128.609 33.0164C127.146 33.7845 124.055 32.5689 122.769 33.1219C121.809 32.8479 119.953 32.0338 119.337 33.1839C118 32.1486 115.496 33.2533 113.728 32.2522C113.364 32.2588 113.44 32.7077 113.1 32.7139C111.858 31.9682 109.866 32.428 108.392 32.64C108.564 32.0807 107.824 32.6238 107.995 32.0644C104.965 31.6689 101.376 31.8662 98.715 31.7818C97.8 32.7254 95.2379 31.8446 94.1604 32.6058C92.534 31.92 89.3099 33.4085 87.4282 32.436C86.2091 32.9083 84.4877 33.2573 83.1208 33.0966L83.1102 32.514C81.0876 32.5506 79.4649 32.0766 77.2643 32.3283C77.1138 32.8078 77.6753 32.4268 77.5248 32.9063C76.9808 32.9956 76.7043 32.7887 76.628 32.3398C75.6242 32.146 74.1977 32.4631 73.4382 31.9471C71.2438 32.543 68.8102 32.481 66.3383 32.817C65.0457 32.9993 63.4776 33.0276 62.1339 32.893C56.4636 32.3597 50.4363 32.2037 44.7017 31.8836C44.1984 31.7072 44.4603 32.3647 43.9342 32.1888C43.4053 31.854 42.0162 31.7202 41.5253 32.2323C36.8724 31.3893 31.4996 32.228 26.6436 31.4681C25.3212 31.2536 23.7758 31.2816 22.8151 30.9546C21.5566 30.5006 19.9298 31.0597 18.7442 30.8692C18.106 30.7748 17.6874 30.2526 17.069 29.9989C16.2446 29.6695 14.9521 29.8517 14.6361 28.7185C14.0925 28.8343 13.771 28.6547 13.6053 28.2868L12.0826 28.3143C10.7609 26.8814 10.6406 23.9965 7.56128 24.6878C7.56989 25.1644 7.77921 25.4255 7.72155 26.0093C7.12637 25.7816 6.64194 25.3931 6.55845 24.547C6.04604 23.8676 4.89083 24.1004 4.25497 24.1383C3.84972 24.3576 3.88584 25.0985 3.64255 25.4738C2.81604 23.767 1.54361 22.5451 0.383384 21.2417C0.446066 19.6778 1.158 18.8174 1.3367 17.3838C2.84333 17.7274 2.79477 16.298 4.25499 16.5895C4.45666 16.4269 4.56551 16.1601 4.74445 15.9979C6.5257 16.4425 8.66987 15.5826 10.7267 16.1812C10.7884 14.5643 9.22415 14.8045 8.29907 15.192C8.09909 14.1891 8.87369 14.2811 8.6505 13.2521C10.6408 12.6864 10.7748 10.0353 13.0431 9.7559C13.3139 9.64506 13.5378 9.4556 13.5297 9.00547C14.6007 9.14504 14.9292 8.45044 16.0698 8.66822C17.669 7.84471 20.4899 7.95267 21.671 9.14975C27.3812 10.6358 34.4501 10.5611 40.8945 11.1598C41.4428 11.3088 41.5961 10.9882 41.9119 10.8501C42.3131 11.6639 44.2943 10.5951 44.7178 11.3821C48.1176 10.8174 53.6824 11.8029 57.4165 10.8613C58.0401 11.4063 60.2195 11.2345 60.8481 10.7993C61.3795 11.2665 62.0754 10.7772 62.3708 10.7718C70.6494 10.9666 82.2649 10.8892 90.9738 10.9967C91.9922 10.7399 94.5081 10.3237 96.0645 10.9048C97.9828 10.1285 100.429 10.8789 101.905 10.7992C102.535 10.417 104.897 10.2949 106.218 10.43C111.57 10.9425 117.887 10.8284 122.764 11.4554C124.366 10.8173 127.73 12.0014 129.132 11.6317C131.328 12.3602 134.614 11.7711 136.787 12.5264C137.823 11.978 139.056 12.2735 140.219 12.4644C144.892 13.2011 150.476 12.7294 155.237 13.2261C155.718 13.4293 155.479 12.8244 155.868 12.9234C157.895 13.1251 160.861 13.7337 162.736 13.0906C167.63 13.426 173.438 12.7384 178.372 12.8082C178.667 12.8028 178.55 12.5666 178.753 12.5099C181.624 11.6369 187.582 12.9861 190.818 12.133C191.157 12.0474 191.738 11.4807 192.227 12.1076C199.225 11.9017 209.457 10.7368 215.999 11.6781C216.34 11.7249 216.952 11.5814 217.516 11.3593C220.277 11.9452 223.818 11.6163 227.046 11.6375C226.875 12.1968 227.615 11.6537 227.443 12.213C228.952 11.4176 230.586 12.5006 231.756 11.8437C245.234 12.9511 259.027 11.351 273.436 11.0907C281.345 10.9479 287.776 10.8317 294.542 11.61C294.861 11.6572 295.007 10.9394 295.315 11.596C295.727 11.7475 295.629 11.352 295.809 11.2957C296.453 11.7079 296.401 11.3115 297.219 11.2703C297.937 12.0519 300.308 11.135 301.792 11.479C302.02 11.5279 302.231 11.8684 302.436 11.9177C304.511 12.2245 306.687 11.8938 308.805 12.094C315.477 12.7151 322.448 12.2448 329.027 12.7616C329.508 12.9648 329.27 12.3599 329.658 12.4589C331.371 12.9047 336.066 12.2901 339.077 12.8714C339.811 11.9311 341.249 13.5209 342.004 12.5272C342.303 12.7072 342.695 13.0445 342.89 12.5112C352.473 13.1857 363.28 12.3812 372.396 13.6204C372.899 13.7967 372.637 13.1392 373.163 13.3151C383.777 14.3948 395.107 12.3889 406.843 12.7067C412.738 11.832 419.725 12.262 423.903 14.4645C422.791 14.5905 422.461 13.9608 421.607 14.5059C421.635 14.7703 421.484 15.2498 421.868 15.084C421.349 15.3317 420.415 15.2161 419.462 15.2863C419.326 15.3153 419.376 15.5793 419.217 15.5821C419.178 15.9272 419.227 16.1382 419.367 16.3211C419.649 16.8457 420.621 16.5103 421.281 16.5778C420.824 17.6986 418.975 17.2817 418.123 17.9593L418.137 18.7007C418.395 19.1728 419.204 18.6284 419.667 19.1233C419.754 20.1282 418.657 19.8302 417.908 19.8967C417.924 20.797 418.296 21.2406 419.068 21.2001C418.735 21.6035 418.703 22.3457 417.951 22.2533C418.07 22.569 418.457 22.562 418.464 22.9857C419.127 23.1591 419.278 22.7326 419.732 22.6714C419.398 23.0748 419.312 24.5861 420.017 24.5998C419.633 24.7392 419.806 25.5307 419.793 26.0872L421.566 26.0551C421.319 27.4634 422.228 27.4735 423.249 27.3491C423.257 27.7728 422.87 27.7797 422.762 28.0995C423.177 28.3834 423.48 28.8282 423.917 29.1117C423.586 29.6474 423.611 31.0508 423.713 31.6317C424.352 31.8055 424.482 31.4323 424.589 31.0331C425.19 31.605 424.351 32.971 423.601 32.9845L423.611 33.5671C424.051 34.0094 424.77 33.5196 425.131 33.3807C425.09 33.6463 425.227 33.6703 425.386 33.6674C425.376 34.3298 424.97 34.549 424.774 35.0029C424.545 34.901 424.013 34.4074 423.748 34.8625C423.626 35.6593 424.595 35.165 424.784 35.5854C423.612 37.4077 422.116 38.8915 420.549 40.2442C420.331 39.5065 419.69 39.2532 419.116 38.9457C418.623 39.3519 417.597 39.1851 417.36 39.878C417.261 39.4295 417.788 39.6849 417.596 39.1321L417.529 39.1598ZM166.151 23.412C165.597 22.9717 164.643 23.0154 163.845 22.8709C163.87 24.2743 165.306 23.2153 166.151 23.412ZM280.293 14.3837C280.107 14.1487 279.061 14.1676 278.884 14.4092C279.069 14.6177 280.191 15.0477 280.293 14.3837ZM290.218 15.105C290.606 15.2039 290.368 14.599 290.849 14.8022C293.795 15.5436 297.512 14.9467 301.402 15.0619C301.409 15.4855 302.108 15.1286 302.049 15.6329C304.175 15.0382 306.825 15.7585 308.917 15.8002C309.372 15.7919 309.844 15.4921 310.321 15.4834C310.98 15.4715 311.694 15.9884 312.354 16.0294C313.902 16.1604 315.425 16.1064 316.917 15.6556C315.333 14.8367 312.549 15.4697 310.81 14.8654C307.701 15.1864 302.563 13.8754 298.853 14.9225C298.592 14.318 297.419 14.8424 297.07 14.372C295.025 14.4089 291.685 14.5222 290.065 14.2072C287.076 13.6255 283.775 14.5857 280.543 14.3792C283.263 15.2306 287.296 14.4691 290.218 15.105ZM189.209 18.7045C189.327 18.9407 189.556 19.069 189.987 18.9818L189.973 18.2404C188.562 18.1599 187.522 18.4701 186.158 18.4682C185.981 18.7363 185.944 19.2137 185.791 19.5079C185.516 19.4333 185.309 19.2782 185.391 18.7734L184.504 18.7894C184.464 19.0815 184.471 19.4258 184.129 19.379C183.828 19.093 183.327 19.0491 182.714 19.1131L182.728 19.8545C184.449 19.4791 186.17 20.4016 187.296 19.772C187.533 20.2975 188.081 20.4465 188.585 20.6493C188.608 19.4305 187.63 19.3952 187.038 19.3529C187.167 18.9268 187.713 18.9434 188.05 18.7519C188.792 19.5596 188.884 19.6109 189.187 18.7313L189.209 18.7045ZM195.196 19.179C195.545 19.623 196.127 19.0827 196.605 19.1536C196.506 18.7051 196.732 18.6215 196.725 18.2508C195.966 17.7348 195.738 18.9573 195.219 19.1786L195.196 19.179ZM200.771 18.1777C200.647 18.8686 202.471 19.1535 202.433 18.3066C201.882 18.0252 201.383 18.0872 200.771 18.1777ZM207.781 18.6338C208.323 18.4651 208.488 18.78 208.809 18.9066C209.006 18.4792 209.69 18.6258 209.679 17.9903C209.175 17.761 208.336 17.9086 207.653 17.868C207.547 18.2937 207.842 18.2354 207.803 18.6069L207.781 18.6338ZM377.332 16.3123C374.798 15.6959 370.856 16.4823 368.296 15.7339C367.484 16.0665 366.1 16.2239 364.865 15.7959C363.429 16.8813 360.311 15.4279 358.779 16.1972C355.592 15.937 352.106 15.4967 349.115 16.0805C347.939 15.1482 346.347 16.3689 344.901 15.5739C342.959 16.3506 338.956 14.9396 337.156 16.0052C337.034 15.5571 335.875 15.578 335.747 16.0306C336.069 16.2367 336.036 16.8995 336.402 17.0518C337.44 16.6357 340.138 17.4611 341.488 16.6685C342.642 17.6277 344.642 16.3467 346.202 17.1661C348.571 16.1433 352.903 16.8331 355.861 16.9916C357.631 16.8007 361.245 16.7619 363.366 17.1474C364.673 16.5145 366.167 17.3881 367.179 16.7871C367.231 17.1835 367.573 17.2038 367.826 17.3582C369.176 16.6186 370.63 17.8108 371.888 16.9934C373.494 17.7855 375.659 16.7929 377.106 17.6408C377.21 17.0827 377.94 17.2284 378.507 17.1652C378.361 16.6381 377.766 16.4104 377.354 16.2854L377.332 16.3123ZM225.697 18.7604C226.428 18.9326 227.781 18.3519 228.112 19.0082C228.356 18.7124 228.902 18.729 229.24 18.5375C229.298 18.0067 228.846 18.1208 228.837 17.6442C228.458 18.0748 227.186 18.0978 226.815 17.6807C226.689 18.2922 225.474 17.705 225.697 18.7339L225.697 18.7604ZM244.615 17.677C244.493 18.4738 245.083 18.4367 244.895 19.3142C245.362 18.7495 245.689 19.2204 246.304 19.2887C246.388 18.9428 246.055 18.1278 246.535 18.2515C246.833 18.4051 246.597 19.1775 246.695 19.573C248.207 20.2079 249.327 19.2871 249.717 18.194C249.881 18.5089 249.912 18.9586 250.122 19.2197C250.599 19.2111 250.612 18.7076 251.253 18.9079C251.245 18.4843 250.859 18.4913 250.739 18.1756C251.011 18.1177 251.189 17.9026 251.229 17.584C250.685 17.6733 249.861 17.3968 249.711 17.9028C247.995 17.2981 246.522 17.5631 244.615 17.7035L244.615 17.677ZM271.829 17.7681C272.012 17.8442 272.484 17.5708 272.468 17.9155C272.056 17.7375 272.386 18.3937 271.973 18.2158C271.768 18.1665 271.851 17.7412 271.468 17.9335C271.381 18.1735 271.063 18.1527 271.092 18.523C271.486 18.9397 272.759 18.9167 273.115 18.4865C273.107 18.0628 272.722 18.1492 272.715 17.7521L273.351 17.7406C273.18 18.2999 273.698 18.0257 273.615 18.4775C274.134 18.2562 274.459 17.3762 273.971 16.8288C273.068 17.163 273.084 16.7919 271.949 16.8653C271.955 17.2096 271.729 17.2931 271.829 17.7681ZM283.541 18.0068C283.905 18.0002 283.782 17.4992 284.308 17.7015C285.194 18.9304 287.241 17.728 288.25 18.213C288.154 16.6256 286.098 17.3778 284.8 17.2424C283.548 18.4039 282.077 16.2586 280.869 17.3134C278.642 16.1087 276.803 17.5458 274.495 16.8458C275.006 18.7172 277.463 17.5868 278.979 18.407C279.648 17.6798 281.059 19.0316 281.374 17.6221C282.332 17.7902 283.009 17.4866 283.541 18.0332L283.541 18.0068ZM174.606 19.5245C174.882 19.7314 174.981 20.1799 175.392 20.252C175.586 19.6922 176.57 20.0188 177.159 19.9287C177.199 19.5836 177.354 19.3689 177.277 18.8935C176.237 19.2037 175.384 18.5569 174.629 19.5241L174.606 19.5245ZM223.036 18.6496C223.713 18.399 225.319 19.1911 225.184 18.028C224.281 18.3887 224.205 17.9663 223.025 18.067L223.036 18.6496ZM229.512 18.5326C230.285 18.4921 231.303 19.5067 231.532 18.3372C231.326 18.2349 231.342 17.8638 231.024 17.896C230.608 18.7776 229.626 17.2856 229.512 18.5061L229.512 18.5326ZM234.094 19.1914C234.756 19.3384 234.815 18.8341 235.106 18.5904C235.77 20.1147 238.436 19.1925 240.213 19.3987C240.208 19.134 240.295 18.894 240.452 18.8117C240.643 19.285 241.478 18.9786 241.736 19.3712C241.732 19.1859 241.775 19.0262 241.98 19.0755C242.131 18.596 241.569 18.9769 241.72 18.4974C240.293 18.8146 240.09 17.6263 238.775 17.809C238.504 19.1912 237.321 17.8882 236.479 17.8505C235.865 17.8351 235.828 18.3125 235.346 18.0299C235.345 17.9504 235.343 17.8445 235.207 17.8735C235.292 18.8255 233.8 18.0313 234.094 19.2179L234.094 19.1914ZM242.621 19.3287C243.119 19.1608 244.196 19.6446 244.275 19.0075C243.788 18.4601 243.033 18.1824 242.234 18.0114C242.111 18.7817 242.522 18.8802 242.644 19.3283L242.621 19.3287ZM300.468 18.734C300.527 18.2561 300.365 18.0472 300.313 17.7038C298.964 17.2779 297.63 17.6993 296.626 17.479C296.772 19.2775 299.054 18.4682 300.468 18.734ZM406.586 16.0752C405.804 15.5596 404.284 15.746 403.796 16.417C402.1 15.653 399.389 16.6025 397.95 16.2312C394.513 17.2468 389.622 15.7989 387.537 17.4523C387.885 17.8169 388.34 17.8087 388.674 17.4318C388.955 17.9035 390.591 17.8739 390.833 17.3928C392.437 18.1319 394.878 17.3197 396.418 17.0005C401.582 17.1721 407.962 16.7125 413.074 16.5407C411.415 15.3258 408.641 15.2964 406.586 16.0752ZM208.828 19.9393L208.817 19.3567L208.317 19.3658C208.368 19.6827 208.554 19.8912 208.828 19.9393ZM221.153 20.1669L221.926 20.1529L221.907 19.1202C221.293 19.0784 221.095 19.4528 221.153 20.1669ZM253.053 19.1403L253.042 18.5578L252.542 18.5668C252.46 19.0715 252.623 19.2805 253.053 19.1403ZM222.562 20.1414C223.264 19.9963 223.299 20.6578 224.09 20.4052C224.274 19.2629 222.518 18.9238 222.562 20.1414ZM316.732 17.9899C314.894 18.182 312.665 16.8979 312.551 19.3898C313.501 19.0812 313.561 19.9013 314.087 20.1036C314.659 20.3052 314.466 19.673 314.968 19.7964C315.031 19.4774 314.792 18.8195 315.086 18.7612C315.696 18.5383 315.371 19.4448 315.869 19.3298C316.91 19.0461 318.067 18.8928 318.643 18.0878C318.249 17.6711 317.199 17.4252 316.731 17.9634L316.732 17.9899ZM380.538 17.5788C382.833 17.5373 385.157 17.8132 386.77 17.7576C386.767 17.5722 386.809 17.4125 387.015 17.4618C385.645 15.8708 382.525 16.8542 380.519 16.5461L380.538 17.5788ZM114.272 22.0978C114.808 22.8298 115.855 22.8903 116.324 23.7029C115.962 23.7889 115.251 23.4574 115.446 24.1691C116.933 24.6984 119.669 25.1523 121.183 24.6481C121.08 23.9613 120.021 24.4573 120.273 23.3402C120.522 23.2827 121.05 23.5381 120.904 23.0375C120.763 21.5302 119.23 22.2466 118.582 21.5961C117.507 22.4632 115.971 21.8022 114.272 22.1243L114.272 22.0978ZM123.049 22.2306C122.559 21.5243 121.785 22.7037 121.135 21.9738L121.154 23.0065C121.428 23.081 121.991 22.8059 122.043 23.1493C122.049 23.4671 121.59 23.237 121.409 23.3197C121.491 24.0334 121.482 24.8282 122.075 24.9499C122.431 24.5196 122.958 24.7485 123.217 25.2206C123.629 25.3986 123.299 24.7424 123.712 24.9203C124.911 25.8787 127.296 24.4847 128.435 25.868C128.639 25.8643 128.519 25.4956 128.816 25.5697C128.664 24.7249 127.668 24.9548 127.272 24.4057C127.534 23.8447 127.975 24.34 128.541 24.2239C128.521 23.1117 126.942 22.5311 127.473 21.7269C126.61 21.7689 125.458 22.1606 124.923 21.4816C124.5 21.9925 124.054 21.2324 123.15 21.5136C123.086 21.7267 123.323 22.2786 123.027 22.2575L123.049 22.2306ZM99.664 22.6531C100.023 23.6266 99.0591 23.1408 99.0464 23.6972C99.6241 24.2165 100.857 24.5121 101.597 23.9425C105.083 24.3563 109.462 23.8799 112.784 24.0318C112.934 23.5523 112.373 23.9332 112.523 23.4537C110.752 23.5917 109.649 22.8965 108.055 22.7928L108.042 22.0514C107.128 21.7766 107.026 22.4671 106.391 22.5315C106.329 22.8505 106.568 23.5084 106.273 23.5667C105.947 23.1487 105.088 23.3762 104.606 23.1465L104.596 22.564C103.199 22.0065 101.384 22.2247 99.6413 22.6535L99.664 22.6531ZM109.181 22.1898C109.803 22.6288 112.394 23.8534 112.476 22.1302C111.906 22.0346 111.637 22.2513 111.345 22.442C111.018 21.9447 109.588 22.0765 109.181 22.1898ZM142.089 21.5953C142.257 22.0955 142.625 22.3537 143.128 22.477C143.282 22.2359 143.622 22.1503 143.498 21.5698C142.863 21.6872 142.561 21.2954 142.089 21.5953ZM348.88 18.1507C348.848 18.8929 349.15 19.2318 349.54 19.4631C350.825 18.8307 353.196 20.4566 354.098 18.7981C355.041 19.4167 357.03 18.7981 357.551 19.9276C357.894 20.0274 357.448 19.2408 357.79 19.3406C358.133 19.4403 358.053 20.051 358.44 20.0705C358.85 20.0896 358.726 19.5356 358.927 19.3201C360.024 19.6711 360.556 20.1647 361.983 19.8476C361.88 19.1873 362.056 18.8662 362.347 18.6491C362.219 19.1017 362.625 18.9089 362.853 18.9313C361.818 18.3143 360.873 17.5897 359.261 17.6718C359.264 17.8836 359.316 18.227 359.135 18.2568C356.989 17.7658 354.55 18.684 352.13 18.092C352.139 18.6216 352.661 18.5592 352.916 18.8194L351.78 18.84L351.766 18.0986C350.516 18.1212 349.994 18.1306 349.466 17.8488C349.611 18.3494 349.084 18.0941 348.835 18.1515L348.88 18.1507ZM167.005 21.5954C166.499 21.2602 165.436 21.5708 164.707 21.478C164.9 22.1102 166.933 22.6827 167.005 21.5954ZM190.262 21.6255C190.691 21.4588 191.7 21.9704 191.526 21.1524C191.338 20.8115 190.639 21.1154 190.251 21.0165L190.261 21.599L190.262 21.6255ZM241.734 20.5367C241.591 20.1949 240.938 20.4981 240.595 20.3984C240.651 20.9801 241.695 20.8817 241.734 20.5367ZM243.517 21.0872C245.973 21.1488 247.086 21.0757 249.255 21.5663C249.386 21.2725 249.494 20.9527 249.625 20.659C250.294 21.2296 251.764 20.8058 252.812 20.8928C252.357 19.6296 250.508 20.4577 249.622 20.5001C249.039 19.6896 248.265 20.869 247.708 20.2434C246.608 21.0578 245.132 19.8926 243.503 20.3193C243.42 20.7711 243.418 20.6122 243.517 21.0607L243.517 21.0872ZM414.606 18.2877C414.434 17.5756 413.595 17.6967 412.822 17.7372C412.883 18.5837 413.878 18.2743 414.606 18.2877ZM415.242 18.2762C415.81 18.2659 416.471 18.3864 416.368 17.6731L415.231 17.6937L415.242 18.2762ZM242.897 21.9725L243.783 21.9565C243.684 21.508 243.43 21.2742 242.886 21.39L242.897 21.9725ZM249.632 22.3011C249.995 22.2945 249.891 22.7997 250.41 22.5784C250.539 22.1788 250.681 21.2491 250.136 21.259C250.076 21.7368 249.714 21.8493 249.654 22.3007L249.632 22.3011ZM316.22 21.0981C316.328 20.8313 316.692 20.8512 316.593 20.3497L315.456 20.3703C315.466 20.9263 315.854 20.9988 316.242 21.0977L316.22 21.0981ZM314.702 21.4169C315.066 21.4103 314.961 21.9155 315.48 21.6942C315.538 21.1369 315.284 20.9031 314.964 20.803C315.132 21.2767 314.557 20.9163 314.724 21.39L314.702 21.4169ZM413.979 20.0737C414.035 20.7083 415.049 20.1867 415.506 20.3374C415.404 19.7036 414.384 19.8809 413.979 20.0737ZM376.247 21.6559C376.997 22.9137 379.46 22.1011 380.588 22.9018C381.712 22.1664 382.74 22.4656 384.646 22.2458C384.685 20.6294 382.744 21.4061 381.582 21.2681C381.32 21.8556 380.222 21.4781 379.565 21.5959C379.457 21.9157 379.093 21.9488 378.683 21.9032C378.675 21.4531 378.667 21.0029 378.281 21.0099C377.742 21.364 376.947 21.4313 376.269 21.629L376.247 21.6559ZM317.282 23.3039C317.495 23.7503 317.779 23.1095 317.914 23.0011L317.277 23.0126L317.282 23.3039ZM248.54 26.0291C249.172 25.8057 249.227 26.308 249.681 26.2998C249.712 25.5046 249.187 25.3817 248.529 25.42L248.539 26.0026L248.54 26.0291ZM184.635 28.5079L185.771 28.4874C185.757 27.7195 184.643 27.7396 184.635 28.5079ZM216.02 27.9409C216.009 27.3319 215.13 27.7981 214.742 27.6727C214.753 28.2817 215.631 27.8155 216.02 27.9409ZM161.126 29.6743C161.02 30.1 161.021 30.1265 161.143 30.5745C161.477 30.2242 163.132 29.9559 163.438 30.5331C163.772 30.1562 164.227 30.148 164.574 30.5125C164.914 30.4534 164.929 30.0294 165.455 30.2053C165.397 29.5176 164.628 29.6905 164.303 29.3255C163.446 29.7118 162.624 29.5148 161.126 29.6743ZM158.978 30.2958L160.251 30.2728C160.417 29.4222 158.781 29.4518 158.978 30.2958ZM267.387 28.6286C268.097 28.8807 268.19 27.7401 267.621 27.7238C267.629 28.1475 267.194 28.0229 267.387 28.6286ZM301.962 28.4543L303.098 28.4338C302.886 27.9873 302.584 27.6484 301.949 27.7129L301.962 28.4543ZM368.447 27.8359C368.563 27.9662 369.271 28.1389 369.333 27.8199C368.988 27.5877 368.532 27.49 368.186 27.2579C368.036 27.7374 368.597 27.3564 368.447 27.8359ZM413.289 32.2173C413.37 32.931 414.318 32.596 414.578 33.0946C414.657 32.4574 415.293 32.4459 415.442 31.887C414.594 31.505 414.129 32.1756 413.289 32.2173ZM416.301 36.6127C416.706 36.42 416.4 37.0877 416.806 36.895C417.322 36.5413 419.178 36.0575 417.796 35.1024C417.19 35.4842 416.42 35.6835 416.301 36.6127Z" fill="white"/>
<path fill-rule="evenodd" clip-rule="evenodd" d="M197.794 15.7571C198.052 16.1747 197.367 15.9994 197.418 16.2957C198.528 16.1192 200.055 16.3106 200.995 16.7628C200.12 17.4198 198.489 16.4327 197.815 16.9141C197.741 16.587 196.859 16.8375 196.919 16.3985C197.234 16.2051 197.296 15.8443 197.795 15.7727L197.794 15.7571Z" fill="white"/>
<path fill-rule="evenodd" clip-rule="evenodd" d="M310.518 20.1016C309.151 19.9387 306.687 20.7182 305.307 19.8517C304.54 20.1784 303.804 19.6756 303.01 19.7994C302.732 19.476 303.661 19.3184 303.001 19.2678C303.294 19.1217 303.932 19.1884 304.132 18.9815C304.09 19.1386 304.226 19.1518 304.385 19.1489C304.364 19.2432 304.137 19.216 304.139 19.3254C304.439 19.5702 305.659 19.1885 305.802 19.5612C305.913 19.4029 306.277 19.4119 306.181 19.1165C307.136 19.1305 307.409 19.1412 308.205 19.1738C307.666 19.5432 308.262 19.7983 308.473 20.1386C308.608 20.0736 308.605 19.9329 308.856 19.9596C308.555 19.6679 308.441 19.6543 308.592 19.1824C309.137 19.1413 309.39 19.3088 309.374 19.7C310.686 19.3166 311.627 19.8157 312.939 19.4636C313.237 19.599 313.109 20.0392 313.339 20.2383C313.842 20.37 313.378 19.8623 313.72 19.8874C314.174 19.8792 314.404 20.0471 314.366 20.4075C314.887 20.3511 315.32 20.3902 315.393 20.6548C315.864 20.3179 316.3 20.4977 317.047 20.359C317.064 20.0147 316.43 20.1512 316.401 19.839C317.406 20.0867 317.988 19.5601 318.813 19.9674C319.942 19.5091 321.455 20.2012 322.742 19.7244C322.745 19.8808 322.904 19.9092 322.884 20.0659C323.971 19.7804 325.704 20.1088 326.813 19.8229C327.704 20.0727 328.909 20.0978 330.115 20.1073C330.003 20.2032 329.868 20.2838 329.733 20.3801C328.843 20.1772 326.021 20.0092 325.532 20.628C325.123 20.6511 324.984 20.4972 324.889 20.2956C324.504 20.3651 325.006 20.4811 324.895 20.6395C324.238 20.7452 324.165 20.4494 323.867 20.314C323.574 20.4914 323.075 20.5317 322.461 20.5115C322.412 20.356 322.548 20.3379 322.707 20.335C321.978 20.2074 321.1 20.7081 319.915 20.5575L319.907 20.1197C319.05 20.4793 317.272 20.2299 316.99 20.9544C316.718 21.0062 316.805 20.7857 316.6 20.7894C313.959 21.7911 312.935 19.2447 310.496 20.1177L310.518 20.1016Z" fill="white"/>
<path fill-rule="evenodd" clip-rule="evenodd" d="M396.56 18.5472C398.995 17.4241 403.211 17.9891 406.597 17.928C407.074 17.9194 407.616 17.7062 408.116 17.7285C409.049 17.7586 410.078 18.0684 410.519 17.341C410.935 17.6932 411.799 17.7245 412.821 17.6435C412.645 17.9751 413.165 17.8093 413.079 18.0767C412.596 17.8039 411.278 17.8121 410.67 18.1203C408.143 17.9313 405.86 18.6764 403.806 18.2443C401.836 18.6396 398.945 18.4259 396.56 18.5472Z" fill="white"/>
<path fill-rule="evenodd" clip-rule="evenodd" d="M338.732 20.2021C336.08 20.641 333.672 20.7002 330.353 20.6976C330.164 20.31 330.711 20.4252 330.592 20.0833C333.298 20.1439 336.723 19.7067 338.869 20.1996C340.16 19.9261 342.953 19.7818 343.959 20.1077C344.456 19.911 346.044 19.7259 346.505 20.0617C347.36 19.5771 348.685 19.9441 350.07 19.8253C350.072 19.966 350.007 20.1548 350.212 20.1667C350.588 19.55 353.088 19.5518 354.027 19.9258C356.269 19.463 358.821 19.761 361.524 19.6183C361.731 19.771 362.23 19.6994 362.303 19.9483C362.774 19.5957 364.234 19.9134 364.314 19.302C364.568 19.532 364.98 19.6497 364.965 20.0723C364.552 19.892 364.461 19.8937 364.078 20.0883C365.38 20.3932 367.265 20.2966 369.037 20.2646C369.144 19.8716 368.51 19.9926 368.526 19.6638C368.184 19.6075 368.625 20.0687 368.283 20.0123C367.55 19.7128 365.919 20.055 365.478 19.5312C365.701 19.3239 366.606 19.0573 366.885 19.412C370.068 19.4483 373.109 19.1275 375.665 19.6913C375.144 19.7633 374.323 19.6061 374.008 19.8151C374.42 19.9953 375.327 19.8225 375.537 20.1315C375.83 20.0167 376.101 19.8711 376.67 19.939C376.666 19.7045 376.258 19.7588 376.276 19.5082L377.412 19.4877C377.26 19.8658 377.624 19.8748 377.673 20.0929C379.648 19.9165 380.332 20.0292 381.744 20.1914C382.05 19.4977 380.672 20.0074 380.597 19.6022L382.12 19.5747C382.261 19.8536 381.919 19.7972 381.876 19.9231C382.815 20.2972 384.628 20.0142 385.455 20.4684C385.543 20.3261 385.862 20.336 385.835 20.1175C388.81 19.9543 389.722 20.0786 391.923 19.8355C391.925 19.9918 392.085 20.0202 392.065 20.177C391.844 20.525 390.725 20.2637 390.803 20.8097C386.104 21.1605 381.079 21.1105 376.944 21.2322C375.961 20.9684 375.647 21.193 374.281 21.1082C374.46 20.9329 374.432 20.6363 374.91 20.6589C374.647 19.9443 372.324 19.7047 371.975 20.5399C371.856 20.2606 372.083 20.2095 372.217 20.0976C371.665 19.7479 370.238 20.0396 369.282 19.9786C369.512 20.1152 369.742 20.2362 369.68 20.5814C370.077 19.9486 370.656 20.5012 371.699 20.3729C371.77 20.4967 371.548 20.8292 371.844 20.8082C372.432 20.6412 372.859 20.3832 373.355 20.1709C373.542 20.4491 373.707 20.7432 374.006 20.9412C371.011 21.2768 367.046 20.7854 363.839 20.6869C363.722 20.4701 363.492 20.3491 363.33 20.1644C362.717 20.2224 362.472 20.5239 361.813 20.5358C361.328 20.138 360.047 19.6763 359.146 20.1461C357.888 19.6996 356.219 20.4492 355.339 20.8248C355.042 20.7207 354.766 20.5849 354.2 20.6734L354.194 20.3294C353.129 20.5676 351.37 20.0833 350.268 20.7444C348.465 20.3234 345.94 20.2439 344.431 21.0219C344.313 20.8051 344.083 20.6841 343.921 20.4994C343.469 20.6639 342.81 20.6758 342.405 20.8708C341.437 20.1533 339.477 21.174 338.822 20.1536L338.732 20.2021ZM376.501 20.6615C377.244 20.2258 377.688 20.9372 378.524 20.6249C378.378 20.1115 377.178 20.3521 376.605 20.1278C376.609 20.3311 376.383 20.3821 376.479 20.6619L376.501 20.6615ZM381.457 20.6658L382.094 20.6543L382.091 20.4823C382.089 20.3729 381.884 20.3922 381.702 20.3955C381.751 20.5666 381.524 20.5707 381.457 20.6658Z" fill="white"/>
<path fill-rule="evenodd" clip-rule="evenodd" d="M406.476 18.8062C406.07 18.9699 405.231 19.0789 404.704 18.8382C405.387 18.9354 405.994 18.549 406.476 18.8062Z" fill="white"/>
<path fill-rule="evenodd" clip-rule="evenodd" d="M273.022 13.3502L273.795 13.3362C273.915 13.6781 273.367 13.5629 273.556 13.9505C273.965 13.9587 274.099 13.7999 274.186 13.595C274.69 13.8362 275.309 14.0752 275.962 13.735L275.97 14.1728C276.56 14.1152 276.967 13.9984 277.245 14.3218C277.581 14.0342 277.946 14.1058 278.515 14.1268L278.525 14.6584C277.87 14.9204 277.544 14.504 276.862 14.5164C276.638 14.6612 276.643 14.9426 276.234 14.9656C276.159 14.576 275.747 14.427 275.447 14.1978C274.945 14.0974 275.202 14.4838 274.678 14.3838C274.727 14.5862 274.888 14.7084 274.825 14.9911C273.87 15.0083 272.894 15.0729 272.658 14.5923L273.294 14.5808C272.987 13.9295 273.281 13.8616 273.022 13.3658L273.022 13.3502Z" fill="white"/>
<path fill-rule="evenodd" clip-rule="evenodd" d="M231.186 20.5811C231.024 20.4276 230.459 20.5786 230.678 20.1523C231.339 20.2186 231.932 20.3174 232.098 20.7366C232.394 20.7625 232.023 20.347 232.48 20.4638C232.654 20.0228 232.199 19.9997 232.216 19.6866C232.873 19.5809 232.947 19.8767 233.11 20.1084C233.725 20.1755 233.056 19.6245 233.352 19.6661C233.992 19.8266 234.452 20.1311 235.136 20.2438C235.544 20.1583 235.123 19.5403 235.899 19.6983C236.088 20.0859 235.54 19.9707 235.66 20.3126C235.684 20.406 235.911 20.3706 235.913 20.48C236.392 20.5652 236.112 20.148 236.545 20.2027L236.553 20.6405C237.415 20.578 238.561 21.0734 239.211 20.5925C239.575 20.5859 239.58 20.8517 239.854 20.9249C240.348 20.5563 239.324 20.5435 239.454 20.1502C238.391 20.4978 237.839 20.1168 236.522 20.2031C236.517 19.9374 236.064 20.0081 236.126 19.6786C237.964 19.489 240.491 19.6935 241.717 19.5776C241.585 19.8458 241.992 19.729 242.22 19.7405C242.224 19.975 242.183 20.2416 242.367 20.3478C243.323 20.3931 244.18 20.0335 244.666 20.4783C244.91 20.1767 245.684 20.2253 246.067 20.0151C245.959 20.3298 246.681 20.0509 246.461 20.4459C246.754 20.3311 247.025 20.1854 247.594 20.2534L247.6 20.5973C248.869 20.3711 251.746 19.7717 252.805 20.5033C253.411 20.0857 255.403 20.863 256.233 20.2693C256.717 20.6359 257.116 20.0344 257.645 20.4158C257.804 20.413 257.756 20.2574 257.777 20.1476C257.728 19.9452 257.14 20.1278 256.889 20.0698C256.978 19.9743 257.183 19.9707 257.134 19.7995C257.608 19.6033 257.755 20.1949 257.77 19.788C257.956 20.0036 258.748 19.786 258.665 20.2098C259.115 19.9514 260.225 19.7593 260.574 20.1753C260.936 20.0905 260.411 19.9593 260.566 19.7375C261.428 19.6594 261.797 19.9186 262.233 20.1453C262.653 19.4808 264.729 19.8969 265.517 19.476C266.319 19.8525 267.814 19.5283 268.699 19.4185C268.703 19.6374 268.931 19.6802 268.707 19.8563C269.003 19.9135 269.704 19.6819 269.596 20.0123C269.772 19.665 270.868 19.9424 270.721 19.382C272.073 19.9519 274.348 18.7847 274.937 19.9158C275.575 20.0294 275.615 19.7315 276.07 19.7233C276.042 19.4579 275.027 19.8829 275.179 19.4735C275.906 19.4447 276.839 19.5373 277.198 19.265C277.628 19.1634 277.408 19.5271 277.456 19.6982C277.819 19.6604 278.559 19.0996 278.863 19.579C279.062 19.2469 280.135 19.4934 280.38 19.2075C280.79 19.247 280.885 19.4955 281.272 19.5354C281.775 19.6671 281.311 19.1594 281.653 19.1845C282.083 19.0829 282.064 19.3022 282.045 19.5215C282.968 19.02 284.255 19.7943 284.971 19.1246C286.133 19.3069 287.318 19.4575 288.795 19.3995L288.803 19.8373L289.303 19.8283C289.458 19.5909 289.52 19.2926 290.181 19.3745C290.504 19.6502 290.194 20.0781 290.2 20.422C288.292 20.4878 287.169 19.992 285.978 19.5286C285.705 19.5336 285.939 19.9047 285.851 20.0627C284.967 20.1725 283.536 20.2765 282.67 20.1201C282.711 19.9004 283.388 19.638 282.795 19.5079C282.639 19.6984 282.621 19.9646 282.42 20.1247C282.077 20.0527 281.241 20.318 281.28 19.9732C280.699 20.4998 279.307 20.1965 278.868 19.8448C278.391 19.8534 278.558 20.2726 277.988 20.2047C277.603 20.3055 277.757 20.0212 277.732 19.8653C276.89 19.8179 276.463 20.0759 276.081 20.333C274.438 20.0186 273.219 20.4786 271.758 20.1452C269.855 20.5081 267.142 20.0722 265.138 19.9208C265.05 20.0631 264.732 20.0532 264.758 20.2717C261.496 20.878 256.76 20.51 253.705 21.2534C253.611 21.1143 253.293 21.1357 253.312 20.9164C250.856 20.8826 249.297 21.3799 247.085 21.0289C245.979 21.4399 242.994 21.0559 241.634 21.2994C241.107 21.0587 239.219 21.0302 238.702 21.3524C236.751 21.5597 236.102 20.852 234.487 20.8186L234.481 20.4746C233.752 20.4252 233.576 20.7412 233.354 21.0267C231.899 21.0374 229.883 21.4491 229.144 20.7587C228.897 20.9665 228.191 20.8854 228.013 21.1232C227.74 21.0969 227.556 20.9751 227.507 20.7883C226.033 20.9869 223.478 20.4857 222.809 21.2172C222.556 21.0341 221.485 20.9284 221.286 21.2447C218.364 20.5781 213.913 20.8149 211.758 21.0728C211.298 20.7683 210.847 20.9954 210.477 20.658C210.296 20.677 210.437 20.9246 210.232 20.9283C209.732 20.953 209.345 20.9131 209.452 20.5045C208.591 20.7077 207.568 20.6637 206.901 20.2847C206.737 20.0062 207.309 20.2148 207.145 19.9362C207.552 19.8194 207.241 20.216 207.648 20.0992C207.507 19.8515 207.232 19.6844 206.866 19.5816C208.151 18.9953 209.64 19.594 211.432 19.4052C211.092 19.4583 210.947 20.2273 211.693 20.0105C211.559 20.1224 211.332 20.1734 211.451 20.4528C211.924 20.194 213.041 20.3615 213.468 20.0723C213.656 20.4442 215.039 20.2315 215.125 19.9485C216.648 19.921 218.229 20.6275 219.584 20.1338C220.015 20.0635 219.795 20.4584 220.09 20.4687C220.588 20.3503 220.79 20.1902 221.227 20.4482C221.451 20.3034 221.722 20.189 221.602 19.8315C222.261 19.8196 221.789 20.1096 221.863 20.4367C222.93 20.3861 224.289 20.0957 225.431 20.3722C225.767 20.1003 226.794 20.3007 226.83 19.8152C225.806 19.7399 225.052 19.5189 223.899 19.8682C224.075 19.5366 223.555 19.7024 223.641 19.4349C225.411 19.2935 226.729 19.2227 228.348 19.5219C228.512 19.8005 227.94 19.5918 228.104 19.8704C228.244 20.0712 228.9 19.8873 229.242 19.9437C229.523 20.3921 230.32 20.4716 231.162 20.5189L231.186 20.5811ZM209.31 20.1943C210.04 20.3375 210.108 20.3363 210.832 20.1668C210.85 19.885 210.621 19.7953 210.324 19.7381C210.284 20.0203 209.125 20.0256 209.31 20.1943ZM228.005 20.6385C228.344 20.5229 227.996 20.1851 227.994 20.0288L227.494 20.0378C227.5 20.3661 227.685 20.5505 228.005 20.6385ZM240.328 20.76L240.828 20.7509C240.89 20.3745 240.705 20.1901 240.317 20.1502L240.328 20.76ZM280.096 19.8695C280.525 19.6897 280.411 19.6918 280.869 19.8555L280.864 19.5897L280.092 19.6037L280.096 19.8695ZM284.661 19.615C284.71 19.8018 284.894 19.9236 285.167 19.9499C285.278 19.7915 285.642 19.8006 285.546 19.5052C285.113 19.4504 285.048 19.6393 284.661 19.615ZM241.72 21.0007L242.22 20.9917L242.212 20.5539L241.712 20.5629L241.72 21.0007ZM288.102 20.0689C288.076 19.8974 288.235 19.8788 288.232 19.7225L287.596 19.734C287.645 19.9208 287.829 20.0426 288.102 20.0689Z" fill="white"/>
</g>
<defs>
<clipPath id="clip0_1447_1474">
<rect width="424.709" height="23.2837" fill="white" transform="translate(0.0842285 8.45947) rotate(-1.03499)"/>
</clipPath>
</defs>
</svg>
