<svg width="80" height="90" viewBox="0 0 80 90" fill="none" xmlns="http://www.w3.org/2000/svg">
<g id="uuid-fdb1a327-eb59-4153-bb75-b2a7b86216ec" clip-path="url(#clip0_1447_2059)">
<path id="Vector" d="M55.4583 72.9958C57.0049 71.9707 58.7152 70.1076 57.676 68.1956C56.9231 66.8125 55.3028 66.2348 53.6498 66.0559C54.329 65.6816 54.6645 64.9738 54.5254 64.152C53.9853 60.9058 53.7807 57.6351 54.2226 54.3645C54.6236 51.3867 55.9247 48.7913 57.4796 46.2692C59.0017 43.804 60.5483 41.3225 61.1866 38.4668C61.7021 36.1725 61.694 33.7154 61.383 31.3967C60.8593 27.5646 58.7807 24.237 55.7201 21.902C52.766 19.6483 48.9444 18.672 45.2864 18.3791C37.3323 17.7445 28.8871 20.5758 23.1588 26.1164C19.1899 29.9566 17.4714 35.3019 18.4125 40.7123C19.4354 46.6109 23.437 51.2565 27.8887 54.9909C29.8282 56.6181 31.5712 58.2453 32.766 60.5071C33.9935 62.8259 34.7136 65.3887 35.7202 67.8051C35.7611 67.9027 35.8102 67.9922 35.8593 68.0736C34.8609 70.2133 36.6121 72.0114 38.7152 72.467C42.0295 73.1911 44.9673 72.052 47.9133 70.6608C49.1817 70.0587 50.4828 69.4648 51.9149 69.4567C52.6023 69.4567 53.3143 69.5299 53.9853 69.6763C54.0017 69.6763 54.0426 69.6926 54.0835 69.7008C53.9526 69.8147 53.8134 69.9204 53.6661 70.0181C52.7578 70.6283 51.7185 71.0432 50.6629 71.3198C46.3421 72.4507 40.3355 71.6615 38.0933 76.478C37.2095 78.3737 37.8396 80.3019 39.9182 80.9528C41.6203 81.4816 43.658 81.083 45.3437 80.6762C47.1522 80.245 48.8462 79.472 50.4747 78.5852C52.2422 77.617 54.7054 75.876 56.8249 76.535C59.2144 77.2753 58.0442 79.9195 57.1277 81.3352C56.0475 82.9949 54.4845 84.0201 52.766 84.9069C49.9264 86.3632 44.5909 88.0311 42.3732 84.7035C42.3241 84.6302 42.2832 84.557 42.2341 84.4757C41.072 82.5718 37.9951 84.2072 39.1653 86.1273C41.7267 90.3336 46.7431 90.6346 51.0802 89.3084C55.4828 87.9578 59.4108 85.2974 61.2357 80.9772C62.2586 78.5527 61.7594 75.7295 59.5663 74.143C58.257 73.1911 56.8658 72.8982 55.4501 73.0121L55.4583 72.9958ZM40.8593 77.6089C40.8593 77.6089 40.8429 77.6008 40.8265 77.5926C40.8347 77.5926 40.8511 77.6089 40.8593 77.6089ZM46.1539 76.8197C45.1637 77.2347 43.0606 77.7065 41.6776 77.6984C41.5794 77.6984 41.4894 77.6984 41.3912 77.6903C41.5794 77.3892 41.8004 77.1045 42.0295 76.8767C42.6678 76.2665 43.7316 76.0468 44.5581 75.8515C45.8511 75.5424 47.1768 75.3878 48.4943 75.2088C48.8953 75.1519 49.3044 75.0949 49.6972 75.0298C48.527 75.6563 47.3732 76.3153 46.1457 76.8279L46.1539 76.8197ZM41.7758 69.2126C41.1211 69.2696 40.3846 69.2533 39.73 69.1475C39.6236 69.1312 39.509 69.1068 39.4026 69.0743C39.599 68.8872 39.8445 68.7244 40.0573 68.578C42.4141 67.0159 45.1146 66.9671 47.8233 66.8939C45.8347 67.7644 43.9607 69.0255 41.7758 69.2126ZM40.7038 39.5652C42.4632 39.9638 44.1326 41.6805 46.1211 42.0629C46.3094 42.1036 46.4976 42.128 46.6694 42.1361C45.7365 45.8949 44.4108 49.5643 44.018 53.4451C43.838 55.2269 44.0999 57.0412 44.1735 58.823C44.1899 59.1728 44.2144 59.5715 44.2226 59.9946C41.1866 54.6899 38.2324 49.3364 34.7709 44.2922C35.6056 44.1213 36.3666 43.6494 37.054 43.1287C37.9624 42.4372 38.6907 41.5015 39.4517 40.6635C39.7954 40.2893 40.1473 39.9313 40.5401 39.614C40.3846 39.7442 40.6138 39.6384 40.6956 39.5733L40.7038 39.5652ZM40.5565 39.5652C40.5565 39.5652 40.6056 39.5489 40.6138 39.5408C40.5974 39.5408 40.5729 39.557 40.5483 39.5652H40.5565ZM50.5647 60.1817C50.6301 61.1905 50.7365 62.1913 50.8675 63.2001C49.64 63.3954 48.3879 63.4442 47.1359 63.4767C48.1015 60.8488 47.5205 57.7409 47.4632 54.9747C47.365 50.1012 49.6891 45.4068 50.5483 40.6717C50.6301 40.1998 50.581 39.7279 50.3846 39.3374C50.7202 38.3366 50.8593 37.1976 50.8838 36.1562C50.9329 33.9188 47.4468 33.8049 47.3977 36.0342C47.3814 36.6932 47.365 37.3522 47.2259 37.9949C47.1686 38.2715 47.0786 38.4912 46.9967 38.6458C46.9067 38.6458 46.8167 38.6702 46.9231 38.6946C46.5467 38.6133 46.1784 38.4587 45.9575 38.3529C44.2553 37.5312 42.7005 36.2782 40.7611 36.083C38.7889 35.8877 37.3241 37.8403 36.1702 39.1258C35.5647 39.8011 34.9591 40.452 34.3126 40.81C34.3699 40.7693 34.1817 40.8506 34.0753 40.8832C34.0753 40.875 33.9935 40.8669 33.9035 40.8344C33.8298 40.81 33.3634 40.2567 33.1997 40.0126C31.964 38.1658 28.8789 39.8011 30.131 41.6642C30.2537 41.8514 30.3846 42.0385 30.5238 42.2175C30 42.909 30.1637 43.7633 30.6711 44.4467C35.1637 50.565 38.6416 57.3178 42.4386 63.8591C41.1457 64.1276 39.73 64.6402 38.5107 65.3806C37.3486 62.4272 36.4321 59.36 34.5745 56.7402C32.7005 54.1041 29.91 52.2898 27.5778 50.085C23.7643 46.4889 21.1211 41.2086 21.7431 35.9121C22.275 31.3804 25.8511 27.7517 29.5418 25.5225C32.8151 23.5373 36.5303 22.4064 40.3192 21.9345C43.8707 21.4871 47.5778 21.8206 50.9084 23.1387C53.8216 24.2858 56.2848 26.5883 57.3404 29.4928C58.0197 31.3641 58.1833 33.333 58.0851 35.3101C57.946 38.06 56.9967 40.3625 55.5892 42.7138C54.108 45.1952 52.4796 47.5709 51.6203 50.3534C50.6301 53.5509 50.3683 56.8541 50.5729 60.1817H50.5647Z" fill="black"/>
<path id="Vector_2" d="M25.8266 64.4368C23.9526 65.8362 22.2259 67.4146 20.3519 68.8139C19.5909 69.3835 19.6973 70.6445 20.2947 71.271C21.0066 72.0114 22.005 71.8893 22.766 71.328C24.64 69.9286 26.3667 68.3502 28.2406 66.9508C29.0017 66.3813 28.8953 65.1202 28.2979 64.4937C27.586 63.7534 26.5876 63.8754 25.8266 64.4368Z" fill="black"/>
<path id="Vector_3" d="M17.4386 56.0486C14.4762 57.4561 12.1112 59.7505 9.45985 61.6299C8.68244 62.1831 8.25691 63.0699 8.75609 63.9812C9.16525 64.7378 10.3437 65.2341 11.1211 64.6808C13.7643 62.8014 16.1538 60.499 19.0998 59.0996C21.1292 58.1314 19.468 55.0804 17.4386 56.0486Z" fill="black"/>
<path id="Vector_4" d="M12.2178 45.1872C8.61713 46.0496 5.12286 47.2374 1.71042 48.6531C-0.368138 49.5155 1.30944 52.5583 3.37163 51.7041C6.50584 50.4023 9.70551 49.3528 13.0034 48.5636C15.1965 48.0347 14.4109 44.6583 12.2178 45.179V45.1872Z" fill="black"/>
<path id="Vector_5" d="M1.22756 34.1385C4.17355 34.822 7.05408 35.3833 10.0901 35.066C11.0393 34.9684 11.5958 33.8212 11.3994 32.9832C11.1703 31.9744 10.2537 31.5838 9.30449 31.6815C6.91496 31.9337 4.53362 31.356 2.22593 30.8109C0.0409837 30.2984 -0.965563 33.626 1.22756 34.1385Z" fill="black"/>
<path id="Vector_6" d="M13.1914 22.0892C15.0163 23.3991 16.8248 20.4294 15.0081 19.1277C12.9213 17.6307 10.7609 16.2394 8.90333 14.4576C7.29122 12.9037 4.76258 15.2956 6.38287 16.8577C8.45325 18.8511 10.8591 20.4213 13.1914 22.0973V22.0892Z" fill="black"/>
<path id="Vector_7" d="M24.5335 13.0582C25.7692 14.905 28.8461 13.2778 27.6022 11.4066C26.2111 9.31564 25.0327 7.10265 23.8706 4.88154C22.8314 2.89636 19.7626 4.54796 20.8019 6.53314C21.9639 8.75425 23.1341 10.9672 24.5335 13.0582Z" fill="black"/>
<path id="Vector_8" d="M43.036 11.8622C44.0426 11.6344 44.4517 10.7232 44.3453 9.7794C44.0098 6.90741 44.7627 4.07609 43.8625 1.25291C43.1833 -0.870573 39.779 -0.0976573 40.4583 2.02583C41.3339 4.77578 40.6137 7.721 40.9411 10.5523C41.0475 11.4961 42.1849 12.0493 43.036 11.8541V11.8622Z" fill="black"/>
<path id="Vector_9" d="M58.6171 13.4976C60.9575 10.8534 63.036 7.94887 65.7447 5.64639C67.455 4.19006 65.0328 1.69232 63.3306 3.14052C60.622 5.44299 58.5516 8.34753 56.203 10.9917C54.73 12.6515 57.1277 15.1817 58.6171 13.4976Z" fill="black"/>
<path id="Vector_10" d="M63.7152 22.7726C63.9116 23.6106 64.91 24.3916 65.8101 24.0743C68.4697 23.1306 71.162 22.1949 73.5352 20.6491C75.4091 19.4368 73.7643 16.3696 71.874 17.5981C69.7545 18.9731 67.3977 19.8518 65.0245 20.6979C64.1325 21.0152 63.4861 21.78 63.7152 22.7807V22.7726Z" fill="black"/>
<path id="Vector_11" d="M78.7889 34.35C75.4992 33.4388 72.1277 32.7065 68.6989 32.853C66.4567 32.9425 66.3339 36.4165 68.5761 36.3189C71.7349 36.1887 74.7627 36.8314 77.7824 37.6694C79.9509 38.2715 80.9575 34.9439 78.7807 34.3418L78.7889 34.35Z" fill="black"/>
<path id="Vector_12" d="M73.1996 52.2979C70.1227 50.6219 67.7086 47.994 64.6317 46.3017C62.6677 45.2197 60.8428 48.1811 62.815 49.2632C65.8919 50.9555 68.306 53.5916 71.3829 55.2594C73.3469 56.3252 75.1799 53.3719 73.1996 52.2979Z" fill="black"/>
<path id="Vector_13" d="M61.2848 58.5301C59.108 57.985 58.1015 61.3044 60.2864 61.8577C62.0049 62.2889 63.3388 63.3384 64.6154 64.5182C65.311 65.1609 66.3666 65.2585 67.0867 64.5751C67.7414 63.9486 67.8396 62.7608 67.144 62.118C65.4337 60.5478 63.5925 59.1159 61.293 58.5382L61.2848 58.5301Z" fill="black"/>
</g>
<defs>
<clipPath id="clip0_1447_2059">
<rect width="80" height="90" fill="white"/>
</clipPath>
</defs>
</svg>
