<svg width="131" height="70" viewBox="0 0 131 70" fill="none" xmlns="http://www.w3.org/2000/svg">
<g id="Cisco_Logo">
<path id="path10" d="M64.5557 46.3655C62.747 45.9481 60.7992 45.6699 58.9906 45.6699C53.7037 45.6699 50.5038 48.5915 50.5038 52.7654C50.5038 56.5218 53.1472 58.4696 56.3471 59.4435C56.7645 59.5826 57.1819 59.7217 57.5993 59.8609C58.9906 60.2783 60.1036 60.9739 60.1036 62.0869C60.1036 63.3391 58.8514 64.1738 55.9297 64.1738C54.1211 64.1738 52.3124 63.8956 50.5038 63.3391V68.6259C52.5907 69.0433 54.6776 69.1824 56.7645 69.1824C61.2166 69.1824 66.2252 67.2346 66.2252 61.5304C66.2252 58.7478 64.5556 56.2436 60.7992 54.9914L59.2688 54.4349C58.2949 54.1566 56.6254 53.6001 56.6254 52.2089C56.6254 51.0958 57.8775 50.4002 60.2427 50.4002C61.7731 50.4002 63.3035 50.6785 64.6948 51.0958L64.5557 46.3655ZM113.111 57.3566C113.111 60.6956 110.468 63.3391 107.129 63.1999C103.79 63.1999 101.146 60.5565 101.285 57.2174C101.285 54.0175 103.929 51.3741 107.268 51.3741C110.468 51.3741 113.111 54.0175 113.25 57.2174C113.111 57.2174 113.111 57.3566 113.111 57.3566ZM107.268 45.5307C100.729 45.6699 95.5811 51.0958 95.7202 57.4957C95.8593 64.0347 101.285 69.1824 107.685 69.0433C114.085 68.9042 119.233 63.6173 119.233 57.2174C119.233 50.8176 114.085 45.5307 107.685 45.3916C107.546 45.5307 107.407 45.5307 107.268 45.5307ZM42.8517 68.765H37.1475V45.9481H42.8517" fill="#fff"/>
<path id="path12" d="M29.2167 46.3656C27.5472 45.8091 25.7385 45.5308 23.9298 45.5308C17.53 45.2526 12.104 50.2612 11.8257 56.661C11.8257 56.9393 11.8257 57.0784 11.8257 57.3567C11.8257 64.7304 17.53 69.1825 23.9298 69.1825C25.7385 69.1825 27.408 68.9043 29.2167 68.3478V62.2261C27.6863 63.0609 26.0168 63.4783 24.3472 63.4783C21.0082 63.6174 18.2256 60.974 18.0865 57.6349C17.9474 54.2959 20.5908 51.5133 23.9298 51.3742C24.069 51.3742 24.2081 51.3742 24.3472 51.3742C26.0168 51.3742 27.6863 51.7916 29.2167 52.6263" fill="#fff"/>
<path id="use14" d="M89.181 46.3656C87.5115 45.8091 85.7028 45.5308 83.8941 45.5308C77.4943 45.2526 72.0683 50.2612 71.79 56.661C71.79 56.9393 71.79 57.0784 71.79 57.3567C71.79 64.7304 77.4943 69.1825 83.8941 69.1825C85.7028 69.1825 87.3723 68.9043 89.181 68.3478V62.2261C87.6506 63.0609 85.981 63.4783 84.3115 63.4783C80.9725 63.6174 78.1899 60.974 78.0508 57.6349C77.9117 54.2959 80.5551 51.5133 83.8941 51.3742C84.0333 51.3742 84.1724 51.3742 84.3115 51.3742C85.981 51.3742 87.6506 51.7916 89.181 52.6263" fill="#fff"/>
<g id="g22">
<path id="path16" d="M37.0079 2.92171C37.0079 1.39131 35.7558 0.13916 34.2254 0.13916C32.695 0.13916 31.3037 1.39131 31.3037 2.92171V33.2515C31.3037 34.7819 32.5558 36.0341 34.2254 36.0341C35.7558 36.0341 37.0079 34.7819 37.0079 33.2515V2.92171ZM21.4256 13.6345C21.4256 12.1041 20.1735 10.7129 18.6431 10.7129C17.1127 10.7129 15.7214 11.965 15.7214 13.6345V27.4082C15.7214 28.9386 16.9736 30.3298 18.6431 30.3298C20.1735 30.3298 21.4256 29.0777 21.4256 27.4082V13.6345ZM5.70423 21.5648C5.70423 20.0344 4.45208 18.7822 2.78255 18.7822C1.25215 18.7822 0 20.0344 0 21.5648V27.5473C0 29.0777 1.25215 30.3298 2.92168 30.3298C4.45208 30.3298 5.70423 29.0777 5.70423 27.5473" fill="#fff"/>
<path id="use18" d="M31.3035 2.92168C31.3035 1.39128 32.5557 0 34.2252 0C35.8947 0 37.1469 1.25215 37.1469 2.92168V33.2515C37.1469 34.7819 35.8947 36.034 34.2252 36.034C32.5557 36.034 31.3035 34.7819 31.3035 33.2515V2.92168ZM47.0249 13.6345C47.0249 12.1041 48.2771 10.8519 49.9466 10.8519C51.6162 10.8519 52.8683 12.1041 52.8683 13.6345V27.4081C52.8683 28.9385 51.6162 30.1907 49.9466 30.1907C48.2771 30.1907 47.0249 28.9385 47.0249 27.4081V13.6345ZM62.7463 21.5648C62.7463 20.0344 63.9985 18.7822 65.668 18.7822C67.1984 18.7822 68.4506 20.0344 68.4506 21.5648V27.5473C68.4506 29.0777 67.1984 30.3298 65.5289 30.3298C63.9985 30.3298 62.7463 29.0777 62.7463 27.5473" fill="#fff"/>
</g>
<g id="use20">
<path id="path16-2" d="M93.9923 2.94526C93.9923 1.41486 95.2445 0.0235825 96.7749 0.0235825C98.3053 0.0235825 99.6966 1.27573 99.6966 2.94526V33.1359C99.6966 34.6663 98.4444 36.0576 96.7749 36.0576C95.2445 36.0576 93.9923 34.8055 93.9923 33.1359V2.94526ZM109.714 13.6581C109.714 12.1277 110.966 10.8755 112.496 10.8755C114.027 10.8755 115.279 12.1277 115.279 13.6581V27.4317C115.279 28.9621 114.027 30.3534 112.496 30.3534C110.966 30.3534 109.714 29.1012 109.714 27.4317V13.6581ZM125.296 21.5884C125.296 20.0579 126.548 18.8058 128.218 18.8058C129.748 18.8058 131 20.0579 131 21.5884V27.5708C131 29.1012 129.748 30.3534 128.079 30.3534C126.548 30.3534 125.296 29.1012 125.296 27.5708" fill="#fff"/>
<path id="use18-2" d="M99.6965 2.94526C99.6965 1.41486 98.4443 0.162708 96.9139 0.162708C95.3835 0.162708 93.9922 1.41486 93.9922 2.94526V33.1359C93.9922 34.6663 95.2444 36.0576 96.9139 36.0576C98.5835 36.0576 99.6965 34.8055 99.6965 33.1359V2.94526ZM83.9751 13.6581C83.9751 12.1277 82.7229 10.7364 81.1925 10.7364C79.6621 10.8755 78.2708 12.1277 78.2708 13.6581V27.4317C78.2708 28.9621 79.523 30.2143 81.1925 30.2143C82.7229 30.2143 83.9751 28.9621 83.9751 27.4317V13.6581ZM68.3928 21.5884C68.3928 20.0579 67.1406 18.8058 65.4711 18.8058C63.9407 18.8058 62.6885 20.0579 62.6885 21.5884V27.5708C62.6885 29.1012 63.9407 30.3534 65.6102 30.3534C67.1406 30.3534 68.3928 29.1012 68.3928 27.5708" fill="#fff"/>
</g>
</g>
</svg>
