<svg width="40" height="38" viewBox="0 0 40 38" fill="none" xmlns="http://www.w3.org/2000/svg">
<g clip-path="url(#clip0_676_1608)">
<path d="M30.5645 27.7853C29.4137 26.7235 27.6622 26.6226 26.4005 27.5523C24.2895 29.109 22.1641 29.9762 19.1821 29.9762C13.3993 29.9762 9.03981 25.2581 9.03981 19V18.8967C9.03981 12.6987 13.4017 8.02377 19.1821 8.02377C21.573 8.02377 23.7298 8.71084 25.9397 10.2075C27.31 11.1348 29.1604 10.9066 30.2509 9.66456L33.7587 5.66469C29.7636 1.74649 25.2835 0 19.2352 0C8.27021 0 0 8.16791 0 19V19.1033C0 29.8753 8.1351 38 18.924 38C25.2835 38 29.6598 36.1022 34.0289 31.4489L34.263 31.199L30.5645 27.7853Z" fill="black"/>
<path d="M34.2171 13.2871C31.0277 13.2871 28.5283 15.7759 28.5283 18.9518C28.5283 22.1277 31.0277 24.7126 34.2171 24.7126C37.4065 24.7126 40 22.1829 40 18.9518C40 15.7207 37.4596 13.2871 34.2171 13.2871ZM37.0711 18.9518C37.0711 20.5734 35.8432 21.7937 34.2171 21.7937C32.591 21.7937 31.4571 20.571 31.4571 18.9518C31.4571 17.3326 32.6682 16.2059 34.2171 16.2059C35.766 16.2059 37.0711 17.4119 37.0711 18.9518Z" fill="#FA198C"/>
</g>
<defs>
<clipPath id="clip0_676_1608">
<rect width="40" height="38" fill="white"/>
</clipPath>
</defs>
</svg>
