<svg width="111" height="35" fill="none" xmlns="http://www.w3.org/2000/svg"><g clip-path="url(#clip0_813_210)"><path d="M105.606 24.228c-2.977 0-5.308 2.346-5.308 5.34 0 2.995 2.331 5.432 5.308 5.432S111 32.614 111 29.568c0-3.046-2.369-5.34-5.394-5.34zm2.662 5.34c0 1.53-1.144 2.68-2.662 2.68-1.517 0-2.574-1.152-2.574-2.68 0-1.527 1.13-2.589 2.574-2.589s2.662 1.138 2.662 2.59z" fill="#FA198C"/><path d="M26.446 0h3.813c.917 0 1.701.314 2.356.938.654.625.981 1.4.981 2.322V35h-7.15V0zm53.082 21.235c-.965.463-1.807.88-4.03 1.285l-2.375.495c-1.239.33-2.116.517-2.686 1.284-.519.7-.723 1.45-.723 2.173 0 .988.31 1.78.93 2.372.62.528 1.515.79 2.686.79 2.955 0 3.913-.405 5.14-1.58 1.102-1.054 1.058-2.502 1.058-4.348v-2.471zm2.247 12.152c-1.303.67-3.128 1.244-4.736 1.475-.87.124-2.736.18-4.742.105-2.477-.091-4.647-.643-6.507-1.927-1.86-1.284-2.79-3.408-2.79-6.37 0-2.767.843-4.74 2.53-5.927 1.687-1.185 3.839-1.975 6.456-2.37 0 0 2.272-.329 2.892-.394 3.028-.395 4.544-1.252 4.544-2.569 0-.988-.534-1.629-1.601-1.925-1.07-.297-2.049-.445-2.943-.445-.965 0-1.826.133-2.582.395a2.77 2.77 0 00-1.653 1.482h-6.92c.274-2.04 1.24-3.72 2.892-5.039 1.86-1.515 4.51-2.272 7.953-2.272 3.856 0 6.747.626 8.676 1.878 1.995 1.318 2.996 3.161 2.996 5.531v9.59c0 2.634-.416 4.754-1.497 6.175-.88 1.154-1.508 1.673-2.967 2.611M88.784 35V21.32c0-2.568.396-4.725 1.189-6.471.79-1.745 1.874-3.144 3.253-4.197 1.307-.988 2.84-1.712 4.596-2.174a21.293 21.293 0 015.421-.691h1.033V14.8H101.9c-1.997 0-3.477.462-4.44 1.382-.964.924-1.445 2.37-1.445 4.348v11.082c0 1.872-1.587 3.389-3.543 3.389h-3.688V35zm-67.083-7.328c-.83-.775-2.08-.813-2.994-.138-1.485 1.099-2.987 1.71-5.086 1.71-4.105 0-7.2-3.385-7.2-7.876v-.074c0-4.447 3.096-7.802 7.2-7.802 1.701 0 3.238.495 4.812 1.574.977.67 2.308.455 3.085-.44l2.455-2.826c-2.837-2.812-6.018-4.065-10.314-4.065C5.872 7.735 0 13.595 0 21.368v.075c0 7.729 5.776 13.559 13.437 13.559 4.515 0 7.622-1.362 10.724-4.7l.166-.18-2.626-2.45zm36.372-16.48C55.8 8.82 52.598 7.636 48.468 7.636c-4.13 0-6.989 1.219-9.193 3.655-2.135 2.37-3.202 5.664-3.202 9.879 0 4.214 1.102 7.805 3.304 10.175C41.58 33.783 44.645 35 48.572 35c3.236 0 5.922-.757 8.056-2.272 2.133-1.448 3.58-3.556 4.337-6.323l-4.4-.004c-1.239 0-2.39.55-3.267 1.431-.718.72-2.01 1.438-4.313 1.438-1.792 0-3.135-.526-4.029-1.58-.964-.989-1.482-2.504-1.549-4.545h17.865s.106-.801.106-1.124v-.146c0-4.348-1.101-8.245-3.304-10.683zM43.406 18.7c.069-1.712.585-3.03 1.549-3.951.963-.923 2.203-1.383 3.719-1.383 1.651 0 2.925.462 3.821 1.383.828.856 1.307 2.172 1.446 3.95H43.406z" fill="#000"/></g><defs><clipPath id="clip0_813_210"><path fill="#fff" d="M0 0h111v35H0z"/></clipPath></defs></svg>