<svg width="157" height="22" viewBox="0 0 157 22" fill="none" xmlns="http://www.w3.org/2000/svg">
<path d="M17.3708 15.9112C17.0038 15.9112 16.6368 16.0335 16.2698 16.4005C14.8018 17.8684 12.7222 18.7248 10.6426 18.7248C8.68538 18.7248 6.72811 17.8684 5.50482 16.5228C4.15919 15.0549 3.42522 12.9753 3.42522 10.8957C3.18056 6.85882 6.36112 3.31127 10.398 3.18894C10.5203 3.18894 10.6426 3.18894 10.765 3.18894C12.8446 3.18894 14.8018 3.92291 16.2698 5.39086C16.5145 5.63552 16.8814 5.75785 17.2484 5.75785C18.1047 5.75785 18.961 5.02388 18.961 4.16757C18.961 3.67826 18.7164 3.18894 18.3494 2.82195C16.2698 0.987013 13.5786 0.00837821 10.765 0.130707C7.82908 0.130707 5.0155 1.23167 3.05823 3.31127C1.10096 5.39086 0 8.20444 0 11.018C0 13.8316 1.10096 16.6452 3.05823 18.7248C5.0155 20.8044 7.82907 21.9053 10.6426 21.9053C13.5785 22.0276 16.3921 20.8044 18.4717 18.8471C18.8387 18.6024 18.961 18.1131 18.961 17.6238C18.961 16.6452 18.2271 16.0335 17.3708 15.9112ZM32.5396 0.00837542C29.6037 0.00837542 26.7901 1.10934 24.7105 3.31127C22.7532 5.39086 21.6523 8.08211 21.6523 11.018C21.6523 13.8316 22.6309 16.5228 24.5882 18.6024C28.8697 22.8839 35.8425 23.0063 40.124 18.7248L40.2463 18.6024C42.2036 16.5228 43.3046 13.8316 43.3046 10.8957C43.3046 8.08211 42.3259 5.39086 40.3687 3.31127C38.2891 1.10934 35.4755 -0.113954 32.5396 0.00837542ZM39.8793 10.8957C40.124 15.0549 36.9434 18.4801 32.7842 18.7248C32.6619 18.7248 32.5396 18.7248 32.4173 18.7248C30.3377 18.7248 28.5027 17.8684 27.0348 16.4005C25.6891 14.9325 24.9552 12.8529 24.9552 10.8957C24.7105 6.85882 27.8911 3.31127 32.0503 3.18894C32.1726 3.18894 32.2949 3.18894 32.4173 3.18894C34.4969 3.18894 36.3318 4.04524 37.7997 5.51319C39.1454 6.85881 39.8793 8.81608 39.8793 10.8957ZM62.7549 0.130707C61.7763 0.130707 61.0423 0.86468 61.0423 1.84331V9.3054H50.3997V1.84331C50.3997 0.98701 49.6657 0.130707 48.687 0.130707C47.8307 0.130707 46.9744 0.86468 46.9744 1.84331V19.948C46.9744 20.8044 47.7084 21.6607 48.687 21.6607C49.5434 21.6607 50.3997 20.9267 50.3997 19.948V12.3636H61.0423V19.948C61.0423 20.8044 61.7763 21.6607 62.7549 21.6607C63.6112 21.6607 64.4675 20.9267 64.4675 19.948V1.84331C64.4675 0.98701 63.7335 0.130707 62.7549 0.130707ZM83.3062 18.4801H72.2966V12.486H81.8383C82.6946 12.486 83.4286 11.752 83.4286 10.8957C83.4286 10.0394 82.6946 9.3054 81.8383 9.3054H72.2966V3.4336H83.1839C84.0402 3.4336 84.7742 2.82195 84.7742 1.96565C84.7742 1.10934 84.1625 0.375367 83.3062 0.375367C83.3062 0.375367 83.3062 0.375367 83.1839 0.375367H70.7063C69.85 0.375367 69.116 1.10934 69.116 2.08797V19.948C69.116 20.8044 69.85 21.6607 70.7063 21.6607H83.4286C84.2849 21.6607 85.0188 20.9267 84.8965 20.0704C84.8965 19.0917 84.1625 18.4801 83.3062 18.4801ZM113.032 0.130707C112.176 0.130707 111.442 0.86468 111.442 1.84331V19.948C111.442 20.8044 112.176 21.6607 113.155 21.6607C114.011 21.6607 114.867 20.9267 114.867 19.948V1.84331C114.745 0.86468 114.011 0.130707 113.032 0.130707ZM133.584 0.253035H119.516C118.659 0.253035 117.925 0.98701 117.925 1.84331C117.925 2.69962 118.659 3.4336 119.516 3.4336H124.898V19.948C124.898 20.9267 125.632 21.6607 126.611 21.6607C127.589 21.6607 128.323 20.9267 128.323 19.948V3.4336H133.706C134.562 3.4336 135.296 2.69962 135.296 1.84331C135.174 0.98701 134.44 0.375364 133.584 0.253035ZM155.113 0.130707C154.502 0.130707 153.89 0.497696 153.646 0.987013L147.407 10.0394L141.168 0.987013C140.801 0.497696 140.312 0.130707 139.7 0.130707C138.844 0.130707 137.987 0.864682 137.987 1.72099C137.987 2.08797 138.11 2.45496 138.354 2.82195L145.816 13.2199V19.948C145.816 20.9267 146.55 21.6607 147.529 21.6607C148.508 21.6607 149.242 20.9267 149.242 19.948V13.0976L156.581 2.82195C156.826 2.45496 156.948 2.08797 156.948 1.72099C156.704 0.864682 155.97 0.130707 155.113 0.130707ZM99.8207 6.3695H95.0498C94.1935 6.24717 93.4596 6.98114 93.3372 7.83745C93.2149 8.69375 93.9489 9.42773 94.8052 9.55006C94.9275 9.55006 94.9275 9.55006 95.0498 9.55006H99.8207C102.267 9.55006 104.225 11.5073 104.225 13.9539C104.225 16.4005 102.267 18.3578 99.8207 18.3578H90.279C89.4227 18.4801 88.6887 19.2141 88.811 20.0704C88.9334 20.8044 89.545 21.416 90.279 21.5383H99.8207C103.98 21.5383 107.527 18.2354 107.527 14.0762C107.527 9.91704 104.225 6.3695 100.065 6.3695C99.943 6.3695 99.943 6.3695 99.8207 6.3695Z" fill="white"/>
<path d="M94.9274 15.5442H99.6983C100.555 15.4219 101.289 14.6879 101.166 13.8316C101.044 13.0976 100.432 12.486 99.6983 12.3636H94.9274C92.4809 12.3636 90.5236 10.4064 90.5236 7.95978C90.5236 5.51319 92.4809 3.55593 94.9274 3.55593H104.102C104.958 3.4336 105.692 2.69962 105.57 1.84331C105.448 1.10934 104.836 0.497695 104.102 0.375366H94.9274C90.7682 0.375366 87.2207 3.67825 87.2207 7.83745C87.2207 11.9966 90.5236 15.5442 94.6828 15.5442C94.8051 15.5442 94.9274 15.5442 94.9274 15.5442Z" fill="white"/>
</svg>
