<svg width="52" height="102" viewBox="0 0 52 102" fill="none" xmlns="http://www.w3.org/2000/svg">
<g id="Arrow" clip-path="url(#clip0_1442_1944)">
<path id="Vector" d="M10.7608 27.3095C10.768 27.1416 10.8324 27.0103 10.904 27.0176C11.1474 27.0249 11.1761 27.2803 10.9613 27.4481C10.7823 27.5867 10.7465 27.5648 10.7608 27.3095ZM8.98524 29.5421C8.77045 29.3962 8.37667 29.812 8.46975 30.0893C8.52702 30.2717 8.60578 30.2936 8.83488 30.1841C9.14991 30.0309 9.22866 29.7099 8.9924 29.5421L8.98524 29.5421ZM10.3241 27.4919C10.1522 27.3022 9.9661 27.4335 10.0878 27.6597C10.1379 27.7472 10.2382 27.7837 10.3169 27.7326C10.4172 27.6743 10.4172 27.6013 10.3169 27.4919L10.3241 27.4919ZM22.0371 67.7665C21.9226 67.803 21.715 67.7665 21.5861 67.6863C21.2997 67.5185 20.7914 67.6279 20.7842 67.8614C20.7771 69.0288 21.8295 68.124 22.0586 67.8906C22.2161 67.7374 22.209 67.7155 22.0371 67.7665ZM10.4386 28.3236C10.4458 28.1047 10.4243 28.0901 10.1093 28.1996C9.98758 28.2434 9.88018 28.3674 9.88018 28.4695C9.86586 28.7322 9.60096 28.7103 9.51504 28.4404C9.47925 28.3236 9.39333 28.2215 9.33605 28.2215C9.1857 28.2215 9.02103 28.6301 9.10695 28.7833C9.14275 28.8562 9.23582 29.5202 9.37185 29.4837C10.1236 29.2794 10.4386 28.4987 10.4458 28.3309L10.4386 28.3236ZM12.4648 24.9674C12.5793 24.9674 12.6724 24.8798 12.6796 24.7631C12.6796 24.6464 12.7655 24.5515 12.8657 24.5588C12.9946 24.5588 12.9874 24.5296 12.8586 24.4348C12.7011 24.3253 12.7011 24.2889 12.8729 24.1867C12.9803 24.121 13.1807 23.8803 13.3239 23.6468L13.5817 23.2163L13.2309 23.2163C12.9302 23.2163 12.8299 23.3331 12.5793 23.9751C12.4147 24.391 12.2786 24.785 12.2715 24.8434C12.2715 24.9017 12.3574 24.9601 12.4719 24.9674L12.4648 24.9674ZM20.5909 10.9004C20.4692 10.9004 20.369 10.9515 20.369 11.0318C20.369 11.112 20.4191 11.1777 20.4907 11.1777C20.5623 11.1777 20.6625 11.1193 20.7126 11.0464C20.7627 10.9734 20.7126 10.9077 20.5909 10.9004ZM11.0758 26.6601C11.1474 26.6601 11.262 26.6455 11.3336 26.6382C11.5842 26.6163 12.1283 25.6532 11.9779 25.4927C11.7918 25.2884 11.1259 25.894 11.1617 26.2369C11.1761 26.3683 11.0973 26.4777 10.9828 26.4704C10.8682 26.4704 10.8252 26.3901 10.8825 26.3099C10.9541 26.2077 10.8968 26.2004 10.6821 26.3099C10.3742 26.4631 10.3026 26.609 10.4601 26.7841C10.5747 26.9155 10.7035 26.9155 10.8396 26.7841C10.8968 26.7258 11.0042 26.682 11.0758 26.6747L11.0758 26.6601ZM12.2715 24.9966C12.1784 24.8798 11.7775 24.7996 11.7345 24.7996C11.6987 24.7996 11.7345 24.8944 11.8276 25.0185C11.9207 25.1425 12.0209 25.2374 12.0567 25.2374C12.0925 25.2374 12.3574 25.1206 12.2643 24.9966L12.2715 24.9966ZM21.3641 90.37C21.3641 90.2532 21.314 90.1584 21.2353 90.1511C21.1565 90.1511 21.0921 90.2386 21.0849 90.3554C21.0849 90.4721 21.135 90.567 21.2138 90.5743C21.2925 90.5743 21.357 90.4867 21.3641 90.37ZM24.858 20.0644C24.7793 20.0644 24.7506 20.1228 24.7936 20.203C24.8365 20.2833 24.901 20.3489 24.9368 20.3489C24.9726 20.3489 25.0012 20.2906 25.0012 20.2103C25.0012 20.1301 24.9439 20.0644 24.858 20.0644ZM20.82 98.3374C20.7484 98.3374 20.7198 98.4249 20.7556 98.5489C20.7914 98.6657 20.8487 98.7678 20.8773 98.7678C20.9059 98.7678 20.9346 98.673 20.9417 98.5562C20.9417 98.4395 20.8916 98.3374 20.8129 98.3374L20.82 98.3374ZM25.0155 20.9691C25.0656 20.9253 25.0728 20.8013 25.037 20.6992C25.0012 20.5824 24.9654 20.6189 24.9511 20.7794C24.9368 20.9326 24.9654 21.0129 25.0155 20.9691ZM27.0059 0.0146167C27.235 0.0656879 27.9223 0.153235 28.5309 0.204306C29.1466 0.255385 29.7981 0.394004 29.9914 0.510749C30.1847 0.627486 30.6501 0.912032 31.0224 1.13821C31.7527 1.58328 31.8672 2.45882 31.8816 3.6262C31.8816 3.98371 32.0248 4.7571 32.1894 5.3408C32.4472 6.26011 32.6763 7.24508 33.2061 9.62362C33.2705 9.90087 33.4495 10.667 33.6142 11.3309C33.7789 11.9949 33.9077 12.6369 33.9006 12.761C33.9006 12.885 33.965 13.279 34.0652 13.6292C34.1583 13.9867 34.3445 14.7236 34.4805 15.2781C34.8814 16.9271 35.5687 19.5537 35.6833 19.8601C35.7406 20.0206 35.8551 20.4365 35.9267 20.794C36.0055 21.1442 36.1057 21.5017 36.1558 21.582C36.1988 21.6622 36.3706 22.1146 36.5281 22.5889C36.6856 23.0631 36.9505 23.6979 37.1152 23.9897C37.2799 24.2889 37.4088 24.6026 37.4088 24.6828C37.4088 24.7631 37.5448 25.0768 37.7238 25.3687C37.9028 25.6605 38.046 26.0034 38.0388 26.1202C38.0388 26.2369 38.1104 26.4704 38.2035 26.6236C38.2965 26.7841 38.7404 27.6889 39.1772 28.6447C40.201 30.8773 40.5017 31.4756 41.1675 32.6356C41.4682 33.161 41.8047 33.8103 41.9193 34.0876C42.0338 34.3648 42.356 34.9777 42.6352 35.4592C42.9216 35.9408 43.208 36.4588 43.2796 36.6193C43.3512 36.7798 43.5803 37.1738 43.7951 37.4949C44.0027 37.8159 44.3249 38.4069 44.4967 38.8009C45.3702 40.7781 49.6015 47.7459 50.5394 48.7674C51.6205 49.9421 51.9141 50.482 51.9857 51.4232C52.0358 52.1382 52.0143 52.2404 51.7494 52.3717C51.5919 52.4519 51.1337 52.7365 50.747 52.6052C50.6182 52.5614 49.9881 52.7219 49.5442 52.6562C48.8927 52.5614 47.4751 52.4447 47.0599 51.9558C46.888 51.7442 46.616 51.5691 46.4728 51.5618C46.3224 51.5618 45.8642 51.1532 45.4418 50.6644C45.0194 50.1756 44.6113 49.7743 44.5254 49.7743C44.4395 49.7743 44.2819 49.6137 44.1746 49.4167C44.06 49.2271 43.8309 49.0228 43.6662 48.9717C43.3512 48.8768 42.1269 47.1258 42.2057 46.9142C42.2343 46.8485 41.3107 45.8708 41.2176 45.7468C41.1246 45.6301 41.0888 45.4477 41.1317 45.3455C41.1747 45.2434 41.0315 44.9734 40.8167 44.7326C40.7308 44.6378 40.695 44.5648 40.6878 44.5137C40.6234 44.5867 40.5804 44.5502 40.5375 44.3605C40.4945 44.1562 40.5375 44.0687 40.6807 44.076C40.7952 44.076 40.8668 44.003 40.8382 43.9082C40.8096 43.8133 40.652 43.7258 40.4874 43.7258C40.3227 43.7258 40.1938 43.6674 40.1938 43.609C40.1938 43.5434 40.2583 43.4923 40.337 43.4996C40.4158 43.4996 40.4802 43.3974 40.4874 43.2588C40.5017 42.9524 40.0506 42.6168 39.7499 42.7116C39.5423 42.7846 39.528 42.7408 39.5137 42.0404C39.5137 41.7777 39.1342 41.3253 38.9194 41.3107C38.8407 41.3107 38.7762 41.1648 38.7834 40.9897C38.7834 40.8146 38.6832 40.3914 38.5543 40.0558C38.4183 39.7202 38.3538 39.3481 38.4039 39.2313C38.4684 39.0854 38.3968 39.0198 38.1462 39.0125C37.8025 38.9979 37.6665 38.7571 37.6092 38.0859C37.5949 37.9399 37.4875 37.7575 37.373 37.6846C37.2584 37.6116 37.1224 37.3489 37.0866 37.1082C37.0436 36.8455 36.9076 36.6339 36.7501 36.5828C36.6069 36.5391 36.4565 36.3494 36.4207 36.167C36.3849 35.9846 36.2632 35.7949 36.1487 35.7438C36.0055 35.6781 35.9768 35.5468 36.0413 35.306C36.1129 35.058 36.0842 34.9558 35.9482 34.9485C35.7406 34.9412 35.4399 34.1605 35.5902 34.0219C35.6403 33.9781 35.4685 33.7155 35.2108 33.4455C34.953 33.1756 34.7096 32.8399 34.6595 32.7013C34.6165 32.5627 34.1941 31.8039 33.7287 31.0232C32.8696 29.5713 32.3398 28.1777 32.4973 27.7983C32.5546 27.6597 32.44 27.5065 32.1608 27.3459C31.6883 27.0687 31.452 26.5361 31.5952 26.0545C31.6668 25.8137 31.6238 25.7116 31.409 25.6459C31.2372 25.5949 31.1298 25.4416 31.137 25.2665C31.137 25.106 31.0868 24.9382 31.0153 24.8798C30.9365 24.8288 30.915 24.7266 30.9651 24.661C31.0081 24.588 30.9222 24.5296 30.7647 24.5223C30.6072 24.5223 30.4425 24.5077 30.3924 24.5077C30.3136 24.5077 30.1561 26.8279 29.8769 32.0592C29.8339 32.9129 29.7838 34.5326 29.7766 35.6635C29.7695 36.9695 29.4903 38.5528 29.3972 40.1798C29.2182 43.3172 29.1323 46.5859 28.9533 48.1691C28.939 48.3223 28.9247 48.6069 28.9318 48.8039C28.9318 49.0009 29.0249 50.3798 28.8674 51.8828C28.6812 53.685 28.4808 57.4936 28.2731 63.1846C27.9653 71.7137 27.9366 75.2597 28.1514 78.9223C28.223 80.1627 28.2087 81.6803 28.0941 83.2343C28.0011 84.555 27.9653 86.1163 28.0154 86.7C28.1013 87.6558 28.1013 89.0931 28.0369 93.8648C28.0226 94.6528 28.0369 95.9296 28.0655 96.6957C28.0942 97.4618 28.0942 98.1549 28.0655 98.2352C28.0369 98.3082 27.9868 98.8408 27.951 99.4172C27.9008 100.293 27.8436 100.482 27.6145 100.606C27.4641 100.687 27.2278 100.869 27.1061 101.008C26.9773 101.146 26.7124 101.256 26.5119 101.249C26.2756 101.241 26.1253 101.321 26.0751 101.497C25.9463 101.912 25.5239 101.978 25.3091 101.613C25.1301 101.307 25.1086 101.307 24.7148 101.518C24.4929 101.643 24.2996 101.774 24.2996 101.818C24.2996 101.861 24.1277 101.891 23.913 101.891C23.7053 101.891 23.2972 101.927 23.0037 101.971C22.5526 102.044 22.481 102.015 22.4882 101.803C22.4882 101.803 21.6505 101.599 21.1852 101.767C20.6052 101.985 19.0373 102.015 19.6029 101.015C19.6458 100.942 20.0396 100.957 20.0253 100.592C20.0038 99.6507 20.2473 99.1545 20.6052 99.4245C20.9775 99.7017 20.8343 99.0962 20.9632 98.9575C21.1708 98.7386 21.1852 98.6584 21.0348 98.3446C20.8415 97.9215 21.135 94.7477 21.1494 94.4339C21.1565 94.2369 21.1136 94.0764 21.0563 94.0764C20.999 94.0764 20.9775 93.3249 20.999 92.7339C21.0205 92.1356 21.3713 91.8584 21.2854 91.7635C21.1995 91.6687 21.1422 91.4206 21.1494 91.2017C21.1565 90.9828 21.8868 90.6764 21.7651 90.5086C21.6362 90.3408 21.536 90.0052 21.5431 89.7498C21.5575 88.1301 21.1136 88.6408 21.0491 88.6335C20.8773 88.6335 20.7413 87.5537 20.9059 87.4442C21.1995 87.2545 21.1995 87.2472 20.9489 86.9627C20.7341 86.7219 20.7126 86.5687 20.82 86.0215C20.9274 85.4524 20.6625 83.8034 20.8487 83.8107C21.0062 83.8107 21.0491 83.5846 21.0634 82.7236C21.0778 82.118 21.042 81.5562 20.9918 81.4687C20.9417 81.3811 20.9918 81.1477 21.1136 80.9434C21.2281 80.7391 21.2711 80.5421 21.2138 80.4983C21.1565 80.4545 21.1136 80.2502 21.1207 80.0386C21.1279 79.8271 21.0634 79.6228 20.9775 79.5936C20.863 79.5498 20.863 79.4841 20.9775 79.3528C21.0992 79.2215 21.0778 79.1266 20.8988 78.9734C20.5981 78.718 20.548 78.4408 20.7627 78.2C20.8701 78.076 20.8988 77.8206 20.8487 77.4777C20.8057 77.1858 20.7627 76.7189 20.7699 76.4416C20.7699 76.1717 20.9346 75.8653 20.8845 75.7777C20.82 75.661 20.9203 75.6318 21.2066 75.6828C21.4357 75.7266 21.6219 75.6974 21.629 75.6245C21.629 75.5515 21.5431 75.4859 21.4214 75.4786C21.1422 75.464 20.6625 75.1429 20.8701 74.9022C20.9632 74.8 20.8845 73.6764 20.9131 73.421C20.956 73.0489 21.6219 72.9176 21.3713 72.8082C21.1995 72.7352 21.0133 72.6987 20.956 72.7279C20.8988 72.7571 20.8558 72.6987 20.8558 72.5893C20.8558 72.4434 21.0062 72.4069 21.3928 72.4653C22.0944 72.5674 22.5526 72.2318 22.4667 71.67C22.388 71.1592 22.2305 71.1665 22.0228 71.6846C21.8224 72.188 21.6577 72.2318 21.8009 71.7429C21.9011 71.4146 21.8796 71.3927 21.3641 71.4073C20.8343 71.4219 20.8272 71.4073 20.8845 70.9404C20.9203 70.6631 20.8701 70.4077 20.7699 70.3348C20.641 70.2472 20.6625 70.2107 20.8343 70.218C20.9632 70.218 21.1136 70.1013 21.1708 69.9481C21.2281 69.7949 21.3928 69.6781 21.5431 69.6781C21.7722 69.6854 21.8152 69.6052 21.8009 69.1747C21.7794 68.591 22.0658 68.3794 22.1947 68.8755C22.3164 69.3279 22.524 68.9412 22.5025 68.3065C22.4954 68.0365 22.481 67.6571 22.481 67.4601C22.481 67.2047 22.4381 67.161 22.3522 67.2923C22.2519 67.4382 22.209 67.4309 22.1517 67.2412C22.0944 67.0588 21.9655 67.0223 21.5861 67.0807C21.1279 67.1464 21.0992 67.1245 21.1136 66.7889C21.1207 66.5919 21.2066 66.3876 21.2925 66.3365C21.4071 66.2708 21.3856 66.1833 21.221 66.0519C21.0921 65.9425 21.0276 65.7966 21.0849 65.7163C21.135 65.6361 21.0634 65.4318 20.9274 65.264C20.6768 64.9648 20.6768 64.9502 20.9704 64.3957C21.1494 64.0601 21.2424 63.6953 21.1995 63.4983C21.1494 63.2356 21.178 63.1846 21.3355 63.2502C21.6147 63.3743 21.629 62.9 21.3498 62.6738C21.1565 62.5206 21.2281 61.1708 21.1207 61.1635C20.7699 61.1489 20.999 60.5434 21.3856 60.4558C21.5789 60.412 21.6362 60.361 21.5073 60.3464C21.3856 60.3318 21.357 59.9889 21.1852 59.8429C20.9274 59.6095 20.9131 59.5292 21.0634 59.2738C21.178 59.0768 21.3713 58.9747 21.629 58.9893C22.1087 59.0112 22.481 58.6901 22.3665 58.3326C22.3235 58.194 22.2448 58.1429 22.1947 58.2159C22.1445 58.2889 21.8868 58.3618 21.6219 58.3764C21.2066 58.3983 21.135 58.3545 21.0706 58.0481C21.0205 57.8073 21.0849 57.5811 21.2639 57.3622C21.5503 57.012 21.6434 56.5816 21.4071 56.7129C21.2711 56.7858 21.2496 56.4429 21.2782 54.867C21.2782 54.5532 21.2424 54.2176 21.1923 54.1155C21.135 54.0133 21.1995 53.7361 21.3283 53.5026C21.5933 53.0137 21.6792 52.1893 21.4715 52.0434C21.3999 51.9923 21.8796 49.5846 21.5646 49.57C21.4572 49.57 21.4572 49.5043 21.5861 49.3657C21.6792 49.2562 21.7508 49.0519 21.7436 48.9133C21.7364 48.7747 21.7722 48.5485 21.8438 48.4099C21.9154 48.264 21.8796 48.0305 21.7508 47.8116C21.6362 47.6146 21.9655 46.4326 22.1374 46.5494C22.2877 46.6588 22.4166 46.17 22.3522 45.7176C22.3164 45.4841 22.2305 45.3601 22.1159 45.3966C22.0157 45.4331 21.9083 45.3309 21.8796 45.185C21.8152 44.8858 22.0085 44.6816 22.1374 44.9077C22.1803 44.988 22.3665 44.9734 22.5956 44.864C22.8891 44.7253 23.0037 44.7253 23.0753 44.864C23.1397 44.9734 23.1827 44.9077 23.1898 44.6816C23.197 44.4846 23.2901 44.2438 23.3903 44.1416C23.5407 43.9957 23.5192 43.9957 23.2614 44.1416C23.0037 44.2876 22.9178 44.2803 22.7245 44.1052C22.5312 43.9228 22.4739 43.9301 22.3164 44.1343C22.2161 44.2584 22.0944 44.3678 22.0443 44.3605C21.9297 44.3605 21.987 43.5434 22.1374 43.091C22.209 42.8721 22.1803 42.5949 22.0515 42.3395C21.8653 41.9601 21.8725 41.9236 22.1302 41.7412C22.3378 41.5953 22.3736 41.5077 22.2591 41.3837C22.1589 41.267 22.1589 41.1065 22.2591 40.873C22.3593 40.6395 22.3593 40.3695 22.2591 40.0412C22.1445 39.6764 22.1517 39.5159 22.2806 39.3992C22.3736 39.3116 22.4166 39.0635 22.388 38.8519C22.345 38.5601 22.4094 38.3923 22.6385 38.2099L22.9464 37.9618L22.6314 37.8743C22.2448 37.7648 22.1302 36.9185 22.481 36.8017C22.5956 36.7653 22.7388 36.5464 22.8032 36.3275C22.8605 36.1086 22.9536 35.9335 23.0037 35.9408C23.5335 36.0429 23.5836 35.7511 23.1182 35.2695C22.7674 34.9047 22.7889 36.1597 22.4596 35.9627C22.2519 35.8386 22.345 34.8318 22.4739 34.6348C22.5956 34.4597 22.6027 34.197 22.524 33.6863C22.4524 33.2485 22.4596 32.9348 22.5455 32.8545C22.6242 32.7816 22.6887 32.5992 22.6958 32.4386C22.7173 32.0592 22.8891 29.6807 23.2757 29.5713C23.4333 29.5275 23.4547 30.7386 23.4333 31.1764C23.4619 31.1472 23.5049 31.1253 23.5693 31.1326C23.691 31.1326 23.8056 31.0597 23.8199 30.9648C23.8342 30.87 23.87 30.7241 23.8915 30.6511C23.913 30.5781 23.9488 30.3374 23.9631 30.1185C23.9845 29.8412 24.049 29.7537 24.1635 29.8339C24.2566 29.8923 24.2208 29.7974 24.0776 29.6223C23.9416 29.4472 23.7554 29.3232 23.6767 29.3451C23.5192 29.3889 23.1182 29.024 23.2256 28.9219C23.2614 28.8927 23.4547 27.0468 23.6409 27.0249C23.913 26.9957 23.9631 28.703 24.0132 28.2798C24.0418 28.0026 24.1421 27.6378 24.2351 27.4773C24.3712 27.2365 24.364 27.1271 24.1779 26.9009C23.9559 26.6309 23.4762 26.485 23.7769 26.1931C24.1492 25.821 24.0347 25.8575 23.7698 25.5657C23.6194 25.3979 23.5979 25.0695 23.6767 24.1575C23.734 23.5082 23.8414 22.8953 23.9273 22.8004C24.1349 22.5597 24.2781 21.0567 24.6003 20.9618C24.9225 20.867 24.7148 21.7425 24.8437 21.6258C25.1444 21.3485 25.259 21.4798 25.259 22.1292C25.259 22.4137 25.2804 22.8296 25.3091 23.0412C25.3305 23.2601 25.2948 23.4279 25.216 23.4279C25.1301 23.4279 25.1086 23.6541 25.1587 24.0262C25.2017 24.3618 25.2303 24.7412 25.216 24.8798C25.2017 25.0185 25.2518 25.1279 25.3234 25.1352C25.4737 25.1352 25.4666 25.2009 25.5597 23.479C25.5955 22.7567 25.5883 22.1292 25.5453 22.0781C25.5024 22.0271 25.531 21.903 25.6169 21.8082C25.8031 21.6039 25.9033 19.4661 25.753 19.1013C25.6384 18.824 25.6456 18.6344 25.7744 18.4374C25.9033 18.2404 25.9176 17.5253 25.7888 17.518C25.7315 17.518 25.6241 17.7807 25.5525 18.109C25.4093 18.7876 25.2733 19.0648 24.9153 19.4004C24.7793 19.5318 24.6504 19.7215 24.6289 19.8309C24.6074 19.9404 24.5144 20.1155 24.4284 20.2176C24.2709 20.3927 23.691 21.385 22.839 22.9172C22.6457 23.2601 22.3522 23.6614 22.1875 23.8C21.8582 24.0773 21.135 25.4198 20.7341 26.4996C20.5766 26.9155 20.3761 27.2073 20.2186 27.2511C20.0754 27.2876 19.9107 27.4773 19.8535 27.6597C19.7962 27.8421 19.6673 28.061 19.5528 28.1485C19.4382 28.2361 19.3451 28.4112 19.338 28.5425C19.338 28.6738 19.1304 29.024 18.8941 29.3159C18.6507 29.6077 18.4502 29.8923 18.4502 29.9434C18.4502 29.9944 18.1209 30.5271 17.7342 31.118C17.0254 32.1979 16.8751 32.4313 16.0947 33.6863C15.8656 34.0584 15.4647 34.6421 15.2069 34.9923C14.9492 35.3425 14.5053 35.9481 14.226 36.3275C13.9468 36.7142 13.596 37.1155 13.4457 37.2103C13.3025 37.3125 13.0877 37.5605 12.966 37.7721C12.8514 37.9837 12.7082 38.1515 12.6509 38.1442C12.5937 38.1442 12.3001 38.458 11.9994 38.8446C11.3909 39.6326 10.6821 40.3622 9.38617 41.5442C8.76329 42.1133 8.41247 42.3322 8.14041 42.3176C7.79675 42.303 6.95192 42.6459 6.50802 42.9889C6.38631 43.0837 6.27176 43.0764 6.16436 42.967C6.06413 42.8794 5.65603 42.8283 5.17634 42.8502C5.17634 42.8502 3.54396 42.5584 3.25757 42.4052C2.64901 42.0768 2.31251 41.9382 1.8901 41.8215C1.39608 41.6901 1.00947 40.9095 1.02379 40.5957C1.02379 40.4717 0.851957 40.1871 0.63717 39.9756C0.29351 39.6399 0.164638 39.2532 0.257712 38.8155C0.272031 38.7571 0.214755 38.706 0.135999 38.706C0.0572439 38.706 0.00712686 38.5528 0.0142864 38.3777C0.0142864 38.3777 0.0357651 38.115 0.250552 38.1004C0.515457 38.0858 1.00231 38.312 1.19562 38.2391C1.54644 38.115 1.83282 37.9618 1.83282 37.9034C1.83282 37.8451 2.05477 37.721 2.31967 37.6189C2.58457 37.5168 2.84948 37.3052 2.90676 37.1447C2.96403 36.9841 3.08574 36.8601 3.17882 36.8601C3.35781 36.8674 3.88046 36.4223 4.19548 36.0065C4.33151 35.8241 4.63221 35.7365 5.20498 35.7C5.86366 35.6562 6.04265 35.5979 6.09277 35.3863C6.14288 35.182 6.09277 35.1309 5.87082 35.182C5.47704 35.2695 5.39829 34.9266 5.74195 34.6421C5.9281 34.4816 6.00685 34.2846 5.97105 34.0292C5.88514 33.3871 6.94476 32.7232 7.07363 33.3361C7.10227 33.4747 7.05215 33.6644 6.96623 33.7519C6.55098 34.1605 6.44359 34.3429 6.42927 34.6056C6.40779 35.0215 6.59394 34.9704 6.91612 34.4597C7.07363 34.2116 7.2383 33.9854 7.28842 33.9489C7.48888 33.7957 8.02585 33.0077 8.03301 32.8472C8.03301 32.7305 7.83254 32.6867 7.40297 32.7013L6.76577 32.7232L6.87316 32.2343C6.93044 31.9644 7.07363 31.6725 7.18818 31.5923C7.30274 31.512 7.39581 31.3807 7.40297 31.3077C7.42445 30.8627 8.5485 30.3884 8.74181 30.7459C8.83488 30.921 8.50554 31.585 8.1762 31.8987C7.8755 32.1833 7.82538 32.5554 8.09029 32.57C8.33371 32.5846 8.75613 32.1395 8.77045 31.8549C8.77045 31.7309 9.01387 31.3515 9.2931 31.0013C9.57948 30.6584 9.80859 30.279 9.81575 30.1622C9.81575 30.0455 9.87302 29.9507 9.9303 29.958C10.0807 29.958 10.5532 29.1554 10.5675 28.8635C10.5675 28.7249 10.6749 28.5352 10.7966 28.4404C10.9183 28.3455 10.9828 28.2361 10.947 28.1923C10.9112 28.1485 11.0042 28.0318 11.1617 27.9296C11.3193 27.8275 11.4481 27.6816 11.4553 27.6086C11.4553 27.5356 11.5985 27.2949 11.7703 27.076C11.9421 26.8571 12.0424 26.6163 11.9923 26.5288C11.9421 26.4412 11.9708 26.3755 12.0495 26.3755C12.1283 26.3755 12.2428 26.2296 12.293 26.0399C12.3502 25.8502 12.5507 25.6022 12.7512 25.4854C13.0018 25.3322 13.0877 25.1863 13.0447 24.9747C12.966 24.6172 13.5387 23.4717 13.7822 23.4863C13.954 23.4936 14.1401 23.209 14.1544 22.9245C14.1544 22.8515 14.0327 22.7858 13.8824 22.7786C13.5101 22.764 13.5387 22.3043 13.9468 21.6987C14.1688 21.3631 15.0637 19.9914 15.3931 19.6266C15.5935 19.4077 15.8441 18.9335 15.9443 18.576C16.0517 18.2185 16.1878 17.9631 16.2522 18.0069C16.3166 18.0507 16.3095 17.8683 16.4813 17.5983C16.7677 17.1532 16.9252 17.0511 17.2187 17.1095C17.276 17.1241 17.3261 17.0438 17.3333 16.9344C17.3333 16.8249 17.4407 16.6644 17.5624 16.5695C17.6841 16.4747 17.7557 16.3652 17.7199 16.3288C17.6841 16.2923 17.8488 16.0661 18.0851 15.8326C18.3213 15.5992 18.1853 15.373 18.1853 15.3146C18.1853 15.2562 18.5146 14.7966 18.6865 14.8039C19.0874 14.8185 19.653 14.9206 19.5385 14.709C19.4883 14.6215 19.2879 14.5558 19.0946 14.5704C18.7795 14.5923 18.7509 14.5485 18.8225 14.2275C18.8654 14.0305 19.0301 13.7168 19.1733 13.5416C19.3237 13.3592 19.4525 13.1112 19.4597 12.9871C19.474 12.7901 20.1757 12.1116 20.283 12.3013C20.3546 12.418 19.7174 13.3374 19.7103 13.5125C19.7103 13.6876 19.7604 13.8335 19.8392 13.8335C19.9179 13.8335 19.9823 13.7678 19.9823 13.6803C19.9823 13.5854 20.1327 13.5562 20.3332 13.6073C20.5694 13.6657 20.6768 13.6292 20.684 13.4906C20.684 13.3738 20.6267 13.3301 20.5265 13.3811C20.4048 13.4468 20.3976 13.2717 20.4835 12.7172C20.5551 12.3013 20.6124 11.8489 20.6195 11.7103C20.6195 11.5717 20.7269 11.4695 20.8415 11.4695C20.9847 11.4695 21.0563 11.3309 21.0706 11.0099C21.0849 10.7545 21.1708 10.47 21.2711 10.3751C21.4143 10.2365 21.4143 10.2073 21.2711 10.2438C21.1708 10.2657 21.0133 10.1635 20.9346 10.0249C20.82 9.82062 20.8415 9.68199 21.0491 9.34637C21.1923 9.11289 21.314 8.83564 21.3212 8.73349C21.3212 8.63135 21.4357 8.48543 21.5646 8.41977C21.7722 8.31032 22.0443 5.34809 22.0586 5.21677C22.1302 4.58929 22.1875 4.25367 22.2304 4.12964C22.3378 3.83779 22.1875 2.99873 22.5168 2.6777L22.8533 2.34209C22.8533 2.34209 22.5884 1.43006 23.5407 0.912032C23.7984 0.773406 23.8915 1.14551 24.2065 0.912032C24.4714 0.70774 26.4618 -0.0948269 27.0274 0.0364978L27.0059 0.0146167ZM8.10461 31.315C8.20484 31.2202 8.2478 31.1107 8.212 31.067C8.16904 31.0232 8.09029 31.0962 8.03301 31.2348C7.9471 31.4318 7.96142 31.4464 8.10461 31.315ZM13.5745 24.9236C13.4528 25.0331 13.3526 25.2009 13.3526 25.2957C13.3526 25.4198 13.3955 25.4271 13.5602 25.2957C13.6819 25.2082 13.7822 25.0404 13.7822 24.9236C13.7893 24.7485 13.7607 24.7485 13.5745 24.9236ZM14.2332 24.194C14.1544 24.194 14.09 24.3326 14.0829 24.5077C14.0757 24.7631 14.0972 24.785 14.2117 24.6172C14.2905 24.5077 14.3549 24.3618 14.3621 24.3035C14.3621 24.2451 14.3048 24.194 14.2332 24.194ZM16.1162 18.7511C16.152 19.1232 16.4527 19.5245 16.467 19.218C16.467 19.1524 16.3882 18.9773 16.288 18.8167C16.1591 18.6198 16.109 18.5979 16.1233 18.7438L16.1162 18.7511ZM17.7844 17.8974C17.77 18.0434 17.7987 18.1309 17.8488 18.0871C17.8989 18.0434 17.9061 17.9193 17.8703 17.8172C17.8345 17.7004 17.7987 17.7369 17.7844 17.8974ZM24.0347 101.249C24.0203 101.533 24.1993 101.73 24.2781 101.518C24.3139 101.431 24.2781 101.285 24.1922 101.19C24.0848 101.066 24.0418 101.081 24.0347 101.241L24.0347 101.249ZM21.8367 91.7416C21.8224 91.8949 21.851 91.9751 21.9011 91.9313C21.9512 91.8876 21.9584 91.7635 21.9226 91.6614C21.8868 91.5446 21.851 91.5811 21.8367 91.7416ZM21.9226 80.8047C21.8868 80.8412 21.894 80.9361 21.9369 81.0236C22.0658 81.2571 22.1445 81.2133 22.0658 80.9653C22.03 80.8412 21.9656 80.7756 21.9226 80.8047ZM21.6362 70.6777C21.6362 70.758 21.6935 70.8309 21.7722 70.8309C21.851 70.8309 21.9083 70.809 21.9154 70.7725C21.9154 70.7361 21.8582 70.6704 21.7794 70.6193C21.7078 70.5683 21.6434 70.5901 21.6362 70.6777ZM22.1445 70.3275C22.1875 70.4661 22.2663 70.5537 22.3092 70.5099C22.3522 70.4661 22.3092 70.3494 22.2233 70.2545C22.0944 70.1086 22.0729 70.1232 22.1445 70.3275ZM21.6648 69.97C21.6648 70.0502 21.7221 70.1232 21.7937 70.1232C21.8725 70.1232 21.9369 70.1013 21.9369 70.0648C21.9369 70.0283 21.8796 69.9627 21.8009 69.9116C21.7293 69.8605 21.6648 69.8824 21.6577 69.97L21.6648 69.97ZM21.7651 66.3146C21.8725 66.5116 22.1803 66.4824 22.3808 66.2562C22.524 66.0884 22.5168 66.0374 22.3378 65.9571C22.0873 65.8477 21.6505 66.1176 21.7651 66.3146ZM22.0443 63.9652C21.8367 64.0601 21.629 64.1039 21.5861 64.0601C21.3713 63.8193 21.5431 64.1914 21.8009 64.5198C22.1374 64.9429 22.3736 65.0305 22.2591 64.6803C22.2161 64.5489 22.2591 64.3665 22.345 64.2644C22.6314 63.9434 22.4524 63.7755 22.0443 63.9652ZM22.3235 63.4253C22.2663 63.5494 22.3164 63.6369 22.4381 63.6442C22.5526 63.6442 22.6457 63.5931 22.6457 63.5202C22.6529 63.2794 22.4166 63.2137 22.3235 63.4253ZM21.8796 61.8786C21.6076 61.9369 21.6076 61.9515 21.8295 62.1412C22.1374 62.4039 22.1302 62.4039 22.1445 62.0828C22.1517 61.8859 22.0873 61.8275 21.8725 61.8786L21.8796 61.8786ZM22.1445 61.0833C22.0371 61.0833 21.8725 61.1635 21.7722 61.2803C21.6219 61.4554 21.6505 61.4846 21.9584 61.4992C22.1875 61.5065 22.3235 61.4408 22.3307 61.3022C22.3307 61.1854 22.2519 61.0833 22.1517 61.0833L22.1445 61.0833ZM22.0944 60.2223C22.0801 60.5652 22.1589 60.6017 22.2806 60.3172C22.3307 60.2077 22.3092 60.0691 22.2376 60.0253C22.166 59.9743 22.1016 60.0691 22.0944 60.2296L22.0944 60.2223ZM21.8725 57.2455C21.7508 57.2455 21.6935 57.3039 21.7364 57.3841C21.7794 57.4644 21.8725 57.5301 21.9441 57.5374C22.0157 57.5374 22.0729 57.479 22.0801 57.3987C22.0801 57.3185 21.987 57.2528 21.8725 57.2455ZM21.672 55.6768C21.4143 55.6622 21.4071 55.7571 21.6219 56.0271C21.8367 56.3043 21.851 56.297 21.8653 55.9687C21.8653 55.8155 21.7866 55.6841 21.672 55.6768ZM23.7053 55.1369C23.6266 55.1807 23.5908 55.2828 23.6337 55.3558C23.7411 55.5528 23.827 55.5236 23.8414 55.2755C23.8414 55.1515 23.7841 55.0931 23.7053 55.1369ZM22.6672 54.8743C22.5455 54.8743 22.4882 54.9326 22.5312 55.0129C22.5741 55.0931 22.6672 55.1588 22.7388 55.1661C22.8104 55.1661 22.8748 55.1077 22.8748 55.0275C22.8748 54.9472 22.7817 54.8816 22.6672 54.8743ZM22.3808 53.4442C22.302 53.4442 22.2734 53.5026 22.3092 53.5828C22.3522 53.6631 22.4166 53.7288 22.4524 53.7288C22.4882 53.7288 22.5168 53.6704 22.524 53.5901C22.524 53.5099 22.4667 53.4442 22.3808 53.4442ZM23.7984 53.2837C23.7841 53.4296 23.8127 53.5172 23.8628 53.4734C23.913 53.4296 23.9201 53.3056 23.8843 53.2034C23.8485 53.0867 23.8127 53.1232 23.7984 53.2837ZM23.8557 51.8026C23.8557 51.9631 23.9058 52.0944 23.9846 52.1017C24.0633 52.1017 24.1277 52.0142 24.1349 51.9047C24.1421 51.7953 24.0848 51.6567 24.006 51.6056C23.9344 51.5545 23.8628 51.6421 23.8557 51.8026ZM22.4166 50.9708C22.345 51.1386 22.4166 51.2992 22.6314 51.4816C22.8462 51.664 22.9751 51.7004 23.018 51.5983C23.0538 51.5107 23.0108 51.4086 22.9178 51.3721C22.7961 51.321 22.7961 51.2554 22.9393 51.0803C23.0395 50.9562 23.0681 50.8979 22.9965 50.9562C22.9249 51.0073 22.7889 50.9781 22.6958 50.8906C22.5598 50.7665 22.4954 50.7884 22.4166 50.9708ZM22.1087 48.9936C21.9942 49.0301 21.894 49.0884 21.894 49.1176C21.894 49.1468 21.987 49.176 22.1016 49.1833C22.2161 49.1833 22.3092 49.1322 22.3164 49.0592C22.3164 48.9863 22.2305 48.9571 22.1087 48.9936ZM22.9965 47.2425C22.9393 47.5562 23.2543 47.7022 23.4977 47.4687C23.691 47.2863 23.691 47.2498 23.4834 47.1112C23.197 46.9288 23.0538 46.9652 22.9965 47.2425ZM24.4929 43.7039C24.4141 43.7477 24.3497 43.879 24.3425 43.9884C24.3425 44.0979 24.3998 44.1927 24.4714 44.2C24.5502 44.2 24.6146 44.076 24.6218 43.9155C24.6218 43.755 24.5716 43.6601 24.4929 43.7039ZM23.0108 41.4202C22.9249 41.5515 23.0323 41.7266 23.2113 41.7339C23.2758 41.7339 23.333 41.6756 23.333 41.6099C23.3402 41.4202 23.1039 41.2816 23.0108 41.4202ZM23.24 40.3477C23.1397 40.3768 23.0252 40.4863 22.9894 40.5811C22.9464 40.6833 22.9965 40.7416 23.1039 40.7125C23.2042 40.6833 23.3187 40.5738 23.3545 40.479C23.3975 40.3768 23.3402 40.3185 23.24 40.3477ZM24.5072 39.4429C24.4428 39.7129 24.4857 39.7859 24.6862 39.7786C24.8652 39.7786 24.9368 39.6837 24.9225 39.494C24.8795 39.0781 24.6003 39.0489 24.5072 39.4429ZM23.2972 39.1219C23.2185 39.1657 23.1827 39.2678 23.2256 39.3408C23.333 39.5451 23.4189 39.5086 23.4333 39.2605C23.4333 39.1365 23.376 39.0781 23.2972 39.1219ZM23.3545 37.918C23.2758 37.918 23.2113 37.9764 23.2113 38.0494C23.2113 38.1296 23.2686 38.1953 23.3402 38.1953C23.4189 38.1953 23.4834 38.1369 23.4834 38.0567C23.4834 37.9764 23.4261 37.9107 23.3545 37.9107L23.3545 37.918ZM23.3831 36.8893C23.2972 36.9695 23.2614 37.1082 23.3116 37.1957C23.4404 37.4365 23.5192 37.3927 23.5335 37.0498C23.5407 36.8236 23.5049 36.7798 23.3831 36.8893ZM23.5049 34.5253C23.4261 34.5253 23.3617 34.5837 23.3617 34.6567C23.3617 34.7369 23.4189 34.8026 23.4977 34.8026C23.5765 34.8026 23.6409 34.7442 23.6409 34.6713C23.6409 34.591 23.5836 34.5253 23.512 34.5253L23.5049 34.5253ZM24.7864 32.621C24.8437 32.7232 24.9153 32.7232 25.0227 32.621C25.1086 32.5408 25.1444 32.4386 25.0943 32.3876C24.9654 32.2489 24.6933 32.4532 24.7864 32.621ZM23.648 31.512C23.6337 31.6798 23.5621 31.8549 23.4905 31.8987C23.4189 31.9425 23.3617 32.1979 23.3688 32.4678C23.376 32.7378 23.3187 32.9786 23.2328 33.0004C23.1469 33.0296 23.1898 33.1828 23.3473 33.3798L23.6123 33.7082L23.7053 33.3069C23.7554 33.088 23.7626 32.7743 23.7196 32.621C23.6767 32.4605 23.691 32.2125 23.7483 32.0592C23.8127 31.906 23.8199 31.6507 23.7626 31.4901C23.6695 31.2129 23.6624 31.2129 23.6409 31.512L23.648 31.512ZM25.1516 28.579C25.0728 28.6228 25.037 28.7249 25.08 28.7979C25.1945 29.0022 25.2733 28.9657 25.2876 28.7176C25.2876 28.5936 25.2303 28.5352 25.1516 28.579ZM25.0513 26.8498C24.9511 27.1198 24.9511 27.3678 25.0513 27.6232C25.1874 27.9661 25.216 27.9734 25.3449 27.7618C25.4236 27.6305 25.4809 27.2803 25.4737 26.9884C25.4523 26.361 25.259 26.2953 25.0513 26.8425L25.0513 26.8498ZM25.1372 25.7408C25.0585 25.7846 25.0227 25.8867 25.0656 25.9597C25.1659 26.1348 25.5382 26.1494 25.5453 25.9816C25.5525 25.7919 25.3091 25.6459 25.1372 25.7408ZM21.1852 68.8683C21.1422 68.788 21.0491 68.7223 20.9775 68.715C20.9059 68.715 20.8415 68.7734 20.8415 68.8537C20.8415 68.9339 20.9346 68.9996 21.0491 69.0069C21.1708 69.0069 21.2281 68.9485 21.1852 68.8683ZM21.2711 72.0275C21.2711 71.9472 21.2138 71.8816 21.135 71.8816C21.0563 71.8816 20.9918 71.9399 20.9918 72.0129C20.9918 72.0931 21.0491 72.1588 21.1207 72.1588C21.1995 72.1588 21.2639 72.1004 21.2639 72.0275L21.2711 72.0275ZM21.3069 89.4288C21.2711 89.2683 21.0133 89.3339 20.9704 89.3704C20.9346 89.4069 20.9274 89.5382 20.9704 89.6622C21.0778 89.9833 21.3713 89.7717 21.3069 89.4361L21.3069 89.4288ZM21.135 69.773C21.3212 69.503 21.2997 69.379 21.0634 69.3717C20.8272 69.3644 20.82 69.3863 20.9274 69.7219C20.9918 69.9116 21.0276 69.9262 21.1279 69.7803L21.135 69.773ZM21.1852 88.7794C21.1852 88.6992 21.1279 88.6773 21.0491 88.721C20.9704 88.7648 20.9059 88.867 20.8988 88.9399C20.8988 89.0202 20.956 89.0421 21.0348 88.9983C21.1136 88.9545 21.178 88.8524 21.1852 88.7794Z" fill="white"/>
</g>
<defs>
<clipPath id="clip0_1442_1944">
<rect width="102" height="52" fill="white" transform="translate(0 102) rotate(-90)"/>
</clipPath>
</defs>
</svg>
