<?xml version="1.0" encoding="UTF-8"?>
<svg id="uuid-6adea7dc-051b-4477-b2a9-20c13525990d" data-name="Layer 1" xmlns="http://www.w3.org/2000/svg" viewBox="0 0 165.8 158.18">
  <defs>
    <style>
      .uuid-975aeac6-16c4-4071-bebf-64ce093a8b19 {
        fill: #000;
      }
      @media (prefers-color-scheme: dark) {
          .uuid-975aeac6-16c4-4071-bebf-64ce093a8b19{
          fill: #fff;
          }
       }
      .circle{
        fill: #fa198c;
      }
    </style>
  </defs>
  <path class="uuid-975aeac6-16c4-4071-bebf-64ce093a8b19" d="M126.69,115.66c-4.77-4.42-12.03-4.84-17.26-.97-8.75,6.48-17.56,10.09-29.92,10.09-23.97,0-42.04-19.64-42.04-45.69v-.43c0-25.8,18.08-45.26,42.04-45.26,9.91,0,18.85,2.86,28.01,9.09,5.68,3.86,13.35,2.91,17.87-2.26l14.54-16.65C123.37,7.27,104.8,0,79.73,0,34.28,0,0,34,0,79.09v.43c0,44.84,33.72,78.66,78.44,78.66,26.36,0,44.5-7.9,62.61-27.27l.97-1.04-15.33-14.21Z"/>
  <path class="uuid-975aeac6-16c4-4071-bebf-64ce093a8b19 circle" d="M141.83,55.31c-13.22,0-23.58,10.36-23.58,23.58s10.36,23.98,23.58,23.98,23.97-10.53,23.97-23.98-10.53-23.58-23.97-23.58Zm11.83,23.58c0,6.75-5.09,11.83-11.83,11.83s-11.44-5.09-11.44-11.83,5.02-11.43,11.44-11.43,11.83,5.02,11.83,11.43Z"/>
</svg>