<svg width="85" height="75" viewBox="0 0 85 75" fill="none" xmlns="http://www.w3.org/2000/svg">
<g id="uuid-b501718e-076d-4b6a-81c7-b05621747b6d" clip-path="url(#clip0_1447_2077)">
<path id="Vector" d="M82.4815 68.8375C69.4694 66.5229 56.2222 65.954 43.0533 66.0601C30.9034 66.1661 18.1755 65.7322 5.98644 66.8798C5.69249 57.4385 5.41814 48.0454 5.58471 38.5559C5.80027 26.4818 6.76051 14.1184 5.57491 2.0733C5.31036 -0.655906 2.37088 -0.713769 2.19451 2.0733C1.41065 14.1859 1.53803 26.4239 1.27347 38.5559C1.05791 48.1611 0.313243 58.2678 1.05791 67.9792C-0.29425 69.2425 -0.539207 71.6631 1.49883 72.2321C1.52823 72.4925 1.54782 72.7529 1.58702 73.0036C1.99855 75.9739 5.79048 75.4242 6.14321 72.7625C17.0977 73.6208 28.5421 72.425 39.4279 72.3092C53.1357 72.1549 67.1374 70.718 80.6493 73.1868C85.0291 73.9873 86.8908 69.6186 82.4913 68.8375H82.4815Z" fill="black"/>
<path id="Vector_2" d="M13.1983 55.7798C19.2928 50.929 26.2398 44.8823 32.5205 40.1954C35.068 44.1398 37.1844 48.3445 39.732 52.3081C41.0842 54.4201 44.396 54.6129 45.7089 52.3081C50.7844 43.4068 57.7608 35.4796 63.9827 27.3499C66.981 23.4345 69.9303 19.4805 72.6934 15.4012C72.6934 21.7179 73.2813 28.1696 75.9268 33.3869C77.5631 36.6176 82.1193 34.2355 81.5118 31.0724C79.7775 22.1229 79.4836 13.376 79.2484 4.27219C79.2092 2.63274 77.8571 1.15723 76.1228 1.19581C72.6738 1.2826 69.5873 4.15646 66.7164 5.84413C62.0818 8.56369 57.3493 11.0711 52.8715 14.0414C50.8334 15.3915 52.068 19.0562 54.6352 18.1496C58.4467 16.8188 62.0133 15.1215 65.5896 13.2892C63.1205 16.8767 60.4651 20.3484 57.8294 23.8202C52.7833 30.4455 47.2865 36.9744 42.7205 43.9855C40.702 40.533 38.7424 37.0515 36.2928 33.8691C35.2444 32.5093 33.3239 31.5739 31.6778 32.6732C23.1729 38.3727 17.7251 46.6182 10.445 53.5521C9.16139 54.7672 10.7193 57.7665 13.2081 55.7895L13.1983 55.7798Z" fill="black"/>
</g>
<defs>
<clipPath id="clip0_1447_2077">
<rect width="85" height="75" fill="white"/>
</clipPath>
</defs>
</svg>
