<svg width="100" height="47" viewBox="0 0 100 47" fill="none" xmlns="http://www.w3.org/2000/svg">
<g id="Group 96217">
<path id="Vector" d="M89.9884 3.2976C90.918 4.65534 91.8102 6.33028 91.3715 8.12524C89.8572 7.27821 88.6393 5.89527 87.6735 4.53001C86.701 3.15558 85.6911 1.69406 85.3451 0C87.2551 0.477448 88.965 1.80281 89.9884 3.2976Z" fill="black"/>
<path id="Vector_2" d="M7.89398 8.12243C7.45633 6.32713 8.35039 4.65285 9.28166 3.29588C10.3068 1.80198 12.0172 0.477831 13.9275 0.00170898C13.5804 1.69544 12.569 3.15641 11.5954 4.52996C10.6284 5.89455 9.40877 7.27661 7.89398 8.12243Z" fill="black"/>
<path id="Vector_3" d="M6.56118 11.5666C6.90282 10.1449 6.89524 8.5884 6.57001 7.25486C6.28401 6.0829 5.86785 4.4262 4.49815 3.86719C3.50254 5.42796 3.10233 7.55338 3.68257 9.14598C4.10212 10.2979 4.85663 11.821 6.42141 12.0568C7.85727 12.3802 9.30918 11.6317 10.4559 11.0137C11.7309 10.3266 12.9799 9.2334 13.7387 7.93379C12.3467 7.24713 10.7614 7.80437 9.56883 8.33841C8.28327 8.91411 7.1023 10.1493 6.56118 11.5666Z" fill="black"/>
<path id="Vector_4" d="M34.4269 12.9318V5.7937H31.9333V8.39436H28.193V5.7937H25.6995V12.9318H28.193V10.3403H31.9333V12.9318H34.4269Z" fill="black"/>
<path id="Vector_5" d="M42.6955 5.7937H45.4495L41.5418 10.5767V12.9318H39.039V10.5858L35.1777 5.7937H38.0154L40.3229 8.64889L42.6955 5.7937Z" fill="black"/>
<path id="Vector_6" fill-rule="evenodd" clip-rule="evenodd" d="M54.1337 6.40289C54.6268 6.78485 54.9059 7.43051 54.9059 8.36706C54.9059 9.13087 54.7105 9.70369 54.3384 10.1039C53.8359 10.6677 53.0079 10.9222 51.9286 10.9314C51.5936 10.9404 48.7279 10.9314 48.7279 10.9314V12.9318H46.2251V5.7937H51.8914C52.8962 5.7937 53.6592 5.99374 54.1337 6.40289ZM52.2821 8.92176C52.3566 8.79444 52.3938 8.63076 52.3938 8.40342C52.3938 8.16702 52.3473 7.96697 52.2636 7.85789C52.1054 7.63055 51.8076 7.52136 51.3238 7.52136H48.7094V9.26725H51.3052C51.8263 9.26725 52.1333 9.1491 52.2821 8.92176Z" fill="black"/>
<path id="Vector_7" d="M63.5963 11.1586V12.9318H55.902V5.7937H63.5318V7.57595H58.3582V8.49438H63.3825V10.2311H58.3582V11.1586H63.5963Z" fill="black"/>
<path id="Vector_8" fill-rule="evenodd" clip-rule="evenodd" d="M72.9385 6.52115C73.2743 6.85757 73.4315 7.32132 73.4315 7.96698C73.4315 8.52168 73.2924 8.99448 73.0595 9.31278C72.7994 9.65827 72.3991 9.94927 71.906 10.022L74.1112 12.9318H71.3383L69.5244 10.413H67.2638V12.9318H64.7793V5.7937H70.5942C71.7477 5.7937 72.502 6.06646 72.9385 6.52115ZM70.9289 8.5671C70.9945 8.45802 71.0126 8.31246 71.0126 8.19432C71.0126 8.05793 70.9945 7.91238 70.9289 7.82142C70.7989 7.58501 70.5388 7.52136 70.1475 7.52136H67.2729V8.82174H70.1939C70.5942 8.82174 70.8362 8.74902 70.9289 8.5671Z" fill="black"/>
<path id="Vector_9" d="M62.2641 21.8846C62.2641 20.253 61.2035 19.3954 58.7296 19.1334C58.3275 19.0858 57.1454 18.9666 56.402 18.9071C54.4887 18.7046 53.916 18.5975 53.916 18.121C53.916 17.6923 54.3669 17.4898 56.0851 17.4898C57.3038 17.4898 57.9863 17.7161 58.2543 18.0615C58.3885 18.2282 58.4372 18.3592 58.4494 18.4903H61.9592C61.9225 18.2044 61.8007 17.7994 61.6056 17.4422C60.972 16.2511 59.4486 15.2983 56.1705 15.2983C52.4779 15.2983 50.455 16.5728 50.455 18.2402C50.455 19.848 51.6004 20.7889 54.6958 21.0629C55.0459 21.0922 55.7975 21.1616 56.413 21.2184L56.451 21.2219L56.4578 21.2226L56.4606 21.2228L56.792 21.2534C58.4128 21.4202 58.8515 21.5273 58.8515 22.0276C58.8515 22.492 58.425 22.7421 56.6336 22.7421C55.2443 22.7421 54.4278 22.5396 54.1353 22.1943C54.0135 22.0514 53.9281 21.837 53.9038 21.694H50.394C50.4306 21.9322 50.4915 22.3134 50.6255 22.6231C51.2227 23.9332 52.7827 24.9336 56.402 24.9336C60.2895 24.9336 62.2641 23.8617 62.2641 21.8846Z" fill="black"/>
<path id="Vector_10" fill-rule="evenodd" clip-rule="evenodd" d="M37.3829 23.8383C37.7485 23.4215 37.9313 22.7902 37.9313 22.147C37.9313 21.5992 37.785 21.0751 37.4804 20.7297C37.1148 20.2652 36.4688 19.9318 35.7865 19.8484C36.2496 19.7889 36.6882 19.5507 36.9441 19.241C37.261 18.8718 37.4072 18.3716 37.4072 17.7641C37.4072 17.1567 37.2245 16.6208 36.8101 16.2158C36.347 15.7513 35.5061 15.4417 34.19 15.4417H25.9275V24.7911H34.4215C35.7743 24.7911 36.8223 24.5052 37.3829 23.8383ZM34.0194 18.3239C34.0194 18.5503 33.9462 18.7408 33.8244 18.8718C33.6538 19.0266 33.3369 19.0862 32.9226 19.0862H29.1204V17.5617H32.8373C33.3004 17.5617 33.6172 17.6212 33.7878 17.7761C33.9462 17.907 34.0194 18.0976 34.0194 18.3239ZM34.385 22.421C34.19 22.5996 33.8487 22.6711 33.276 22.6711H29.1204V21.1109H33.3126C33.8487 21.1109 34.1656 21.1823 34.3483 21.3371C34.4947 21.48 34.5555 21.6588 34.5555 21.8969C34.5555 22.1233 34.5068 22.3019 34.385 22.421Z" fill="black"/>
<path id="Vector_11" d="M49.4061 22.4687V24.7911H39.3279V15.4417H49.3209V17.7761H42.5451V18.979H49.1259V21.2538H42.5451V22.4687H49.4061Z" fill="black"/>
<path id="Vector_12" d="M74.1226 17.788V15.4417H62.7042V17.788H66.738V24.7911H70.0763V17.788H74.1226Z" fill="black"/>
<path id="Vector_13" d="M73.8331 33.0643H73.2959L73.2574 32.5588C73.0935 32.8147 72.7463 33.1218 72.0135 33.1218C70.7752 33.1218 70.1996 32.3924 70.1996 30.53C70.1996 29.0901 70.566 27.9319 72.078 27.9319C73.3886 27.9319 73.7878 28.7703 73.807 29.6726H73.1523C73.133 29.0838 72.8639 28.5399 72.0915 28.5399C71.162 28.5399 70.8928 29.0838 70.8928 30.5493C70.8928 32.0788 71.2275 32.5588 72.1051 32.5588C72.7203 32.5588 73.0799 32.226 73.1986 31.8293V30.8757H71.8755V30.2933H73.8263V31.7653C73.8263 32.2051 73.8308 32.6744 73.8319 32.9104L73.8331 33.0227V33.0643Z" fill="black"/>
<path id="Vector_14" fill-rule="evenodd" clip-rule="evenodd" d="M26.0511 31.7907H27.8846L28.2643 33.0642H28.9585L27.4393 27.9958H26.5946L24.9706 33.0642H25.6581L26.0511 31.7907ZM27.7208 31.2212H26.2279C26.2279 31.2212 26.8761 29.1733 26.8892 29.1286C26.8958 29.0965 27.0006 28.6422 27.0006 28.6422L27.0731 28.9783L27.1053 29.1286C27.1119 29.1605 27.7208 31.2212 27.7208 31.2212Z" fill="black"/>
<path id="Vector_15" d="M33.9286 27.9958H34.5573L33.3328 33.0642H32.5535C32.5535 33.0642 31.6826 29.1222 31.6826 28.9557C31.6761 29.1222 30.7855 33.0642 30.7855 33.0642H30.0064L28.7819 27.9958H29.489C29.489 27.9958 30.4385 32.0083 30.4385 32.1683C30.4385 32.0083 31.3095 27.9958 31.3095 27.9958H32.0886C32.0886 27.9958 32.9595 32.0147 32.9595 32.1683C32.9595 32.0147 33.9286 27.9958 33.9286 27.9958Z" fill="black"/>
<path id="Vector_16" fill-rule="evenodd" clip-rule="evenodd" d="M37.2462 31.7907H35.4127L35.0198 33.0642H34.3323L35.9562 27.9958H36.8009L38.3202 33.0642H37.626L37.2462 31.7907ZM35.5896 31.2212H37.0825C37.0825 31.2212 36.4736 29.1605 36.467 29.1286L36.4175 28.8979L36.3622 28.6422C36.3622 28.6422 36.2575 29.0965 36.2509 29.1286C36.2378 29.1733 35.5896 31.2212 35.5896 31.2212Z" fill="black"/>
<path id="Vector_17" fill-rule="evenodd" clip-rule="evenodd" d="M40.8435 27.9958C41.6423 27.9958 42.0745 28.3606 42.0745 29.4229C42.0745 30.3253 41.7275 30.626 41.3673 30.7284L42.3627 33.0642H41.6423L40.7191 30.8565H39.4619V33.0642H38.807V27.9958H40.8435ZM40.7453 30.2804C41.2626 30.2804 41.387 30.018 41.387 29.4421C41.387 28.7894 41.1905 28.591 40.7125 28.591H39.4683V30.2804H40.7453Z" fill="black"/>
<path id="Vector_18" fill-rule="evenodd" clip-rule="evenodd" d="M46.4342 30.4469C46.4342 31.6436 46.3426 32.1299 46.0807 32.4947C45.8188 32.8467 45.4063 33.0642 44.7383 33.0642H42.9573V27.9958H44.6925C45.3474 27.9958 45.8581 28.1878 46.0938 28.5334C46.3558 28.9045 46.4342 29.3653 46.4342 30.4469ZM44.6009 32.4626C45.0003 32.4626 45.3342 32.3603 45.5044 32.1363C45.6879 31.8931 45.7402 31.4003 45.7402 30.4469C45.7402 29.6469 45.6943 29.2181 45.5044 28.9429C45.3277 28.7062 44.9872 28.6037 44.5878 28.6037H43.6186V32.4626H44.6009Z" fill="black"/>
<path id="Vector_19" d="M53.3426 27.9958H53.9712L52.7467 33.0642H51.9675C51.9675 33.0642 51.0966 29.1222 51.0966 28.9557C51.09 29.1222 50.1995 33.0642 50.1995 33.0642H49.4203L48.1958 27.9958H48.9029C48.9029 27.9958 49.8524 32.0083 49.8524 32.1683C49.8524 32.0083 50.7233 27.9958 50.7233 27.9958H51.5026C51.5026 27.9958 52.3734 32.0147 52.3734 32.1683C52.3734 32.0147 53.3426 27.9958 53.3426 27.9958Z" fill="black"/>
<path id="Vector_20" d="M55.1291 27.9958V33.0642H54.4481V27.9958H55.1291Z" fill="black"/>
<path id="Vector_21" d="M59.3921 27.9958V33.0642H58.6391L56.7073 29.1349V33.0642H56.0721V27.9958H56.8645L58.7504 31.8675V27.9958H59.3921Z" fill="black"/>
<path id="Vector_22" d="M63.6382 27.9958V33.0642H62.8851L60.9537 29.1349V33.0642H60.3185V27.9958H61.1109L62.997 31.8675V27.9958H63.6382Z" fill="black"/>
<path id="Vector_23" d="M65.2452 27.9958V33.0642H64.5645V27.9958H65.2452Z" fill="black"/>
<path id="Vector_24" d="M69.5087 27.9958V33.0642H68.7555L66.824 29.1349V33.0642H66.1885V27.9958H66.9812L68.8675 31.8675V27.9958H69.5087Z" fill="black"/>
<path id="Vector_25" d="M33.4229 43.0534L32.6725 40.7964L31.9221 43.0534H29.4939L31.4583 44.4484L30.708 46.7055L32.6725 45.3105L34.6371 46.7055L33.8866 44.4484L35.8512 43.0534H33.4229Z" fill="black"/>
<path id="Vector_26" d="M42.1008 43.0542L41.3351 40.7971L40.5694 43.0542H38.0916L40.0962 44.449L39.3305 46.7061L41.3351 45.3112L43.3398 46.7061L42.5741 44.449L44.5786 43.0542H42.1008Z" fill="black"/>
<path id="Vector_27" d="M50.6953 43.0542L49.9296 40.7971L49.1639 43.0542H46.686L48.6906 44.449L47.9249 46.7061L49.9296 45.3112L51.9341 46.7061L51.1684 44.449L53.1731 43.0542H50.6953Z" fill="black"/>
<path id="Vector_28" d="M59.2895 43.0542L58.5238 40.7971L57.7581 43.0542H55.2803L57.2848 44.449L56.5191 46.7061L58.5238 45.3112L60.5284 46.7061L59.7627 44.449L61.7674 43.0542H59.2895Z" fill="black"/>
<path id="Vector_29" d="M67.9367 43.0542L67.1869 40.7971L66.436 43.0542H64.0081L65.9724 44.449L65.2226 46.7061L67.1869 45.3112L69.1512 46.7061L68.4003 44.449L70.3658 43.0542H67.9367Z" fill="black"/>
<path id="Vector_30" d="M2.13987 15.4025C2.84598 16.4553 3.93862 17.7741 5.53178 17.7365C6.98053 17.8072 8.23217 16.841 9.21783 16.0345C10.2794 15.1659 11.2376 13.8957 11.6421 12.5225C10.1603 12.1012 8.74163 12.8817 7.6837 13.6178C6.57896 14.3867 5.72934 15.7939 5.54682 17.2387C5.53314 15.7912 5.13225 14.2962 4.48596 13.0919C3.89508 11.9909 3.0717 10.5026 1.60271 10.2051C1.02394 11.9183 1.2086 14.0144 2.13987 15.4025Z" fill="black"/>
<path id="Vector_31" d="M6.00319 23.4072C4.52458 23.6493 3.08228 22.7639 2.14559 21.7225C0.939637 20.3817 0.222101 18.5829 0.368435 16.7822C1.88741 16.8199 3.03784 18.1032 3.88813 19.0735C4.80391 20.1186 5.55423 21.4936 5.91419 22.912C5.75587 21.4985 6.24146 19.9721 7.14287 19.0289C8.01296 18.1184 9.2318 17.1262 10.7483 17.2854C10.7156 18.7188 9.98043 20.0844 9.22219 21.1071C8.5154 22.0602 7.42661 23.2392 6.00319 23.4072Z" fill="black"/>
<path id="Vector_32" d="M3.2717 28.1696C4.63349 29.036 6.28511 29.8937 8.02087 29.2446C9.44486 28.7522 10.3502 27.3514 10.9071 26.0656C11.4969 24.7032 11.8909 23.1323 11.6181 21.6411C10.0534 21.7768 8.75582 22.871 8.06668 24.2066C7.3462 25.6029 7.20801 27.2649 7.76145 28.7289C6.94373 27.2228 5.74784 26.0042 4.48105 24.8783C3.32949 23.8547 1.67074 22.7765 0 22.9793C0.317886 24.998 1.57835 27.0922 3.2717 28.1696Z" fill="black"/>
<path id="Vector_33" d="M11.5286 34.7019C12.8687 33.9189 13.408 32.2715 13.6284 30.8598C13.866 29.3374 13.8558 27.6584 13.2088 26.2141C11.6541 26.6385 10.5869 28.0061 10.2346 29.504C9.86228 31.0865 10.1764 32.7732 11.082 34.1206C9.87822 32.7708 8.27748 31.6564 6.74347 30.8749C5.2617 30.12 3.44383 29.2095 1.66431 29.7594C2.52241 31.8061 4.35802 33.7117 6.39245 34.4999C7.96796 35.1102 9.88467 35.7138 11.5286 34.7019Z" fill="black"/>
<path id="Vector_34" d="M17.8816 35.2319C18.0782 36.7014 18.0727 38.5652 16.9053 39.6963C15.4465 41.1556 13.1888 40.874 11.4475 40.5529C9.1098 40.1216 6.47828 38.5633 5.06787 36.4885C6.7904 35.5616 8.89709 36.1545 10.6024 36.6345L10.6998 36.6618C12.6034 37.1971 14.6319 38.0591 16.3284 39.2371C14.9746 38.0415 13.9881 36.2866 13.9398 34.5178C13.8964 32.9358 14.599 31.2433 16.111 30.4893C17.1665 31.8432 17.6608 33.5816 17.8816 35.2319Z" fill="black"/>
<path id="Vector_35" d="M24.6568 43.8576C25.5164 42.2582 24.6647 40.3812 23.9859 38.9938C23.1835 37.3537 22.0871 35.6822 20.518 34.4817C19.0114 35.7507 19.1546 37.5664 19.6026 39.1444C20.1352 41.0207 21.9818 42.6202 23.894 43.5317C21.6794 42.7245 19.2608 42.2401 16.9598 42.0971L16.7267 42.0824C14.8781 41.9647 12.4715 41.8115 10.9984 43.1337C13.2256 44.9841 16.3892 46.0517 19.1775 45.9963C21.046 45.9591 23.6097 45.7431 24.6568 43.8576Z" fill="black"/>
<path id="Vector_36" d="M92.7015 11.5712C92.1621 10.1529 90.9815 8.91618 89.6968 8.33937C88.5038 7.80445 86.9194 7.24621 85.5273 7.93166C86.285 9.23182 87.5324 10.3259 88.8068 11.014C89.9524 11.6327 91.4033 12.3822 92.8395 12.06C94.4046 11.8257 95.1612 10.303 95.5818 9.15103C96.1642 7.55921 95.7662 5.43335 94.7721 3.87158C93.4015 4.42982 92.9831 6.08608 92.697 7.25793C92.3702 8.5918 92.3612 10.1488 92.7015 11.5712Z" fill="black"/>
<path id="Vector_37" d="M91.5763 13.6212C92.68 14.3904 93.527 15.7968 93.7091 17.2406C93.7249 15.7939 94.1275 14.3003 94.7744 13.0972C95.3658 11.9965 96.1913 10.5089 97.6603 10.2124C98.237 11.9261 98.0505 14.0222 97.1175 15.4095C96.4118 16.4605 95.3194 17.7764 93.7294 17.7412C92.2785 17.8136 91.0255 16.845 90.0394 16.0368C88.9787 15.1674 88.022 13.8965 87.6194 12.5231C89.1008 12.1026 90.5189 12.8842 91.5763 13.6212Z" fill="black"/>
<path id="Vector_38" d="M93.3357 22.921C93.4974 21.5063 93.0134 19.9767 92.111 19.0316C91.2425 18.1205 90.0245 17.1273 88.5081 17.2855C88.5386 18.7188 89.2725 20.0851 90.0302 21.1084C90.7359 22.0616 91.8226 23.2406 93.2452 23.4104C94.7244 23.6552 96.1685 22.7703 97.1071 21.729C98.3138 20.3891 99.033 18.591 98.8894 16.79C97.3695 16.8267 96.2183 18.109 95.3667 19.0787C94.4485 20.1244 93.6965 21.501 93.3357 22.921Z" fill="black"/>
<path id="Vector_39" d="M91.1827 24.2093C91.902 25.6064 92.0388 27.2687 91.4835 28.7322C92.3023 27.2264 93.4999 26.0086 94.7676 24.8833C95.9199 23.8606 97.58 22.7838 99.2503 22.9877C98.9314 25.0062 97.6682 27.0996 95.9742 28.1756C94.6126 29.0399 92.9627 29.8958 91.2291 29.2493C89.8031 28.7579 88.8972 27.3541 88.3409 26.0661C87.7517 24.7033 87.3593 23.1321 87.6341 21.6411C89.1981 21.778 90.4952 22.8732 91.1827 24.2093Z" fill="black"/>
<path id="Vector_40" d="M88.1599 34.1181C89.0646 32.772 89.3801 31.087 89.0103 29.5052C88.6597 28.007 87.5933 26.6386 86.0384 26.2131C85.3904 27.6568 85.3791 29.3357 85.6143 30.8584C85.8337 32.2673 86.3697 33.9114 87.7019 34.6972C89.3473 35.7171 91.2686 35.1139 92.8462 34.5038C94.8817 33.717 96.7194 31.8128 97.5789 29.7665C95.8 29.2155 93.9816 30.1247 92.499 30.8784C90.9656 31.6584 89.3643 32.7705 88.1599 34.1181Z" fill="black"/>
<path id="Vector_41" d="M81.3566 35.2274C81.1587 36.6965 81.1621 38.5602 82.3291 39.6923C83.7857 41.1527 86.044 40.8727 87.7855 40.5527C90.1242 40.1231 92.7568 38.5665 94.1693 36.493C92.4481 35.5649 90.3402 36.1561 88.6348 36.6348L88.5364 36.6622C86.6332 37.1958 84.6044 38.0561 82.907 39.2322C84.2618 38.0376 85.249 36.2842 85.2988 34.5161C85.344 32.9342 84.6429 31.2411 83.132 30.4858C82.0747 31.8391 81.5794 33.5772 81.3566 35.2274Z" fill="black"/>
<path id="Vector_42" d="M80.0505 45.9904C78.1823 45.9519 75.6187 45.734 74.5738 43.8477L74.5591 43.8218C73.7245 42.2273 74.5726 40.3637 75.2489 38.9846C76.0529 37.345 77.151 35.6742 78.7206 34.4751C80.2269 35.7451 80.0811 37.5607 79.6321 39.1383C79.0972 41.0143 77.2494 42.6126 75.336 43.5225C77.5513 42.7171 79.9702 42.2344 82.2715 42.0929L82.5056 42.0784C84.3546 41.9621 86.7611 41.8109 88.2323 43.1338C86.0034 44.9824 82.8392 46.0479 80.0505 45.9904Z" fill="black"/>
</g>
</svg>
