<svg width="80" height="80" fill="none" xmlns="http://www.w3.org/2000/svg"><g clip-path="url(#clip0_483_4236)"><path d="M39.887 0C17.637 0 .21 17.428.21 39.666.209 62.289 17.637 80 39.887 80 62.498 80 80.21 62.276 80.21 39.666 80.209 17.428 62.499 0 39.887 0zm19.898 39.666c0 11.357-8.553 19.91-19.898 19.91-10.97 0-19.254-8.553-19.254-19.91 0-10.778 8.45-19.229 19.254-19.229 11.164 0 19.898 8.45 19.898 19.229z" fill="#000"/><path d="M40.12 27.974c-6.689 0-11.924 5.235-11.924 11.923 0 6.804 5.235 12.129 11.923 12.129 6.804 0 12.129-5.325 12.129-12.129-.013-6.675-5.338-11.923-12.129-11.923zM46.1 39.91c0 3.408-2.572 5.98-5.98 5.98-3.306 0-5.789-2.572-5.789-5.98 0-3.241 2.547-5.788 5.788-5.788 3.357 0 5.98 2.534 5.98 5.788z" fill="#FA198C"/></g><defs><clipPath id="clip0_483_4236"><path fill="#fff" d="M0 0h80v80H0z"/></clipPath></defs></svg>