<svg width="80" height="80" fill="none" xmlns="http://www.w3.org/2000/svg"><g clip-path="url(#clip0_483_4243)"><path d="M40.168 59.563c-.13 0-.245.013-.361.013-11.007 0-19.317-8.553-19.317-19.91 0-10.778 8.478-19.229 19.317-19.229.128 0 .245.013.36.013V0h-.36C17.483 0 0 17.428 0 39.666 0 62.289 17.484 80 39.806 80h.362V59.563z" fill="#000"/><path d="M40.129 20.193V59.82c10.98 0 19.87-8.875 19.87-19.807 0-10.933-8.89-19.82-19.87-19.82z" fill="#FA198C"/></g><defs><clipPath id="clip0_483_4243"><path fill="#fff" d="M0 0h80v80H0z"/></clipPath></defs></svg>