<svg width="100" height="47" fill="none" xmlns="http://www.w3.org/2000/svg"><path d="M89.989 3.298c.93 1.357 1.821 3.032 1.383 4.827-1.515-.847-2.733-2.23-3.698-3.595C86.7 3.156 85.69 1.694 85.345 0c1.91.477 3.62 1.803 4.644 3.298zM7.894 8.123c-.438-1.796.456-3.47 1.388-4.827C10.307 1.802 12.017.478 13.928.002c-.348 1.694-1.359 3.155-2.333 4.528-.967 1.365-2.186 2.747-3.701 3.593z" fill="#000"/><path d="M6.561 11.567c.342-1.422.334-2.979.009-4.312-.286-1.172-.702-2.829-2.072-3.388-.995 1.561-1.396 3.686-.815 5.279.42 1.152 1.174 2.675 2.738 2.91 1.436.324 2.888-.424 4.035-1.042 1.275-.687 2.524-1.78 3.283-3.08-1.392-.687-2.978-.13-4.17.404-1.286.576-2.467 1.811-3.008 3.229zm27.866 1.365V5.794h-2.494v2.6h-3.74v-2.6h-2.494v7.138h2.494V10.34h3.74v2.592h2.494zm8.269-7.138h2.754l-3.908 4.783v2.355h-2.503v-2.346l-3.861-4.792h2.837l2.308 2.855 2.373-2.855z" fill="#000"/><path fill-rule="evenodd" clip-rule="evenodd" d="M54.134 6.403c.493.382.772 1.028.772 1.964 0 .764-.195 1.337-.568 1.737-.502.564-1.33.818-2.41.827-.334.01-3.2 0-3.2 0v2h-2.503V5.795h5.666c1.005 0 1.768.2 2.243.609zm-1.852 2.519c.075-.128.112-.291.112-.519 0-.236-.047-.436-.13-.545-.159-.227-.456-.337-.94-.337h-2.615v1.746h2.596c.521 0 .828-.118.977-.345z" fill="#000"/><path d="M63.596 11.159v1.773h-7.694V5.794h7.63v1.782h-5.174v.918h5.025v1.737h-5.025v.928h5.238z" fill="#000"/><path fill-rule="evenodd" clip-rule="evenodd" d="M72.939 6.521c.335.337.493.8.493 1.446 0 .555-.14 1.027-.373 1.346a1.79 1.79 0 01-1.153.709l2.205 2.91h-2.773l-1.814-2.519h-2.26v2.519h-2.485V5.794h5.815c1.154 0 1.908.272 2.345.727zm-2.01 2.046a.75.75 0 00.084-.373c0-.136-.019-.282-.084-.373-.13-.236-.39-.3-.782-.3h-2.874v1.3h2.92c.401 0 .643-.072.736-.254z" fill="#000"/><path d="M62.264 21.885c0-1.632-1.06-2.49-3.534-2.752a85.035 85.035 0 00-2.328-.226c-1.913-.202-2.486-.31-2.486-.786 0-.429.45-.631 2.17-.631 1.218 0 1.9.226 2.168.572.135.166.183.297.195.428h3.51a3.208 3.208 0 00-.353-1.048c-.634-1.19-2.157-2.143-5.436-2.143-3.692 0-5.715 1.274-5.715 2.941 0 1.608 1.145 2.549 4.24 2.823.35.03 1.102.099 1.718.155l.038.004h.01l.331.031c1.62.167 2.06.274 2.06.775 0 .464-.427.714-2.218.714-1.39 0-2.206-.202-2.499-.548a1.158 1.158 0 01-.231-.5h-3.51c.037.238.098.62.232.93.597 1.31 2.157 2.31 5.776 2.31 3.887 0 5.862-1.072 5.862-3.05z" fill="#000"/><path fill-rule="evenodd" clip-rule="evenodd" d="M37.383 23.838c.365-.417.548-1.048.548-1.691 0-.548-.146-1.072-.45-1.417-.366-.465-1.012-.798-1.695-.882.464-.06.902-.297 1.158-.607.317-.37.463-.87.463-1.477 0-.607-.182-1.143-.597-1.548-.463-.465-1.304-.775-2.62-.775h-8.262v9.35h8.494c1.352 0 2.4-.286 2.96-.953zm-3.364-5.514a.793.793 0 01-.195.548c-.17.154-.487.214-.901.214H29.12v-1.524h3.717c.463 0 .78.06.95.214.16.13.232.321.232.548zm.366 4.097c-.195.178-.536.25-1.109.25H29.12v-1.56h4.193c.536 0 .853.071 1.035.226.147.143.208.322.208.56 0 .226-.05.405-.171.524z" fill="#000"/><path d="M49.406 22.468v2.323H39.328v-9.35h9.993v2.335h-6.776v1.203h6.58v2.275h-6.58v1.214h6.861zm24.716-4.68V15.44H62.704v2.347h4.034v7.003h3.338v-7.003h4.046zm-.289 15.276h-.537l-.039-.505c-.164.256-.51.563-1.244.563-1.238 0-1.814-.73-1.814-2.592 0-1.44.367-2.598 1.879-2.598 1.31 0 1.71.838 1.729 1.74h-.655c-.02-.588-.288-1.132-1.06-1.132-.93 0-1.2.544-1.2 2.01 0 1.529.335 2.009 1.213 2.009.615 0 .975-.333 1.093-.73v-.953h-1.323v-.583h1.951v1.472c0 .44.005.91.006 1.145v.154z" fill="#000"/><path fill-rule="evenodd" clip-rule="evenodd" d="M26.051 31.79h1.834l.38 1.274h.694l-1.52-5.068h-.844l-1.624 5.068h.687l.393-1.273zm1.67-.569h-1.493l.661-2.092.112-.487.072.336.032.15c.007.032.616 2.093.616 2.093z" fill="#000"/><path d="M33.928 27.996h.63l-1.225 5.068h-.78s-.87-3.942-.87-4.108c-.007.166-.898 4.108-.898 4.108h-.779l-1.224-5.068h.707s.95 4.012.95 4.172c0-.16.87-4.172.87-4.172h.78s.87 4.019.87 4.172c0-.153.97-4.172.97-4.172z" fill="#000"/><path fill-rule="evenodd" clip-rule="evenodd" d="M37.246 31.79h-1.833l-.393 1.274h-.688l1.624-5.068h.845l1.52 5.068h-.695l-.38-1.273zm-1.656-.569h1.492s-.608-2.06-.615-2.092l-.05-.231-.055-.256s-.105.454-.111.487l-.661 2.092zm5.254-3.225c.798 0 1.23.365 1.23 1.427 0 .902-.346 1.203-.707 1.305l.996 2.336h-.72l-.924-2.207h-1.257v2.207h-.655v-5.068h2.037zm-.099 2.284c.518 0 .642-.262.642-.838 0-.653-.196-.851-.674-.851h-1.245v1.69h1.277zm5.689.167c0 1.197-.091 1.683-.353 2.048-.262.352-.675.57-1.343.57h-1.78v-5.07h1.735c.654 0 1.165.193 1.4.538.263.371.341.832.341 1.914zm-1.833 2.016c.4 0 .733-.103.903-.327.184-.243.236-.736.236-1.69 0-.8-.046-1.228-.236-1.503-.176-.237-.517-.34-.916-.34h-.97v3.86h.983z" fill="#000"/><path d="M53.343 27.996h.628l-1.224 5.068h-.78s-.87-3.942-.87-4.108c-.007.166-.898 4.108-.898 4.108h-.779l-1.224-5.068h.707s.95 4.012.95 4.172c0-.16.87-4.172.87-4.172h.78s.87 4.019.87 4.172c0-.153.97-4.172.97-4.172zm1.787 0v5.068h-.682v-5.068h.681zm4.262 0v5.068h-.753l-1.931-3.93v3.93h-.636v-5.068h.793l1.886 3.872v-3.872h.641zm4.246 0v5.068h-.753l-1.931-3.93v3.93h-.636v-5.068h.793l1.886 3.872v-3.872h.641zm1.607 0v5.068h-.68v-5.068h.68zm4.264 0v5.068h-.754l-1.931-3.93v3.93h-.635v-5.068h.792l1.887 3.872v-3.872h.64zM33.423 43.054l-.75-2.258-.75 2.258h-2.43l1.965 1.395-.75 2.257 1.965-1.395 1.964 1.395-.75-2.258 1.964-1.394h-2.428zm8.677 0l-.765-2.257-.766 2.257h-2.477l2.004 1.395-.765 2.257 2.004-1.395 2.005 1.395-.766-2.257 2.005-1.395H42.1zm8.595 0l-.765-2.257-.766 2.257h-2.478l2.005 1.395-.766 2.257 2.005-1.395 2.004 1.395-.766-2.257 2.005-1.395h-2.478zm8.595 0l-.766-2.257-.766 2.257H55.28l2.005 1.395-.766 2.257 2.005-1.395 2.004 1.395-.765-2.257 2.004-1.395H59.29zm8.647 0l-.75-2.257-.751 2.257h-2.428l1.964 1.395-.75 2.257 1.965-1.395 1.964 1.395-.75-2.257 1.965-1.395h-2.43zM2.14 15.403c.706 1.053 1.799 2.371 3.392 2.334 1.449.07 2.7-.896 3.686-1.702 1.061-.869 2.02-2.14 2.424-3.512-1.482-.422-2.9.359-3.958 1.095-1.105.769-1.955 2.176-2.137 3.62a9.197 9.197 0 00-1.061-4.146c-.59-1.101-1.414-2.59-2.883-2.887-.58 1.713-.394 3.81.537 5.198z" fill="#000"/><path d="M6.003 23.407c-1.478.242-2.92-.643-3.857-1.685-1.206-1.34-1.924-3.14-1.778-4.94 1.52.038 2.67 1.321 3.52 2.291a9.555 9.555 0 012.026 3.839c-.158-1.414.327-2.94 1.229-3.883.87-.91 2.089-1.903 3.605-1.744-.032 1.434-.768 2.8-1.526 3.822-.707.953-1.795 2.132-3.219 2.3z" fill="#000"/><path d="M3.272 28.17c1.361.866 3.013 1.724 4.749 1.075 1.424-.493 2.33-1.894 2.886-3.18.59-1.362.984-2.933.711-4.424-1.565.136-2.862 1.23-3.551 2.566-.72 1.396-.859 3.058-.306 4.522-.817-1.506-2.013-2.725-3.28-3.85-1.152-1.024-2.81-2.103-4.481-1.9.318 2.019 1.578 4.113 3.272 5.19z" fill="#000"/><path d="M11.529 34.702c1.34-.783 1.879-2.43 2.1-3.842.237-1.523.227-3.202-.42-4.646-1.555.424-2.622 1.792-2.974 3.29a5.895 5.895 0 00.847 4.616c-1.204-1.35-2.805-2.464-4.339-3.245-1.481-.755-3.3-1.666-5.079-1.116.858 2.047 2.694 3.953 4.728 4.74 1.576.611 3.493 1.215 5.137.203z" fill="#000"/><path d="M17.882 35.232c.196 1.47.19 3.333-.977 4.464-1.459 1.46-3.716 1.178-5.458.857-2.337-.431-4.969-1.99-6.38-4.064 1.723-.927 3.83-.334 5.535.146l.098.027c1.903.535 3.932 1.397 5.628 2.575-1.353-1.196-2.34-2.95-2.388-4.72-.044-1.581.659-3.274 2.171-4.028 1.055 1.354 1.55 3.093 1.77 4.743z" fill="#000"/><path d="M24.657 43.858c.86-1.6.008-3.477-.671-4.864-.803-1.64-1.899-3.312-3.468-4.512-1.507 1.269-1.364 3.084-.916 4.662.533 1.877 2.38 3.476 4.292 4.388a25.151 25.151 0 00-6.934-1.435l-.233-.015c-1.85-.117-4.256-.27-5.729 1.051 2.228 1.851 5.391 2.919 8.18 2.863 1.868-.037 4.432-.253 5.479-2.139zm68.044-32.287c-.539-1.418-1.72-2.655-3.004-3.232-1.193-.535-2.778-1.093-4.17-.407.758 1.3 2.005 2.394 3.28 3.082 1.145.619 2.596 1.368 4.032 1.046 1.566-.234 2.322-1.757 2.743-2.909.582-1.592.184-3.718-.81-5.28-1.37.559-1.789 2.215-2.075 3.387-.327 1.334-.336 2.89.004 4.313z" fill="#000"/><path d="M91.576 13.621c1.104.77 1.951 2.176 2.133 3.62a9.205 9.205 0 011.065-4.144c.592-1.1 1.417-2.588 2.886-2.885.577 1.714.39 3.81-.542 5.197-.706 1.051-1.799 2.367-3.389 2.332-1.45.073-2.704-.896-3.69-1.704-1.06-.87-2.017-2.14-2.42-3.514 1.482-.42 2.9.361 3.957 1.098z" fill="#000"/><path d="M93.336 22.921c.161-1.415-.323-2.944-1.225-3.89-.868-.91-2.087-1.903-3.603-1.745.03 1.433.764 2.8 1.522 3.822.706.954 1.793 2.133 3.215 2.303 1.48.244 2.923-.64 3.862-1.682 1.207-1.34 1.926-3.138 1.782-4.939-1.52.037-2.67 1.32-3.522 2.289a9.554 9.554 0 00-2.031 3.842z" fill="#000"/><path d="M91.183 24.21c.719 1.396.856 3.059.3 4.522.82-1.506 2.017-2.723 3.284-3.849 1.153-1.022 2.813-2.1 4.483-1.895-.319 2.018-1.582 4.112-3.276 5.188-1.362.864-3.011 1.72-4.745 1.073-1.426-.491-2.332-1.895-2.888-3.183-.59-1.363-.982-2.934-.707-4.425 1.564.137 2.861 1.232 3.549 2.568z" fill="#000"/><path d="M88.16 34.118a5.901 5.901 0 00.85-4.613c-.35-1.498-1.417-2.866-2.972-3.292-.648 1.444-.659 3.122-.424 4.645.22 1.41.756 3.053 2.088 3.84 1.645 1.019 3.567.416 5.144-.194 2.036-.787 3.873-2.691 4.733-4.738-1.78-.55-3.597.359-5.08 1.112-1.534.78-3.135 1.892-4.34 3.24z" fill="#000"/><path d="M81.357 35.227c-.198 1.47-.195 3.333.972 4.465 1.457 1.46 3.715 1.18 5.457.86 2.338-.429 4.97-1.985 6.383-4.059-1.72-.928-3.829-.337-5.534.142l-.098.027c-1.904.534-3.933 1.394-5.63 2.57 1.355-1.194 2.342-2.948 2.392-4.716.045-1.582-.656-3.275-2.167-4.03-1.057 1.353-1.553 3.091-1.775 4.741z" fill="#000"/><path d="M80.05 45.99c-1.868-.038-4.431-.256-5.476-2.142l-.015-.026c-.834-1.595.014-3.458.69-4.838.804-1.64 1.902-3.31 3.472-4.509 1.506 1.27 1.36 3.086.911 4.663-.535 1.876-2.383 3.474-4.296 4.384a25.159 25.159 0 016.936-1.43l.234-.014c1.849-.116 4.255-.267 5.726 1.056-2.229 1.848-5.393 2.914-8.181 2.856z" fill="#000"/></svg>