<svg width="149" height="39" fill="none" xmlns="http://www.w3.org/2000/svg"><path d="M17.18 7.628V2.753H2.28v33.494h14.9v-4.875c-3.053 0-5.98-1.25-8.138-3.477C6.883 25.668 5.67 22.649 5.67 19.5c0-3.149 1.212-6.168 3.37-8.395 2.16-2.225 5.088-3.477 8.14-3.477z" fill="#000"/><path d="M17.18 7.628v23.744c3.052 0 5.979-1.25 8.137-3.477 2.159-2.227 3.371-5.246 3.371-8.395 0-3.149-1.212-6.168-3.37-8.395-2.159-2.226-5.086-3.477-8.139-3.477zm19.87 2.982h3.336v16.575H37.05V10.61zm5.204 10.897c0-1.192.343-2.358.986-3.349a5.88 5.88 0 012.625-2.218 5.673 5.673 0 013.378-.336 5.785 5.785 0 012.988 1.658 6.085 6.085 0 011.59 3.092 6.199 6.199 0 01-.346 3.482 5.983 5.983 0 01-2.165 2.695 5.71 5.71 0 01-3.252.998 5.604 5.604 0 01-2.236-.446 5.753 5.753 0 01-1.894-1.306 5.961 5.961 0 01-1.254-1.96 6.108 6.108 0 01-.42-2.31zm8.361 0a2.67 2.67 0 00-.459-1.433 2.548 2.548 0 00-1.15-.933 2.462 2.462 0 00-1.46-.121 2.514 2.514 0 00-1.28.731 2.643 2.643 0 00-.676 1.34 2.692 2.692 0 00.155 1.501 2.6 2.6 0 00.934 1.163 2.48 2.48 0 001.401.437 2.447 2.447 0 001.824-.777c.236-.252.419-.552.537-.88a2.62 2.62 0 00.152-1.028h.022zm16.446-5.677v10.793c0 3.808-2.89 5.426-5.815 5.426a5.415 5.415 0 01-2.988-.61 5.633 5.633 0 01-2.227-2.143l2.813-1.675c.228.474.59.866 1.04 1.122a2.46 2.46 0 001.473.312 2.19 2.19 0 001.8-.611c.239-.232.424-.516.543-.83.12-.315.17-.654.148-.99v-1.045a3.944 3.944 0 01-1.439 1.126 3.82 3.82 0 01-1.775.343 5.475 5.475 0 01-3.931-1.68 5.828 5.828 0 01-1.629-4.056c0-1.52.586-2.98 1.629-4.055a5.475 5.475 0 013.931-1.68 3.82 3.82 0 011.775.342 3.94 3.94 0 011.439 1.126v-1.147l3.213-.069zm-3.213 5.448a2.82 2.82 0 00-.395-1.56 2.696 2.696 0 00-1.173-1.064 2.595 2.595 0 00-1.55-.204 2.64 2.64 0 00-1.395.726c-.385.38-.65.87-.762 1.407a2.835 2.835 0 00.132 1.605c.198.51.54.947.98 1.255a2.61 2.61 0 001.494.473 2.42 2.42 0 001.024-.146 2.48 2.48 0 00.878-.562c.252-.248.45-.548.582-.881.132-.333.195-.69.185-1.05zm5.092.229a6.16 6.16 0 01.985-3.347 5.88 5.88 0 012.622-2.217 5.671 5.671 0 013.374-.341 5.786 5.786 0 012.989 1.651 6.084 6.084 0 011.595 3.087 6.197 6.197 0 01-.337 3.48 5.985 5.985 0 01-2.155 2.7 5.71 5.71 0 01-3.246 1.01 5.618 5.618 0 01-2.241-.444 5.76 5.76 0 01-1.9-1.304 5.971 5.971 0 01-1.26-1.962 6.12 6.12 0 01-.426-2.313zm8.362 0a2.671 2.671 0 00-.46-1.435 2.55 2.55 0 00-1.153-.932 2.462 2.462 0 00-1.46-.12c-.488.11-.933.366-1.28.735-.348.37-.582.837-.674 1.343a2.692 2.692 0 00.16 1.502c.195.474.522.877.939 1.16a2.48 2.48 0 001.404.431 2.4 2.4 0 00.99-.192c.314-.134.598-.333.834-.584a2.56 2.56 0 00.537-.88 2.62 2.62 0 00.152-1.028h.011zm4.838-8.717c0-.404.115-.799.333-1.135.217-.335.526-.597.888-.752.362-.154.76-.195 1.144-.116.383.079.736.273 1.013.559.277.286.465.65.542 1.045.076.396.037.807-.113 1.18a2.03 2.03 0 01-.729.916 1.936 1.936 0 01-1.1.345 1.971 1.971 0 01-1.393-.605 2.097 2.097 0 01-.586-1.437zm.322 3.04h3.335v11.355h-3.335V15.83zm17.613 5.677a5.916 5.916 0 01-.317 2.223 5.771 5.771 0 01-1.12 1.927 5.573 5.573 0 01-1.753 1.334 5.42 5.42 0 01-2.114.538 4.022 4.022 0 01-1.822-.3 4.138 4.138 0 01-1.514-1.087v5.609h-3.336V15.829h3.336v1.067c.42-.474.937-.844 1.515-1.082a4.01 4.01 0 011.82-.294 5.41 5.41 0 012.107.535c.662.319 1.255.77 1.748 1.325a5.77 5.77 0 011.123 1.915c.248.708.36 1.46.327 2.212zm-3.336 0a2.765 2.765 0 00-.475-1.486 2.638 2.638 0 00-1.193-.966 2.55 2.55 0 00-1.512-.124 2.603 2.603 0 00-1.326.76c-.36.382-.603.865-.697 1.389a2.786 2.786 0 00.165 1.555c.202.49.54.909.971 1.202.431.293.937.448 1.454.446.354.016.707-.046 1.036-.181.329-.135.626-.34.873-.603.247-.262.437-.575.559-.918a2.7 2.7 0 00.145-1.074zm13.488 2.272c0 2.615-2.224 3.727-4.581 3.727a4.706 4.706 0 01-2.772-.603 4.91 4.91 0 01-1.965-2.104l2.868-1.674c.114.409.361.766.699 1.01a1.76 1.76 0 001.158.332c.79 0 1.19-.252 1.19-.711 0-1.25-5.415-.585-5.415-4.52 0-2.477 2.024-3.716 4.314-3.716a4.702 4.702 0 012.503.59 4.892 4.892 0 011.856 1.83l-2.869 1.56a1.653 1.653 0 00-.596-.725 1.587 1.587 0 00-.882-.273c-.579 0-.923.23-.923.631 0 1.308 5.415.447 5.415 4.646zm12.086-7.949v11.355h-3.335V26.12c-.38.472-.861.845-1.405 1.09a3.69 3.69 0 01-1.731.32c-2.224 0-4.125-1.64-4.125-4.703V15.83h3.335v6.481a1.93 1.93 0 00.5 1.49 1.793 1.793 0 001.424.575c1.201 0 2.046-.734 2.046-2.294V15.83h3.291zm18.903 4.381v6.974h-3.335V20.51c0-1.147-.523-1.858-1.579-1.858-1.057 0-1.724.792-1.724 2.134v6.4h-3.336V20.51c0-1.147-.522-1.858-1.579-1.858-1.056 0-1.723.792-1.723 2.134v6.4h-3.336V15.83h3.336v1.044a3.42 3.42 0 011.313-1.062 3.31 3.31 0 011.645-.291 3.176 3.176 0 011.631.352 3.3 3.3 0 011.249 1.139 3.644 3.644 0 011.409-1.17 3.526 3.526 0 011.782-.321c2.602 0 4.247 1.858 4.247 4.691zm2.803-4.451c1.351 0 2.446-1.13 2.446-2.523 0-1.394-1.095-2.524-2.446-2.524-1.351 0-2.447 1.13-2.447 2.524 0 1.394 1.096 2.524 2.447 2.524z" fill="#000"/></svg>