<svg width="191" height="55" viewBox="0 0 191 55" fill="none" xmlns="http://www.w3.org/2000/svg">
<g id="McAfee">
<g id="XMLID_62_">
<path id="XMLID_64_" d="M0 0.0502319C5.62857 2.56827 11.109 5.23444 16.7376 7.75248C16.7376 10.2705 16.7376 12.7886 16.7376 15.3066C13.4789 13.8254 10.2203 12.3442 6.96165 10.7149C6.96165 15.8991 6.96165 21.0833 6.96165 26.4156C10.2203 27.8968 13.4789 29.378 16.7376 31.0073C16.7376 33.5254 16.5895 36.0434 16.7376 38.5615C11.109 36.0434 5.62857 33.3773 0 30.8592C0 20.6389 0 10.4186 0 0.0502319Z" fill="#fff"/>
<path id="XMLID_63_" d="M33.3273 0.0502319C33.4754 10.2705 33.4754 20.6389 33.4754 30.8592C27.8469 33.3773 22.3664 36.0434 16.886 38.5615C16.7379 36.0434 16.7379 33.5254 16.886 31.0073C20.1446 29.5261 23.4033 27.8968 26.81 26.4156C26.81 21.2314 26.81 15.8991 26.81 10.7149C23.5514 12.1961 20.2928 13.8254 16.886 15.3066C16.886 12.7886 16.886 10.2705 16.886 7.75248C22.2183 5.23444 27.8469 2.7164 33.3273 0.0502319Z" fill="#fff"/>
</g>
<path id="XMLID_61_" d="M46.3765 0C50.8201 3.25864 55.2637 6.66541 59.7073 10.0722C64.1509 6.66541 68.5945 3.40676 73.0381 0C73.0381 10.3684 73.0381 20.5887 73.0381 30.9571C70.8163 30.9571 68.4464 30.9571 66.2246 30.9571C66.2246 25.0323 66.2246 19.2556 66.2246 13.3308C64.0028 14.9601 61.9291 16.5895 59.7073 18.2188C57.4855 16.5895 55.4118 14.9601 53.19 13.3308C53.19 19.2556 53.19 25.0323 53.19 30.9571C50.9682 30.9571 48.5983 30.9571 46.3765 30.9571C46.3765 20.5887 46.3765 10.3684 46.3765 0Z" fill="#fff"/>
<g id="XMLID_57_">
<path id="XMLID_58_" d="M107.842 0.267944C109.915 0.267944 112.137 0.267944 114.211 0.267944C118.506 10.4882 122.654 20.7085 126.949 31.0769C124.579 31.0769 122.209 31.0769 119.84 31.0769C119.099 29.2995 118.506 27.5221 117.766 25.8927C114.211 25.8927 110.656 25.8927 107.101 25.8927C106.361 27.6702 105.768 29.2995 105.027 31.0769C102.658 31.0769 100.288 31.0769 97.9177 31.0769C101.769 22.1897 105.768 13.3025 109.619 4.41531C109.027 2.93411 108.434 1.60103 107.842 0.267944ZM112.434 12.4138C111.545 14.7837 110.508 17.1536 109.619 19.5236C111.545 19.5236 113.47 19.5236 115.396 19.5236C114.359 17.1536 113.322 14.7837 112.434 12.4138Z" fill="#fff"/>
</g>
<path id="XMLID_56_" d="M135.397 0.740586C138.063 -1.49012e-05 140.877 0.148104 143.395 1.18495C142.507 3.11051 141.618 5.03607 140.877 6.81351C139.692 6.36915 138.211 5.77667 137.026 6.66539C135.693 7.85035 136.286 9.77591 136.137 11.4052H140.137C140.137 13.3308 140.137 15.2564 140.137 17.1819C138.804 17.1819 137.47 17.1819 136.137 17.1819C136.137 21.7736 136.137 26.3654 136.137 30.9571C134.064 30.9571 131.99 30.9571 129.916 30.9571C129.916 26.3654 129.916 21.7736 129.916 17.1819C129.028 17.1819 128.139 17.1819 127.102 17.1819V11.4052C127.991 11.4052 128.88 11.4052 129.916 11.4052C129.768 9.33155 129.916 7.40599 130.509 5.33231C131.398 3.11051 133.175 1.48119 135.397 0.740586Z" fill="#fff"/>
<path id="XMLID_24_" d="M82.6658 8.73917C85.9245 7.40609 89.6275 7.40609 92.8861 8.88729C94.9598 10.0722 96.8854 11.7016 98.0703 13.7753C96.2929 14.8121 94.6636 15.8489 92.8861 16.8858C91.9974 14.9602 89.9237 13.6271 87.85 13.479C84.5914 13.479 81.9252 16.1452 81.9252 19.4038C81.9252 22.6625 84.5914 25.3286 87.85 25.3286C90.0718 25.1805 91.9974 23.9955 92.8861 21.9219C94.6636 22.9587 96.2929 23.9955 98.0703 25.0324C96.8854 27.1061 95.1079 28.7354 93.0342 29.7722C88.5906 31.8459 83.4064 31.2534 79.5553 27.9948C76.5929 25.3286 75.1117 21.4775 75.8523 17.4783C76.4448 13.6271 79.1109 10.2204 82.6658 8.73917Z" fill="#fff"/>
<g id="XMLID_20_">
<path id="XMLID_21_" d="M144.426 12.3532C148.425 7.31715 155.683 6.42843 160.868 10.1314C164.571 12.6495 165.904 17.3893 165.607 21.6848C159.979 21.6848 154.202 21.6848 148.574 21.6848C149.61 24.4991 152.425 25.9803 155.239 25.5359C156.572 25.2397 157.757 24.6472 158.646 23.6104C160.275 24.4991 162.053 25.3878 163.682 26.4247C161.904 28.4983 159.683 29.8314 157.165 30.572C152.425 31.9051 147.389 30.2758 144.278 26.2765C141.316 22.1292 141.316 16.5006 144.426 12.3532ZM148.722 16.5006C151.98 16.5006 155.239 16.5006 158.646 16.5006C157.757 14.575 155.98 13.242 153.906 13.242C151.536 13.0938 149.61 14.4269 148.722 16.5006Z" fill="#fff"/>
</g>
<g id="XMLID_16_">
<path id="XMLID_17_" d="M169.279 13.2436C172.538 8.35564 178.759 6.5782 184.091 8.94812C187.053 10.2812 189.275 12.7992 190.312 15.9098C190.905 17.8353 191.053 19.7609 190.905 21.6865C185.276 21.6865 179.499 21.6865 173.871 21.6865C174.759 24.3526 177.426 25.8338 180.24 25.5376C181.721 25.2413 183.054 24.6489 184.091 23.612C185.72 24.5007 187.498 25.3895 189.127 26.4263C187.053 28.9443 184.091 30.5737 180.98 31.018C176.981 31.6105 172.982 30.1293 170.168 27.0188C167.057 23.0195 166.613 17.5391 169.279 13.2436ZM174.167 16.5022C177.426 16.5022 180.684 16.5022 184.091 16.5022C183.202 14.4286 181.129 13.0955 178.907 13.2436C176.685 13.2436 174.908 14.5767 174.167 16.5022Z" fill="#fff"/>
</g>
<g id="XMLID_12_">
<path id="XMLID_13_" d="M46.3201 38.5098C47.0607 38.5098 47.8013 38.5098 48.5419 38.5098C48.5419 39.991 48.5419 41.4722 48.5419 42.9534C49.875 41.4722 52.2449 41.324 53.7261 42.8052C53.8742 42.9534 54.0223 43.1015 54.1704 43.2496C55.5035 45.3233 55.3554 47.9895 53.8742 49.915C52.393 51.3962 50.0231 51.3962 48.5419 49.915L48.3938 49.7669C48.3938 50.0631 48.3938 50.5075 48.3938 50.8037H46.3201C46.3201 46.6564 46.3201 42.509 46.3201 38.5098ZM49.7268 43.8421C47.8013 45.0271 48.0975 49.0263 50.7637 49.0263C52.6892 49.0263 53.2817 46.5083 52.6892 45.0271C52.393 43.9902 51.208 43.2496 50.0231 43.694C50.0231 43.694 49.875 43.8421 49.7268 43.8421Z" fill="#fff"/>
</g>
<path id="XMLID_11_" d="M70.0757 38.363H72.2975V50.657C71.5569 50.657 70.8163 50.657 70.0757 50.657V38.363Z" fill="#fff"/>
<path id="XMLID_10_" d="M100.144 38.363C100.885 38.363 101.625 38.363 102.366 38.363C102.366 41.6216 102.366 44.7321 102.366 47.9908C102.366 48.5833 103.106 48.7314 103.551 48.8795C103.551 49.472 103.551 50.0645 103.551 50.8051C102.662 50.657 101.625 50.8051 100.885 50.2126C100.292 49.472 99.9958 48.5833 100.144 47.6945C100.144 44.7321 100.144 41.6216 100.144 38.363Z" fill="#fff"/>
<path id="XMLID_9_" d="M85.3319 39.548H87.5537C87.5537 40.4368 87.5537 41.1774 87.5537 42.0661C88.1461 42.0661 88.8867 42.0661 89.4792 42.0661C89.4792 42.6586 89.4792 43.251 89.4792 43.8435C88.8867 43.8435 88.1461 43.8435 87.5537 43.8435C87.4055 45.3247 87.5537 46.6578 87.7018 48.139C87.998 48.8796 89.0349 48.8796 89.6273 49.0277C89.6273 49.6202 89.6273 50.3608 89.6273 50.9533C88.1461 50.9533 86.2206 50.8052 85.48 49.1758C85.1837 47.3984 85.0356 45.7691 85.1837 43.9916C84.8875 43.9916 84.295 43.9916 83.9988 43.9916C83.9988 43.3992 83.9988 42.8067 83.9988 42.2142C84.4431 42.2142 84.7394 42.2142 85.1837 42.2142C85.3319 41.1774 85.3319 40.2886 85.3319 39.548Z" fill="#fff"/>
<path id="XMLID_8_" d="M55.1155 41.9181C56.0042 41.9181 56.7448 41.9181 57.6335 41.9181C58.3741 43.9918 59.1147 46.0655 59.8553 48.1391C60.4478 46.0655 61.1884 43.9918 61.929 41.9181C62.8177 41.9181 63.5583 41.9181 64.2989 41.9181C62.9658 45.3249 61.6328 48.7316 60.2997 52.1384C59.8553 53.1752 58.9666 54.0639 57.7816 54.3602H56.5967C56.1523 54.2121 55.708 54.0639 55.2636 53.9158C55.4117 53.3233 55.708 52.879 55.8561 52.2865C56.4486 52.2865 57.1892 52.7309 57.7816 52.2865C58.226 51.8421 58.5222 51.2497 58.8185 50.6572C57.6335 47.6948 56.3004 44.8805 55.1155 41.9181Z" fill="#fff"/>
<path id="XMLID_7_" d="M74.6677 41.9181C75.4083 41.9181 76.1489 41.9181 76.8895 41.9181C76.8895 42.3625 76.8895 42.9549 76.7414 43.3993C77.7782 41.9181 79.7038 41.3256 81.4812 42.0662C82.5181 42.6587 83.1106 43.6955 82.9625 44.8805C82.9625 46.8061 82.9625 48.8797 82.9625 50.8053C82.2218 50.8053 81.4812 50.8053 80.7406 50.8053C80.7406 48.7316 80.8888 46.6579 80.5925 44.7324C80.0001 43.1031 77.482 43.9918 77.0376 45.3249C76.7414 47.1023 76.5933 49.0279 76.7414 50.9534H74.6677C74.6677 47.8429 74.6677 44.8805 74.6677 41.9181Z" fill="#fff"/>
<g id="XMLID_3_">
<path id="XMLID_4_" d="M91.9586 42.6379C93.7361 41.1567 96.4022 41.4529 97.8834 43.3785C98.4759 44.4153 98.7721 45.6003 98.624 46.9334C96.5503 46.9334 94.4767 46.9334 92.403 46.9334C92.6992 47.674 92.9955 48.5627 93.8842 49.007C95.2173 49.4514 96.6985 49.3033 97.7353 48.4146C98.0315 49.007 98.3278 49.4514 98.624 50.0439C96.6985 51.377 94.1804 51.5251 92.2549 50.3401C90.1812 48.7108 89.7368 45.7484 91.3661 43.5266C91.3661 43.0822 91.6624 42.786 91.9586 42.6379ZM92.5511 45.1559C93.8842 45.1559 95.2173 45.1559 96.5503 45.1559C96.2541 44.4153 95.9579 43.3785 94.921 43.3785C93.7361 43.3785 92.6992 44.1191 92.5511 45.1559Z" fill="#fff"/>
</g>
</g>
</svg>
