<svg width="77" height="77" viewBox="0 0 77 77" fill="none" xmlns="http://www.w3.org/2000/svg">
<g id="uuid-8dc5f69e-abd8-4c95-a622-eb061c232a34" clip-path="url(#clip0_1448_2878)">
<path id="Vector" d="M76.02 28.6499C75.93 24.8399 70.6 24.4299 69.55 27.3799C64.88 29.5699 60.36 31.7799 55.42 33.4999C50.13 35.3299 44.71 36.7699 39.44 38.6499C38.89 33.0399 37.81 27.3899 37.12 21.7999C36.55 17.2399 36.08 12.5099 35.02 7.99992C36.56 6.96992 36.21 4.05992 33.92 4.12992C33.88 4.12992 33.84 4.12992 33.8 4.12992C32.73 2.80992 30.26 2.98992 29.74 4.53992C1.51996 8.93992 -10.9 48.2099 11.66 67.4799C23 77.1699 40.43 79.5299 53.97 73.3499C61.52 69.8999 67.44 64.2999 71.51 57.0699C76.27 48.5999 76.24 38.0699 76.02 28.6499ZM52.15 67.4399C40.74 73.3799 26.33 71.3099 16.08 64.0999C-5.85004 48.6599 5.93996 13.2999 30.12 8.80992C30.83 13.7799 31.62 18.7299 32.15 23.7299C32.76 29.4599 32.81 35.4999 33.99 41.1199C34.06 41.4499 34.19 41.7299 34.35 41.9799C34.01 42.6799 34.08 43.5399 34.86 44.2399C38.85 47.8099 42.5 51.7199 46.22 55.5699C47.91 57.3199 49.62 59.0499 51.39 60.7099C52.94 62.1599 54.27 63.9099 55.98 65.0999C54.8 65.9299 53.52 66.7099 52.14 67.4299L52.15 67.4399ZM60 61.7599C58.32 60.1299 56.19 59.3399 54.39 57.7299C52.58 56.1099 50.89 54.3499 49.22 52.5899C46.15 49.3499 43.22 46.0399 39.96 43.0099C49.24 40.5099 60.86 38.7099 69.48 33.5299C69.45 44.3899 67.32 54.4399 60 61.7499V61.7599Z" fill="black"/>
<path id="Vector_2" d="M42.35 6.53989C44.17 13.8399 40.72 21.2999 43.34 28.5299C43.88 30.0299 45.51 30.8499 46.99 30.0099C54.16 25.9299 63.35 24.7799 69.74 19.4399C70.16 19.0899 70.4 18.7099 70.51 18.3199C71.22 17.5899 71.52 16.5199 70.97 15.2199C66.41 4.25989 54.6 -3.31011 42.68 1.44989C40.32 2.38989 40.17 5.72989 42.35 6.53989ZM64.08 16.7199C58.51 19.0299 52.72 21.2999 47.39 24.1099C46.69 18.4399 49 12.1899 47.26 6.82989C54.49 7.22989 60.72 9.07989 64.08 16.7199Z" fill="black"/>
</g>
<defs>
<clipPath id="clip0_1448_2878">
<rect width="76.09" height="76.76" fill="white"/>
</clipPath>
</defs>
</svg>
