<svg width="177" height="28" viewBox="0 0 177 28" fill="none" xmlns="http://www.w3.org/2000/svg">
<g id="Group_3">
<path id="Path_9" fill-rule="evenodd" clip-rule="evenodd" d="M13.5489 17.7518C14.8629 14.5984 16.0454 11.7078 17.3593 8.68574C17.8849 7.50321 18.4104 6.18929 18.936 5.00677C20.9069 0.670838 26.0312 -1.16864 30.3671 0.802234C31.2868 1.19641 32.2066 1.85337 32.9949 2.64172C33.7833 3.43007 34.0461 3.16729 34.703 2.64172C37.5936 0.145277 41.5354 -0.643072 45.2144 0.539454C46.5283 0.933629 47.5794 1.59059 48.4992 2.64172C49.1561 3.43007 49.4189 3.29868 50.0759 2.77311C53.4921 0.145275 57.3024 -0.77447 61.2442 0.933623C64.3976 2.11615 66.4998 5.26955 66.3684 8.68574C66.4998 13.4158 66.3684 18.2773 66.3684 23.0074C66.4998 25.1097 64.9231 26.9492 62.8209 27.0806C62.5581 27.0806 62.2953 27.0806 62.0325 27.0806C60.0616 26.9492 58.485 25.2411 58.7477 23.1388V23.0074V10.2624C58.7477 8.42295 57.3024 6.84626 55.4629 6.71486C53.4921 6.32069 51.6526 7.50321 51.127 9.3427C50.9956 9.86827 50.8642 10.5252 50.9956 11.1822V22.8761C51.2584 24.7155 50.0759 26.555 48.2364 26.9492C46.2655 27.6062 44.2946 26.555 43.6377 24.5841C43.5063 24.4527 43.5063 24.19 43.5063 23.9272C43.3749 23.4016 43.3749 22.8761 43.3749 22.3505V10.5252C43.5063 9.07992 42.7179 7.6346 41.404 6.97764C39.9587 6.18929 38.2506 6.45208 36.9367 7.37182C35.8856 8.16017 35.36 9.47409 35.4914 10.788V23.0074C35.6228 24.9783 34.1775 26.8178 32.2066 26.9492H31.5496C29.4474 26.9492 28.002 25.2411 28.002 22.7447V8.02878C28.1334 7.50321 27.7393 6.97764 27.2137 6.97764C26.6881 6.84625 26.1626 7.10904 25.8998 7.6346L23.5347 12.7589C21.958 16.3065 20.3813 19.7226 18.8046 23.1388C18.4104 23.9272 18.0163 24.5841 17.6221 25.2411C16.1768 27.3434 13.2862 28.0003 11.0525 26.555C10.6583 26.1608 10.1328 25.7667 9.86998 25.3725C8.95024 24.0586 8.29327 22.6133 7.63631 21.168C5.27126 16.0437 2.90622 10.9194 0.541165 5.66373C-0.509969 3.95563 0.0155901 1.72198 1.72368 0.802234C1.85508 0.670842 1.98647 0.670846 2.11786 0.539454C3.95735 -0.380288 6.05961 0.408056 6.97935 2.24754C7.11075 2.37893 7.11075 2.51033 7.11075 2.77311C9.08163 7.50321 11.1839 12.2333 13.0234 16.9634C13.1548 17.0948 13.2862 17.3576 13.5489 17.7518Z" fill="black"/>
<path id="Path_10" fill-rule="evenodd" clip-rule="evenodd" d="M86.6024 7.1087L83.7118 15.3864C82.6607 18.6712 81.3467 21.8246 80.2956 24.978C79.9014 26.1605 79.2445 26.6861 78.1933 26.8175C77.1422 26.8175 76.2225 26.1605 75.8283 25.1094C73.2004 17.8828 70.5726 10.5249 67.9448 3.29834C67.5506 2.37859 67.8134 1.32746 68.7331 0.80189C68.7331 0.80189 68.8645 0.801892 68.8645 0.6705C69.9156 0.276325 70.9668 0.801886 71.361 1.72163C71.361 1.85302 71.4924 1.85302 71.4924 2.11581C73.4632 7.76566 75.5655 13.5469 77.405 19.3281C77.5364 19.7223 77.6678 20.1165 77.9305 20.642C78.8503 17.8828 79.77 15.255 80.6898 12.7585C81.8723 9.21096 83.0548 5.79477 84.2374 2.37859C84.7629 1.06467 85.1571 0.539109 86.3396 0.6705C87.3908 0.6705 87.9163 1.06468 88.4419 2.50999C90.4128 8.15983 92.3836 13.8097 94.2231 19.4595C94.3545 19.8537 94.4859 20.3793 94.7487 20.7734C95.7998 17.8828 96.7196 15.1236 97.6393 12.3644C98.8218 8.94819 100.004 5.66338 101.187 2.2472C101.45 1.45885 101.844 0.933284 102.632 0.6705C103.552 0.407717 104.603 0.933284 104.866 1.98442C104.997 2.37859 104.997 2.77277 104.734 3.16695C104.078 5.00643 103.421 6.9773 102.632 8.81679C100.661 14.2038 98.8218 19.4595 96.851 24.8466C96.7196 24.978 96.7196 25.1094 96.7196 25.2408C96.4568 26.1605 95.537 26.8175 94.4859 26.8175C93.4348 26.8175 92.6464 26.1605 92.3836 25.1094C91.4639 22.4815 90.5442 19.8537 89.6244 17.2259L86.3396 7.76566C86.9966 7.63427 86.8652 7.37148 86.6024 7.1087Z" fill="black"/>
<path id="Path_11" fill-rule="evenodd" clip-rule="evenodd" d="M124.181 22.8758C122.604 24.8467 120.37 26.292 117.874 26.8176C114.064 27.6059 110.516 27.2118 107.625 24.3211C104.735 21.2991 104.735 16.569 107.625 13.547C108.019 13.1528 108.545 12.7587 109.071 12.4959C110.91 11.4447 112.881 10.9192 114.983 10.7878C117.742 10.6564 120.502 10.9192 123.261 11.5761C124.049 11.8389 124.049 11.5761 124.049 10.9192C124.312 7.50298 121.684 4.48097 118.268 4.21819C118.137 4.21819 118.005 4.21819 117.742 4.21819C115.246 3.9554 112.881 4.34958 110.516 5.26933C109.728 5.6635 108.808 5.40072 108.414 4.61237V4.48098C108.414 4.48098 108.414 4.34958 108.282 4.34958C107.888 3.56123 108.282 2.64149 109.071 2.24731H109.202C113.538 0.276434 118.399 0.145049 122.867 1.85314C125.757 3.03567 127.597 5.79489 127.728 8.94829C127.991 12.3645 127.991 15.6493 127.86 19.0655V24.9781C127.991 26.0292 127.203 26.949 126.283 27.0804C125.363 27.2118 124.443 26.5548 124.181 25.6351V25.2409C124.181 24.3211 124.181 23.6642 124.181 22.8758ZM116.954 13.6784C114.983 13.547 113.012 14.0726 111.304 15.1237C109.202 16.569 108.676 19.4596 110.122 21.5619C110.385 21.9561 110.779 22.3503 111.173 22.613C113.012 23.927 115.377 24.4525 117.611 23.927C120.633 23.27 123.13 21.8247 124.049 18.6713C124.181 17.6201 124.312 16.569 124.181 15.5179C124.312 14.9923 123.918 14.5981 123.524 14.4668H123.392C121.29 13.9412 119.188 13.6784 116.954 13.6784Z" fill="black"/>
<path id="Path_12" fill-rule="evenodd" clip-rule="evenodd" d="M159.788 15.2551H151.378C150.722 15.2551 150.59 15.3865 150.59 16.0434C151.247 19.3282 152.955 21.9561 156.371 23.1386C159.788 24.3211 163.598 23.5328 166.226 21.0363C166.62 20.6422 167.145 20.248 167.802 20.248C168.459 20.248 168.985 20.6422 169.248 21.2991C169.511 21.9561 169.379 22.613 168.854 23.1386C163.992 28.1315 156.109 28.3943 150.853 23.7956C148.751 21.8247 147.437 19.1968 147.043 16.4376C146.123 12.1017 147.437 7.63437 150.327 4.34957C153.218 1.06478 157.685 -0.249141 161.89 1.06478C166.357 2.2473 168.854 5.40071 170.036 9.73664C170.299 10.9192 170.43 12.1017 170.43 13.2842C170.43 14.8609 169.773 15.3865 168.197 15.3865C165.306 15.2551 162.547 15.2551 159.788 15.2551ZM158.474 12.3645H164.255C166.883 12.3645 166.883 12.3645 166.094 9.86803C164.78 5.40071 160.707 2.90426 156.503 4.21818C153.218 5.40071 150.984 8.42272 150.59 11.8389C150.459 12.4959 150.984 12.3645 151.378 12.3645C153.612 12.3645 156.109 12.3645 158.474 12.3645Z" fill="black"/>
<path id="Path_13" fill-rule="evenodd" clip-rule="evenodd" d="M136.4 6.58362C137.451 4.34996 139.291 2.51047 141.656 1.59073C142.707 1.06516 144.021 0.670991 145.203 0.802382C146.123 0.802382 147.043 1.45934 147.043 2.37908C147.174 3.43021 146.649 4.34996 145.598 4.61275C145.203 4.74414 144.678 4.74413 144.284 4.87553C140.079 5.79527 136.926 9.47424 136.663 13.8102C136.269 17.4891 136.532 21.1681 136.532 24.8471C136.663 25.8982 135.875 26.818 134.823 26.9493C134.561 26.9493 134.429 26.9494 134.166 26.818C133.247 26.6866 132.59 25.7668 132.721 24.8471V2.77326C132.721 1.45934 133.51 0.408203 134.561 0.408203C135.743 0.408203 136.532 1.19656 136.532 2.77326V6.18944C136.269 6.32084 136.4 6.32084 136.4 6.58362Z" fill="black"/>
<path id="Path_14" fill-rule="evenodd" clip-rule="evenodd" d="M177 3.82435C177 5.53244 175.555 6.97774 173.847 6.97774C172.139 6.97774 170.693 5.53244 170.693 3.82435C170.693 2.11625 172.007 0.670943 173.715 0.539551H173.847C175.555 0.539551 177 1.85346 177 3.56156V3.82435ZM173.847 1.19651C172.401 1.19651 171.35 2.24764 171.35 3.69295C171.35 5.13826 172.533 6.32078 173.847 6.32078C175.161 6.18939 176.343 5.13826 176.343 3.82435C176.343 2.37904 175.161 1.19651 173.847 1.19651Z" fill="black"/>
<path id="Path_15" fill-rule="evenodd" clip-rule="evenodd" d="M173.584 2.24763C175.161 2.24763 175.424 2.7732 174.898 4.08712C174.767 4.48129 174.898 4.48129 175.029 4.74408C175.161 5.00686 175.292 5.13825 175.029 5.40104C174.767 5.53243 174.635 5.40104 174.373 5.26965C174.241 5.13825 174.11 5.00686 173.978 4.87547C173.584 4.48129 173.321 4.2185 173.321 5.00686C173.321 5.26964 173.19 5.53242 172.927 5.53242C172.664 5.53242 172.664 5.13825 172.533 4.87547V3.56155C172.533 2.51041 172.664 1.98485 173.584 2.24763ZM174.373 3.16738C174.241 2.7732 173.978 2.7732 173.716 2.7732C173.453 2.7732 173.321 2.9046 173.321 3.16738C173.321 3.43016 173.453 3.56155 173.847 3.56155C174.11 3.69294 174.373 3.56155 174.373 3.16738Z" fill="black"/>
<path id="Path_16" fill-rule="evenodd" clip-rule="evenodd" d="M174.373 3.16737C174.373 3.43016 174.11 3.69293 173.716 3.56154C173.321 3.56154 173.19 3.43016 173.19 3.16737C173.19 2.90459 173.321 2.77319 173.584 2.77319C174.11 2.77319 174.373 2.90459 174.373 3.16737Z" fill="black"/>
</g>
</svg>
