<svg width="210" height="84" viewBox="0 0 210 84" fill="none" xmlns="http://www.w3.org/2000/svg">
<g id="Cisco_Logo_White 1">
<g id="Cisco_Logo">
<path id="path10" d="M104.3 50.426C103 50.126 101.6 49.926 100.3 49.926C96.4999 49.926 94.1999 52.026 94.1999 55.026C94.1999 57.726 96.0999 59.126 98.3999 59.826C98.6999 59.926 98.9999 60.026 99.2999 60.126C100.3 60.426 101.1 60.926 101.1 61.726C101.1 62.626 100.2 63.226 98.0999 63.226C96.7999 63.226 95.4999 63.026 94.1999 62.626V66.426C95.6999 66.726 97.1999 66.826 98.6999 66.826C101.9 66.826 105.5 65.426 105.5 61.326C105.5 59.326 104.3 57.526 101.6 56.626L100.5 56.226C99.7999 56.026 98.5999 55.626 98.5999 54.626C98.5999 53.826 99.4999 53.326 101.2 53.326C102.3 53.326 103.4 53.526 104.4 53.826L104.3 50.426ZM139.2 58.326C139.2 60.726 137.3 62.626 134.9 62.526C132.5 62.526 130.6 60.626 130.7 58.226C130.7 55.926 132.6 54.026 135 54.026C137.3 54.026 139.2 55.926 139.3 58.226C139.2 58.226 139.2 58.326 139.2 58.326ZM135 49.826C130.3 49.926 126.6 53.826 126.7 58.426C126.8 63.126 130.7 66.826 135.3 66.726C139.9 66.626 143.6 62.826 143.6 58.226C143.6 53.626 139.9 49.826 135.3 49.726C135.2 49.826 135.1 49.826 135 49.826ZM88.6999 66.526H84.5999V50.126H88.6999" fill="white"/>
<path id="path12" d="M78.8999 50.426C77.6999 50.026 76.3999 49.826 75.0999 49.826C70.4999 49.626 66.5999 53.226 66.3999 57.826C66.3999 58.026 66.3999 58.126 66.3999 58.326C66.3999 63.626 70.4999 66.826 75.0999 66.826C76.3999 66.826 77.5999 66.626 78.8999 66.226V61.826C77.7999 62.426 76.5999 62.726 75.3999 62.726C72.9999 62.826 70.9999 60.926 70.8999 58.526C70.7999 56.126 72.6999 54.126 75.0999 54.026C75.1999 54.026 75.2999 54.026 75.3999 54.026C76.5999 54.026 77.7999 54.326 78.8999 54.926" fill="white"/>
<path id="use14" d="M122 50.426C120.8 50.026 119.5 49.826 118.2 49.826C113.6 49.626 109.7 53.226 109.5 57.826C109.5 58.026 109.5 58.126 109.5 58.326C109.5 63.626 113.6 66.826 118.2 66.826C119.5 66.826 120.7 66.626 122 66.226V61.826C120.9 62.426 119.7 62.726 118.5 62.726C116.1 62.826 114.1 60.926 114 58.526C113.9 56.126 115.8 54.126 118.2 54.026C118.3 54.026 118.4 54.026 118.5 54.026C119.7 54.026 120.9 54.326 122 54.926" fill="white"/>
<g id="g22">
<path id="path16" d="M84.4999 19.2C84.4999 18.1 83.5999 17.2 82.4999 17.2C81.3999 17.2 80.3999 18.1 80.3999 19.2V41C80.3999 42.1 81.2999 43 82.4999 43C83.5999 43 84.4999 42.1 84.4999 41V19.2ZM73.2999 26.9C73.2999 25.8 72.3999 24.8 71.2999 24.8C70.1999 24.8 69.1999 25.7 69.1999 26.9V36.8C69.1999 37.9 70.0999 38.9 71.2999 38.9C72.3999 38.9 73.2999 38 73.2999 36.8V26.9ZM61.9999 32.6C61.9999 31.5 61.0999 30.6 59.8999 30.6C58.7999 30.6 57.8999 31.5 57.8999 32.6V36.9C57.8999 38 58.7999 38.9 59.9999 38.9C61.0999 38.9 61.9999 38 61.9999 36.9" fill="white"/>
<path id="use18" d="M80.3999 19.2C80.3999 18.1 81.2999 17.1 82.4999 17.1C83.6999 17.1 84.5999 18 84.5999 19.2V41C84.5999 42.1 83.6999 43 82.4999 43C81.2999 43 80.3999 42.1 80.3999 41V19.2ZM91.6999 26.9C91.6999 25.8 92.5999 24.9 93.7999 24.9C94.9999 24.9 95.8999 25.8 95.8999 26.9V36.8C95.8999 37.9 94.9999 38.8 93.7999 38.8C92.5999 38.8 91.6999 37.9 91.6999 36.8V26.9ZM103 32.6C103 31.5 103.9 30.6 105.1 30.6C106.2 30.6 107.1 31.5 107.1 32.6V36.9C107.1 38 106.2 38.9 105 38.9C103.9 38.9 103 38 103 36.9" fill="white"/>
</g>
<g id="use20">
<path id="path16-2" d="M125.458 19.217C125.458 18.117 126.358 17.117 127.458 17.117C128.558 17.117 129.558 18.017 129.558 19.217V40.917C129.558 42.017 128.658 43.017 127.458 43.017C126.358 43.017 125.458 42.117 125.458 40.917V19.217ZM136.758 26.917C136.758 25.817 137.658 24.917 138.758 24.917C139.858 24.917 140.758 25.817 140.758 26.917V36.817C140.758 37.917 139.858 38.917 138.758 38.917C137.658 38.917 136.758 38.017 136.758 36.817V26.917ZM147.958 32.617C147.958 31.517 148.858 30.617 150.058 30.617C151.158 30.617 152.058 31.517 152.058 32.617V36.917C152.058 38.017 151.158 38.917 149.958 38.917C148.858 38.917 147.958 38.017 147.958 36.917" fill="white"/>
<path id="use18-2" d="M129.558 19.217C129.558 18.117 128.658 17.217 127.558 17.217C126.458 17.217 125.458 18.117 125.458 19.217V40.917C125.458 42.017 126.358 43.017 127.558 43.017C128.758 43.017 129.558 42.117 129.558 40.917V19.217ZM118.258 26.917C118.258 25.817 117.358 24.817 116.258 24.817C115.158 24.917 114.158 25.817 114.158 26.917V36.817C114.158 37.917 115.058 38.817 116.258 38.817C117.358 38.817 118.258 37.917 118.258 36.817V26.917ZM107.058 32.617C107.058 31.517 106.158 30.617 104.958 30.617C103.858 30.617 102.958 31.517 102.958 32.617V36.917C102.958 38.017 103.858 38.917 105.058 38.917C106.158 38.917 107.058 38.017 107.058 36.917" fill="white"/>
</g>
</g>
</g>
</svg>
