<svg width="96" height="50" viewBox="0 0 96 50" fill="none" xmlns="http://www.w3.org/2000/svg">
<path d="M47.2999 33.426C45.9999 33.126 44.5999 32.926 43.2999 32.926C39.4999 32.926 37.1999 35.026 37.1999 38.026C37.1999 40.726 39.0999 42.126 41.3999 42.826C41.6999 42.926 41.9999 43.026 42.2999 43.126C43.2999 43.426 44.0999 43.926 44.0999 44.726C44.0999 45.626 43.1999 46.226 41.0999 46.226C39.7999 46.226 38.4999 46.026 37.1999 45.626V49.426C38.6999 49.726 40.1999 49.826 41.6999 49.826C44.8999 49.826 48.4999 48.426 48.4999 44.326C48.4999 42.326 47.2999 40.526 44.5999 39.626L43.4999 39.226C42.7999 39.026 41.5999 38.626 41.5999 37.626C41.5999 36.826 42.4999 36.326 44.1999 36.326C45.2999 36.326 46.3999 36.526 47.3999 36.826L47.2999 33.426ZM82.1999 41.326C82.1999 43.726 80.2999 45.626 77.8998 45.526C75.4998 45.526 73.5999 43.626 73.6999 41.226C73.6999 38.926 75.5999 37.026 77.9999 37.026C80.2999 37.026 82.1999 38.926 82.2999 41.226C82.1999 41.226 82.1999 41.326 82.1999 41.326ZM77.9999 32.826C73.2999 32.926 69.5999 36.826 69.6999 41.426C69.7999 46.126 73.6999 49.826 78.2999 49.726C82.8999 49.626 86.5999 45.826 86.5999 41.226C86.5999 36.626 82.8999 32.826 78.2999 32.726C78.1999 32.826 78.0999 32.826 77.9999 32.826ZM31.6999 49.526H27.5999V33.126H31.6999" fill="white"/>
<path d="M21.8999 33.426C20.6999 33.026 19.3999 32.826 18.0999 32.826C13.4999 32.626 9.5999 36.226 9.3999 40.826C9.3999 41.026 9.3999 41.126 9.3999 41.326C9.3999 46.626 13.4999 49.826 18.0999 49.826C19.3999 49.826 20.5999 49.626 21.8999 49.226V44.826C20.7999 45.426 19.5999 45.726 18.3999 45.726C15.9999 45.826 13.9999 43.926 13.8999 41.526C13.7999 39.126 15.6999 37.126 18.0999 37.026C18.1999 37.026 18.2999 37.026 18.3999 37.026C19.5999 37.026 20.7999 37.326 21.8999 37.926" fill="white"/>
<path d="M65 33.426C63.8 33.026 62.5 32.826 61.2 32.826C56.6 32.626 52.7 36.226 52.5 40.826C52.5 41.026 52.5 41.126 52.5 41.326C52.5 46.626 56.6 49.826 61.2 49.826C62.5 49.826 63.7 49.626 65 49.226V44.826C63.9 45.426 62.7 45.726 61.5 45.726C59.1 45.826 57.1 43.926 57 41.526C56.9 39.126 58.8 37.126 61.2 37.026C61.3 37.026 61.4 37.026 61.5 37.026C62.7 37.026 63.9 37.326 65 37.926" fill="white"/>
<path d="M27.4999 2.20001C27.4999 1.10001 26.5999 0.200012 25.4999 0.200012C24.3999 0.200012 23.3999 1.10001 23.3999 2.20001V24C23.3999 25.1 24.2999 26 25.4999 26C26.5999 26 27.4999 25.1 27.4999 24V2.20001ZM16.2999 9.90001C16.2999 8.80001 15.3999 7.80001 14.2999 7.80001C13.1999 7.80001 12.1999 8.70001 12.1999 9.90001V19.8C12.1999 20.9 13.0999 21.9 14.2999 21.9C15.3999 21.9 16.2999 21 16.2999 19.8V9.90001ZM4.9999 15.6C4.9999 14.5 4.0999 13.6 2.8999 13.6C1.7999 13.6 0.899902 14.5 0.899902 15.6V19.9C0.899902 21 1.7999 21.9 2.9999 21.9C4.0999 21.9 4.9999 21 4.9999 19.9" fill="white"/>
<path d="M23.3999 2.20001C23.3999 1.10001 24.2999 0.100006 25.4999 0.100006C26.6999 0.100006 27.5999 1.00001 27.5999 2.20001V24C27.5999 25.1 26.6999 26 25.4999 26C24.2999 26 23.3999 25.1 23.3999 24V2.20001ZM34.6999 9.90001C34.6999 8.8 35.5999 7.90001 36.7999 7.90001C37.9999 7.90001 38.8999 8.8 38.8999 9.90001V19.8C38.8999 20.9 37.9999 21.8 36.7999 21.8C35.5999 21.8 34.6999 20.9 34.6999 19.8V9.90001ZM45.9999 15.6C45.9999 14.5 46.8999 13.6 48.0999 13.6C49.1999 13.6 50.0999 14.5 50.0999 15.6V19.9C50.0999 21 49.1999 21.9 47.9999 21.9C46.8999 21.9 45.9999 21 45.9999 19.9" fill="white"/>
<path d="M68.4579 2.217C68.4579 1.117 69.3579 0.116997 70.4579 0.116997C71.5579 0.116997 72.5579 1.017 72.5579 2.217V23.917C72.5579 25.017 71.6579 26.017 70.4579 26.017C69.3579 26.017 68.4579 25.117 68.4579 23.917V2.217ZM79.7579 9.917C79.7579 8.817 80.6579 7.917 81.7579 7.917C82.8579 7.917 83.7579 8.817 83.7579 9.917V19.817C83.7579 20.917 82.8579 21.917 81.7579 21.917C80.6579 21.917 79.7579 21.017 79.7579 19.817V9.917ZM90.9579 15.617C90.9579 14.517 91.8579 13.617 93.0579 13.617C94.1579 13.617 95.0579 14.517 95.0579 15.617V19.917C95.0579 21.017 94.1579 21.917 92.9579 21.917C91.8579 21.917 90.9579 21.017 90.9579 19.917" fill="white"/>
<path d="M72.5579 2.217C72.5579 1.117 71.6579 0.216997 70.5579 0.216997C69.4579 0.216997 68.4579 1.117 68.4579 2.217V23.917C68.4579 25.017 69.3579 26.017 70.5579 26.017C71.7579 26.017 72.5579 25.117 72.5579 23.917V2.217ZM61.2579 9.917C61.2579 8.817 60.3579 7.817 59.2579 7.817C58.1579 7.917 57.1579 8.817 57.1579 9.917V19.817C57.1579 20.917 58.0579 21.817 59.2579 21.817C60.3579 21.817 61.2579 20.917 61.2579 19.817V9.917ZM50.0579 15.617C50.0579 14.517 49.1579 13.617 47.9579 13.617C46.8579 13.617 45.9579 14.517 45.9579 15.617V19.917C45.9579 21.017 46.8579 21.917 48.0579 21.917C49.1579 21.917 50.0579 21.017 50.0579 19.917" fill="white"/>
</svg>
