<?xml version="1.0" encoding="utf-8"?>
<!-- Generator: Adobe Illustrator 27.9.0, SVG Export Plug-In . SVG Version: 6.00 Build 0)  -->
<svg version="1.1" id="Layer_1" xmlns="http://www.w3.org/2000/svg" xmlns:xlink="http://www.w3.org/1999/xlink" x="0px" y="0px"
	 viewBox="0 0 341.2 115" style="enable-background:new 0 0 341.2 115;" xml:space="preserve">
<style type="text/css">
	.st0{opacity:0.2;enable-background:new    ;}
	.st1{fill:#FFFFFF;}
	.st2{fill:#FA198C;}
</style>
<g id="Layer_2_00000078024980436433855080000011401233221490853049_">
	<path class="st0" d="M2.3,2.5v110h336.8V2.5H2.3z"/>
</g>
<g>
	<path class="st1" d="M243.1,68.5c-2.9,1.4-5.4,2.6-12.1,3.8l-7.2,1.5c-3.7,1-6.4,1.5-8.1,3.8c-1.6,2.1-2.2,4.3-2.2,6.5
		c0,3,0.9,5.3,2.8,7.1c1.9,1.6,4.6,2.4,8.1,2.4c8.9,0,11.8-1.2,15.5-4.7c3.3-3.2,3.2-7.5,3.2-13V68.5z"/>
	<path class="st1" d="M0.2,0v115h341V0H0.2z M76.2,95.6c-9.4,10-18.7,14.1-32.3,14.1c-23.1,0-40.5-17.5-40.5-40.6v-0.2
		c0-23.3,17.7-40.8,41.2-40.8c12.9,0,22.5,3.8,31.1,12.2l-7.4,8.5c-2.3,2.7-6.4,3.3-9.3,1.3c-4.7-3.2-9.4-4.7-14.5-4.7
		c-12.4,0-21.7,10-21.7,23.4V69c0,13.4,9.3,23.6,21.7,23.6c6.3,0,10.9-1.8,15.3-5.1c2.8-2,6.5-1.9,9,0.4l7.9,7.3L76.2,95.6z
		 M104.6,109.7H83.1V4.9h11.5c2.8,0,5.1,0.9,7.1,2.8c2,1.9,3,4.2,3,7L104.6,109.7L104.6,109.7z M188.4,70.9c0,1-0.3,3.4-0.3,3.4
		h-53.8c0.2,6.1,1.8,10.7,4.7,13.6c2.7,3.2,6.7,4.7,12.1,4.7c6.9,0,10.8-2.2,13-4.3c2.6-2.6,6.1-4.3,9.8-4.3h13.3
		c-2.3,8.3-6.6,14.6-13.1,18.9c-6.4,4.5-14.5,6.8-24.3,6.8c-11.8,0-21.1-3.6-27.7-10.9c-6.6-7.1-10-17.3-10-30.5
		c0-12.6,3.2-22.5,9.6-29.6c6.6-7.3,15.9-10.9,27.7-10.9c12.5,0,22.1,3.5,28.9,10.7c6.6,7.3,10,19,10,32v0.4
		C188.3,70.9,188.4,70.9,188.4,70.9z M263.3,78.6c0,7.9-1.3,14.2-4.5,18.5c-2.7,3.5-4.5,5-8.9,7.8c-3.9,2-9.4,3.7-14.3,4.4
		c-2.6,0.4-8.2,0.5-14.3,0.3c-7.5-0.3-14-1.9-19.6-5.8c-5.6-3.8-8.4-10.2-8.4-19.1c0-8.3,2.5-14.2,7.6-17.7
		c5.1-3.6,11.6-5.9,19.5-7.1c0,0,6.8-1,8.7-1.2c9.1-1.2,13.7-3.7,13.7-7.7c0-3-1.6-4.9-4.8-5.8s-6.2-1.3-8.9-1.3
		c-2.9,0-5.5,0.4-7.8,1.2c-2.3,0.8-3.9,2.3-5,4.4h-20.9c0.8-6.1,3.7-11.1,8.7-15.1c5.6-4.5,13.6-6.8,24-6.8
		c11.6,0,20.3,1.9,26.1,5.6c6,3.9,9,9.5,9,16.6L263.3,78.6L263.3,78.6z M317.6,49.2h-7.2c-6,0-10.5,1.4-13.4,4.1
		c-2.9,2.8-4.4,7.1-4.4,13v33.2c0,5.6-4.8,10.1-10.7,10.1h-11.1v-41c0-7.7,1.2-14.1,3.6-19.4c2.4-5.2,5.6-9.4,9.8-12.6
		c3.9-3,8.6-5.1,13.9-6.5s10.7-2.1,16.3-2.1h3.1v21.2L317.6,49.2L317.6,49.2z"/>
	<path class="st1" d="M150.1,44.9c-4.6,0-8.3,1.4-11.2,4.1c-2.9,2.8-4.5,6.7-4.7,11.8h31.7c-0.4-5.3-1.9-9.3-4.4-11.8
		C158.9,46.3,155.1,44.9,150.1,44.9z"/>
</g>
<g>
	<path class="st2" d="M321.6,77.5c-9,0-16,7-16,16c0,9.1,7,16.3,16,16.3c9.1,0,16.3-7.1,16.3-16.3C337.9,84.5,330.8,77.5,321.6,77.5
		z M329.7,93.5c0,4.6-3.4,8-8,8c-4.4,0-7.8-3.5-7.8-8c0-4.3,3.4-7.8,7.8-7.8S329.7,89.1,329.7,93.5z"/>
</g>
</svg>
