<svg width="210" height="84" viewBox="0 0 210 84" fill="none" xmlns="http://www.w3.org/2000/svg">
<path d="M40.5 23.674C44.3 25.374 48 27.174 51.8 28.874C51.8 30.574 51.8 32.274 51.8 33.974C49.6 32.974 47.4 31.974 45.2 30.874C45.2 34.374 45.2 37.874 45.2 41.474C47.4 42.474 49.6 43.474 51.8 44.574C51.8 46.274 51.7 47.974 51.8 49.674C48 47.974 44.3 46.174 40.5 44.474C40.5 37.574 40.5 30.674 40.5 23.674Z" fill="white"/>
<path d="M62.9999 23.674C63.0999 30.574 63.0999 37.574 63.0999 44.474C59.2999 46.174 55.6 47.974 51.9 49.674C51.8 47.974 51.8 46.274 51.9 44.574C54.1 43.574 56.2999 42.474 58.5999 41.474C58.5999 37.974 58.5999 34.374 58.5999 30.874C56.3999 31.874 54.2 32.974 51.9 33.974C51.9 32.274 51.9 30.574 51.9 28.874C55.5 27.174 59.2999 25.474 62.9999 23.674Z" fill="white"/>
<path d="M71.8101 23.64C74.8101 25.84 77.8101 28.14 80.8101 30.44C83.8101 28.14 86.8101 25.94 89.8101 23.64C89.8101 30.64 89.8101 37.54 89.8101 44.54C88.3101 44.54 86.7101 44.54 85.2101 44.54C85.2101 40.54 85.2101 36.64 85.2101 32.64C83.7101 33.74 82.3101 34.84 80.8101 35.94C79.3101 34.84 77.9101 33.74 76.4101 32.64C76.4101 36.64 76.4101 40.54 76.4101 44.54C74.9101 44.54 73.3101 44.54 71.8101 44.54C71.8101 37.54 71.8101 30.64 71.8101 23.64Z" fill="white"/>
<path d="M113.307 23.821C114.707 23.821 116.207 23.821 117.607 23.821C120.507 30.721 123.307 37.621 126.207 44.621C124.607 44.621 123.007 44.621 121.407 44.621C120.907 43.421 120.507 42.221 120.007 41.121C117.607 41.121 115.207 41.121 112.807 41.121C112.307 42.321 111.907 43.421 111.407 44.621C109.807 44.621 108.207 44.621 106.607 44.621C109.207 38.621 111.907 32.621 114.507 26.621C114.107 25.621 113.707 24.721 113.307 23.821ZM116.407 32.021C115.807 33.621 115.107 35.221 114.507 36.821C115.807 36.821 117.107 36.821 118.407 36.821C117.707 35.221 117.007 33.621 116.407 32.021Z" fill="white"/>
<path d="M131.91 24.14C133.71 23.64 135.61 23.74 137.31 24.44C136.71 25.74 136.11 27.04 135.61 28.24C134.81 27.94 133.81 27.54 133.01 28.14C132.11 28.94 132.51 30.24 132.41 31.34H135.11C135.11 32.64 135.11 33.94 135.11 35.24C134.21 35.24 133.31 35.24 132.41 35.24C132.41 38.34 132.41 41.44 132.41 44.54C131.01 44.54 129.61 44.54 128.21 44.54C128.21 41.44 128.21 38.34 128.21 35.24C127.61 35.24 127.01 35.24 126.31 35.24V31.34C126.91 31.34 127.51 31.34 128.21 31.34C128.11 29.94 128.21 28.64 128.61 27.24C129.21 25.74 130.41 24.64 131.91 24.14Z" fill="white"/>
<path d="M96.3099 29.54C98.5099 28.64 101.01 28.64 103.21 29.64C104.61 30.44 105.91 31.54 106.71 32.94C105.51 33.64 104.41 34.34 103.21 35.04C102.61 33.74 101.21 32.84 99.8099 32.74C97.6099 32.74 95.8099 34.54 95.8099 36.74C95.8099 38.94 97.6099 40.74 99.8099 40.74C101.31 40.64 102.61 39.84 103.21 38.44C104.41 39.14 105.51 39.84 106.71 40.54C105.91 41.94 104.71 43.04 103.31 43.74C100.31 45.14 96.8099 44.74 94.2099 42.54C92.2099 40.74 91.2099 38.14 91.7099 35.44C92.1099 32.84 93.9099 30.54 96.3099 29.54Z" fill="white"/>
<path d="M138.006 31.98C140.706 28.58 145.606 27.98 149.106 30.48C151.606 32.18 152.506 35.38 152.306 38.28C148.506 38.28 144.606 38.28 140.806 38.28C141.506 40.18 143.406 41.18 145.306 40.88C146.206 40.68 147.006 40.28 147.606 39.58C148.706 40.18 149.906 40.78 151.006 41.48C149.806 42.88 148.306 43.78 146.606 44.28C143.406 45.18 140.006 44.08 137.906 41.38C135.906 38.58 135.906 34.78 138.006 31.98ZM140.906 34.78C143.106 34.78 145.306 34.78 147.606 34.78C147.006 33.48 145.806 32.58 144.406 32.58C142.806 32.48 141.506 33.38 140.906 34.78Z" fill="white"/>
<path d="M154.785 32.581C156.985 29.281 161.185 28.081 164.785 29.681C166.785 30.581 168.285 32.281 168.985 34.381C169.385 35.681 169.485 36.981 169.385 38.281C165.585 38.281 161.685 38.281 157.885 38.281C158.485 40.081 160.285 41.081 162.185 40.881C163.185 40.681 164.085 40.281 164.785 39.581C165.885 40.181 167.085 40.781 168.185 41.481C166.785 43.181 164.785 44.281 162.685 44.581C159.985 44.981 157.285 43.981 155.385 41.881C153.285 39.181 152.985 35.481 154.785 32.581ZM158.085 34.781C160.285 34.781 162.485 34.781 164.785 34.781C164.185 33.381 162.785 32.481 161.285 32.581C159.785 32.581 158.585 33.481 158.085 34.781Z" fill="white"/>
<path d="M71.772 49.639C72.272 49.639 72.772 49.639 73.272 49.639C73.272 50.639 73.272 51.639 73.272 52.639C74.172 51.639 75.772 51.539 76.772 52.539C76.872 52.639 76.972 52.739 77.072 52.839C77.972 54.239 77.872 56.039 76.872 57.339C75.872 58.339 74.272 58.339 73.272 57.339L73.172 57.239C73.172 57.439 73.172 57.739 73.172 57.939H71.772C71.772 55.139 71.772 52.339 71.772 49.639ZM74.072 53.239C72.772 54.039 72.972 56.739 74.772 56.739C76.072 56.739 76.472 55.039 76.072 54.039C75.872 53.339 75.072 52.839 74.272 53.139C74.272 53.139 74.172 53.239 74.072 53.239Z" fill="white"/>
<path d="M87.8101 49.54H89.3101V57.84C88.8101 57.84 88.3101 57.84 87.8101 57.84V49.54Z" fill="white"/>
<path d="M108.11 49.54C108.61 49.54 109.11 49.54 109.61 49.54C109.61 51.74 109.61 53.84 109.61 56.04C109.61 56.44 110.11 56.54 110.41 56.64C110.41 57.04 110.41 57.44 110.41 57.94C109.81 57.84 109.11 57.94 108.61 57.54C108.21 57.04 108.01 56.44 108.11 55.84C108.11 53.84 108.11 51.74 108.11 49.54Z" fill="white"/>
<path d="M98.11 50.34H99.61C99.61 50.94 99.61 51.44 99.61 52.04C100.01 52.04 100.51 52.04 100.91 52.04C100.91 52.44 100.91 52.84 100.91 53.24C100.51 53.24 100.01 53.24 99.61 53.24C99.51 54.24 99.61 55.14 99.71 56.14C99.91 56.64 100.61 56.64 101.01 56.74C101.01 57.14 101.01 57.64 101.01 58.04C100.01 58.04 98.71 57.94 98.21 56.84C98.01 55.64 97.91 54.54 98.01 53.34C97.81 53.34 97.41 53.34 97.21 53.34C97.21 52.94 97.21 52.54 97.21 52.14C97.51 52.14 97.71 52.14 98.01 52.14C98.11 51.44 98.11 50.84 98.11 50.34Z" fill="white"/>
<path d="M77.71 51.94C78.31 51.94 78.81 51.94 79.41 51.94C79.91 53.34 80.41 54.74 80.91 56.14C81.31 54.74 81.81 53.34 82.31 51.94C82.91 51.94 83.41 51.94 83.91 51.94C83.01 54.24 82.11 56.54 81.21 58.84C80.91 59.54 80.31 60.14 79.51 60.34H78.71C78.41 60.24 78.11 60.14 77.81 60.04C77.91 59.64 78.11 59.34 78.21 58.94C78.61 58.94 79.11 59.24 79.51 58.94C79.81 58.64 80.01 58.24 80.21 57.84C79.41 55.84 78.51 53.94 77.71 51.94Z" fill="white"/>
<path d="M90.9099 51.94C91.4099 51.94 91.9099 51.94 92.4099 51.94C92.4099 52.24 92.4099 52.64 92.3099 52.94C93.0099 51.94 94.3099 51.54 95.5099 52.04C96.2099 52.44 96.6099 53.14 96.5099 53.94C96.5099 55.24 96.5099 56.64 96.5099 57.94C96.0099 57.94 95.5099 57.94 95.0099 57.94C95.0099 56.54 95.1099 55.14 94.9099 53.84C94.5099 52.74 92.8099 53.34 92.5099 54.24C92.3099 55.44 92.2099 56.74 92.3099 58.04H90.9099C90.9099 55.94 90.9099 53.94 90.9099 51.94Z" fill="white"/>
<path d="M102.584 52.426C103.784 51.426 105.584 51.626 106.584 52.926C106.984 53.626 107.184 54.426 107.084 55.326C105.684 55.326 104.284 55.326 102.884 55.326C103.084 55.826 103.284 56.426 103.884 56.726C104.784 57.026 105.784 56.926 106.484 56.326C106.684 56.726 106.884 57.026 107.084 57.426C105.784 58.326 104.084 58.426 102.784 57.626C101.384 56.526 101.084 54.526 102.184 53.026C102.184 52.726 102.384 52.526 102.584 52.426ZM102.984 54.126C103.884 54.126 104.784 54.126 105.684 54.126C105.484 53.626 105.284 52.926 104.584 52.926C103.784 52.926 103.084 53.426 102.984 54.126Z" fill="white"/>
</svg>
