<svg width="210" height="84" viewBox="0 0 210 84" fill="none" xmlns="http://www.w3.org/2000/svg">
<path d="M79.4999 40.6C75.5999 40.6 75.2999 37.7 75.2999 36.8C75.1999 35 76.3999 33.5 78.0999 32.9C80.6999 32 81.1999 31.9 82.8999 31.3V30.8C82.8999 30.3 82.8999 29.7 82.6999 29.2C82.2999 28.1 81.1999 27.5 80.0999 27.6C78.8999 27.6 77.7999 28.3 77.1999 29.4L76.4999 29C76.8999 27.4 78.5999 25.8 81.3999 25.8C83.3999 25.8 84.6999 26.3 85.4999 27.6C85.9999 28.7 86.2999 30 86.1999 31.3C86.1999 32.5 86.0999 33.9 86.0999 35C86.0999 35.7 85.9999 36.4 85.9999 36.8C85.9999 37.8 86.1999 38.6 86.9999 38.6C87.3999 38.6 87.3999 38.5 87.6999 38.3L88.1999 38.8C87.5999 39.9 86.3999 40.5 85.1999 40.6C84.1999 40.7 83.2999 40.1 83.0999 39.1C82.1999 40 80.8999 40.6 79.4999 40.6ZM82.8999 33.1C81.7999 33.4 80.7999 33.8 79.7999 34.3C78.9999 34.7 78.4999 35.6 78.5999 36.5C78.4999 37.6 79.2999 38.5 80.2999 38.6C80.3999 38.6 80.5999 38.6 80.6999 38.6C81.4999 38.6 82.2999 38.4 82.9999 37.9L82.8999 33.1ZM50.9999 39.8C50.9999 38.4 50.9999 37.2 50.8999 35.7H51.6999C51.5999 36.4 51.8999 37.2 52.3999 37.7C53.2999 38.5 54.4999 38.9 55.6999 38.8C58.3999 38.8 59.6999 37.8 59.6999 35.6C59.6999 33.7 58.4999 32.9 56.8999 31.9L56.6999 31.7L54.9999 30.5C52.5999 28.9 51.4999 27.7 51.4999 25.2C51.4999 24 51.9999 19.9 57.8999 19.9C59.4999 19.9 60.9999 20 62.4999 20.3V22.2C62.4999 23.1 62.4999 23.4 62.5999 24.5H61.8999C61.8999 23.8 61.6999 23 61.1999 22.5C60.2999 21.9 59.0999 21.6 57.9999 21.6C54.7999 21.6 54.4999 23.3 54.4999 24.4C54.4999 26.1 55.3999 26.7 57.2999 27.9L59.3999 29.3C61.1999 30.5 62.8999 31.7 62.8999 34.7C62.8999 39.8 58.0999 40.4 56.0999 40.4C54.2999 40.5 52.5999 40.3 50.9999 39.8ZM89.4999 26.7C90.4999 26.8 91.3999 26.7 92.3999 26.5C93.0999 26.4 93.6999 26.2 94.2999 25.9L94.5999 26.1V27.3C95.7999 26.4 97.2999 25.9 98.7999 26C101.4 26 103 27.2 103.5 29.4C103.6 30.2 103.7 31.1 103.7 32V36.2C103.7 38.5 103.8 39.2 104.3 39.6C104.7 39.9 105.2 40 105.7 40V40.7C104.8 40.6 103.1 40.6 102.2 40.6C100.9 40.6 99.3999 40.7 98.6999 40.7V40C99.1999 40 99.6999 39.8 100.1 39.5C100.5 39.1 100.6 38.3 100.6 36.5C100.6 36 100.7 34.8 100.7 34.1C100.7 33 100.7 31.9 100.6 30.9C100.6 29.4 99.4999 28.2 97.9999 28.2C97.8999 28.2 97.6999 28.2 97.5999 28.2C96.6999 28.2 95.6999 28.4 94.8999 28.8V36.3C94.8999 38.6 94.9999 39.3 95.4999 39.7C95.8999 40 96.3999 40.1 96.7999 40.1V40.8C95.5999 40.7 94.1999 40.7 93.2999 40.7C91.3999 40.7 90.7999 40.8 89.6999 40.8V40.1C90.2999 40.1 90.7999 39.9 91.1999 39.5C91.5999 39 91.6999 37.8 91.6999 35.4V31.1C91.6999 29.3 91.5999 28.6 91.3999 28.2C91.1999 27.9 90.6999 27.6 89.6999 27.6L89.4999 26.7ZM107.1 39.8C107.7 39.8 108.2 39.6 108.6 39.2C109 38.7 109.1 37.5 109.1 35.1V28H107.3V27.2C108 27 108.6 26.6 109.1 26.2C109.1 24.9 109.2 23.7 109.3 22.4C109.9 19.5 111.8 18 115 18C116.3 18 117.6 18.4 118.6 19.2L118.7 19.5L117.3 21.5H116.9C116.6 20.4 115.5 19.6 114.4 19.7C113.9 19.7 113.4 19.9 113 20.2C112.4 20.8 112.3 21.7 112.3 23.6V26.2H115.5V28H112.3V35.9C112.3 37.8 112.4 38.7 112.6 39.1C113 39.7 114.3 39.8 114.9 39.7V40.4C113.9 40.3 112.2 40.3 111 40.3C109.2 40.3 108.1 40.4 107.1 40.4V39.8ZM123.5 40.7C119.2 40.7 116.6 38 116.6 33.5C116.6 30 118.5 25.9 123.8 25.9C128.1 25.9 130.7 28.6 130.7 33.1C130.7 36.6 128.8 40.7 123.5 40.7ZM123.7 27.5C123 27.5 122.2 27.7 121.7 28.2C120.5 29.2 120 30.9 120 33.4C120 34.4 120.2 39.1 123.7 39.1C124.4 39.2 125.1 38.9 125.7 38.5C126.9 37.5 127.4 35.8 127.4 33.3C127.4 32.2 127.2 27.5 123.7 27.5ZM132.1 26.7C133.1 26.7 134.2 26.7 135.2 26.5C135.8 26.4 136.4 26.3 136.9 26L137.1 26.1V27.3C138 26.5 139.2 26 140.4 26C141.3 26 142.2 26.3 142.9 26.9V27.2L141.7 29.4H141C140.5 28.5 139.6 28 138.6 28.1C138 28.1 137.5 28.2 137 28.5V35.8C137 37.7 137.1 38.6 137.3 38.9C137.7 39.5 138.9 39.6 139.6 39.5V40.3C138.6 40.2 136.9 40.2 135.7 40.2C134.4 40.2 133.1 40.2 131.8 40.3V39.6C132.4 39.6 132.9 39.4 133.3 39C133.7 38.5 133.8 37.3 133.8 34.9V30.9C133.8 29.1 133.8 28.4 133.5 28C133.3 27.7 132.8 27.5 131.8 27.4L132.1 26.7ZM152.2 18.9C153.3 18.8 154.5 18.7 155.6 18.5C156.1 18.4 156.6 18.3 157.1 18.1L157.3 18.2C157.2 19.4 157.2 22 157.2 23.9V35.5C157.1 36.5 157.2 37.6 157.4 38.6C157.8 39 158.4 39.2 159.1 39.1V39.8C158.1 39.8 157.1 39.9 156 40.1C155.5 40.2 154.9 40.3 154.4 40.5L154 40.4V39.2C152.9 40.1 151.5 40.6 150 40.5C146.1 40.5 143.6 37.8 143.6 33.6C143.6 32.3 143.8 31 144.3 29.7C145.5 27.1 148.2 25.5 151.1 25.7C152 25.7 153 25.8 153.9 26V23C153.9 21.2 153.9 20.3 153.6 19.9C153.4 19.6 153.1 19.5 152 19.4L152.2 18.9ZM151.7 38.6C152.5 38.7 153.3 38.5 154 38.1V28.6C153.2 27.9 152.2 27.6 151.2 27.6C148.4 27.6 147.1 29.5 147.1 33.4C147.1 35 147.6 38.6 151.7 38.6ZM73.8999 39C72.8999 40.1 71.4999 40.7 69.9999 40.7C67.7999 40.7 66.5999 39.9 65.9999 38.1C65.7999 37.2 65.7999 36.2 65.7999 35.2C65.7999 32.9 65.7999 31.1 65.8999 29V28H63.9999V27.4C64.5999 27.2 65.1999 26.8 65.7999 26.4C66.8999 25.5 67.7999 24.3 68.3999 23H68.9999V26.2H73.9999V28H69.1999V35.5C69.1999 37.8 69.5999 39 71.6999 39C72.3999 39 73.0999 38.8 73.6999 38.5L73.8999 39Z" fill="white"/>
<path d="M141.7 52.4C141.4 52.4 141.2 52.5 141 52.6C140.9 52.7 140.8 52.9 140.8 53C140.8 53.3 140.9 53.6 141 53.9L142.3 57.4C142.5 57.9 142.7 58.4 142.7 58.7L144.4 53.9C144.5 53.6 144.6 53.3 144.6 53C144.6 52.9 144.5 52.7 144.4 52.6C144.2 52.4 143.9 52.4 143.7 52.4V51.9C144 51.9 144.2 51.9 144.5 52C144.7 52 145.1 52.1 145.4 52.1C146 52.1 146.6 52.1 147.2 52V52.4C147 52.4 146.4 52.3 145.9 53.7L142.4 63C141.9 64.3 141.2 66 138.8 66C138 66.1 137.2 65.8 136.6 65.3V65L137.5 64H137.7C138 64.5 138.5 64.9 139.1 64.8C140.2 64.8 140.7 63.8 141.4 61.9L141.6 61.3L138.7 53.7C138.7 53.6 138.6 53.5 138.6 53.4C138.5 53.2 138.4 52.9 138.4 52.9C138.2 52.6 137.9 52.4 137.5 52.4V51.9C138.1 52 139 52 139.5 52C139.9 52 140.4 52 140.8 51.9C141.1 51.9 141.4 51.9 141.7 51.8V52.4ZM109.3 52.2C110 52.2 110.6 52.2 111.3 52C111.7 51.9 112 51.8 112.4 51.7L112.6 51.8V52.6C113.1 52 113.9 51.7 114.7 51.7C115.3 51.7 115.9 51.9 116.3 52.2V52.5L115.6 53.9H115.2C114.9 53.4 114.3 53 113.7 53.1C113.4 53.1 113 53.2 112.7 53.4V58C112.6 58.7 112.7 59.4 112.9 60C113.1 60.4 113.9 60.4 114.3 60.4V60.8C113.7 60.7 112.6 60.7 111.9 60.7C111.1 60.7 110.3 60.7 109.5 60.8V60.3C109.9 60.3 110.2 60.2 110.5 59.9C110.8 59.6 110.8 58.9 110.8 57.3V54.7C110.8 53.6 110.8 53.1 110.6 52.9C110.5 52.7 110.1 52.6 109.6 52.6L109.3 52.2ZM68.5999 61.1C65.9999 61.1 64.5999 60.3 63.9999 58.6C63.6999 57.7 63.5999 56.7 63.6999 55.8V50.9C63.6999 49.4 63.5999 49.2 63.2999 48.9C62.9999 48.7 62.7999 48.6 62.3999 48.6V48.1C62.9999 48.2 63.9999 48.2 64.6999 48.2C65.4999 48.2 66.2999 48.2 66.9999 48.1V48.6C66.5999 48.6 66.2999 48.7 65.9999 49C65.6999 49.3 65.6999 49.9 65.6999 51.4V55.7C65.6999 58.3 65.8999 59.9 68.7999 59.9C71.6999 59.9 71.8999 58.2 71.8999 55.6V50.8C71.8999 49.3 71.7999 49.1 71.4999 48.8C71.1999 48.6 70.8999 48.5 70.5999 48.5V48C71.1999 48 71.8999 48.1 72.5999 48.1C73.2999 48.1 73.9999 48.1 74.6999 48V48.5C74.2999 48.5 73.9999 48.6 73.6999 48.9C73.3999 49.2 73.3999 49.8 73.3999 51.3V55C73.4999 56.2 73.2999 57.4 72.9999 58.5C72.6999 60.3 71.0999 61.1 68.5999 61.1ZM85.9999 60.6C86.3999 60.6 86.6999 60.5 86.9999 60.2C87.2999 59.8 87.2999 59.1 87.2999 57.5V54.9C87.2999 53.8 87.2999 53.2 87.0999 53C86.9999 52.8 86.6999 52.7 86.0999 52.6V52.2C86.7999 52.2 87.4999 52.2 88.1999 52C88.4999 52 88.8999 51.8 89.1999 51.7L89.3999 51.9C89.2999 52.5 89.2999 53.8 89.2999 55.5V58.1C89.1999 58.8 89.2999 59.4 89.4999 60.1C89.7999 60.4 90.1999 60.6 90.5999 60.5V60.9C89.9999 60.8 89.0999 60.8 88.2999 60.8C87.4999 60.8 86.6999 60.8 85.8999 60.9C85.9999 61 85.9999 60.6 85.9999 60.6ZM88.2999 50.1C87.6999 50.2 87.1999 49.8 87.1999 49.2C87.1999 49.1 87.1999 49.1 87.1999 49C87.1999 48.4 87.6999 47.8 88.2999 47.8H88.3999C88.9999 47.7 89.4999 48.2 89.5999 48.8V48.9C89.5999 49.6 88.9999 50.1 88.2999 50.1ZM124.7 60.6C125.1 60.6 125.4 60.5 125.7 60.2C126 59.9 126 59.2 126 57.6V55C126 53.9 126 53.3 125.8 53.1C125.7 52.9 125.4 52.8 124.8 52.7V52.2C125.5 52.2 126.2 52.2 126.9 52C127.2 51.9 127.6 51.8 127.9 51.7L128.1 51.9C128 52.5 128 53.8 128 55.5V58.2C127.9 58.9 128 59.5 128.2 60.2C128.5 60.5 128.9 60.7 129.3 60.6V61C128.7 60.9 127.8 60.9 127 60.9C126.2 60.9 125.4 60.9 124.6 61L124.7 60.6ZM126.9 50.1C126.3 50.2 125.8 49.8 125.7 49.2C125.7 49.1 125.7 49.1 125.7 49C125.7 48.4 126.2 47.8 126.8 47.8H126.9C127.5 47.7 128 48.1 128.1 48.7C128.1 48.8 128.1 48.8 128.1 48.9C128.1 49.5 127.6 50.1 127 50.1C127 50.1 127 50.1 126.9 50.1ZM117.3 60.6C117.3 59.8 117.3 59 117.2 58.2H117.8C117.8 58.6 117.9 59 118.2 59.4C118.6 59.9 119.2 60.1 119.8 60H119.9C120.9 60 121.4 59.6 121.4 58.7C121.4 58 121 57.7 120.2 57.3L118.9 56.5C118 56.1 117.4 55.2 117.4 54.2C117.3 53.3 117.8 52.4 118.7 51.9C119.3 51.7 119.9 51.6 120.5 51.6C121.3 51.6 122.1 51.7 122.9 51.8C122.9 52.2 122.8 52.5 122.8 52.9C122.8 53.3 122.8 53.7 122.9 54.1H122.3C122.3 53.7 122.2 53.4 121.9 53.1C121.5 52.7 121 52.6 120.5 52.6C119.6 52.6 119.1 53 119.1 53.8C119.1 54.4 119.6 54.7 120 55H120.1L121.3 55.7C122.3 56.1 123.1 57.1 123.1 58.2C123.1 60.6 120.9 61 119.6 61C118.9 61 118.1 60.9 117.3 60.6ZM136.5 60.1C135.9 60.8 135 61.2 134.1 61.1C132.7 61.1 131.9 60.6 131.6 59.4C131.5 58.8 131.5 58.2 131.5 57.6C131.5 56.1 131.5 55 131.6 53.6V53H130.4V52.6C130.8 52.4 131.2 52.2 131.6 52C132.3 51.4 132.9 50.6 133.3 49.8H133.7V51.8H136.8V52.9H133.7V57.7C133.7 59.1 133.9 60 135.3 60C135.8 60 136.2 59.9 136.6 59.6L136.5 60.1ZM95.0999 51.9C94.7999 51.9 94.4999 51.9 94.1999 52C93.6999 52 93.1999 52.1 92.8999 52.1C92.1999 52.1 91.5999 52.1 90.8999 52V52.5C91.2999 52.5 91.6999 52.7 91.7999 53C91.8999 53.2 91.9999 53.4 91.9999 53.5C92.0999 53.6 92.0999 53.7 92.0999 53.8L94.9999 61.1L95.8999 61L99.0999 53.8C99.0999 53.7 99.1999 53.7 99.1999 53.6C99.2999 53.4 99.3999 53.2 99.4999 53.1C99.6999 52.8 99.9999 52.6 100.4 52.6V52.1C99.9999 52.1 99.1999 52.2 98.5999 52.2C98.2999 52.2 97.9999 52.2 97.6999 52.1C97.4999 52.1 97.0999 52 96.7999 52V52.4C97.0999 52.4 97.2999 52.5 97.4999 52.6C97.5999 52.7 97.6999 52.8 97.6999 53C97.6999 53.3 97.5999 53.6 97.4999 53.9L95.9999 58.2C95.8999 57.8 95.7999 57.5 95.5999 57.1L94.3999 53.9C94.2999 53.6 94.1999 53.3 94.1999 53C94.1999 52.9 94.1999 52.8 94.2999 52.7C94.4999 52.5 94.7999 52.4 95.0999 52.4V51.9ZM75.1999 52.2C75.7999 52.2 76.3999 52.2 76.9999 52.1C77.3999 52 77.7999 51.9 78.1999 51.7L78.3999 51.8V52.5C79.1999 52 80.0999 51.7 80.9999 51.6C82.3999 51.4 83.6999 52.3 83.9999 53.7C84.0999 54.2 84.0999 54.8 84.0999 55.4V58C84.0999 59.5 84.1999 59.9 84.3999 60.2C84.6999 60.4 84.9999 60.5 85.2999 60.4V60.8C84.6999 60.7 83.5999 60.7 82.9999 60.7C82.1999 60.7 81.4999 60.7 80.6999 60.8V60.4C80.9999 60.4 81.3999 60.2 81.5999 60C81.7999 59.8 81.8999 59.2 81.9999 58.1V56.5C81.9999 55.8 81.9999 55.1 81.8999 54.4C81.8999 53.5 81.1999 52.6 80.1999 52.6C80.0999 52.6 79.9999 52.6 79.8999 52.6C79.2999 52.6 78.6999 52.7 78.1999 53V57.8C78.1999 59.3 78.2999 59.7 78.5999 60C78.8999 60.2 79.1999 60.3 79.4999 60.2V60.6C78.7999 60.5 77.7999 60.5 77.1999 60.5C76.3999 60.5 75.6999 60.5 74.8999 60.6V60.2C75.2999 60.2 75.5999 60.1 75.8999 59.8C76.1999 59.5 76.1999 58.7 76.1999 57.2V54.6C76.1999 53.5 76.1999 53 75.9999 52.8C75.8999 52.6 75.5999 52.5 74.9999 52.5L75.1999 52.2ZM104.9 61C102.1 61 100.7 59.4 100.7 56.5C100.7 56 100.8 51.5 105 51.5C106.1 51.4 107.2 51.9 107.8 52.8C108.2 53.5 108.5 54.4 108.4 55.2V55.7H102.7C102.7 56.1 102.7 56.5 102.8 56.9C102.9 58.4 104.2 59.6 105.7 59.5H105.8C106.6 59.5 107.3 59.4 107.9 59L108.1 59.4C107.4 60.6 106.2 61.1 104.9 61ZM102.7 55H106.2C106.2 53.9 106 52.7 104.4 52.7C103 52.7 102.7 54.1 102.7 55Z" fill="white"/>
</svg>
