<svg width="210" height="84" viewBox="0 0 210 84" fill="none" xmlns="http://www.w3.org/2000/svg">
<path d="M77.7771 48.477C76.8771 48.477 76.2771 47.677 76.2771 46.677V39.477H79.5771V35.777H76.2771V31.377H71.9771V35.777H69.2771V39.477H71.9771V47.877C71.9771 50.777 73.5771 52.377 76.4771 52.377C77.7771 52.477 78.9771 52.077 79.9771 51.277L79.1771 47.977C78.8771 48.377 78.3771 48.577 77.7771 48.477Z" fill="white"/>
<path d="M88.9771 35.377C84.4771 35.277 80.6771 38.977 80.5771 43.477V43.777C80.5771 48.977 84.2772 52.277 89.1772 52.277C91.5772 52.377 93.9772 51.577 95.8772 49.977L93.8772 47.277C92.6772 48.277 91.1771 48.777 89.5771 48.877C87.3771 49.077 85.2772 47.477 84.8772 45.277H96.8772V44.277C97.0772 38.977 93.7772 35.377 88.9771 35.377ZM84.9771 42.277C85.2772 40.077 87.2772 38.577 89.4771 38.877C91.2772 39.077 92.6772 40.477 92.8772 42.277H84.9771Z" fill="white"/>
<path d="M108.477 35.377C106.377 35.377 104.277 36.277 102.777 37.877V35.777H98.4771V51.877H102.777V40.977C103.677 39.777 104.977 39.177 106.477 39.077C108.277 39.077 109.477 39.877 109.477 42.077V51.877H113.777V40.577C113.777 37.377 112.077 35.377 108.477 35.377Z" fill="white"/>
<path d="M123.077 35.377C120.477 35.277 117.977 36.177 115.977 37.877L117.677 40.877C118.977 39.677 120.577 38.977 122.377 38.977C124.477 38.977 125.877 40.077 125.877 41.677V43.777C124.577 42.377 122.677 41.677 120.777 41.777C118.177 41.777 115.177 43.177 115.177 46.977C115.177 49.877 117.577 52.277 120.477 52.277C120.577 52.277 120.677 52.277 120.677 52.277C122.577 52.377 124.477 51.577 125.777 50.177V51.877H130.077V41.477C130.177 36.877 126.777 35.377 123.077 35.377ZM125.877 48.077C124.977 48.977 123.777 49.577 122.477 49.477C120.777 49.477 119.377 48.577 119.377 47.077C119.377 45.577 120.777 44.577 122.477 44.577C123.777 44.477 124.977 45.077 125.877 46.077V48.077Z" fill="white"/>
<path d="M141.177 35.377C139.177 35.377 137.377 36.277 136.177 37.877V29.677H131.877V51.977H136.177V49.877C137.377 51.377 139.177 52.377 141.177 52.377C145.277 52.377 148.277 49.277 148.277 43.877C148.277 38.577 145.277 35.377 141.177 35.377ZM139.877 48.477C138.477 48.477 137.077 47.777 136.177 46.677V40.977C137.077 39.877 138.377 39.177 139.877 39.077C142.377 39.077 143.977 40.977 143.977 43.777C143.977 46.677 142.377 48.477 139.877 48.477Z" fill="white"/>
<path d="M154.077 29.677H149.777V51.977H154.077V29.677Z" fill="white"/>
<path d="M163.977 35.377C159.477 35.277 155.677 38.977 155.577 43.477V43.777C155.577 48.977 159.277 52.277 164.177 52.277C166.577 52.377 168.977 51.577 170.877 49.977L168.977 47.177C167.777 48.177 166.277 48.677 164.677 48.777C162.477 48.977 160.377 47.377 159.977 45.177H171.977V44.177C171.977 38.977 168.777 35.377 163.977 35.377ZM160.077 42.277C160.377 40.077 162.377 38.577 164.577 38.877C166.377 39.077 167.777 40.477 167.977 42.277H160.077Z" fill="white"/>
<path d="M173.177 34.977C173.277 34.877 173.277 34.777 173.277 34.677C173.277 34.377 173.077 34.177 172.577 34.177H172.177V35.677H172.477V35.077H172.577L172.877 35.677H173.277L172.877 34.977C172.977 35.077 173.077 34.977 173.177 34.977ZM172.577 34.877H172.477V34.377H172.577C172.677 34.377 172.777 34.377 172.877 34.477C172.977 34.577 172.977 34.577 172.977 34.677C172.877 34.777 172.777 34.877 172.577 34.877Z" fill="white"/>
<path d="M173.877 34.277C173.677 33.877 173.177 33.577 172.677 33.577C172.377 33.577 172.177 33.677 171.977 33.777C171.777 33.877 171.577 34.077 171.477 34.277C171.377 34.477 171.277 34.777 171.277 34.977C171.277 35.277 171.377 35.477 171.477 35.677C171.677 36.077 172.177 36.377 172.677 36.377C172.977 36.377 173.177 36.277 173.377 36.177C173.577 36.077 173.777 35.877 173.877 35.677C173.977 35.477 174.077 35.177 174.077 34.977C173.977 34.777 173.977 34.477 173.877 34.277ZM173.577 35.577C173.477 35.777 173.377 35.877 173.177 35.977C172.977 36.077 172.777 36.077 172.577 36.077C172.377 36.077 172.177 36.077 172.077 35.977C171.977 35.877 171.777 35.677 171.677 35.577C171.477 35.177 171.477 34.777 171.677 34.377C171.777 34.177 171.877 34.077 172.077 33.977C172.277 33.877 172.377 33.777 172.577 33.877C172.777 33.877 172.977 33.977 173.177 33.977C173.377 34.077 173.477 34.177 173.577 34.377C173.777 34.777 173.777 35.177 173.577 35.577Z" fill="white"/>
<path d="M62.8771 31.377C62.9771 31.677 63.2771 32.877 63.5771 33.977L65.8771 42.777C66.1771 43.877 66.477 45.077 66.577 45.377C66.677 45.877 66.5771 46.377 66.2771 46.677L64.3771 48.577L57.8771 55.077L55.9771 56.977C55.5771 57.277 55.0771 57.477 54.6771 57.277C54.3771 57.177 53.1771 56.877 52.0771 56.577L43.2771 54.277C42.1771 53.977 40.9771 53.677 40.6771 53.577C40.4771 53.477 40.1771 53.377 40.0771 53.177C39.8771 52.977 39.7771 52.777 39.6771 52.577C39.5771 52.277 39.2771 51.077 38.9771 49.977L36.6771 41.077C36.3771 39.977 36.0771 38.777 35.9771 38.477L36.2771 38.377L36.5771 38.277C36.6771 38.577 36.9771 39.777 37.2771 40.877L39.6771 49.677C39.9771 50.777 40.2771 51.977 40.3771 52.277C40.4771 52.377 40.4771 52.477 40.6771 52.577C40.7771 52.677 40.8771 52.677 40.9771 52.777L43.5771 53.477L52.3771 55.777C53.4771 56.077 54.6771 56.377 54.9771 56.477C55.1771 56.577 55.4771 56.477 55.6771 56.277L57.5771 54.377L64.077 47.877L65.9771 45.977C66.0771 45.777 66.1771 45.577 66.1771 45.277C66.0771 44.977 65.7771 43.777 65.4771 42.677L63.0771 33.977C62.7771 32.877 62.4771 31.677 62.3771 31.377C62.2771 31.277 62.2771 31.177 62.1771 31.077C62.1771 30.977 62.0771 30.977 61.8771 30.877L59.2771 30.177L50.4771 27.877C49.3771 27.577 48.1771 27.277 47.8771 27.177C47.6771 27.077 47.3771 27.177 47.1771 27.377L45.0771 29.377L38.6771 35.777L36.8771 37.777C36.7771 37.977 36.6771 38.177 36.6771 38.477L36.3771 38.577L36.0771 38.677C35.9771 38.177 36.0771 37.677 36.3771 37.377L38.2771 35.477L44.7771 28.977L46.6771 27.077C47.0771 26.777 47.5771 26.577 47.9771 26.777C48.2771 26.877 49.4771 27.177 50.5771 27.477L59.3771 29.777C60.4771 30.077 61.6771 30.377 61.9771 30.477C62.1771 30.577 62.4771 30.677 62.5771 30.877C62.6771 30.977 62.7771 31.177 62.8771 31.377Z" fill="white"/>
<path d="M51.8771 29.077C52.1771 29.177 52.9771 29.777 53.7771 30.177L60.2771 33.877C61.0771 34.377 61.9771 34.877 62.1771 34.977C62.4771 35.177 62.7771 35.577 62.7771 35.977V47.977C62.7771 48.377 62.5771 48.777 62.1771 48.977C61.8771 49.077 61.0771 49.677 60.2771 50.077L53.7771 53.777C52.9771 54.277 52.0771 54.777 51.8771 54.877C51.4771 55.077 51.0771 55.077 50.7771 54.877C50.4771 54.777 49.6771 54.177 48.8771 53.777L42.3771 50.077L40.4771 48.977L40.5771 48.677L40.6771 48.377L42.5771 49.477L49.0771 53.177L50.9771 54.277C51.0771 54.377 51.1771 54.377 51.2771 54.377C51.3771 54.377 51.4771 54.377 51.5771 54.277L53.4771 53.177L59.9771 49.477L61.8771 48.377C61.9771 48.277 62.0771 48.077 62.1771 47.877V36.077C62.1771 35.877 62.0771 35.677 61.8771 35.577C61.5771 35.477 60.7771 34.877 59.9771 34.477L53.4771 30.777C52.6771 30.277 51.7771 29.777 51.5771 29.677C51.3771 29.577 51.1771 29.577 51.0771 29.677L49.1771 30.777L42.6771 34.477C41.8771 34.977 40.9771 35.477 40.7771 35.577C40.6771 35.677 40.5771 35.877 40.4771 36.077V47.977C40.4771 48.177 40.5771 48.377 40.7771 48.477L40.6771 48.777L40.4771 48.977C40.0771 48.777 39.8771 48.377 39.7771 47.977V36.077C39.7771 35.677 39.9771 35.277 40.3771 35.077C40.6771 34.977 41.4771 34.377 42.2771 33.977L48.7771 30.277C49.5771 29.777 50.4771 29.277 50.6771 29.177C50.8771 29.077 51.0771 29.077 51.2771 29.077C51.5771 28.977 51.6771 28.977 51.8771 29.077Z" fill="white"/>
<path d="M43.5771 33.377L45.4771 32.877L51.9771 31.177C52.7771 30.977 53.6771 30.677 53.8771 30.677C54.2771 30.577 54.5771 30.677 54.8771 30.977L56.2771 32.377L60.9771 37.077L62.3771 38.477C62.5771 38.777 62.6771 39.077 62.6771 39.477C62.5771 39.777 62.3771 40.577 62.1771 41.377L60.4771 47.877C60.2771 48.677 59.9771 49.577 59.9771 49.777C59.8771 50.177 59.5771 50.377 59.2771 50.477C58.9771 50.577 58.1771 50.777 57.3771 50.977L50.8771 52.677C50.0771 52.877 49.1771 53.177 48.9771 53.177L48.7771 52.977L48.6771 52.677L50.5771 52.177L57.0771 50.477C57.8771 50.277 58.7771 49.977 58.9771 49.977C59.0771 49.977 59.0771 49.877 59.1771 49.877C59.2771 49.877 59.2771 49.777 59.2771 49.677C59.3771 49.377 59.5771 48.577 59.7771 47.777L61.4771 41.277C61.6771 40.477 61.9771 39.577 61.9771 39.377C61.9771 39.177 61.9771 39.077 61.8771 38.877L60.4771 37.477L55.6771 32.777L54.2771 31.377C54.1771 31.277 53.9771 31.177 53.7771 31.277C53.4771 31.377 52.6771 31.577 51.8771 31.777L45.3771 33.477C44.5771 33.677 43.6771 33.977 43.4771 33.977C43.3771 33.977 43.3771 34.077 43.2771 34.077C43.1771 34.177 43.1771 34.177 43.1771 34.277C43.0771 34.577 42.8771 35.377 42.6771 36.177L40.9771 42.677C40.7771 43.477 40.4771 44.377 40.4771 44.577C40.4771 44.777 40.4771 44.877 40.5771 45.077L41.9771 46.477L46.6771 51.177L48.0771 52.577C48.1771 52.677 48.3771 52.777 48.5771 52.677L48.6771 52.977L48.7771 53.277C48.3771 53.377 48.0771 53.277 47.7771 52.977L46.3771 51.577L41.6771 46.877L40.2771 45.477C40.0771 45.177 39.9771 44.877 39.9771 44.477C40.0771 44.177 40.2771 43.377 40.4771 42.577L42.1771 36.077C42.3771 35.277 42.6771 34.377 42.6771 34.177C42.6771 33.977 42.7771 33.877 42.9771 33.677C43.2771 33.577 43.3771 33.477 43.5771 33.377Z" fill="white"/>
<path d="M41.8771 51.477C36.6771 46.277 36.6771 37.777 41.8771 32.477C47.0771 27.177 55.577 27.277 60.8771 32.477C66.077 37.677 66.077 46.177 60.8771 51.377C55.577 56.677 47.0771 56.677 41.8771 51.477ZM60.3771 51.077C65.2771 46.077 65.2771 37.977 60.2771 33.077C55.2771 28.177 47.1771 28.177 42.2771 33.177C37.3771 38.177 37.3771 46.177 42.3771 51.177C47.2771 56.077 55.3771 55.977 60.3771 51.077Z" fill="white"/>
<path d="M51.777 32.377L53.177 33.177L57.977 35.977L59.377 36.777C59.677 36.977 59.777 37.177 59.777 37.477V46.277C59.777 46.577 59.577 46.877 59.377 46.977C59.177 47.077 58.577 47.477 57.977 47.777L53.177 50.577C52.577 50.877 51.877 51.277 51.777 51.377C51.477 51.477 51.177 51.477 50.877 51.377L49.477 50.577L44.677 47.777L43.277 46.977L43.377 46.777L43.477 46.577L44.877 47.377L49.677 50.177C50.277 50.477 50.977 50.877 51.077 50.977C51.177 51.077 51.377 51.077 51.477 50.977C51.677 50.877 52.277 50.477 52.877 50.177L57.677 47.377L59.077 46.577C59.177 46.477 59.277 46.377 59.277 46.177V37.377C59.277 37.177 59.177 37.077 59.077 36.977C58.877 36.877 58.277 36.477 57.677 36.177L52.877 33.377C52.277 33.077 51.577 32.677 51.477 32.577C51.377 32.477 51.177 32.477 51.077 32.577C50.877 32.677 50.277 33.077 49.677 33.377L44.877 36.177L43.477 36.977C43.377 37.077 43.277 37.177 43.277 37.377V46.177C43.277 46.377 43.377 46.477 43.477 46.577L43.377 46.777L43.277 46.977C43.077 46.977 42.877 46.677 42.877 46.377V37.577C42.877 37.277 43.077 36.977 43.277 36.877C43.477 36.777 44.077 36.377 44.677 36.077L49.477 33.277L50.877 32.477C50.977 32.377 51.177 32.377 51.277 32.377C51.477 32.277 51.577 32.277 51.777 32.377Z" fill="white"/>
<path d="M44.2771 48.877C40.3771 44.977 40.3771 38.677 44.2771 34.877C48.1771 31.077 54.477 30.977 58.2771 34.877C62.177 38.777 62.177 45.077 58.2771 48.877C54.477 52.777 48.1771 52.777 44.2771 48.877ZM57.977 48.577C61.677 44.877 61.577 38.877 57.877 35.177C54.177 31.477 48.177 31.577 44.477 35.277C40.877 38.977 40.877 44.877 44.477 48.577C48.277 52.277 54.177 52.277 57.977 48.577Z" fill="white"/>
</svg>
