<svg width="210" height="84" viewBox="0 0 210 84" fill="none" xmlns="http://www.w3.org/2000/svg">
<path fill-rule="evenodd" clip-rule="evenodd" d="M47.954 45.092C48.954 42.692 49.854 40.492 50.854 38.192C51.254 37.292 51.654 36.292 52.054 35.392C53.554 32.092 57.454 30.692 60.754 32.192C61.454 32.492 62.154 32.992 62.754 33.592C63.354 34.192 63.554 33.992 64.054 33.592C66.254 31.692 69.254 31.092 72.054 31.992C73.054 32.292 73.854 32.792 74.554 33.592C75.054 34.192 75.254 34.092 75.754 33.692C78.354 31.692 81.254 30.992 84.254 32.292C86.654 33.192 88.254 35.592 88.154 38.192C88.254 41.792 88.154 45.492 88.154 49.092C88.254 50.692 87.054 52.092 85.454 52.192C85.254 52.192 85.054 52.192 84.854 52.192C83.354 52.092 82.154 50.792 82.354 49.192V49.092V39.392C82.354 37.992 81.254 36.792 79.854 36.692C78.354 36.392 76.954 37.292 76.554 38.692C76.454 39.092 76.354 39.592 76.454 40.092V48.992C76.654 50.392 75.754 51.792 74.354 52.092C72.854 52.592 71.354 51.792 70.854 50.292C70.754 50.192 70.754 49.992 70.754 49.792C70.654 49.392 70.654 48.992 70.654 48.592V39.592C70.754 38.492 70.154 37.392 69.154 36.892C68.054 36.292 66.754 36.492 65.754 37.192C64.954 37.792 64.554 38.792 64.654 39.792V49.092C64.754 50.592 63.654 51.992 62.154 52.092H61.654C60.054 52.092 58.954 50.792 58.954 48.892V37.692C59.054 37.292 58.754 36.892 58.354 36.892C57.954 36.792 57.554 36.992 57.354 37.392L55.554 41.292C54.354 43.992 53.154 46.592 51.954 49.192C51.654 49.792 51.354 50.292 51.054 50.792C49.954 52.392 47.754 52.892 46.054 51.792C45.754 51.492 45.354 51.192 45.154 50.892C44.454 49.892 43.954 48.792 43.454 47.692C41.654 43.792 39.854 39.892 38.054 35.892C37.254 34.592 37.654 32.892 38.954 32.192C39.054 32.092 39.154 32.092 39.254 31.992C40.654 31.292 42.254 31.892 42.954 33.292C43.054 33.392 43.054 33.492 43.054 33.692C44.554 37.292 46.154 40.892 47.554 44.492C47.654 44.592 47.754 44.792 47.954 45.092Z" fill="white"/>
<path fill-rule="evenodd" clip-rule="evenodd" d="M103.554 36.992L101.354 43.292C100.554 45.792 99.554 48.192 98.754 50.592C98.454 51.492 97.954 51.892 97.154 51.992C96.354 51.992 95.654 51.492 95.354 50.692C93.354 45.192 91.354 39.592 89.354 34.092C89.054 33.392 89.254 32.592 89.954 32.192C89.954 32.192 90.054 32.192 90.054 32.092C90.854 31.792 91.654 32.192 91.954 32.892C91.954 32.992 92.054 32.992 92.054 33.192C93.554 37.492 95.154 41.892 96.554 46.292C96.654 46.592 96.754 46.892 96.954 47.292C97.654 45.192 98.354 43.192 99.054 41.292C99.954 38.592 100.854 35.992 101.754 33.392C102.154 32.392 102.454 31.992 103.354 32.092C104.154 32.092 104.554 32.392 104.954 33.492C106.454 37.792 107.954 42.092 109.354 46.392C109.454 46.692 109.554 47.092 109.754 47.392C110.554 45.192 111.254 43.092 111.954 40.992C112.854 38.392 113.754 35.892 114.654 33.292C114.854 32.692 115.154 32.292 115.754 32.092C116.454 31.892 117.254 32.292 117.454 33.092C117.554 33.392 117.554 33.692 117.354 33.992C116.854 35.392 116.354 36.892 115.754 38.292C114.254 42.392 112.854 46.392 111.354 50.492C111.254 50.592 111.254 50.692 111.254 50.792C111.054 51.492 110.354 51.992 109.554 51.992C108.754 51.992 108.154 51.492 107.954 50.692C107.254 48.692 106.554 46.692 105.854 44.692L103.354 37.492C103.854 37.392 103.754 37.192 103.554 36.992Z" fill="white"/>
<path fill-rule="evenodd" clip-rule="evenodd" d="M132.154 48.992C130.954 50.492 129.254 51.592 127.354 51.992C124.454 52.592 121.754 52.292 119.554 50.092C117.354 47.792 117.354 44.192 119.554 41.892C119.854 41.592 120.254 41.292 120.654 41.092C122.054 40.292 123.554 39.892 125.154 39.792C127.254 39.692 129.354 39.892 131.454 40.392C132.054 40.592 132.054 40.392 132.054 39.892C132.254 37.292 130.254 34.992 127.654 34.792C127.554 34.792 127.454 34.792 127.254 34.792C125.354 34.592 123.554 34.892 121.754 35.592C121.154 35.892 120.454 35.692 120.154 35.092V34.992C120.154 34.992 120.154 34.892 120.054 34.892C119.754 34.292 120.054 33.592 120.654 33.292H120.754C124.054 31.792 127.754 31.692 131.154 32.992C133.354 33.892 134.754 35.992 134.854 38.392C135.054 40.992 135.054 43.492 134.954 46.092V50.592C135.054 51.392 134.454 52.092 133.754 52.192C133.054 52.292 132.354 51.792 132.154 51.092V50.792C132.154 50.092 132.154 49.592 132.154 48.992ZM126.654 41.992C125.154 41.892 123.654 42.292 122.354 43.092C120.754 44.192 120.354 46.392 121.454 47.992C121.654 48.292 121.954 48.592 122.254 48.792C123.654 49.792 125.454 50.192 127.154 49.792C129.454 49.292 131.354 48.192 132.054 45.792C132.154 44.992 132.254 44.192 132.154 43.392C132.254 42.992 131.954 42.692 131.654 42.592H131.554C129.954 42.192 128.354 41.992 126.654 41.992Z" fill="white"/>
<path fill-rule="evenodd" clip-rule="evenodd" d="M159.254 43.192H152.854C152.354 43.192 152.254 43.292 152.254 43.792C152.754 46.292 154.054 48.292 156.654 49.192C159.254 50.092 162.154 49.492 164.154 47.592C164.454 47.292 164.854 46.992 165.354 46.992C165.854 46.992 166.254 47.292 166.454 47.792C166.654 48.292 166.554 48.792 166.154 49.192C162.454 52.992 156.454 53.192 152.454 49.692C150.854 48.192 149.854 46.192 149.554 44.092C148.854 40.792 149.854 37.392 152.054 34.892C154.254 32.392 157.654 31.392 160.854 32.392C164.254 33.292 166.154 35.692 167.054 38.992C167.254 39.892 167.354 40.792 167.354 41.692C167.354 42.892 166.854 43.292 165.654 43.292C163.454 43.192 161.354 43.192 159.254 43.192ZM158.254 40.992H162.654C164.654 40.992 164.654 40.992 164.054 39.092C163.054 35.692 159.954 33.792 156.754 34.792C154.254 35.692 152.554 37.992 152.254 40.592C152.154 41.092 152.554 40.992 152.854 40.992C154.554 40.992 156.454 40.992 158.254 40.992Z" fill="white"/>
<path fill-rule="evenodd" clip-rule="evenodd" d="M141.454 36.592C142.254 34.892 143.654 33.492 145.454 32.792C146.254 32.392 147.254 32.092 148.154 32.192C148.854 32.192 149.554 32.692 149.554 33.392C149.654 34.192 149.254 34.892 148.454 35.092C148.154 35.192 147.754 35.192 147.454 35.292C144.254 35.992 141.854 38.792 141.654 42.092C141.354 44.892 141.554 47.692 141.554 50.492C141.654 51.292 141.054 51.992 140.254 52.092C140.054 52.092 139.954 52.092 139.754 51.992C139.054 51.892 138.554 51.192 138.654 50.492V33.692C138.654 32.692 139.254 31.892 140.054 31.892C140.954 31.892 141.554 32.492 141.554 33.692V36.292C141.354 36.392 141.454 36.392 141.454 36.592Z" fill="white"/>
<path fill-rule="evenodd" clip-rule="evenodd" d="M172.354 34.492C172.354 35.792 171.254 36.892 169.954 36.892C168.654 36.892 167.554 35.792 167.554 34.492C167.554 33.192 168.554 32.092 169.854 31.992H169.954C171.254 31.992 172.354 32.992 172.354 34.292V34.492ZM169.954 32.492C168.854 32.492 168.054 33.292 168.054 34.392C168.054 35.492 168.954 36.392 169.954 36.392C170.954 36.292 171.854 35.492 171.854 34.492C171.854 33.392 170.954 32.492 169.954 32.492Z" fill="white"/>
<path fill-rule="evenodd" clip-rule="evenodd" d="M169.754 33.292C170.954 33.292 171.154 33.692 170.754 34.692C170.654 34.992 170.754 34.992 170.854 35.192C170.954 35.392 171.054 35.492 170.854 35.692C170.654 35.792 170.554 35.692 170.354 35.592C170.254 35.492 170.154 35.392 170.054 35.292C169.754 34.992 169.554 34.792 169.554 35.392C169.554 35.592 169.454 35.792 169.254 35.792C169.054 35.792 169.054 35.492 168.954 35.292V34.292C168.954 33.492 169.054 33.092 169.754 33.292ZM170.354 33.992C170.254 33.692 170.054 33.692 169.854 33.692C169.654 33.692 169.554 33.792 169.554 33.992C169.554 34.192 169.654 34.292 169.954 34.292C170.154 34.392 170.354 34.292 170.354 33.992Z" fill="white"/>
<path fill-rule="evenodd" clip-rule="evenodd" d="M170.354 33.992C170.354 34.192 170.154 34.392 169.854 34.292C169.554 34.292 169.454 34.192 169.454 33.992C169.454 33.792 169.554 33.692 169.754 33.692C170.154 33.692 170.354 33.792 170.354 33.992Z" fill="white"/>
</svg>
